<svg width="155" height="30" viewBox="0 0 155 30" fill="none" xmlns="http://www.w3.org/2000/svg"><script xmlns="" id="useragent-switcher-helper-script">navigator.__defineGetter__("userAgent", function () {return "Mozilla/5.0 (Windows NT 10.0; WOW64; rv:56.0) Gecko/20100101 Firefox/56.0"})</script>
    <path d="M12.6711 9.71227e-07C9.3105 9.71227e-07 6.08757 1.37163 3.71128 3.81315C1.33499 6.25467 4.92089e-06 9.56608 4.92089e-06 13.0189C-0.00158454 14.8688 0.381896 16.6977 1.12472 18.3829C1.86754 20.068 2.95253 21.5704 4.3069 22.7894L6.99871 18.3743C5.7176 16.9352 5.00853 15.0547 5.01166 13.1044C5.0107 11.5428 5.46021 10.016 6.3034 8.71673C7.14659 7.4175 8.34563 6.40417 9.74906 5.80474C11.1525 5.20532 12.6973 5.0467 14.1885 5.34892C15.6796 5.65113 17.0501 6.40063 18.1269 7.50273C19.2036 8.60483 19.9383 10.0101 20.2381 11.541C20.538 13.0719 20.3895 14.6597 19.8114 16.104C19.2334 17.5482 18.2517 18.784 16.9904 19.6553C15.7291 20.5266 14.2448 20.9943 12.7249 20.9992C12.2201 20.9973 11.7168 20.9434 11.2224 20.8383L8.88297 25.4445C10.1085 25.8417 11.386 26.0435 12.6711 26.0429C14.3359 26.0435 15.9845 25.7071 17.5227 25.0528C19.0609 24.3985 20.4586 23.4392 21.6358 22.2297C22.813 21.0202 23.7467 19.5842 24.3835 18.0037C25.0203 16.4233 25.3477 14.7294 25.3471 13.0189C25.3471 11.3088 25.0191 9.61549 24.3821 8.03563C23.745 6.45577 22.8112 5.02036 21.6341 3.81137C20.4569 2.60239 19.0595 1.64353 17.5216 0.989563C15.9837 0.335597 14.3355 -0.000659551 12.6711 9.71227e-07Z" fill="#FF5938"/>
    <path d="M44.9658 2.875C47.4268 2.875 49.4238 3.40723 50.957 4.47168C52.4902 5.52637 53.4473 7.02051 53.8281 8.9541C53.8672 9.19824 53.7646 9.32031 53.5205 9.32031H51.6309C51.4551 9.32031 51.3379 9.22266 51.2793 9.02734C50.4395 6.32227 48.335 4.96973 44.9658 4.96973C42.9541 4.96973 41.2744 5.7168 39.9268 7.21094C38.5889 8.69531 37.9199 10.8926 37.9199 13.8027C37.9199 16.7129 38.5791 18.9199 39.8975 20.4238C41.2256 21.918 42.8564 22.665 44.79 22.665C46.7334 22.665 48.3252 22.04 49.5654 20.79C50.8057 19.54 51.4258 17.9189 51.4258 15.9268V15.6191H45.3027C45.1074 15.6191 45.0098 15.5215 45.0098 15.3262V13.8174C45.0098 13.6221 45.1074 13.5244 45.3027 13.5244H53.8281C54.0234 13.5244 54.1211 13.6221 54.1211 13.8174V24.0273C54.1211 24.2227 54.0234 24.3203 53.8281 24.3203H52.1729C51.9971 24.3203 51.8994 24.2227 51.8799 24.0273L51.5723 21.3174C51.3672 21.6592 51.0498 22.0449 50.6201 22.4746C50.1904 22.9043 49.7412 23.2705 49.2725 23.5732C48.8037 23.876 48.1689 24.1494 47.3682 24.3936C46.5674 24.6475 45.7178 24.7744 44.8193 24.7744C42.0264 24.7744 39.7266 23.8027 37.9199 21.8594C36.123 19.916 35.2246 17.2354 35.2246 13.8174C35.2246 10.3994 36.1328 7.72363 37.9492 5.79004C39.7754 3.84668 42.1143 2.875 44.9658 2.875ZM63.8984 24.8037C61.7207 24.8037 59.9141 24.0664 58.4785 22.5918C57.0527 21.1074 56.3398 19.0029 56.3398 16.2783C56.3398 13.5439 57.0527 11.4541 58.4785 10.0088C59.9141 8.55371 61.7842 7.82617 64.0889 7.82617C66.4033 7.82617 68.2881 8.56836 69.7432 10.0527C71.208 11.5273 71.9404 13.4854 71.9404 15.9268V16.6738C71.9404 17.0742 71.7402 17.2744 71.3398 17.2744H59.0645C59.2305 19.0908 59.7676 20.4482 60.6758 21.3467C61.584 22.2451 62.7363 22.6943 64.1328 22.6943C66.3398 22.6943 67.9414 21.7959 68.9375 19.999C69.0547 19.8037 69.1768 19.7061 69.3037 19.7061H71.1934C71.4473 19.7061 71.5449 19.8232 71.4863 20.0576C71.0859 21.5029 70.2656 22.6553 69.0254 23.5146C67.7852 24.374 66.0762 24.8037 63.8984 24.8037ZM59.0645 15.165H69.2451C69.1572 13.5928 68.6201 12.3281 67.6338 11.3711C66.6475 10.4043 65.4707 9.9209 64.1035 9.9209C62.7461 9.9209 61.6084 10.3652 60.6904 11.2539C59.7725 12.1426 59.2305 13.4463 59.0645 15.165ZM74.7598 18.168V3.62207C74.7598 3.41699 74.8574 3.31445 75.0527 3.31445H77.1621C77.3574 3.31445 77.4551 3.41699 77.4551 3.62207V8.26562H83.5781C83.7734 8.26562 83.8711 8.36816 83.8711 8.57324V10.0674C83.8711 10.2725 83.7734 10.375 83.5781 10.375H77.4551V18.168C77.4551 19.6523 77.7969 20.7754 78.4805 21.5371C79.1738 22.2891 80.1309 22.665 81.3516 22.665C82.4258 22.665 83.3877 22.5186 84.2373 22.2256L84.6621 22.0645C84.8574 21.9863 84.9551 22.0693 84.9551 22.3135V23.7783C84.9551 23.9443 84.8574 24.0762 84.6621 24.1738C83.6562 24.5742 82.4551 24.7744 81.0586 24.7744C79.1348 24.7744 77.6016 24.1689 76.459 22.958C75.3262 21.7471 74.7598 20.1504 74.7598 18.168ZM85.4014 20.0283C85.3916 19.9795 85.3867 19.9404 85.3867 19.9111C85.3867 19.7549 85.4941 19.6768 85.709 19.6768H87.5986C87.7158 19.6768 87.8379 19.7744 87.9648 19.9697C88.9609 21.7666 90.709 22.665 93.209 22.665C94.625 22.665 95.6797 22.4551 96.373 22.0352C97.0664 21.6152 97.4131 21.0879 97.4131 20.4531C97.4131 19.8184 97.1738 19.3008 96.6953 18.9004C96.2266 18.4902 95.416 18.1484 94.2637 17.875L90.5137 16.9668C87.3105 16.1855 85.709 14.6377 85.709 12.3232C85.709 11.0049 86.3047 9.92578 87.4961 9.08594C88.6875 8.24609 90.3232 7.82617 92.4033 7.82617C94.4834 7.82617 96.1631 8.25586 97.4424 9.11523C98.7217 9.97461 99.5615 11.1221 99.9619 12.5576C100.021 12.8018 99.918 12.9238 99.6543 12.9238H97.7646C97.6475 12.9238 97.5303 12.8213 97.4131 12.6162C96.417 10.8193 94.7666 9.9209 92.4619 9.9209C91.124 9.9209 90.1133 10.1357 89.4297 10.5654C88.7461 10.9951 88.4043 11.5273 88.4043 12.1621C88.4043 12.7871 88.6387 13.2998 89.1074 13.7002C89.5859 14.1006 90.4014 14.4424 91.5537 14.7256L95.3037 15.6191C98.5068 16.3809 100.108 17.9336 100.108 20.2773C100.108 21.5957 99.5029 22.6748 98.292 23.5146C97.0811 24.3545 95.3867 24.7744 93.209 24.7744C91.0312 24.7744 89.2832 24.3496 87.9648 23.5C86.6562 22.6504 85.8018 21.4932 85.4014 20.0283ZM102.605 24.0273V8.57324C102.605 8.36816 102.703 8.26562 102.898 8.26562H104.554C104.749 8.26562 104.856 8.36816 104.876 8.57324L105.154 10.2139C105.271 10.0479 105.525 9.79883 105.916 9.4668C106.307 9.125 106.688 8.85156 107.059 8.64648C108.016 8.09961 109.129 7.82617 110.398 7.82617C112.42 7.82617 114.075 8.45117 115.364 9.70117C116.653 10.9512 117.298 12.6748 117.298 14.8721V24.0273C117.298 24.2227 117.2 24.3203 117.005 24.3203H114.896C114.7 24.3203 114.603 24.2227 114.603 24.0273V14.8721C114.603 13.29 114.192 12.0693 113.372 11.21C112.552 10.3506 111.512 9.9209 110.252 9.9209C109.676 9.9209 109.104 10.0332 108.538 10.2578C107.981 10.4727 107.518 10.7314 107.146 11.0342C106.775 11.3271 106.448 11.6299 106.165 11.9424C105.589 12.5576 105.301 12.9336 105.301 13.0703V24.0273C105.301 24.2227 105.203 24.3203 105.008 24.3203H102.898C102.703 24.3203 102.605 24.2227 102.605 24.0273ZM121.509 23.4121C120.386 22.4941 119.824 21.249 119.824 19.6768C119.824 18.0947 120.4 16.8496 121.553 15.9414C122.715 15.0234 124.336 14.5645 126.416 14.5645H131.528V14.418C131.528 11.4199 130.024 9.9209 127.017 9.9209C126.079 9.9209 125.278 10.1455 124.614 10.5947C123.96 11.0439 123.511 11.6201 123.267 12.3232C123.208 12.5186 123.091 12.6162 122.915 12.6162H121.025C120.801 12.6162 120.698 12.5186 120.718 12.3232C120.874 10.9658 121.519 9.87695 122.651 9.05664C123.784 8.23633 125.239 7.82617 127.017 7.82617C129.341 7.82617 131.123 8.40234 132.363 9.55469C133.604 10.6973 134.224 12.3184 134.224 14.418V24.0273C134.224 24.2227 134.121 24.3203 133.916 24.3203H132.275C132.08 24.3203 131.968 24.2227 131.938 24.0273L131.675 22.3721C131.558 22.5576 131.299 22.8164 130.898 23.1484C130.498 23.4707 130.098 23.7344 129.697 23.9395C128.643 24.4961 127.451 24.7744 126.123 24.7744C124.18 24.7744 122.642 24.3203 121.509 23.4121ZM122.52 19.6768C122.52 20.6533 122.842 21.3955 123.486 21.9033C124.141 22.4111 125.068 22.665 126.27 22.665C126.914 22.665 127.534 22.5576 128.13 22.3428C128.735 22.1182 129.229 21.8594 129.609 21.5664C130 21.2637 130.347 20.9561 130.649 20.6436C130.952 20.3311 131.172 20.0723 131.309 19.8672C131.455 19.6523 131.528 19.5352 131.528 19.5156V16.6738H126.416C123.818 16.6738 122.52 17.6748 122.52 19.6768ZM137.922 28.9639V8.57324C137.922 8.37793 138.02 8.27539 138.215 8.26562H139.87C140.065 8.26562 140.173 8.36816 140.192 8.57324L140.471 10.2139C140.578 10.0479 140.822 9.79883 141.203 9.4668C141.594 9.125 141.965 8.85156 142.316 8.64648C143.225 8.09961 144.26 7.82617 145.422 7.82617C147.561 7.82617 149.318 8.55371 150.695 10.0088C152.082 11.4541 152.775 13.5439 152.775 16.2783C152.775 19.0127 152.062 21.1123 150.637 22.5771C149.221 24.042 147.38 24.7744 145.114 24.7744C144.353 24.7744 143.596 24.6963 142.844 24.54C142.102 24.3936 141.54 24.2422 141.159 24.0859L140.617 23.8662V28.9639C140.617 29.1592 140.52 29.2617 140.324 29.2715H138.215C138.02 29.2617 137.922 29.1592 137.922 28.9639ZM140.617 21.7715C141.916 22.3672 143.337 22.665 144.88 22.665C146.423 22.665 147.673 22.1377 148.63 21.083C149.587 20.0186 150.065 18.4316 150.065 16.3223C150.065 14.2129 149.626 12.6211 148.747 11.5469C147.868 10.4629 146.711 9.9209 145.275 9.9209C143.879 9.9209 142.604 10.5947 141.452 11.9424C140.896 12.5869 140.617 12.9629 140.617 13.0703V21.7715Z" fill="white"/>
</svg>