<?xml version="1.0" encoding="UTF-8" ?>
<!DOCTYPE svg PUBLIC "-//W3C//DTD SVG 1.1//EN" "http://www.w3.org/Graphics/SVG/1.1/DTD/svg11.dtd">
<svg width="1456pt" height="816pt" viewBox="0 0 1456 816" version="1.1" xmlns="http://www.w3.org/2000/svg">
<g id="#9492926b">
<path fill="#949292" opacity="0.42" d=" M 1290.46 105.44 C 1297.52 100.39 1304.11 94.70 1311.31 89.83 C 1308.19 93.88 1303.58 96.43 1299.78 99.80 C 1277.95 116.71 1256.23 133.76 1234.92 151.32 C 1233.91 152.27 1232.44 153.05 1232.43 154.64 L 1231.12 154.10 L 1231.89 156.08 L 1230.33 155.50 C 1227.13 159.40 1222.43 161.57 1218.55 164.68 C 1205.84 173.48 1193.71 183.06 1181.46 192.46 C 1149.44 217.30 1116.56 241.02 1083.45 264.36 C 1065.11 277.36 1046.89 290.54 1028.44 303.39 C 1022.74 307.32 1017.25 311.55 1011.46 315.34 C 1001.53 322.47 991.39 329.30 981.43 336.38 C 975.75 340.35 970.25 344.58 964.45 348.37 C 956.56 353.91 948.79 359.64 940.65 364.80 C 937.22 367.10 933.44 369.01 930.59 372.08 C 935.54 370.14 940.82 371.56 945.89 370.98 C 955.87 366.01 964.77 359.14 974.14 353.13 C 1009.37 330.11 1044.44 306.85 1079.54 283.63 C 1081.48 282.22 1083.47 280.89 1085.51 279.62 C 1093.52 274.28 1101.59 269.03 1109.56 263.64 C 1144.37 240.54 1178.79 216.87 1213.00 192.90 C 1236.53 176.41 1260.28 160.21 1283.52 143.32 C 1283.25 144.32 1282.97 145.33 1282.70 146.33 C 1280.05 147.30 1277.93 149.21 1275.66 150.80 C 1240.77 175.66 1205.73 200.31 1170.57 224.79 C 1133.87 250.16 1096.82 275.01 1059.46 299.38 C 1051.53 304.84 1043.50 310.13 1035.42 315.35 C 1022.87 323.86 1010.12 332.07 997.45 340.38 C 982.53 350.29 967.55 360.10 952.59 369.93 C 959.41 369.97 966.26 370.18 973.07 369.81 C 978.15 368.08 982.58 364.94 987.12 362.15 C 1029.01 336.87 1070.84 311.50 1113.35 287.28 C 1158.17 261.23 1203.01 235.17 1246.89 207.57 C 1247.45 207.99 1248.02 208.43 1248.60 208.87 C 1233.52 217.53 1219.00 227.20 1204.04 236.08 C 1190.59 244.30 1177.06 252.39 1163.47 260.37 C 1144.08 272.17 1124.28 283.28 1104.70 294.77 C 1100.70 297.11 1096.67 299.40 1092.70 301.78 C 1077.58 310.56 1062.51 319.43 1047.51 328.41 C 1040.82 332.37 1034.23 336.50 1027.49 340.37 C 1016.21 347.16 1005.00 354.08 993.67 360.76 C 989.89 363.36 984.69 364.75 982.40 368.84 C 992.63 368.64 1002.86 368.49 1013.08 368.06 C 1016.00 367.27 1018.64 365.65 1021.34 364.28 C 1034.67 356.63 1048.10 349.14 1061.52 341.64 C 1071.35 335.66 1081.58 330.39 1091.57 324.68 C 1110.84 313.75 1129.68 302.07 1148.70 290.72 C 1156.94 285.28 1165.34 280.06 1173.43 274.37 C 1182.35 267.61 1191.58 261.28 1200.27 254.21 C 1207.26 249.31 1213.54 243.50 1220.54 238.63 C 1236.82 226.47 1252.96 214.10 1269.88 202.83 C 1286.46 190.66 1303.09 178.54 1320.40 167.42 C 1335.39 157.19 1350.84 147.68 1366.20 138.02 C 1365.21 140.04 1363.08 141.00 1361.32 142.20 C 1346.06 152.22 1330.99 162.51 1315.90 172.78 C 1298.63 185.13 1280.91 196.90 1264.44 210.31 C 1246.06 224.26 1228.06 238.69 1209.94 252.97 C 1206.45 255.74 1202.43 257.83 1199.23 260.95 C 1198.64 260.93 1197.47 260.88 1196.88 260.85 C 1198.45 257.88 1201.49 256.24 1204.40 254.82 C 1203.93 254.48 1203.46 254.14 1203.02 253.81 C 1199.34 256.84 1195.43 259.61 1192.09 263.01 C 1182.90 268.98 1174.74 276.43 1165.44 282.24 C 1150.07 292.94 1133.72 302.08 1117.68 311.71 C 1099.04 323.28 1079.57 333.48 1060.65 344.58 C 1048.84 351.10 1037.22 357.95 1025.41 364.44 C 1019.24 368.51 1012.38 371.34 1005.99 375.01 C 960.48 398.80 915.95 424.47 872.07 451.12 C 872.45 452.42 874.65 454.57 871.22 454.37 L 871.25 455.29 C 873.52 454.36 875.72 453.12 878.19 452.76 C 883.36 451.94 888.39 450.34 893.11 448.09 C 908.71 440.65 924.20 432.98 939.61 425.18 C 940.14 425.32 940.68 425.46 941.24 425.60 C 941.43 424.94 941.54 424.13 942.31 423.88 C 952.08 419.19 961.77 414.31 971.54 409.60 C 984.56 402.77 997.31 395.42 1010.04 388.07 C 1018.83 382.79 1027.91 377.97 1036.34 372.12 C 1045.25 366.61 1053.63 360.29 1062.55 354.79 C 1079.96 344.00 1095.95 331.13 1113.01 319.81 C 1119.96 314.76 1126.93 309.70 1134.37 305.36 C 1145.24 298.63 1155.54 291.01 1166.37 284.21 C 1170.32 281.61 1173.98 278.62 1177.63 275.61 C 1182.43 271.40 1188.37 268.38 1192.09 263.01 C 1193.68 262.30 1195.19 261.40 1196.88 260.85 C 1197.09 261.04 1197.51 261.42 1197.73 261.62 C 1196.49 262.49 1195.27 263.37 1194.07 264.26 L 1194.14 264.90 C 1198.57 261.72 1203.26 258.92 1208.11 256.43 C 1209.62 255.78 1210.56 254.42 1211.71 253.30 C 1211.87 253.46 1212.19 253.78 1212.35 253.94 C 1215.97 251.33 1219.78 249.02 1223.51 246.58 C 1257.74 224.95 1292.16 203.61 1327.03 183.03 C 1357.21 165.53 1387.86 148.78 1418.94 132.96 C 1421.85 129.30 1426.81 128.98 1430.79 127.11 C 1424.80 130.22 1418.96 133.64 1412.81 136.48 C 1376.57 156.01 1340.70 176.22 1305.60 197.73 C 1286.77 209.08 1268.24 220.92 1249.48 232.38 C 1244.76 235.32 1240.10 238.33 1235.46 241.38 C 1232.81 243.08 1230.11 244.71 1227.47 246.41 C 1223.78 248.70 1220.16 251.11 1216.46 253.37 C 1209.45 258.04 1202.38 262.60 1195.46 267.39 C 1194.44 268.05 1193.43 268.71 1192.43 269.36 C 1181.93 276.92 1171.05 283.94 1160.46 291.35 C 1151.58 297.47 1142.79 303.72 1133.93 309.88 C 1124.79 317.26 1115.20 324.05 1105.47 330.62 C 1106.42 331.11 1107.42 331.62 1108.43 332.09 C 1110.09 330.89 1111.77 329.68 1113.56 328.65 C 1115.25 327.70 1116.87 326.64 1118.51 325.59 C 1119.50 324.92 1120.52 324.28 1121.55 323.64 C 1135.06 315.07 1148.82 306.91 1162.50 298.61 C 1164.12 297.54 1165.78 296.55 1167.48 295.60 C 1169.12 294.57 1170.80 293.59 1172.49 292.63 C 1174.13 291.54 1175.85 290.58 1177.61 289.68 C 1179.90 288.31 1182.19 286.95 1184.52 285.63 C 1191.69 281.00 1199.25 277.04 1206.54 272.61 C 1208.80 271.17 1211.17 269.90 1213.51 268.58 C 1217.46 266.18 1221.49 263.90 1225.51 261.63 C 1235.98 255.27 1246.74 249.39 1257.35 243.27 C 1262.66 240.14 1268.12 237.28 1273.49 234.26 C 1274.49 236.22 1272.01 237.03 1270.75 237.87 C 1257.25 245.26 1244.03 253.13 1230.68 260.77 C 1228.61 261.99 1226.56 263.22 1224.49 264.41 C 1222.60 265.60 1220.66 266.70 1218.74 267.82 C 1214.96 269.96 1211.29 272.29 1207.48 274.36 C 1205.84 275.44 1204.15 276.43 1202.46 277.39 C 1192.76 282.98 1183.32 289.05 1173.45 294.34 C 1167.24 298.22 1160.91 301.91 1154.70 305.79 C 1146.31 311.02 1137.78 316.03 1129.47 321.37 C 1121.47 326.36 1113.40 331.25 1105.49 336.38 C 1102.45 337.99 1099.52 339.78 1096.50 341.39 C 1095.49 342.06 1094.50 342.75 1093.52 343.43 C 1089.36 346.40 1084.89 348.90 1080.71 351.83 C 1079.69 352.41 1078.68 353.01 1077.70 353.61 C 1075.92 354.53 1074.17 355.49 1072.42 356.42 L 1072.00 355.47 C 1075.86 353.43 1078.88 350.21 1082.35 347.61 C 1083.38 346.78 1084.59 346.05 1085.25 344.83 C 1077.93 349.57 1071.30 355.37 1063.49 359.38 C 1054.32 365.34 1044.59 370.35 1035.45 376.34 C 1026.89 382.25 1017.34 386.85 1009.71 394.02 C 1016.57 391.06 1022.99 387.21 1029.51 383.59 C 1033.07 381.41 1036.68 379.30 1040.32 377.24 C 1049.91 371.34 1059.57 365.52 1068.87 359.14 C 1071.68 356.88 1075.70 356.92 1078.23 354.21 C 1082.04 352.07 1085.69 349.66 1089.58 347.66 C 1092.50 345.91 1095.48 344.24 1098.51 342.65 C 1103.39 339.77 1108.36 337.03 1113.31 334.27 C 1117.73 331.75 1122.14 329.19 1126.54 326.63 C 1137.10 320.43 1147.70 314.30 1158.35 308.25 C 1160.37 306.99 1162.41 305.77 1164.51 304.62 C 1169.06 301.75 1173.84 299.27 1178.52 296.61 C 1185.75 292.43 1193.06 288.38 1200.32 284.23 C 1221.28 272.48 1242.26 260.77 1263.35 249.24 C 1299.24 229.32 1335.95 210.86 1372.97 193.11 C 1377.83 191.18 1382.32 188.02 1387.51 187.12 C 1381.55 190.92 1374.80 193.27 1368.60 196.67 C 1357.90 201.94 1347.24 207.28 1336.64 212.74 C 1311.76 225.31 1287.08 238.28 1262.69 251.78 C 1239.35 265.11 1215.72 277.93 1192.47 291.42 C 1179.50 298.81 1166.64 306.39 1153.65 313.73 C 1136.50 324.02 1118.96 333.65 1101.73 343.82 C 1099.40 345.13 1097.06 346.43 1094.72 347.73 C 1091.00 349.97 1087.39 352.40 1083.50 354.34 C 1077.58 358.15 1071.67 361.98 1065.51 365.36 C 1064.47 366.04 1063.44 366.71 1062.43 367.38 C 1055.50 371.49 1048.62 375.67 1041.69 379.76 C 1034.55 383.86 1027.85 388.72 1020.43 392.33 C 1018.85 393.13 1017.27 393.92 1015.71 394.73 C 1010.76 397.15 1005.66 399.25 1000.79 401.83 C 993.96 405.24 987.37 409.06 980.69 412.73 C 966.66 420.80 953.04 429.56 939.47 438.36 C 934.40 442.03 928.45 444.55 924.15 449.19 C 925.19 448.71 927.26 447.76 928.30 447.28 C 936.85 442.08 945.52 437.07 954.31 432.29 C 960.19 428.72 966.24 425.46 972.33 422.27 C 983.66 416.25 994.92 410.10 1006.36 404.29 C 1025.76 393.84 1045.68 384.33 1065.34 374.37 C 1095.54 359.37 1125.75 344.41 1156.37 330.28 C 1162.74 327.31 1169.15 324.40 1175.61 321.60 C 1177.90 320.55 1180.20 319.51 1182.56 318.60 C 1202.70 309.79 1223.04 301.46 1243.58 293.66 C 1249.85 291.16 1256.16 288.78 1262.56 286.63 C 1265.19 285.59 1267.84 284.57 1270.53 283.64 C 1324.21 264.33 1379.67 249.69 1436.12 241.34 C 1427.71 242.90 1419.33 244.60 1410.92 246.11 C 1383.24 252.05 1355.66 258.60 1328.55 266.77 C 1328.03 266.90 1327.00 267.16 1326.48 267.28 C 1306.34 273.57 1286.24 280.04 1266.44 287.35 C 1261.08 289.28 1255.78 291.40 1250.43 293.34 C 1246.11 295.02 1241.80 296.72 1237.48 298.36 C 1234.16 299.71 1230.86 301.11 1227.50 302.36 C 1223.90 303.86 1220.26 305.25 1216.68 306.76 C 1214.57 307.62 1212.46 308.47 1210.36 309.33 C 1206.41 311.07 1202.42 312.73 1198.42 314.35 C 1196.09 315.38 1193.74 316.33 1191.42 317.33 C 1189.13 318.47 1186.79 319.47 1184.41 320.35 C 1181.42 321.75 1178.41 323.07 1175.38 324.37 C 1162.29 330.13 1149.42 336.40 1136.42 342.37 C 1135.93 342.60 1134.93 343.08 1134.43 343.32 C 1124.56 348.19 1114.62 352.94 1104.71 357.73 C 1102.66 358.72 1100.63 359.73 1098.61 360.72 C 1095.93 362.01 1093.28 363.34 1090.66 364.73 C 1089.56 365.24 1088.48 365.77 1087.40 366.30 C 1085.81 367.12 1084.22 367.92 1082.64 368.74 C 1079.94 370.01 1077.28 371.34 1074.65 372.73 C 1073.54 373.24 1072.45 373.77 1071.37 374.30 C 1070.04 374.98 1068.71 375.65 1067.40 376.31 C 1064.47 377.75 1061.55 379.20 1058.67 380.72 C 1055.98 382.00 1053.33 383.36 1050.70 384.74 C 1050.18 384.99 1049.15 385.49 1048.63 385.73 C 1046.62 386.68 1044.63 387.67 1042.68 388.72 C 1042.18 388.98 1041.18 389.49 1040.68 389.74 C 1038.92 390.61 1037.18 391.49 1035.42 392.34 C 1034.51 392.80 1033.62 393.27 1032.73 393.75 C 1024.44 398.21 1016.02 402.40 1007.67 406.74 C 1001.95 409.63 996.36 412.75 990.72 415.77 C 982.63 419.95 974.72 424.45 966.69 428.72 C 958.01 433.69 949.36 438.74 940.47 443.33 C 937.52 445.10 934.51 446.79 931.45 448.37 C 927.00 450.78 922.68 453.44 918.19 455.77 C 921.73 455.97 925.31 456.15 928.84 455.65 C 929.06 455.98 929.50 456.64 929.72 456.97 C 932.41 456.91 935.09 457.10 937.79 457.17 C 941.19 456.55 944.20 454.67 947.35 453.31 C 948.66 452.64 949.98 451.97 951.29 451.29 C 961.71 445.43 972.72 440.78 983.40 435.43 C 996.33 429.25 1009.22 423.00 1022.34 417.23 C 1040.00 409.15 1057.81 401.36 1075.66 393.67 C 1083.66 390.37 1091.57 386.85 1099.61 383.63 C 1116.82 376.32 1134.20 369.41 1151.64 362.65 C 1154.58 361.54 1157.52 360.43 1160.45 359.28 C 1175.05 353.86 1189.62 348.32 1204.36 343.28 C 1244.89 329.04 1286.07 316.49 1327.99 307.04 C 1333.87 305.99 1339.59 304.12 1345.56 303.61 C 1344.65 305.21 1342.75 305.07 1341.26 305.57 C 1319.15 310.42 1297.23 316.11 1275.47 322.34 C 1268.80 324.43 1262.12 326.47 1255.40 328.34 C 1238.36 333.85 1221.35 339.46 1204.43 345.31 C 1203.16 345.79 1201.89 346.25 1200.65 346.73 C 1194.23 348.88 1187.96 351.45 1181.57 353.70 C 1176.20 355.66 1170.86 357.69 1165.55 359.80 C 1165.05 359.91 1164.05 360.14 1163.55 360.25 C 1157.33 362.96 1150.90 365.16 1144.64 367.77 C 1143.24 368.29 1141.85 368.83 1140.47 369.34 C 1138.77 370.04 1137.08 370.71 1135.39 371.38 C 1133.73 372.06 1132.08 372.72 1130.42 373.34 C 1127.08 374.65 1123.81 376.11 1120.47 377.38 C 1118.78 378.07 1117.10 378.74 1115.41 379.37 C 1111.43 381.12 1107.40 382.76 1103.36 384.35 C 1101.48 385.19 1099.57 385.98 1097.68 386.77 C 1091.60 389.32 1085.54 391.88 1079.44 394.34 C 1077.11 395.39 1074.77 396.38 1072.43 397.36 C 1069.88 398.57 1067.30 399.69 1064.69 400.74 C 1061.69 402.14 1058.65 403.42 1055.62 404.73 C 1052.92 406.03 1050.18 407.24 1047.41 408.35 C 1044.85 409.55 1042.26 410.66 1039.67 411.75 C 1036.25 413.32 1032.84 414.89 1029.39 416.35 C 1026.43 417.77 1023.43 419.08 1020.41 420.33 C 1017.22 421.90 1014.01 423.42 1010.72 424.77 C 1010.21 425.01 1009.17 425.50 1008.65 425.75 C 1001.92 428.96 995.15 432.11 988.42 435.31 C 982.11 438.35 975.89 441.60 969.46 444.38 C 966.81 445.79 964.16 447.18 961.42 448.38 C 955.60 451.62 949.36 454.13 943.77 457.72 C 947.69 456.41 951.60 455.03 955.52 453.66 C 956.76 453.17 958.01 452.69 959.28 452.22 C 960.69 451.64 962.11 451.11 963.57 450.62 C 966.55 449.51 969.58 448.49 972.50 447.20 C 972.99 447.08 973.96 446.85 974.45 446.74 C 1001.37 436.82 1028.94 428.62 1056.90 422.21 C 1065.24 419.91 1074.12 419.61 1082.10 416.08 C 1084.93 414.93 1087.76 413.78 1090.61 412.68 C 1093.21 411.54 1095.86 410.52 1098.57 409.65 C 1101.21 408.60 1103.85 407.54 1106.55 406.62 C 1113.73 403.63 1121.08 401.05 1128.33 398.25 C 1133.41 396.38 1138.47 394.45 1143.59 392.65 C 1148.51 390.80 1153.50 389.13 1158.43 387.28 C 1172.09 382.56 1185.78 377.93 1199.58 373.65 C 1205.13 371.67 1210.83 370.16 1216.41 368.26 C 1258.36 355.73 1301.10 345.59 1344.46 339.39 C 1343.61 340.45 1342.26 340.76 1341.04 341.03 C 1291.27 349.02 1242.32 361.71 1194.42 377.35 C 1193.39 377.70 1192.37 378.03 1191.37 378.36 C 1187.38 379.68 1183.40 381.05 1179.41 382.34 C 1176.11 383.48 1172.78 384.53 1169.50 385.72 C 1168.51 386.02 1167.53 386.35 1166.58 386.69 C 1160.21 388.90 1153.91 391.32 1147.49 393.37 C 1144.85 394.51 1142.15 395.51 1139.40 396.34 C 1134.08 398.33 1128.80 400.46 1123.44 402.35 C 1118.10 404.33 1112.81 406.42 1107.48 408.40 C 1099.79 411.64 1091.53 413.66 1084.37 418.02 C 1097.08 416.86 1109.90 416.02 1122.68 416.51 C 1113.72 416.31 1104.87 417.64 1095.95 418.15 C 1087.82 419.41 1079.23 419.10 1071.66 422.75 C 1065.53 425.16 1059.53 427.86 1053.44 430.36 C 1051.11 431.43 1048.75 432.41 1046.37 433.33 C 1044.07 434.38 1041.77 435.43 1039.44 436.38 C 1037.13 437.44 1034.79 438.42 1032.43 439.34 C 1029.84 440.48 1027.24 441.58 1024.66 442.74 C 1021.29 444.37 1017.86 445.86 1014.41 447.32 C 1010.77 449.08 1007.03 450.64 1003.36 452.31 C 1000.19 453.93 996.95 455.42 993.67 456.77 C 990.95 458.00 988.26 459.28 985.48 460.34 C 983.17 461.39 980.88 462.45 978.65 463.65 C 987.09 465.92 995.62 467.86 1004.09 470.06 C 1006.83 470.75 1009.52 471.79 1012.39 471.98 C 1019.64 468.54 1027.14 465.58 1034.62 462.66 C 1048.20 457.16 1061.86 451.86 1075.55 446.64 C 1089.86 441.22 1104.13 435.68 1118.58 430.65 C 1124.44 428.34 1130.47 426.48 1136.38 424.27 C 1162.83 414.91 1189.60 406.46 1216.43 398.28 C 1228.10 394.91 1239.74 391.46 1251.56 388.63 C 1270.48 383.75 1289.70 379.92 1309.06 377.26 C 1309.70 377.86 1309.81 378.45 1309.38 379.04 C 1275.08 383.47 1241.56 392.55 1208.55 402.68 C 1207.52 403.01 1206.51 403.35 1205.52 403.71 C 1178.61 411.96 1151.88 420.78 1125.41 430.34 C 1124.12 430.81 1122.82 431.26 1121.56 431.74 C 1120.56 432.04 1119.59 432.36 1118.63 432.70 C 1112.29 435.07 1105.93 437.40 1099.57 439.72 C 1098.58 440.04 1097.60 440.37 1096.64 440.72 C 1092.32 442.43 1088.01 444.17 1083.64 445.72 C 1079.54 447.19 1075.52 448.86 1071.43 450.33 C 1066.78 452.07 1062.20 453.98 1057.55 455.71 C 1053.48 457.18 1049.54 458.99 1045.44 460.37 C 1042.11 461.70 1038.81 463.12 1035.45 464.34 C 1032.11 465.69 1028.77 467.00 1025.42 468.30 C 1022.01 469.76 1018.62 471.26 1015.18 472.64 C 1023.89 475.55 1032.88 477.59 1041.61 480.46 C 1043.61 481.39 1045.64 480.25 1047.58 479.70 C 1057.36 475.27 1067.48 471.65 1077.36 467.46 C 1092.03 461.36 1106.79 455.48 1121.58 449.67 C 1136.82 443.44 1152.23 437.61 1167.58 431.64 C 1176.71 428.17 1185.85 424.74 1194.95 421.19 C 1195.50 421.78 1196.07 422.37 1196.66 422.97 C 1194.20 423.65 1191.80 424.48 1189.42 425.35 C 1186.79 426.40 1184.15 427.41 1181.50 428.36 C 1177.16 430.08 1172.88 431.91 1168.45 433.35 C 1166.75 434.01 1165.06 434.67 1163.39 435.33 C 1160.81 436.48 1158.17 437.51 1155.50 438.38 C 1149.29 440.99 1142.92 443.20 1136.69 445.75 C 1134.99 446.40 1133.29 447.05 1131.62 447.72 C 1130.19 448.23 1128.80 448.77 1127.41 449.32 C 1125.49 450.18 1123.53 450.94 1121.59 451.71 C 1100.55 459.83 1079.77 468.60 1058.98 477.36 C 1055.22 479.11 1051.40 480.76 1047.71 482.66 C 1057.02 484.66 1065.92 488.27 1075.20 490.42 C 1115.37 473.91 1155.29 456.75 1195.79 441.04 C 1237.40 424.54 1279.39 408.94 1321.98 395.15 C 1336.01 390.48 1350.24 386.46 1364.23 381.69 L 1364.29 381.20 C 1361.22 380.75 1358.18 379.73 1355.07 380.20 C 1355.01 379.78 1354.90 378.95 1354.85 378.54 C 1359.29 378.87 1363.71 379.60 1368.01 380.85 C 1376.88 377.94 1386.08 376.04 1395.06 373.50 C 1395.46 373.25 1396.27 372.76 1396.67 372.51 C 1400.51 372.00 1404.38 371.43 1408.01 369.98 C 1409.30 369.24 1410.75 369.16 1412.24 369.09 C 1408.85 371.37 1404.52 370.95 1400.80 372.37 C 1399.57 372.78 1398.43 373.24 1397.26 373.69 C 1388.50 375.73 1379.78 378.20 1371.20 380.84 L 1371.76 381.63 C 1375.88 382.68 1380.06 383.57 1384.09 384.98 C 1384.91 385.11 1386.54 385.36 1387.35 385.48 C 1383.50 386.13 1379.85 383.99 1376.08 383.57 C 1372.50 383.12 1368.88 381.44 1365.29 382.37 C 1336.18 391.54 1307.22 401.19 1278.43 411.34 C 1261.42 417.65 1244.34 423.76 1227.44 430.35 C 1202.02 440.09 1176.72 450.15 1151.50 460.38 C 1129.58 469.45 1107.67 478.56 1085.79 487.74 C 1083.01 488.96 1080.26 490.24 1077.58 491.64 C 1083.82 493.91 1090.39 495.09 1096.60 497.47 C 1099.06 498.71 1101.64 498.00 1103.98 496.85 C 1177.60 464.29 1252.24 433.70 1328.98 409.21 C 1332.58 407.96 1336.18 406.68 1339.93 405.92 C 1344.51 404.29 1349.17 402.90 1353.84 401.57 C 1356.91 400.75 1359.89 399.20 1363.16 399.40 C 1362.37 399.55 1360.79 399.86 1360.00 400.01 C 1356.73 401.12 1353.47 402.28 1350.11 403.07 C 1267.74 428.52 1187.77 461.06 1108.92 495.77 C 1106.62 496.78 1104.34 497.89 1102.41 499.52 C 1113.49 502.01 1124.25 505.71 1135.22 508.65 C 1141.71 510.14 1148.45 513.93 1155.06 510.79 C 1157.65 510.53 1160.51 507.42 1162.86 508.61 C 1159.79 510.34 1156.08 511.10 1152.96 512.90 L 1153.70 513.60 C 1175.58 519.19 1197.72 523.70 1219.92 527.80 C 1221.97 528.32 1223.98 527.32 1225.92 526.76 C 1283.08 503.91 1340.38 481.15 1399.27 463.08 C 1378.33 470.71 1356.88 476.98 1336.11 485.11 C 1314.75 492.73 1293.56 500.84 1272.50 509.27 C 1256.53 515.92 1240.12 521.51 1224.40 528.74 C 1247.22 532.84 1270.23 535.95 1293.17 539.40 C 1295.89 540.09 1298.31 538.12 1300.79 537.35 L 1300.69 538.98 L 1298.54 539.07 L 1298.49 540.58 C 1308.10 541.30 1317.60 543.05 1327.16 544.23 C 1356.44 548.37 1385.78 552.29 1415.02 556.62 C 1410.30 556.38 1405.50 556.01 1400.86 555.19 C 1377.92 551.68 1354.77 549.62 1331.79 546.37 C 1320.49 545.08 1309.25 543.26 1297.95 541.99 C 1292.63 540.94 1287.93 544.30 1283.26 546.27 C 1269.42 552.51 1255.24 557.99 1241.15 563.63 C 1242.98 564.75 1245.04 565.42 1247.12 566.04 C 1249.09 566.18 1251.19 566.01 1253.06 566.87 C 1262.18 569.50 1271.62 570.68 1280.84 572.89 C 1282.56 573.20 1284.32 573.57 1286.06 573.97 C 1289.05 574.56 1292.08 575.00 1295.05 575.72 C 1291.57 575.61 1288.16 574.89 1284.84 573.93 C 1279.49 573.30 1274.27 571.94 1268.94 571.26 C 1259.13 568.42 1248.99 566.88 1238.99 564.88 C 1233.18 566.38 1227.65 568.78 1222.03 570.84 C 1198.93 579.36 1175.45 586.86 1151.74 593.52 C 1136.20 598.18 1120.24 601.19 1104.52 605.15 L 1104.49 605.89 C 1113.79 606.53 1122.91 608.86 1132.14 610.22 C 1179.89 619.23 1227.67 628.73 1276.10 633.26 C 1289.36 635.01 1302.67 636.10 1316.01 637.02 C 1323.96 636.98 1331.84 638.47 1339.81 638.17 L 1339.72 639.46 C 1331.20 638.56 1322.61 639.14 1314.09 638.31 C 1293.14 637.33 1272.31 634.68 1251.47 632.39 C 1205.29 627.18 1159.86 617.00 1114.09 609.18 C 1107.37 608.17 1100.67 606.35 1093.83 607.10 C 1090.96 604.99 1087.39 604.72 1084.02 604.10 C 1068.29 601.48 1052.62 598.63 1036.99 595.51 C 1034.03 596.49 1031.73 594.14 1028.92 593.85 C 1015.20 591.12 1001.55 588.06 987.97 584.76 C 982.26 583.41 976.61 581.77 970.80 580.87 C 962.24 577.71 953.20 576.19 944.44 573.71 C 939.48 572.93 934.00 569.15 929.27 572.35 C 925.57 573.69 921.79 574.81 918.07 576.04 C 916.30 576.87 914.50 577.65 912.58 578.01 C 918.10 575.17 924.20 573.74 929.89 571.30 C 929.91 570.90 929.95 570.11 929.97 569.71 C 924.67 568.40 919.40 566.98 914.09 565.73 C 910.49 564.89 906.68 563.06 903.07 564.88 C 884.42 571.86 866.12 579.75 847.25 586.16 C 845.13 587.05 842.99 587.90 840.80 588.57 C 844.06 586.10 848.23 585.39 851.94 583.82 C 869.55 577.57 886.67 570.05 904.17 563.55 C 896.24 560.50 887.92 558.49 879.58 556.99 C 879.07 557.37 878.05 558.14 877.54 558.52 C 860.54 566.55 843.00 573.38 825.61 580.53 C 817.99 583.33 810.59 586.76 802.83 589.13 L 802.84 589.60 C 800.36 590.39 797.91 591.26 795.49 592.19 C 793.54 593.06 791.52 593.78 789.41 594.09 C 795.24 591.02 801.71 589.40 807.73 586.72 C 811.10 585.37 814.47 584.03 817.85 582.71 C 819.51 582.04 821.18 581.39 822.86 580.72 C 841.62 573.01 860.58 565.62 878.63 556.32 C 876.15 555.79 873.48 554.37 871.00 555.71 C 860.55 559.74 850.66 565.07 840.31 569.36 C 821.57 577.70 803.01 586.45 784.17 594.56 C 784.99 594.77 786.65 595.18 787.47 595.39 C 785.59 596.27 783.84 595.57 782.42 594.19 C 782.53 595.06 782.64 595.94 782.77 596.83 C 770.17 601.19 757.92 606.62 744.95 609.81 C 740.09 611.94 734.44 612.45 730.11 615.58 C 733.03 616.27 735.95 617.12 738.97 617.23 C 748.33 617.28 757.67 618.04 767.01 618.46 C 758.73 619.53 750.41 617.82 742.10 618.25 C 737.63 618.54 733.36 617.05 729.14 615.83 C 726.61 615.32 723.69 618.00 721.59 615.72 C 720.91 616.35 720.25 616.98 719.59 617.63 C 715.22 618.37 711.02 619.80 706.74 620.91 C 707.27 621.53 707.90 622.06 708.61 622.51 C 708.34 622.62 707.81 622.86 707.54 622.98 C 706.07 622.40 704.58 621.92 703.08 621.53 C 703.27 622.28 703.51 623.01 703.81 623.74 C 702.31 623.46 700.73 623.09 699.24 622.91 C 699.61 623.41 700.35 624.40 700.72 624.89 C 699.39 623.53 696.04 622.57 696.06 625.46 C 694.13 625.38 692.11 625.47 690.42 624.38 C 694.40 624.18 698.07 622.28 702.08 622.32 C 703.68 620.28 706.66 620.64 708.87 619.74 C 712.51 618.50 716.61 617.99 719.89 616.14 L 719.26 615.29 C 713.44 613.82 707.80 610.57 701.65 611.39 C 700.88 611.94 700.13 612.49 699.38 613.05 L 699.08 612.42 C 699.55 612.04 700.51 611.28 700.99 610.90 C 696.27 608.26 690.39 607.22 685.01 605.91 C 677.93 608.51 671.04 611.64 663.86 613.96 C 667.71 611.96 671.84 610.58 675.77 608.76 C 677.47 607.88 679.25 607.19 681.11 606.71 L 681.05 606.10 C 681.70 606.02 683.01 605.86 683.67 605.78 C 681.98 604.67 680.09 603.98 678.14 603.55 L 678.64 602.75 C 681.08 603.52 683.45 604.66 686.02 604.99 C 725.37 589.49 762.91 569.83 800.59 550.71 C 804.56 548.82 808.38 546.63 812.03 544.19 C 809.36 543.56 806.67 543.07 803.94 543.02 C 799.02 542.94 794.11 541.34 789.20 542.29 C 786.33 543.21 783.72 544.77 781.07 546.17 C 750.91 562.97 720.04 578.49 688.58 592.70 C 682.88 595.34 676.91 597.41 671.34 600.33 C 673.77 601.13 676.22 601.89 678.64 602.75 C 676.35 603.07 674.16 602.24 671.95 601.90 C 671.59 601.52 670.86 600.77 670.49 600.39 C 667.53 601.50 664.56 602.57 661.62 603.72 C 653.19 607.12 644.88 610.81 636.57 614.51 C 620.79 619.39 605.92 626.69 590.61 632.81 C 590.08 632.93 589.03 633.15 588.50 633.26 C 586.69 634.01 584.84 634.68 582.99 635.30 L 582.96 635.85 C 588.37 636.94 593.90 636.96 599.37 637.65 C 600.74 635.45 603.76 636.42 605.90 636.47 C 603.77 637.06 600.49 635.79 599.58 638.51 C 608.91 640.82 618.46 638.93 627.84 638.15 C 628.37 637.92 629.44 637.46 629.97 637.23 C 626.24 639.56 621.46 638.52 617.67 640.69 C 625.14 641.83 632.73 641.48 640.21 642.51 C 635.69 642.66 631.18 642.53 626.68 642.14 C 617.80 641.57 608.83 641.32 600.09 639.52 C 599.82 639.30 599.29 638.86 599.02 638.64 C 593.19 637.73 586.90 638.89 581.40 636.47 L 582.05 637.82 C 580.83 637.50 579.53 636.76 578.27 637.34 C 574.48 638.64 570.56 639.49 566.77 640.79 C 565.63 641.49 564.75 641.35 564.12 640.35 C 564.50 639.95 565.27 639.13 565.65 638.73 C 566.40 638.79 567.89 638.91 568.64 638.97 C 569.91 638.13 571.23 637.32 572.30 636.23 C 571.23 636.39 569.08 636.71 568.00 636.87 C 567.46 636.22 566.92 635.59 566.38 634.96 L 568.99 634.79 C 568.23 634.23 566.70 633.11 565.94 632.56 C 562.68 633.44 559.50 634.63 556.17 635.25 C 556.53 636.24 556.87 637.24 557.22 638.26 C 558.80 637.35 560.49 636.91 562.31 636.94 C 561.81 636.39 561.31 635.84 560.82 635.31 C 562.64 635.40 565.15 636.78 566.25 634.37 C 566.24 635.39 566.25 636.41 566.27 637.45 C 562.57 638.22 558.97 639.36 555.34 640.36 C 549.75 642.16 544.09 643.71 538.49 645.46 C 534.44 646.56 530.37 647.74 526.18 648.18 C 527.86 649.12 529.68 649.82 531.59 650.16 C 531.57 649.70 531.53 648.78 531.51 648.32 C 532.49 648.43 533.47 648.55 534.46 648.69 C 535.48 648.30 536.50 647.92 537.55 647.58 C 542.27 646.37 546.92 644.92 551.60 643.58 C 554.31 642.80 557.11 642.22 559.63 640.91 C 561.02 640.96 562.59 640.81 563.69 641.85 C 560.90 642.58 558.16 643.43 555.43 644.36 C 545.93 647.54 536.20 649.99 526.57 652.73 C 523.86 653.13 521.20 653.83 518.62 654.72 C 513.59 656.09 508.49 657.15 503.42 658.34 C 478.88 664.44 453.86 668.19 428.91 672.08 C 421.87 672.40 415.13 674.74 408.13 675.39 C 403.95 676.33 399.61 676.58 395.52 677.83 C 391.71 677.94 387.92 678.28 384.28 679.44 C 383.03 677.23 381.68 674.92 378.52 676.00 C 379.41 677.07 381.11 676.96 381.82 678.24 C 381.79 679.49 380.13 679.96 379.09 679.95 C 373.01 679.71 367.12 681.41 361.04 681.13 C 355.37 682.13 349.63 681.93 343.92 682.14 C 335.69 683.60 327.32 682.80 319.02 683.00 C 312.64 682.75 306.35 684.16 299.98 684.02 C 278.67 683.95 257.35 684.12 236.05 683.52 C 249.02 682.93 262.02 683.40 274.97 682.38 C 282.27 681.72 289.63 682.40 296.89 681.37 C 303.52 680.44 310.27 681.68 316.86 680.35 C 339.99 678.58 362.95 674.76 385.91 671.19 C 395.01 670.26 403.84 667.33 412.98 666.87 L 412.95 665.27 C 410.94 665.11 408.94 664.83 406.98 664.39 C 411.26 664.51 415.56 664.85 419.81 664.04 L 419.92 664.84 C 417.86 665.04 415.03 663.84 413.73 666.08 C 417.95 666.34 422.00 665.02 426.17 664.71 C 425.00 663.04 422.63 663.52 421.19 664.49 C 421.24 664.23 421.34 663.72 421.39 663.47 C 422.97 663.56 424.82 662.94 426.12 664.19 C 426.81 664.10 428.18 663.93 428.87 663.84 C 428.47 663.38 427.67 662.45 427.27 661.99 C 428.30 662.86 429.23 663.86 430.62 664.19 C 430.57 663.68 430.47 662.67 430.42 662.16 C 430.64 662.47 431.06 663.10 431.27 663.41 C 431.65 663.24 432.41 662.89 432.79 662.72 C 432.78 662.27 432.76 661.36 432.75 660.90 C 433.54 661.23 434.34 661.57 435.14 661.92 C 437.73 662.27 440.16 661.12 442.65 660.62 C 460.29 656.06 477.66 650.36 494.60 643.65 C 496.26 642.97 497.94 642.32 499.62 641.67 C 503.19 640.22 506.75 638.78 510.28 637.25 C 513.95 635.56 517.70 634.05 521.33 632.28 C 528.83 628.85 536.02 624.74 543.64 621.57 C 548.88 618.54 554.43 615.99 559.26 612.32 C 549.50 616.80 540.19 622.33 530.11 626.13 C 521.68 629.72 513.45 633.89 504.65 636.55 C 500.57 637.23 496.41 636.49 492.31 636.50 C 496.88 636.24 501.61 636.67 506.01 635.08 C 514.56 632.17 522.54 627.86 530.59 623.83 C 518.39 620.60 506.20 617.25 494.17 613.39 L 495.75 612.66 C 505.52 615.51 515.45 617.84 525.20 620.79 C 528.42 621.65 531.82 624.04 535.10 622.04 C 542.85 618.47 550.68 614.95 557.93 610.43 C 539.10 607.02 520.43 602.77 501.86 598.14 C 494.24 601.32 486.31 603.79 478.87 607.36 C 484.43 609.32 490.10 610.96 495.75 612.66 C 493.52 613.77 491.18 612.30 488.99 611.86 C 484.35 610.66 479.84 608.87 475.11 608.11 C 471.40 609.06 468.05 610.99 464.51 612.41 C 449.00 618.81 433.24 624.63 417.08 629.22 C 396.14 636.21 374.50 640.74 352.93 645.25 C 349.59 645.74 346.29 646.85 342.89 646.56 C 352.50 644.15 362.36 642.78 371.93 640.14 C 378.55 638.99 385.06 637.31 391.62 635.89 C 390.53 635.25 389.42 634.27 388.02 634.67 C 382.93 634.83 377.76 634.19 372.74 635.27 C 368.23 636.33 363.56 635.04 359.05 636.03 C 356.06 636.66 353.00 636.61 349.98 636.48 C 343.28 636.07 336.73 638.08 330.02 637.66 C 325.53 638.50 320.73 637.96 316.43 639.54 C 313.23 638.69 310.15 640.26 306.97 640.25 C 301.87 640.27 296.84 641.23 291.86 642.17 C 300.58 647.80 311.41 646.95 320.85 650.58 C 327.86 648.73 335.03 647.57 342.22 646.63 C 340.68 648.10 338.40 647.84 336.46 648.19 C 332.59 649.05 328.66 649.62 324.80 650.52 C 329.82 653.05 335.57 653.62 340.97 655.00 C 350.28 657.05 359.48 659.66 368.95 660.96 C 370.97 661.25 373.12 661.00 375.03 661.90 C 380.00 663.18 385.21 663.06 390.16 664.46 C 393.74 665.55 397.49 665.08 401.16 665.47 C 396.26 666.44 391.32 665.25 386.52 664.33 C 374.29 662.39 361.92 660.99 349.95 657.70 C 341.07 655.22 331.88 653.84 323.03 651.34 C 315.06 652.14 307.07 652.94 299.08 653.71 C 295.71 653.97 292.27 653.79 288.99 654.71 C 288.59 654.96 287.80 655.45 287.40 655.70 L 286.93 655.23 C 283.84 654.28 280.30 655.72 277.02 655.57 C 288.94 653.69 301.03 652.91 313.06 652.10 C 315.06 651.64 317.00 651.01 318.94 650.33 C 309.78 648.41 299.93 647.75 291.80 642.72 C 287.02 641.41 282.12 643.04 277.29 642.53 C 279.27 642.05 281.74 642.59 283.29 641.01 C 274.73 638.03 266.17 635.10 257.49 632.49 C 253.64 630.19 249.11 630.99 245.00 632.02 C 242.73 632.73 240.36 632.71 238.02 632.54 C 239.97 632.39 241.92 632.25 243.88 632.10 C 245.61 631.62 247.34 631.10 249.08 630.64 C 240.97 626.74 232.20 624.00 223.33 622.40 C 217.00 624.24 210.48 625.29 204.00 626.45 C 186.52 630.05 168.85 632.70 151.08 634.38 C 138.41 635.24 125.80 637.15 113.08 636.96 L 113.11 636.24 C 132.17 635.54 151.11 633.05 170.04 630.92 C 187.32 628.39 204.46 625.02 221.59 621.64 C 217.82 619.37 213.47 618.30 209.73 616.00 C 214.83 617.34 219.60 619.69 224.74 620.93 C 238.78 617.16 253.03 614.16 266.90 609.76 C 301.17 599.17 334.60 585.63 366.28 568.76 C 312.71 547.31 259.41 525.10 204.92 506.02 C 186.51 499.52 167.96 493.46 149.46 487.26 C 153.84 487.71 157.83 489.73 162.02 490.95 C 198.78 502.76 235.09 515.90 271.10 529.82 C 289.86 536.90 308.35 544.63 327.07 551.81 C 340.75 557.12 354.23 562.97 368.01 567.99 C 377.15 563.78 385.72 558.45 394.54 553.62 C 440.62 528.33 484.96 499.96 531.60 475.68 C 546.08 467.97 560.67 460.44 575.62 453.66 C 579.22 451.87 582.95 450.34 586.62 448.66 C 588.87 447.49 591.22 446.50 593.62 445.64 C 600.19 442.83 606.82 440.17 613.50 437.61 C 615.15 436.90 616.83 436.24 618.52 435.62 C 621.16 434.53 623.84 433.54 626.57 432.65 C 636.05 429.14 645.70 426.03 655.44 423.29 C 659.80 422.07 664.15 420.77 668.54 419.64 C 679.81 416.41 691.20 413.60 702.55 410.66 C 705.18 409.91 707.86 409.26 710.54 408.64 C 713.19 407.91 715.86 407.24 718.56 406.66 C 759.37 396.69 800.38 387.34 841.87 380.65 C 857.44 377.85 873.14 375.80 888.90 374.33 C 892.51 373.73 896.32 374.34 899.82 373.13 C 906.78 369.99 913.06 365.59 919.57 361.64 C 922.17 359.90 924.84 358.26 927.52 356.63 C 952.73 341.59 977.86 326.39 1002.38 310.24 C 1008.60 305.80 1015.14 301.82 1021.52 297.61 C 1029.85 292.27 1038.08 286.80 1046.51 281.63 C 1054.89 276.35 1063.10 270.82 1071.52 265.61 C 1074.16 263.90 1076.90 262.34 1079.55 260.63 C 1080.50 259.93 1081.51 259.26 1082.52 258.61 C 1086.17 256.28 1089.85 253.98 1093.50 251.62 C 1102.15 245.76 1111.57 241.13 1120.00 234.94 C 1130.69 226.92 1142.12 219.90 1152.43 211.38 C 1158.06 206.69 1163.85 202.17 1169.98 198.12 C 1179.23 192.05 1187.73 184.93 1196.50 178.20 C 1228.30 154.58 1259.18 129.74 1290.46 105.44 M 1257.00 213.99 C 1256.40 214.57 1256.40 214.57 1257.00 213.99 C 1257.61 213.36 1257.61 213.36 1257.00 213.99 M 1254.17 215.32 C 1254.75 215.86 1254.75 215.86 1254.17 215.32 M 1247.14 220.33 C 1248.03 222.26 1251.05 219.52 1250.99 218.13 C 1249.55 217.99 1247.85 219.16 1247.14 220.33 M 1242.26 224.85 C 1243.61 225.28 1245.29 223.81 1245.90 222.67 C 1245.02 220.83 1241.98 223.49 1242.26 224.85 M 1232.05 231.97 C 1222.98 238.86 1213.69 245.46 1204.89 252.67 C 1204.94 252.95 1205.05 253.51 1205.10 253.79 C 1206.18 253.59 1206.95 252.65 1207.88 252.06 C 1217.37 244.87 1226.76 237.53 1236.10 230.14 C 1238.21 228.46 1240.67 227.11 1242.26 224.85 C 1238.31 226.19 1235.45 229.64 1232.05 231.97 M 1098.06 249.88 L 1097.94 250.71 C 1092.50 254.35 1086.89 257.73 1081.45 261.38 C 1077.80 263.72 1074.07 265.95 1070.49 268.40 C 1069.47 269.06 1068.46 269.70 1067.46 270.36 C 1060.07 274.94 1052.99 280.01 1045.47 284.37 C 1027.74 295.98 1009.79 307.28 992.36 319.34 C 981.96 326.54 971.92 334.24 961.46 341.35 C 958.14 343.72 954.88 346.16 951.45 348.36 C 941.05 356.07 930.20 363.16 919.96 371.09 C 913.21 375.13 906.81 379.71 900.61 384.56 C 877.68 401.46 853.91 417.18 830.55 433.48 C 829.85 433.55 828.45 433.67 827.75 433.74 C 828.96 436.40 825.14 436.84 823.95 438.41 L 826.80 438.65 C 825.48 439.41 824.07 439.64 822.60 439.38 C 821.00 440.27 819.52 441.34 818.02 442.37 L 818.23 443.18 L 816.94 442.97 L 817.61 444.64 L 816.01 444.02 C 815.95 444.57 815.82 445.67 815.76 446.22 C 817.58 445.69 819.20 444.68 820.82 443.71 C 820.00 442.59 820.78 441.46 821.38 440.47 L 821.27 443.14 C 825.02 440.50 828.97 438.09 832.45 435.08 L 831.04 434.68 L 831.11 434.20 C 833.67 436.04 835.73 432.55 838.00 431.67 L 837.19 430.30 C 837.75 430.45 838.87 430.75 839.44 430.90 C 840.39 429.86 841.56 429.18 842.95 428.85 C 842.09 427.71 842.72 426.55 843.50 425.52 C 843.72 426.01 844.17 427.00 844.39 427.50 C 846.16 426.08 848.00 424.74 849.97 423.60 L 849.15 422.57 L 850.90 422.66 C 854.58 420.57 857.85 417.80 861.50 415.63 C 863.36 414.09 865.43 412.82 867.55 411.64 C 872.10 408.48 876.90 405.68 881.54 402.65 C 891.27 395.66 901.47 389.32 911.03 382.07 C 917.55 377.93 923.46 372.87 930.26 369.16 C 936.25 365.68 941.64 361.27 947.55 357.66 C 977.81 336.22 1008.31 315.13 1038.53 293.64 C 1050.48 285.16 1062.49 276.76 1074.40 268.22 C 1082.54 262.04 1091.27 256.66 1099.27 250.27 L 1098.06 249.88 M 1101.22 330.28 C 1101.78 330.87 1101.78 330.87 1101.22 330.28 M 1094.73 338.39 L 1095.03 339.20 C 1097.98 337.59 1100.94 335.97 1104.03 334.61 C 1103.73 334.21 1103.14 333.40 1102.85 333.00 L 1104.04 333.00 L 1103.98 334.31 C 1105.40 333.73 1106.62 332.80 1107.84 331.86 C 1102.42 330.22 1099.05 336.19 1094.73 338.39 M 947.77 346.78 C 945.70 348.03 943.63 349.25 941.52 350.40 C 939.88 351.50 938.16 352.46 936.41 353.34 C 929.42 357.67 922.54 362.18 915.50 366.41 C 910.40 369.31 905.94 373.19 900.67 375.78 C 886.33 384.75 871.97 393.69 857.51 402.46 C 839.51 413.81 821.48 425.11 803.42 436.36 C 800.56 438.21 797.67 440.03 794.74 441.76 C 790.69 444.40 786.03 446.28 782.75 449.93 C 786.91 450.17 791.13 449.54 795.24 450.49 C 802.46 446.94 808.65 441.71 815.36 437.32 C 822.72 432.06 829.98 426.64 837.53 421.65 C 845.49 416.19 853.22 410.41 861.34 405.19 C 863.76 403.70 866.11 402.11 868.53 400.61 C 870.47 399.19 872.49 397.89 874.57 396.66 C 880.47 392.51 886.51 388.55 892.56 384.61 C 897.76 381.59 902.71 378.19 907.54 374.60 C 908.42 374.12 909.32 373.66 910.22 373.20 C 918.51 368.81 925.65 362.64 933.55 357.64 C 934.51 356.94 935.51 356.27 936.52 355.60 C 937.50 354.93 938.53 354.28 939.56 353.65 C 944.74 350.51 949.16 346.21 954.60 343.49 C 956.85 342.23 959.01 340.79 961.08 339.24 C 956.02 340.37 952.42 344.65 947.77 346.78 M 978.96 370.11 C 976.63 370.80 974.61 372.22 972.50 373.35 C 959.30 381.61 945.74 389.26 932.46 397.38 C 930.84 398.45 929.18 399.45 927.51 400.43 C 919.82 405.13 912.13 409.82 904.50 414.61 C 884.74 426.37 865.71 439.33 845.80 450.85 C 843.88 451.39 845.76 453.27 846.91 452.92 C 850.31 453.02 853.76 452.87 857.10 453.72 C 860.42 454.97 863.51 452.80 866.55 451.72 C 883.11 441.85 899.63 431.90 916.31 422.22 C 937.44 409.86 958.75 397.82 980.31 386.23 C 985.04 383.63 989.81 381.13 994.62 378.68 C 1000.21 375.65 1005.96 372.86 1011.24 369.29 C 1000.56 370.77 989.71 369.55 978.96 370.11 M 939.45 378.41 C 923.32 388.85 907.50 399.76 891.47 410.36 C 890.45 411.04 889.44 411.71 888.42 412.37 C 880.52 417.84 872.50 423.12 864.47 428.38 C 853.19 436.16 841.67 443.57 830.04 450.79 C 832.43 450.74 834.74 451.40 837.05 451.97 C 840.21 452.07 843.00 450.28 845.63 448.75 C 853.86 444.12 861.52 438.56 869.56 433.63 C 872.81 431.53 876.14 429.53 879.53 427.66 C 893.30 418.61 907.47 410.16 921.53 401.56 C 937.38 391.60 953.63 382.27 969.65 372.59 L 969.81 371.59 C 962.88 371.85 955.94 371.92 949.02 372.10 C 945.46 373.51 942.77 376.51 939.45 378.41 M 930.49 373.46 C 929.19 373.86 927.91 374.24 926.62 374.60 C 919.72 378.93 913.34 384.02 906.44 388.34 C 893.26 397.89 879.55 406.69 866.48 416.40 C 864.13 418.05 861.82 419.76 859.44 421.36 C 854.68 424.58 850.10 428.06 845.43 431.40 C 842.48 433.44 839.58 435.55 836.49 437.38 C 831.09 441.09 825.74 444.86 820.47 448.74 C 822.46 449.58 824.64 450.58 826.82 449.67 C 832.89 447.24 838.09 443.17 843.54 439.62 C 854.37 432.04 865.78 425.32 876.57 417.65 C 891.67 407.82 906.57 397.68 921.54 387.65 C 922.51 386.94 923.52 386.26 924.54 385.59 C 925.52 384.92 926.53 384.27 927.54 383.62 C 932.72 380.09 938.39 377.28 943.05 373.03 C 938.86 373.14 934.62 372.62 930.49 373.46 M 873.01 378.12 C 845.31 381.92 817.78 386.84 790.44 392.70 C 774.08 396.03 757.82 399.87 741.57 403.71 C 734.54 405.36 727.54 407.07 720.52 408.72 C 719.16 409.01 717.82 409.34 716.48 409.68 C 715.14 410.00 713.82 410.31 712.51 410.71 C 709.85 411.31 707.19 411.93 704.57 412.70 C 695.61 415.08 686.60 417.27 677.66 419.74 C 675.60 420.28 673.55 420.85 671.48 421.35 C 665.21 423.18 658.90 424.89 652.62 426.70 C 651.58 427.02 650.55 427.36 649.53 427.72 C 641.46 430.26 633.31 432.60 625.48 435.82 C 624.98 435.92 623.99 436.14 623.50 436.24 C 616.85 439.10 610.01 441.51 603.35 444.35 C 600.07 445.70 596.81 447.11 593.49 448.38 C 587.40 450.91 581.43 453.72 575.38 456.36 C 561.95 462.80 548.69 469.58 535.40 476.31 C 534.51 476.79 533.63 477.28 532.75 477.78 C 500.02 494.84 468.42 513.95 436.47 532.41 C 414.92 545.31 392.68 556.99 370.84 569.37 C 388.45 576.35 406.46 582.21 424.07 589.11 C 424.78 588.75 426.18 588.01 426.89 587.65 C 426.78 588.16 426.57 589.19 426.47 589.71 C 441.88 595.53 457.56 600.59 473.25 605.57 C 477.43 607.11 481.59 604.83 485.47 603.47 C 490.12 601.46 495.08 600.11 499.45 597.52 C 484.77 592.93 469.95 588.46 455.95 582.06 C 470.85 587.29 485.77 592.54 501.08 596.50 C 502.79 597.08 504.38 595.79 505.96 595.39 C 505.83 595.96 505.57 597.10 505.44 597.67 C 523.39 602.41 541.61 606.17 559.84 609.61 C 567.03 606.58 573.55 602.18 580.49 598.65 C 588.25 594.12 595.86 589.33 603.52 584.65 C 620.79 573.70 637.62 562.09 654.56 550.65 C 666.77 542.08 679.04 533.59 691.43 525.28 C 686.42 523.84 681.17 523.95 676.06 523.11 C 670.82 523.26 665.23 520.18 660.33 523.22 C 643.67 533.58 626.31 542.75 608.89 551.76 C 597.53 557.29 586.26 563.08 574.62 567.99 C 575.58 566.37 577.43 565.84 578.98 565.01 C 600.23 554.96 621.14 544.19 641.62 532.67 C 647.91 528.98 654.47 525.66 660.22 521.11 C 655.01 521.07 649.81 520.76 644.64 520.15 C 633.74 519.79 622.83 520.16 611.93 519.92 C 602.24 520.66 592.56 521.57 582.94 523.03 C 583.36 523.53 584.21 524.52 584.64 525.02 C 583.89 524.43 583.15 523.85 582.42 523.26 C 574.58 524.76 566.79 526.57 558.91 527.72 C 559.69 527.53 561.26 527.15 562.04 526.96 C 565.55 526.22 569.07 525.48 572.59 524.75 C 589.37 520.47 606.69 518.63 623.97 518.17 C 635.01 517.77 646.02 518.85 657.04 519.14 C 659.92 519.24 662.99 520.61 665.57 518.69 C 683.66 507.31 702.11 496.48 720.52 485.61 C 737.02 475.54 753.12 464.82 769.54 454.62 C 771.15 453.55 772.73 452.41 774.18 451.12 C 757.47 450.93 740.74 450.78 724.04 451.39 L 724.08 449.99 C 741.73 449.19 759.47 448.46 777.10 449.61 C 784.46 446.64 790.60 441.40 797.54 437.63 C 808.24 431.01 818.89 424.34 829.53 417.62 C 847.87 406.30 866.05 394.72 884.55 383.66 C 888.51 380.83 892.87 378.54 896.48 375.23 C 888.71 376.62 880.82 377.02 873.01 378.12 M 861.50 408.39 C 854.70 413.22 847.73 417.90 841.21 423.06 C 845.26 421.47 848.42 418.32 852.12 416.11 C 861.48 409.21 871.92 403.62 880.48 395.72 C 873.91 399.53 867.94 404.34 861.50 408.39 M 952.08 424.37 L 951.98 424.79 C 949.72 425.67 947.59 426.83 945.59 428.18 C 944.53 428.56 943.49 428.95 942.46 429.34 C 941.12 430.03 939.79 430.70 938.46 431.37 C 929.71 435.22 921.09 439.35 912.41 443.34 C 909.44 444.78 906.44 446.19 903.31 447.24 C 902.08 447.94 900.87 448.66 899.69 449.40 C 902.97 450.20 906.38 449.89 909.74 450.15 C 909.51 450.71 909.05 451.83 908.82 452.39 C 906.24 451.90 903.62 451.90 901.05 452.27 C 896.57 452.93 891.87 452.65 887.73 454.72 C 885.65 455.66 883.54 456.52 881.43 457.36 C 880.18 457.82 878.91 458.24 877.67 458.69 C 875.46 459.79 872.92 460.66 871.61 462.91 C 877.70 462.81 883.79 463.59 889.76 464.80 C 891.26 463.95 892.77 463.10 894.30 462.26 C 897.02 460.69 899.66 458.97 902.27 457.19 C 909.49 452.86 916.08 447.61 923.53 443.63 C 934.81 436.51 946.14 429.45 957.44 422.36 C 958.53 421.94 959.65 421.50 960.58 420.74 C 962.47 418.57 965.81 418.69 967.65 416.41 C 961.94 417.73 957.66 422.55 952.08 424.37 M 1030.54 430.77 C 1030.02 430.90 1028.98 431.16 1028.47 431.30 C 1023.51 432.86 1018.41 433.97 1013.54 435.80 C 1013.02 435.91 1011.98 436.13 1011.46 436.25 C 1008.46 437.38 1005.41 438.37 1002.37 439.36 C 992.97 442.06 983.77 445.39 974.58 448.71 C 973.57 449.02 972.57 449.35 971.60 449.70 C 967.89 450.95 964.28 452.45 960.59 453.71 C 956.27 455.04 952.20 457.03 947.89 458.36 L 947.95 458.91 C 956.00 459.67 964.06 460.90 972.01 462.52 C 976.10 463.80 979.63 460.51 983.34 459.29 C 987.66 457.25 991.88 454.99 996.34 453.25 C 1002.07 450.66 1007.76 447.98 1013.58 445.60 C 1021.82 441.77 1030.10 438.03 1038.52 434.61 C 1041.51 433.20 1044.51 431.80 1047.60 430.62 C 1049.48 429.78 1051.38 429.01 1053.30 428.23 C 1056.09 427.04 1058.88 425.84 1061.72 424.77 C 1062.80 424.04 1063.88 423.30 1064.97 422.57 C 1053.36 424.67 1041.86 427.47 1030.54 430.77 M 821.03 436.93 C 817.78 439.26 814.12 441.18 811.59 444.34 C 817.46 441.59 822.03 436.70 827.75 433.74 C 829.14 432.00 830.91 430.63 832.86 429.55 L 833.07 429.36 C 833.66 428.72 834.83 427.45 835.42 426.81 C 830.36 429.81 826.02 433.83 821.03 436.93 M 810.64 444.16 C 810.30 444.45 809.60 445.04 809.25 445.33 C 809.41 447.63 813.27 444.13 810.64 444.16 M 812.18 448.81 C 813.56 449.37 815.78 447.61 815.76 446.22 C 814.32 445.10 811.66 447.19 812.18 448.81 M 807.99 445.91 C 806.96 449.13 801.75 448.81 801.96 452.71 C 804.46 450.56 807.71 449.22 809.97 446.89 C 809.48 446.65 808.49 446.16 807.99 445.91 M 921.08 450.93 C 922.15 451.41 924.20 450.38 923.96 449.11 C 922.85 448.57 920.83 449.65 921.08 450.93 M 819.05 449.50 C 818.44 450.13 817.22 451.40 816.60 452.03 L 818.95 451.41 L 819.01 452.92 C 816.50 452.94 813.87 452.97 812.08 455.09 C 812.81 455.14 814.27 455.24 815.01 455.29 C 814.48 456.02 813.98 456.77 813.51 457.55 C 816.53 456.06 819.10 453.82 822.17 452.41 C 820.42 452.24 819.81 450.78 819.05 449.50 M 779.42 451.10 C 777.85 451.99 776.25 452.85 774.67 453.72 C 766.99 458.69 759.26 463.61 751.44 468.36 C 742.51 474.32 733.15 479.66 724.59 486.17 C 733.57 483.05 742.22 478.96 751.37 476.28 C 755.97 474.81 760.71 473.82 765.39 472.62 C 775.23 466.15 784.42 458.76 794.20 452.19 C 789.68 451.66 785.11 450.38 780.56 451.47 C 780.28 451.38 779.71 451.19 779.42 451.10 M 803.52 453.93 C 803.35 454.35 803.03 455.18 802.86 455.59 C 799.17 457.20 795.47 459.08 793.21 462.58 C 795.72 462.39 798.31 461.20 798.15 458.30 L 799.34 460.16 C 800.45 458.99 801.84 458.02 802.58 456.53 C 804.49 455.87 806.32 454.98 807.46 453.18 C 806.14 453.44 804.82 453.69 803.52 453.93 M 828.49 453.14 C 825.34 454.22 822.24 455.48 819.48 457.37 C 815.93 459.56 813.09 462.68 810.06 465.48 C 811.12 465.56 813.23 465.73 814.29 465.82 C 814.61 465.58 815.23 465.10 815.54 464.87 C 817.96 464.42 820.28 463.54 822.59 462.70 C 826.65 460.93 830.62 458.82 834.09 456.04 C 834.16 455.54 834.30 454.56 834.37 454.07 C 835.02 454.24 836.31 454.57 836.96 454.74 C 836.34 454.33 835.09 453.50 834.46 453.09 C 832.46 453.02 830.47 453.04 828.49 453.14 M 862.33 456.25 C 861.01 456.99 859.72 457.76 858.57 458.74 C 861.49 459.39 864.43 458.88 866.40 456.49 C 867.22 456.65 868.06 456.82 868.91 456.99 L 869.08 456.16 L 867.53 455.66 C 869.24 454.64 871.48 454.10 872.09 451.86 C 868.87 453.39 865.86 455.48 862.33 456.25 M 830.59 460.88 C 832.27 460.41 833.99 460.27 835.67 460.93 C 835.52 460.47 835.22 459.57 835.07 459.11 C 835.35 459.41 835.92 460.01 836.20 460.31 C 840.46 460.63 844.73 459.99 849.00 459.94 C 851.70 459.98 853.90 458.11 855.95 456.60 C 852.98 453.95 848.87 455.76 845.47 454.37 C 845.24 454.46 844.80 454.64 844.57 454.73 C 844.16 454.56 843.32 454.20 842.91 454.02 C 838.12 454.74 834.77 458.76 830.59 460.88 M 876.27 454.17 L 876.33 454.77 C 876.94 454.75 878.17 454.71 878.79 454.69 C 878.34 453.47 877.50 453.29 876.27 454.17 M 802.04 462.41 L 803.00 463.61 L 801.33 463.43 C 798.79 465.19 796.39 467.13 793.72 468.69 C 787.90 470.61 782.66 473.97 777.03 476.37 L 777.65 477.67 L 776.32 477.11 C 775.83 477.42 774.86 478.03 774.37 478.34 C 770.19 481.46 765.54 483.90 761.51 487.20 C 765.35 486.99 767.66 481.84 771.46 482.70 C 772.27 482.38 773.08 482.08 773.91 481.78 L 772.96 479.99 L 775.15 480.99 L 774.52 479.58 C 774.98 479.58 775.90 479.59 776.36 479.59 C 781.49 476.65 786.21 473.05 791.27 469.99 C 792.52 469.76 793.78 469.42 794.80 468.60 C 798.37 466.09 802.67 464.83 806.14 462.15 C 806.25 461.61 806.49 460.54 806.61 460.01 L 807.90 459.97 L 807.91 458.82 C 808.49 459.10 809.67 459.65 810.26 459.93 L 811.92 459.42 L 811.94 455.15 C 808.50 457.38 805.80 460.64 802.04 462.41 M 896.48 467.66 C 901.50 469.18 906.56 470.82 911.82 471.28 C 913.45 470.97 914.89 470.04 916.39 469.33 C 919.03 468.00 921.66 466.64 924.30 465.29 C 927.83 463.38 931.32 461.40 934.74 459.30 C 927.79 458.56 920.83 457.41 913.83 458.20 C 907.72 460.73 902.58 465.10 896.48 467.66 M 937.91 460.86 C 930.39 464.64 922.63 468.16 915.58 472.73 C 916.31 472.84 917.77 473.07 918.50 473.18 C 924.75 475.33 931.40 476.22 937.48 478.86 C 939.12 478.93 940.78 478.95 942.45 478.93 C 943.38 478.35 944.33 477.79 945.30 477.24 C 954.01 472.96 962.87 468.94 971.37 464.26 C 963.52 463.33 955.80 461.42 947.92 460.77 C 944.63 460.43 940.98 459.07 937.91 460.86 M 834.07 463.30 C 825.46 466.63 818.50 472.93 810.47 477.36 C 808.50 478.76 806.48 480.09 804.44 481.38 C 802.56 482.58 800.62 483.67 798.67 484.71 C 789.67 490.38 780.65 496.04 771.45 501.37 C 769.81 502.41 768.16 503.41 766.49 504.39 C 759.17 509.06 752.11 514.17 744.49 518.35 C 743.26 519.17 742.01 519.97 740.76 520.76 C 738.57 521.83 736.51 523.13 734.41 524.36 C 732.66 525.18 731.07 526.31 729.97 527.94 C 732.50 527.75 735.00 527.23 737.51 526.77 C 738.40 526.24 739.30 525.72 740.21 525.21 C 748.46 521.61 755.59 515.91 763.48 511.61 C 777.43 503.50 791.59 495.74 805.53 487.61 C 808.85 485.58 812.34 483.82 815.58 481.66 C 818.21 479.95 820.87 478.28 823.56 476.65 C 828.54 473.07 834.11 470.49 839.52 467.65 C 842.41 465.87 845.41 464.26 848.15 462.23 C 843.38 461.51 838.75 462.63 834.07 463.30 M 848.40 466.30 C 844.77 467.97 841.21 469.79 837.72 471.72 C 830.05 475.47 822.90 480.14 815.51 484.38 C 809.98 487.96 804.21 491.13 798.47 494.35 C 796.83 495.43 795.14 496.42 793.41 497.34 C 778.88 505.89 764.21 514.18 749.71 522.77 C 746.68 524.53 743.45 525.96 740.60 528.01 C 745.79 528.30 750.60 525.96 755.61 525.03 C 756.57 527.23 753.86 527.74 752.50 528.62 C 749.45 529.69 746.27 530.29 743.11 530.91 C 740.50 531.09 737.79 530.96 735.44 532.27 C 732.63 534.28 729.60 535.97 726.65 537.77 C 724.37 539.13 722.05 540.43 719.74 541.74 C 715.95 543.91 712.40 546.48 708.44 548.34 C 706.10 549.65 703.80 551.05 701.46 552.34 C 698.47 554.04 695.52 555.82 692.43 557.33 C 690.53 558.46 688.64 559.61 686.74 560.73 C 683.65 562.24 680.81 564.20 677.72 565.73 C 675.98 566.68 674.30 567.72 672.61 568.76 C 666.10 571.58 660.41 576.24 653.52 578.15 C 654.48 578.80 655.44 579.42 656.41 580.10 C 654.98 579.90 653.59 579.73 652.20 579.44 C 650.25 580.38 648.34 581.37 646.42 582.35 C 643.72 583.82 640.95 585.18 638.10 586.34 L 637.97 586.75 C 636.51 587.36 635.07 588.00 633.65 588.69 C 632.55 589.22 631.47 589.79 630.38 590.33 C 627.79 591.70 625.19 593.05 622.44 594.09 C 623.23 594.75 624.02 595.41 624.86 596.03 C 626.71 596.25 626.96 594.47 627.39 593.13 C 629.01 594.77 630.82 593.22 632.50 592.53 C 635.13 591.11 637.73 589.60 640.56 588.60 C 643.25 587.31 645.83 585.81 648.55 584.58 C 649.86 583.89 651.18 583.22 652.51 582.56 C 653.81 581.83 655.15 581.14 656.53 580.55 C 658.51 579.44 660.50 578.36 662.59 577.45 C 662.78 576.85 663.15 575.66 663.34 575.06 C 663.96 575.43 664.59 575.79 665.24 576.15 C 666.67 575.11 668.56 574.62 669.77 573.31 L 669.61 572.95 C 669.75 572.44 670.03 571.43 670.17 570.92 L 670.55 571.66 C 670.68 571.94 670.94 572.49 671.07 572.77 C 677.17 570.28 682.62 566.47 688.58 563.67 C 690.50 562.53 692.44 561.42 694.54 560.62 C 695.44 560.14 696.34 559.67 697.25 559.20 C 709.74 553.78 721.21 546.41 733.34 540.31 C 737.62 537.89 742.14 535.84 746.05 532.81 C 745.77 532.36 745.19 531.45 744.91 531.00 C 745.83 531.24 746.74 531.53 747.64 531.87 C 751.27 530.82 755.01 526.01 758.81 528.86 C 751.79 531.22 745.72 535.79 739.35 539.50 C 734.11 542.20 728.89 544.94 723.71 547.75 C 721.66 548.75 719.48 549.73 718.26 551.80 C 720.44 551.44 722.40 550.38 724.26 549.25 C 727.57 547.17 731.03 545.35 734.55 543.66 C 735.44 543.17 736.34 542.69 737.25 542.21 C 743.54 538.45 750.13 535.20 756.55 531.65 C 764.21 527.08 772.52 523.65 780.31 519.28 C 785.76 516.48 790.84 513.02 796.34 510.30 C 798.86 508.73 801.34 507.09 803.92 505.61 L 803.93 505.25 C 808.66 503.06 812.71 499.61 817.59 497.67 C 826.66 492.51 836.01 487.79 845.60 483.68 C 848.79 482.13 852.09 480.81 855.29 479.26 C 856.62 478.60 857.96 477.94 859.31 477.28 C 859.82 477.03 860.85 476.52 861.36 476.27 C 863.76 475.05 866.16 473.84 868.60 472.67 C 871.44 471.09 874.33 469.60 877.31 468.28 C 879.29 467.42 881.20 466.41 882.96 465.14 C 878.83 464.71 874.37 465.80 870.57 463.71 C 865.26 466.08 860.39 469.28 855.47 472.36 C 843.78 479.34 832.41 486.89 820.41 493.34 C 817.39 495.02 814.36 496.68 811.34 498.37 C 794.37 508.85 777.30 519.30 759.31 527.98 C 758.23 527.02 757.19 526.04 756.14 525.07 C 759.97 524.29 763.56 522.67 766.98 520.81 C 772.09 517.98 777.37 515.46 782.49 512.66 C 792.98 506.35 804.01 500.98 814.48 494.62 C 824.62 488.85 834.58 482.76 844.52 476.65 C 851.92 471.70 859.69 467.31 866.93 462.12 C 860.71 463.30 854.41 464.14 848.40 466.30 M 804.90 466.23 C 805.67 466.87 806.37 467.57 807.01 468.36 C 808.49 467.66 809.89 466.83 811.30 465.98 C 809.24 464.49 807.01 465.64 804.90 466.23 M 971.64 466.76 C 964.63 470.04 957.74 473.57 950.69 476.76 C 950.19 477.00 949.18 477.47 948.68 477.70 C 946.91 478.48 945.22 479.43 943.70 480.62 C 947.36 481.34 950.95 482.39 954.46 483.65 C 955.46 483.96 956.47 484.29 957.48 484.64 C 961.78 485.95 966.12 487.17 970.37 488.65 C 972.16 489.41 973.89 488.14 975.60 487.69 C 986.10 482.54 997.00 478.30 1007.56 473.29 C 996.86 470.18 985.89 468.09 975.10 465.32 C 973.93 465.79 972.78 466.27 971.64 466.76 M 801.45 467.50 C 800.51 469.89 797.37 469.83 795.56 471.41 C 780.58 481.60 765.79 492.06 750.61 501.95 C 751.12 502.55 751.64 503.16 752.17 503.78 C 751.17 503.76 750.24 503.51 749.39 503.06 C 743.48 506.80 738.10 511.68 731.56 514.22 C 732.61 514.87 733.64 515.47 734.72 516.15 C 733.22 515.91 731.82 515.77 730.36 515.50 C 728.81 516.45 727.22 517.33 725.62 518.18 C 726.67 518.86 727.74 519.46 728.84 520.10 C 731.42 517.80 734.54 516.25 737.58 514.65 C 752.00 504.64 766.71 495.05 781.54 485.64 C 783.50 484.25 785.51 482.95 787.54 481.66 C 789.48 480.26 791.46 478.90 793.51 477.65 C 797.14 475.32 800.59 472.73 804.18 470.33 C 803.48 470.03 802.08 469.42 801.38 469.11 C 802.33 469.17 804.21 469.27 805.15 469.33 C 805.04 469.06 804.82 468.52 804.71 468.25 C 803.62 467.92 802.54 467.73 801.45 467.50 M 873.46 472.34 C 870.57 473.83 867.75 475.48 864.77 476.79 C 859.70 479.45 854.67 482.20 849.35 484.35 C 845.00 486.26 840.71 488.32 836.42 490.35 C 835.08 491.01 833.75 491.67 832.42 492.30 C 827.82 494.72 823.36 497.40 818.72 499.73 C 815.89 501.16 813.18 502.82 810.42 504.37 C 808.42 505.44 806.45 506.58 804.69 508.02 C 811.29 506.08 817.44 502.87 824.06 501.00 C 825.96 500.45 827.86 499.90 829.64 499.01 C 830.16 499.09 831.20 499.23 831.72 499.30 L 831.94 499.65 C 828.10 500.89 824.17 501.82 820.42 503.32 C 818.54 504.19 816.63 504.96 814.73 505.74 C 812.35 506.75 809.96 507.73 807.59 508.74 C 799.96 510.49 793.27 514.64 786.48 518.35 C 780.22 522.43 773.31 525.37 766.93 529.26 C 757.94 533.62 749.45 538.92 740.48 543.34 C 737.42 545.46 734.00 546.97 730.74 548.73 C 728.04 550.36 725.32 551.97 722.49 553.37 C 719.98 554.99 717.25 556.25 714.50 557.38 C 713.25 558.21 711.98 559.01 710.71 559.79 C 707.27 561.22 704.03 563.07 700.69 564.70 C 695.72 567.42 690.77 570.17 685.71 572.71 C 678.93 576.83 671.61 579.91 664.65 583.70 C 659.90 586.07 654.99 588.14 650.38 590.77 C 652.01 591.21 653.68 591.66 655.37 591.97 C 656.04 591.63 657.38 590.94 658.06 590.60 L 657.60 589.95 C 659.25 589.59 660.91 589.21 662.56 588.79 C 661.38 588.15 660.16 587.58 658.97 587.01 C 660.60 587.12 662.26 587.26 663.89 587.52 C 667.07 586.17 670.18 584.67 673.35 583.30 C 686.55 576.90 699.89 570.77 712.75 563.71 C 721.75 559.17 730.24 553.69 739.30 549.27 C 743.11 547.25 746.98 545.35 750.84 543.44 C 750.32 544.98 749.52 546.47 748.03 547.24 C 740.25 551.12 732.63 555.33 724.99 559.48 C 725.13 559.72 725.40 560.20 725.54 560.44 C 726.16 559.80 726.79 559.17 727.44 558.54 C 728.75 559.04 729.83 559.97 730.92 560.87 C 728.36 561.88 725.89 563.06 723.44 564.30 C 717.05 568.12 710.10 570.86 703.61 574.50 C 691.64 580.62 679.67 586.76 667.54 592.56 C 662.84 594.86 658.39 597.73 653.38 599.36 C 651.73 600.03 650.08 600.69 648.44 601.34 C 645.84 602.44 643.26 603.57 640.71 604.76 C 637.69 606.06 634.64 607.30 631.71 608.79 C 629.97 609.50 628.16 610.13 626.43 610.81 C 626.40 610.43 626.34 609.67 626.32 609.28 C 627.55 608.55 628.63 607.59 629.69 606.64 L 630.41 607.78 C 630.54 606.99 630.66 606.22 630.77 605.46 C 629.19 606.12 627.41 606.25 625.97 605.20 C 628.09 604.41 630.22 603.60 632.38 602.91 C 631.89 602.37 631.40 601.85 630.92 601.34 C 631.85 600.50 632.79 599.66 633.69 598.78 C 630.78 599.94 627.92 601.20 625.00 602.32 L 625.27 603.01 C 622.10 603.43 619.41 605.31 616.36 606.15 C 617.49 606.80 618.64 607.43 619.76 608.16 C 621.03 607.61 622.30 607.02 623.55 606.41 C 623.96 606.29 624.78 606.06 625.19 605.94 C 627.10 607.07 623.58 609.32 622.52 609.71 C 623.75 609.92 624.98 610.24 626.12 610.81 C 620.66 613.26 614.98 615.17 609.41 617.36 C 606.50 618.50 603.58 619.62 600.66 620.73 C 589.06 624.62 577.56 628.85 565.87 632.45 C 567.63 633.64 569.79 634.58 571.93 633.73 C 577.68 631.50 583.83 630.61 589.67 628.64 C 598.37 625.79 607.07 622.86 615.65 619.64 C 624.14 615.79 632.93 612.66 641.76 609.66 C 650.53 606.27 659.08 602.33 667.87 598.99 C 673.75 597.10 679.54 594.92 685.02 592.05 C 710.56 580.71 735.47 568.03 760.32 555.27 C 764.04 553.35 767.61 551.15 771.36 549.28 C 775.35 546.77 779.70 544.86 783.52 542.07 C 776.78 542.08 769.75 541.59 763.41 544.29 C 759.71 545.90 756.07 547.61 752.43 549.34 C 746.89 552.57 741.15 555.42 735.45 558.34 C 734.12 559.07 732.78 559.79 731.42 560.43 C 730.73 559.63 730.13 558.77 729.53 557.93 C 736.28 554.58 742.81 550.81 749.52 547.37 C 751.21 546.44 753.15 545.74 754.27 544.05 C 753.63 544.47 752.35 545.30 751.71 545.72 C 751.31 544.76 750.97 543.78 750.66 542.81 C 755.31 541.69 759.34 538.80 763.57 536.63 C 768.82 533.62 774.17 530.64 779.91 528.64 C 779.77 528.44 779.50 528.05 779.36 527.86 C 782.65 527.47 785.47 525.62 788.37 524.17 C 802.55 516.26 817.23 509.27 831.36 501.27 C 832.01 500.61 833.88 500.38 833.57 499.15 L 833.26 498.69 C 834.75 496.84 837.92 496.83 839.99 495.50 C 848.47 490.83 856.71 485.71 865.30 481.24 C 869.02 479.02 872.76 476.82 876.51 474.64 C 877.48 473.95 878.50 473.29 879.52 472.64 C 882.16 470.75 884.99 469.09 887.44 466.94 C 882.39 467.63 877.92 470.05 873.46 472.34 M 813.44 468.04 C 808.67 470.68 804.13 473.67 799.68 476.79 C 794.76 480.26 789.53 483.25 784.45 486.47 C 777.86 490.88 771.34 495.42 764.45 499.36 C 761.35 501.37 758.34 503.56 755.05 505.27 C 754.96 505.94 754.76 507.29 754.66 507.97 C 754.02 507.56 753.38 507.17 752.75 506.79 C 750.09 508.77 747.39 510.69 744.55 512.39 C 742.45 513.85 740.30 515.25 738.03 516.41 L 738.85 517.48 C 736.99 516.42 735.80 517.57 734.78 518.90 C 736.27 518.61 737.83 518.35 739.31 518.91 C 755.69 507.97 772.57 497.73 789.51 487.65 C 791.12 486.58 792.79 485.58 794.49 484.63 C 802.38 479.05 811.09 474.55 818.37 468.15 C 816.71 468.07 815.07 468.04 813.44 468.04 M 871.48 482.37 C 869.83 483.42 868.16 484.42 866.49 485.42 C 842.64 499.91 818.10 513.19 793.72 526.76 C 791.64 527.99 789.57 529.23 787.43 530.34 C 781.47 533.81 775.06 536.63 769.62 540.91 C 775.82 541.55 781.83 539.58 788.03 539.85 C 792.83 538.05 797.11 535.14 801.55 532.62 C 814.47 525.15 827.47 517.80 840.59 510.67 C 848.17 506.52 855.74 502.35 863.35 498.26 C 867.68 495.93 872.00 493.58 876.31 491.20 C 884.72 486.64 893.16 482.15 901.58 477.60 C 903.94 475.98 906.42 474.56 908.95 473.22 C 903.89 471.11 898.52 470.06 893.17 469.01 C 886.04 473.61 878.74 477.96 871.48 482.37 M 868.70 497.71 C 853.99 505.64 839.39 513.77 824.70 521.75 C 822.35 523.09 820.01 524.43 817.65 525.74 C 809.45 530.55 800.96 534.87 793.06 540.19 C 799.94 541.52 807.13 540.72 813.90 542.84 C 830.21 535.45 845.91 526.74 861.95 518.77 C 886.81 505.75 912.22 493.81 937.15 480.95 C 929.29 477.99 921.11 475.70 912.91 474.00 C 898.18 481.90 883.45 489.85 868.70 497.71 M 1011.12 474.14 C 1009.24 474.95 1007.35 475.70 1005.42 476.36 C 1002.81 477.43 1000.23 478.55 997.69 479.76 C 991.54 482.59 985.29 485.18 979.16 488.04 C 977.80 488.69 976.31 489.27 975.47 490.58 C 984.09 492.52 992.37 495.68 1000.94 497.84 C 1003.10 497.13 1005.22 496.36 1007.34 495.49 C 1007.28 495.98 1007.16 496.95 1007.10 497.44 C 1006.42 497.96 1005.05 499.00 1004.36 499.51 C 1008.15 498.21 1011.97 496.86 1015.50 494.92 C 1012.78 495.22 1009.70 497.33 1007.28 495.19 C 1010.83 494.40 1014.09 492.73 1017.56 491.66 C 1018.99 491.52 1022.43 488.21 1022.70 490.72 C 1020.42 492.32 1017.76 493.28 1015.59 495.04 C 1018.54 494.01 1021.37 492.65 1024.13 491.19 C 1026.54 490.55 1028.89 489.62 1030.93 488.14 C 1028.01 487.54 1025.71 491.23 1022.95 489.29 C 1025.70 488.30 1028.45 487.24 1031.11 485.99 C 1032.37 487.88 1032.86 485.69 1033.44 484.88 C 1035.63 484.20 1037.79 483.41 1039.98 482.70 L 1040.01 482.21 C 1030.48 479.17 1020.85 476.44 1011.12 474.14 M 742.67 480.72 C 740.24 481.60 737.82 482.47 735.39 483.32 C 727.40 486.60 719.26 489.60 711.63 493.69 C 711.12 493.95 710.10 494.45 709.60 494.71 C 696.97 501.56 684.76 509.16 672.41 516.49 C 670.42 517.66 668.51 518.96 666.75 520.45 C 673.79 521.30 680.91 521.60 687.91 522.83 C 690.75 523.04 693.90 523.92 696.52 522.33 C 715.90 509.22 734.25 494.64 753.76 481.71 C 756.59 479.56 759.88 477.88 762.03 474.95 C 755.36 476.03 748.97 478.36 742.67 480.72 M 915.18 494.29 C 888.33 507.14 861.85 520.75 835.37 534.32 C 833.79 535.12 832.21 535.91 830.65 536.72 C 828.64 537.69 826.64 538.69 824.67 539.73 C 822.78 540.59 820.92 541.48 819.02 542.31 L 818.99 542.84 C 827.06 544.06 835.22 544.74 843.17 546.67 C 844.54 546.97 845.97 546.91 847.39 546.92 C 886.53 527.32 926.30 508.90 966.59 491.73 C 967.40 491.27 968.23 490.82 969.08 490.39 C 959.67 487.48 950.38 484.13 940.83 481.74 C 932.09 485.38 923.76 490.20 915.18 494.29 M 1043.57 483.98 C 1041.34 485.41 1038.91 486.49 1036.41 487.33 C 1035.48 487.79 1034.56 488.25 1033.67 488.72 C 1030.89 489.85 1028.15 491.07 1025.44 492.33 C 1020.88 494.51 1016.40 496.85 1011.72 498.76 C 1010.37 499.38 1009.04 500.01 1007.72 500.65 C 1016.96 502.44 1025.92 505.45 1034.97 508.00 C 1044.21 504.43 1053.13 500.04 1062.28 496.22 C 1064.36 495.31 1066.47 494.44 1068.62 493.67 C 1069.35 493.36 1070.79 492.74 1071.52 492.44 C 1067.95 490.40 1063.86 489.59 1060.02 488.25 C 1054.54 486.81 1049.18 484.80 1043.57 483.98 M 723.25 486.25 C 723.88 486.72 723.88 486.72 723.25 486.25 M 751.25 495.01 C 753.48 495.01 755.25 493.48 757.10 492.44 C 756.78 492.16 756.14 491.60 755.82 491.32 C 758.47 491.43 759.65 488.64 761.22 487.00 C 757.49 489.13 754.31 492.04 751.25 495.01 M 971.64 491.03 C 956.88 497.97 941.76 504.12 926.94 510.91 C 904.59 520.66 882.73 531.44 860.64 541.74 C 858.63 542.70 856.64 543.69 854.68 544.72 C 854.18 544.97 853.18 545.46 852.67 545.71 C 851.43 546.33 850.20 546.99 848.98 547.65 C 856.89 549.48 864.92 550.68 872.82 552.58 C 874.70 553.27 876.41 552.06 878.09 551.38 C 893.11 544.15 908.32 537.29 923.60 530.64 C 931.21 526.78 939.23 523.81 947.02 520.32 C 959.48 514.97 971.95 509.65 984.56 504.64 C 988.71 502.92 992.79 500.98 997.06 499.54 C 996.85 499.22 996.41 498.58 996.19 498.26 C 994.95 497.99 993.72 497.72 992.51 497.44 C 991.52 497.07 990.54 496.69 989.58 496.32 C 983.58 494.61 977.63 492.75 971.64 491.03 M 1070.41 494.31 C 1062.60 497.35 1055.08 501.04 1047.37 504.30 C 1044.12 506.02 1040.71 507.40 1037.26 508.62 C 1043.83 512.06 1051.37 513.19 1058.36 515.63 C 1061.28 516.81 1063.95 514.43 1066.67 513.63 C 1073.42 510.73 1080.04 507.56 1086.80 504.68 C 1089.16 503.48 1091.62 502.46 1094.17 501.71 L 1094.02 501.36 C 1095.14 501.04 1096.00 500.39 1096.59 499.40 C 1089.33 497.59 1082.36 494.66 1075.05 493.00 C 1073.43 493.15 1071.94 493.84 1070.41 494.31 M 740.41 501.34 C 739.52 501.81 738.64 502.29 737.76 502.77 L 739.74 502.95 L 739.48 504.05 L 737.31 503.42 L 738.13 505.16 C 737.35 504.89 735.80 504.33 735.02 504.05 L 736.00 506.02 L 734.90 506.04 L 735.23 504.72 C 731.30 507.28 727.45 509.97 723.45 512.42 C 722.25 513.19 721.00 513.91 719.78 514.63 C 720.54 515.13 721.35 515.57 722.20 515.96 C 723.96 514.85 725.69 513.68 727.46 512.56 C 729.49 511.24 731.51 509.90 733.57 508.61 C 736.91 506.29 740.39 504.14 743.45 501.43 L 740.92 501.86 L 741.76 499.66 C 741.42 500.08 740.75 500.92 740.41 501.34 M 991.40 503.34 C 956.85 517.41 922.73 532.49 888.68 547.71 C 884.63 549.62 880.50 551.35 876.64 553.61 C 878.93 554.16 881.32 555.57 883.73 554.66 C 888.34 553.28 892.66 551.12 897.07 549.21 C 919.34 538.99 941.87 529.37 964.10 519.08 C 975.24 513.83 986.66 509.18 997.72 503.74 C 999.50 502.76 1001.75 502.06 1002.53 499.96 C 998.58 500.11 995.03 501.99 991.40 503.34 M 1062.57 516.54 C 1072.10 520.64 1082.40 522.53 1092.27 525.63 C 1097.18 527.03 1102.08 528.47 1107.01 529.79 C 1115.66 527.46 1123.74 523.42 1132.02 520.05 C 1136.59 517.80 1141.62 516.65 1146.08 514.16 C 1142.61 512.41 1138.73 511.79 1135.04 510.70 C 1123.08 507.35 1111.11 504.03 1099.25 500.33 C 1086.86 505.36 1074.93 511.43 1062.57 516.54 M 999.45 504.31 C 998.53 504.80 997.62 505.29 996.72 505.78 C 985.69 511.32 974.27 516.02 963.05 521.17 C 937.32 532.83 911.46 544.24 885.59 555.59 C 892.50 558.62 900.28 559.44 907.47 561.84 C 911.27 559.46 915.79 558.70 919.80 556.72 C 955.09 542.19 990.31 527.47 1025.34 512.29 C 1027.38 511.29 1029.43 510.30 1031.52 509.38 C 1029.30 507.75 1026.51 507.33 1023.95 506.53 C 1018.30 505.00 1012.72 503.24 1007.01 501.97 C 1004.25 501.36 1001.91 503.43 999.45 504.31 M 803.25 508.30 C 803.86 508.75 803.86 508.75 803.25 508.30 M 1032.59 510.58 C 1029.23 511.86 1025.93 513.27 1022.66 514.75 C 991.42 528.47 959.85 541.45 928.24 554.32 C 921.96 557.12 915.23 559.03 909.37 562.66 C 918.02 564.31 926.48 566.85 935.08 568.79 C 945.13 565.77 954.60 561.21 964.48 557.73 C 976.20 553.15 987.86 548.41 999.42 543.42 C 1018.95 534.87 1038.68 526.78 1057.97 517.70 L 1057.98 517.31 C 1051.81 515.39 1045.66 513.43 1039.51 511.46 C 1037.25 510.83 1034.92 509.41 1032.59 510.58 M 1135.71 519.60 C 1126.90 523.11 1118.30 527.13 1109.44 530.47 C 1124.84 535.67 1140.81 538.99 1156.38 543.63 C 1161.62 544.70 1166.74 546.74 1172.10 547.03 C 1181.27 543.47 1190.65 540.46 1199.75 536.70 C 1205.84 534.12 1212.43 532.72 1218.18 529.34 C 1203.66 526.87 1189.24 523.85 1174.83 520.80 C 1165.82 518.89 1156.99 516.27 1147.97 514.47 C 1144.09 516.65 1139.83 518.00 1135.71 519.60 M 717.28 515.71 L 717.98 518.14 L 716.53 517.19 C 715.47 518.11 714.33 518.92 713.02 519.43 L 713.59 520.13 C 711.06 520.49 709.28 522.42 707.49 524.05 C 707.96 523.92 708.91 523.66 709.38 523.53 C 710.63 523.28 711.90 523.04 713.17 522.81 C 712.80 522.41 712.08 521.61 711.72 521.21 C 713.15 521.67 714.62 521.47 716.00 520.95 L 714.84 519.35 C 717.05 520.16 718.70 518.53 720.15 517.21 C 719.21 516.65 718.25 516.15 717.28 515.71 M 1052.23 521.33 C 1045.74 524.66 1038.91 527.24 1032.29 530.27 C 1008.98 540.33 985.68 550.44 962.01 559.64 C 953.67 563.01 945.07 565.75 936.89 569.53 C 948.23 572.72 959.73 575.30 971.09 578.42 C 975.50 579.80 979.77 577.08 984.01 576.12 C 1024.87 562.64 1065.31 547.75 1105.00 531.18 C 1101.76 529.27 1097.90 528.92 1094.40 527.65 C 1083.94 524.71 1073.42 522.00 1063.06 518.70 C 1059.22 516.89 1055.71 520.08 1052.23 521.33 M 721.80 520.93 C 723.10 521.00 724.34 521.30 725.54 521.84 C 726.46 521.34 727.37 520.84 728.31 520.35 C 726.96 519.96 725.67 519.61 724.38 519.14 C 723.51 519.73 722.65 520.32 721.80 520.93 M 733.13 519.48 C 730.49 520.55 734.14 523.37 735.39 521.28 C 736.67 519.99 734.12 519.03 733.13 519.48 M 718.23 523.25 L 718.43 524.21 C 716.74 523.82 715.70 524.98 714.71 526.06 C 716.70 525.62 718.68 525.07 720.67 524.58 L 720.13 523.25 L 720.88 522.64 L 721.16 524.29 C 722.20 523.73 723.25 523.17 724.30 522.59 C 723.47 522.01 722.64 521.46 721.80 520.93 C 720.57 521.64 719.41 522.46 718.23 523.25 M 727.26 525.12 L 726.78 523.88 C 724.96 525.23 723.07 526.49 721.48 528.12 C 724.66 528.02 727.55 526.63 729.71 524.34 L 729.35 523.71 L 729.35 523.24 C 730.17 523.48 730.98 523.76 731.80 524.07 C 731.81 523.25 731.83 521.61 731.83 520.79 C 729.65 521.52 727.57 522.57 727.26 525.12 M 707.90 530.24 C 708.17 530.69 708.72 531.59 709.00 532.03 C 707.89 531.66 706.79 531.30 705.70 530.95 C 703.59 532.30 701.47 533.63 699.30 534.86 C 699.90 534.93 701.10 535.09 701.70 535.17 L 698.94 535.03 L 699.65 537.13 C 699.04 536.63 698.42 536.16 697.81 535.71 C 691.79 540.10 685.01 543.32 679.01 547.72 C 683.11 547.36 686.39 544.49 690.24 543.23 C 691.31 542.71 692.38 542.18 693.46 541.65 C 695.08 540.53 696.79 539.55 698.51 538.61 C 700.21 537.47 701.96 536.32 703.99 535.87 C 703.09 534.71 703.41 533.48 704.29 532.37 C 704.56 532.90 705.09 533.94 705.35 534.46 C 707.70 533.13 710.25 532.16 712.47 530.59 L 709.12 530.09 C 710.32 529.93 711.53 529.77 712.74 529.60 L 712.65 528.99 C 711.05 529.37 709.48 529.83 707.90 530.24 M 707.45 536.39 C 702.95 539.31 698.25 541.89 693.50 544.37 C 690.28 546.38 687.06 548.40 683.67 550.09 C 684.11 550.63 684.55 551.18 685.00 551.74 C 684.57 551.97 683.72 552.44 683.29 552.67 C 682.89 551.93 682.47 551.20 682.06 550.49 L 681.87 551.74 C 672.70 557.03 663.63 562.49 654.51 567.89 C 653.30 565.94 655.48 564.61 656.97 563.84 C 654.64 564.40 652.53 565.54 650.37 566.50 C 651.76 566.71 653.12 567.14 654.43 567.70 C 652.87 568.75 651.36 569.81 649.77 570.79 C 647.68 572.00 645.61 573.23 643.49 574.38 C 642.35 575.01 641.22 575.63 640.08 576.25 L 640.93 577.62 C 637.71 576.44 635.35 579.64 632.61 580.76 C 634.42 582.56 636.59 581.15 638.35 580.13 L 636.22 579.82 C 636.96 579.85 638.42 579.91 639.15 579.94 C 640.22 579.09 641.34 578.33 642.57 577.72 C 643.01 574.46 646.14 576.26 647.97 574.97 C 653.51 571.85 659.10 568.78 664.37 565.20 C 665.42 564.70 666.46 564.18 667.52 563.69 C 669.11 562.55 670.79 561.55 672.51 560.62 C 677.05 557.74 681.87 555.28 686.29 552.24 C 693.75 547.21 702.04 543.57 709.53 538.59 C 712.59 536.52 715.80 534.69 718.90 532.68 C 718.73 532.35 718.41 531.69 718.25 531.36 L 718.30 531.15 C 719.22 531.46 720.14 531.77 721.08 532.08 C 721.05 531.56 720.98 530.51 720.94 529.99 C 715.53 529.44 711.78 533.95 707.45 536.39 M 1219.60 530.04 C 1213.47 533.05 1206.85 534.84 1200.53 537.39 C 1191.55 540.99 1182.46 544.30 1173.36 547.56 C 1175.23 549.06 1177.68 549.25 1179.93 549.85 C 1190.80 552.50 1201.68 555.14 1212.55 557.82 C 1221.43 559.28 1230.11 562.33 1239.07 563.05 C 1256.99 557.17 1274.22 549.34 1291.43 541.68 L 1291.50 541.10 C 1279.29 538.52 1266.80 537.61 1254.52 535.44 C 1242.83 534.01 1231.29 531.51 1219.60 530.04 M 724.24 532.30 C 721.18 534.59 717.97 536.67 714.66 538.59 C 715.51 539.05 716.40 539.54 717.26 540.06 C 718.23 539.43 719.22 538.81 720.23 538.20 C 724.44 535.40 728.80 532.77 733.71 531.35 C 730.53 531.27 727.34 531.71 724.24 532.30 M 1103.02 533.10 C 1097.67 534.98 1092.44 537.15 1087.21 539.32 C 1050.76 554.38 1013.41 567.08 976.04 579.64 C 993.86 584.32 1011.87 588.45 1029.97 591.97 C 1033.50 592.84 1037.23 593.63 1040.85 592.72 C 1050.77 590.24 1060.17 586.13 1069.96 583.21 C 1103.08 572.28 1135.89 560.42 1168.68 548.55 C 1160.03 545.15 1150.90 543.29 1141.95 540.94 C 1130.86 538.24 1119.91 535.02 1108.93 531.94 C 1106.85 531.13 1104.92 532.50 1103.02 533.10 M 768.25 536.97 C 768.78 537.59 768.78 537.59 768.25 536.97 M 712.76 539.79 C 706.92 543.72 700.83 547.25 694.72 550.75 C 692.38 551.95 690.23 553.57 687.66 554.27 C 688.56 554.88 689.48 555.46 690.41 556.05 C 692.92 554.27 695.53 552.61 698.30 551.27 C 701.46 549.48 704.41 547.35 707.62 545.65 C 709.25 544.62 710.93 543.66 712.59 542.66 C 713.94 541.73 715.32 540.83 716.66 539.87 C 715.39 539.63 713.88 538.50 712.76 539.79 M 811.40 546.26 C 804.68 550.52 797.29 553.54 790.38 557.45 C 764.40 570.82 738.13 583.64 711.35 595.32 C 703.55 599.24 695.02 601.53 687.33 605.67 C 692.99 606.77 698.37 608.93 703.96 610.31 C 708.35 609.11 712.58 607.39 716.88 605.90 L 716.78 606.56 C 713.29 607.58 709.87 608.85 706.80 610.80 C 712.73 612.69 718.71 614.90 724.94 615.46 C 734.33 613.33 743.12 609.35 752.24 606.37 C 755.57 605.14 758.81 603.67 762.10 602.33 C 762.42 602.36 763.06 602.41 763.38 602.44 C 766.66 599.98 770.81 599.21 774.42 597.37 C 774.69 597.38 775.22 597.40 775.48 597.41 C 776.93 596.52 778.40 595.66 779.99 595.03 C 807.63 583.56 834.35 569.97 862.06 558.70 L 862.04 558.31 C 864.82 557.19 867.46 555.77 870.04 554.25 C 862.01 552.48 854.03 550.47 845.94 549.05 C 840.01 550.99 834.62 554.24 829.02 556.92 C 807.04 567.29 785.22 578.02 762.87 587.59 C 755.21 591.01 747.60 594.75 739.56 597.16 C 747.08 593.21 755.22 590.53 762.82 586.70 C 779.00 579.47 795.07 571.98 810.98 564.17 C 821.53 559.03 832.47 554.51 842.47 548.33 C 836.01 547.26 829.55 546.17 823.09 545.19 C 819.16 544.99 815.01 544.29 811.40 546.26 M 1162.47 551.55 C 1129.81 564.10 1096.67 575.34 1063.48 586.38 C 1055.98 588.99 1048.13 590.90 1041.14 594.73 C 1052.48 596.09 1063.67 598.61 1074.97 600.40 C 1083.85 601.68 1092.56 603.92 1101.51 604.72 C 1105.60 603.42 1109.85 602.75 1114.05 601.89 C 1155.87 592.69 1196.67 579.44 1236.78 564.57 C 1224.63 560.44 1211.84 558.73 1199.46 555.46 C 1189.94 553.46 1180.59 550.66 1171.00 548.98 C 1168.06 549.45 1165.28 550.61 1162.47 551.55 M 687.27 554.69 C 685.19 556.19 682.98 557.49 680.74 558.73 C 681.13 558.95 681.90 559.39 682.29 559.62 C 678.69 559.16 674.51 561.47 673.68 565.16 C 677.80 563.01 681.59 560.22 685.99 558.61 C 685.75 558.21 685.25 557.40 685.01 557.00 L 686.00 557.00 L 686.09 558.33 C 686.89 557.85 688.49 556.88 689.29 556.40 L 687.01 556.63 C 687.08 556.15 687.21 555.17 687.27 554.69 M 704.95 558.68 L 705.41 558.65 L 704.83 559.53 C 707.40 558.47 710.00 557.28 712.08 555.39 C 709.61 556.05 706.61 556.58 704.95 558.68 M 695.73 562.83 L 696.68 563.92 C 698.53 562.86 702.15 562.07 702.61 560.32 C 700.12 560.10 698.00 562.02 695.73 562.83 M 663.63 569.39 C 661.26 569.61 659.91 572.56 657.36 571.37 C 657.44 571.78 657.59 572.61 657.67 573.02 C 659.82 572.52 661.83 571.59 663.82 570.64 L 663.96 570.27 C 667.33 567.62 672.75 567.26 674.30 562.83 C 670.56 564.65 666.78 566.66 663.63 569.39 M 692.53 564.11 C 689.17 566.75 685.23 568.42 681.46 570.38 C 680.02 571.47 678.29 572.08 676.65 572.80 C 675.60 573.31 674.59 573.85 673.57 574.39 C 670.96 575.94 668.41 577.67 665.54 578.71 L 666.10 579.79 C 663.66 579.41 661.38 580.36 659.20 581.28 L 659.14 581.82 C 658.50 582.10 657.20 582.68 656.55 582.97 C 657.72 583.33 658.90 583.69 660.09 584.05 L 659.28 582.44 C 660.95 583.02 662.60 582.85 664.05 581.84 L 663.37 580.77 C 667.93 580.83 671.46 577.17 675.61 575.66 C 679.83 573.13 684.28 571.02 688.57 568.62 C 691.38 567.19 694.17 565.71 696.77 563.91 L 696.68 563.92 C 695.29 563.95 693.90 564.02 692.53 564.11 M 368.67 569.98 C 366.39 571.35 364.00 572.52 361.63 573.71 C 360.30 574.37 358.97 575.05 357.65 575.74 C 356.30 576.37 354.96 577.04 353.63 577.72 C 339.81 584.53 325.64 590.59 311.36 596.37 C 293.67 603.12 275.72 609.20 257.50 614.36 C 248.37 617.07 239.04 619.03 229.83 621.40 L 229.12 621.98 L 229.59 622.61 C 237.49 624.79 245.05 628.05 252.94 630.23 C 259.23 628.84 265.80 628.68 271.96 626.71 C 274.23 626.08 276.61 626.07 278.94 625.89 C 283.84 624.53 288.96 624.44 293.92 623.42 C 298.95 622.61 303.92 621.39 309.00 620.98 C 312.73 620.57 316.36 619.64 320.04 618.98 C 322.24 618.64 324.44 618.25 326.58 617.62 C 327.70 617.46 328.81 617.30 329.93 617.14 L 329.95 617.72 C 315.23 620.02 300.64 623.08 285.88 625.14 C 282.36 625.59 278.92 626.84 275.34 626.55 C 274.67 626.96 274.01 627.38 273.35 627.81 C 267.50 628.03 261.84 629.78 256.01 630.29 C 256.34 630.61 257.00 631.25 257.33 631.57 C 262.53 633.70 268.02 635.00 273.29 636.95 C 278.86 638.58 284.34 640.72 290.11 641.53 C 296.28 641.12 302.40 639.72 308.61 639.73 C 312.13 639.72 315.44 638.07 318.97 638.37 C 323.69 638.54 328.31 637.22 333.03 637.36 C 339.73 637.52 346.31 635.12 353.02 636.15 C 355.11 636.54 357.22 636.24 359.28 635.78 C 363.78 634.69 368.44 635.85 372.96 634.99 C 380.57 633.47 388.37 634.47 396.02 634.88 C 395.30 634.50 393.85 633.73 393.12 633.35 C 399.06 634.27 404.71 631.78 410.39 630.51 C 421.74 626.83 433.20 623.48 444.41 619.41 C 454.03 615.33 464.09 612.31 473.35 607.41 C 472.02 606.70 470.63 606.10 469.20 605.69 C 453.76 601.03 438.63 595.44 423.41 590.18 C 417.85 592.20 412.50 594.73 406.96 596.78 C 408.75 595.41 410.85 594.58 412.97 593.87 C 415.91 592.64 418.81 591.27 421.39 589.38 C 418.02 588.08 414.56 587.03 411.09 586.03 C 397.09 580.36 382.73 575.53 368.67 569.98 M 693.72 576.31 C 696.76 575.25 699.93 574.10 702.34 571.88 C 699.22 572.77 696.13 574.08 693.72 576.31 M 687.28 578.24 L 687.21 578.88 C 687.57 578.97 688.29 579.15 688.65 579.24 L 688.76 578.27 C 688.39 578.26 687.65 578.25 687.28 578.24 M 678.71 582.79 C 675.98 584.12 673.23 585.41 670.53 586.80 C 666.08 588.43 661.86 590.59 657.64 592.73 C 656.19 593.36 654.74 594.00 653.31 594.64 C 654.10 594.88 655.68 595.35 656.48 595.58 C 657.30 595.28 658.13 595.00 658.97 594.73 C 658.90 594.35 658.74 593.57 658.67 593.19 L 660.35 593.54 C 664.29 592.04 668.13 590.16 671.73 587.95 C 677.15 586.04 681.80 582.38 687.34 580.81 C 686.83 580.38 686.32 579.95 685.82 579.54 C 683.46 580.66 681.06 581.66 678.71 582.79 M 629.14 582.29 C 629.14 582.90 629.14 584.12 629.14 584.72 L 627.82 582.91 C 625.86 584.26 623.94 585.80 621.59 586.39 C 619.93 587.23 618.23 587.97 616.57 588.80 C 616.71 589.09 617.00 589.68 617.14 589.98 C 621.81 586.11 628.28 586.11 633.14 582.59 C 632.80 582.19 632.11 581.38 631.77 580.98 C 630.89 581.41 630.01 581.85 629.14 582.29 M 650.12 586.35 C 650.18 586.74 650.31 587.51 650.37 587.90 L 648.68 588.03 L 648.74 589.31 C 650.78 588.33 652.77 587.19 655.00 586.67 L 654.36 585.42 L 656.01 586.03 C 655.90 585.42 655.67 584.19 655.56 583.58 C 653.76 584.54 651.95 585.48 650.12 586.35 M 657.02 584.17 C 657.57 584.79 657.57 584.79 657.02 584.17 M 645.92 588.00 L 646.66 589.33 C 645.00 589.10 643.46 589.73 641.90 590.14 C 642.11 590.63 642.53 591.61 642.75 592.10 C 641.96 591.86 640.40 591.36 639.62 591.12 C 640.21 591.90 640.92 592.56 641.75 593.10 C 643.12 592.65 643.92 591.35 644.55 590.15 C 645.12 590.39 646.25 590.86 646.82 591.10 C 647.36 590.08 647.89 589.06 648.41 588.03 C 647.57 588.03 646.74 588.02 645.92 588.00 M 649.52 591.10 C 647.15 592.38 644.71 593.54 642.28 594.70 C 643.80 595.01 645.32 595.35 646.84 595.72 C 649.31 594.61 651.78 593.50 654.28 592.44 C 652.68 591.98 651.10 591.56 649.52 591.10 M 636.26 593.31 C 634.81 595.33 632.68 596.46 630.16 596.35 C 627.82 597.24 625.51 598.20 623.28 599.33 C 623.75 599.99 624.24 600.65 624.77 601.29 C 624.79 600.70 624.83 599.52 624.86 598.93 L 627.01 600.07 C 626.93 599.56 626.75 598.56 626.66 598.05 C 627.35 598.19 628.72 598.47 629.40 598.61 C 632.95 596.67 636.82 595.42 640.33 593.41 C 638.97 593.34 637.61 593.31 636.26 593.31 M 617.40 596.28 C 615.78 597.08 614.14 597.83 612.59 598.74 L 614.02 599.06 L 613.98 600.57 C 613.43 600.18 612.32 599.40 611.76 599.01 C 610.67 599.57 609.55 600.11 608.47 600.67 L 610.42 601.39 C 609.69 601.98 608.99 602.59 608.30 603.22 C 611.43 601.87 614.79 600.93 617.61 598.96 C 618.19 598.97 619.35 598.99 619.93 599.00 L 619.71 597.98 C 621.12 597.57 622.53 597.16 623.94 596.75 C 622.10 594.51 619.64 595.00 617.40 596.28 M 641.34 595.29 C 639.64 595.86 638.02 596.60 636.35 597.24 C 635.06 597.98 633.85 598.85 632.74 599.83 C 633.57 599.62 635.22 599.20 636.05 598.99 L 635.94 599.75 C 634.13 598.76 633.69 600.75 633.18 601.82 C 634.83 602.24 636.41 601.04 638.02 600.77 L 637.18 599.30 L 639.60 600.06 C 639.45 599.29 639.15 597.76 638.99 596.99 L 640.32 596.98 C 640.15 597.54 639.81 598.66 639.64 599.22 C 640.31 598.99 641.66 598.55 642.33 598.33 C 643.65 597.64 644.98 596.95 646.30 596.25 C 644.63 595.93 643.02 595.39 641.34 595.29 M 645.10 598.48 L 646.50 598.99 C 645.97 599.41 645.45 599.82 644.92 600.23 C 643.51 600.03 642.06 600.01 640.66 600.23 C 641.67 601.85 642.65 602.45 643.81 600.53 C 644.39 600.63 645.56 600.84 646.14 600.94 C 647.33 598.66 649.66 597.74 652.14 597.71 C 652.00 597.06 651.71 595.76 651.57 595.11 C 649.42 596.25 647.29 597.41 645.10 598.48 M 653.32 595.91 C 653.48 599.16 656.37 594.49 653.32 595.91 M 779.42 596.24 C 780.04 596.73 780.04 596.73 779.42 596.24 M 615.45 603.08 C 617.08 603.03 618.73 602.99 620.38 602.97 C 621.43 602.00 622.72 601.10 622.88 599.51 C 620.23 600.30 617.79 601.62 615.45 603.08 M 604.03 602.25 L 603.99 602.92 C 605.27 603.31 606.56 603.72 607.86 604.11 C 608.01 603.28 608.31 601.64 608.46 600.81 C 606.96 601.25 605.50 601.77 604.03 602.25 M 602.51 603.12 C 601.33 603.52 600.17 603.93 599.01 604.35 L 599.24 604.89 C 597.51 605.21 595.92 605.95 594.39 606.79 C 595.05 606.97 596.38 607.33 597.04 607.51 L 597.05 605.73 C 597.48 606.44 597.90 607.15 598.34 607.88 C 598.89 607.55 599.99 606.89 600.54 606.56 C 602.30 605.79 604.08 605.04 605.93 604.48 C 604.77 604.01 603.65 603.56 602.51 603.12 M 611.62 608.46 C 609.90 609.19 608.09 609.71 606.31 610.21 C 607.65 611.17 609.41 611.89 610.67 610.23 C 610.76 610.87 610.85 611.53 610.95 612.19 C 613.31 610.59 616.04 609.71 618.72 608.82 C 617.37 608.13 616.01 607.46 614.64 606.84 C 613.63 607.38 612.63 607.92 611.62 608.46 M 591.18 608.74 C 592.10 610.41 594.48 609.64 595.54 608.53 C 595.10 606.86 591.64 607.19 591.18 608.74 M 600.57 612.69 C 597.37 613.83 594.25 615.18 591.04 616.28 L 591.02 616.77 C 587.55 617.53 584.16 618.77 581.23 620.81 C 582.33 621.64 583.59 623.15 585.13 621.80 C 586.33 621.33 588.56 621.35 587.39 619.58 C 587.81 619.50 588.66 619.33 589.08 619.25 C 589.01 619.54 588.88 620.13 588.82 620.43 C 594.43 618.30 600.24 616.44 605.84 614.15 L 604.05 613.81 L 604.06 613.36 C 606.21 614.08 608.30 613.08 610.43 612.76 C 609.22 612.07 607.90 611.01 606.37 611.74 C 606.19 611.50 605.84 611.02 605.66 610.78 C 603.97 611.42 602.26 612.05 600.57 612.69 M 574.10 615.51 C 574.20 615.77 574.39 616.31 574.49 616.58 C 573.75 616.89 572.27 617.52 571.53 617.84 C 571.31 617.46 570.87 616.71 570.65 616.33 C 569.62 617.61 568.69 619.14 566.79 618.14 L 568.06 619.82 C 567.36 619.69 565.96 619.43 565.25 619.30 L 565.68 621.23 C 571.48 617.84 578.33 616.73 584.13 613.30 L 583.16 612.20 C 579.72 612.06 577.83 616.76 574.10 615.51 M 578.68 620.71 C 576.98 621.40 575.27 622.08 573.57 622.78 C 571.91 623.45 570.23 624.09 568.55 624.69 C 567.49 625.16 566.45 625.64 565.41 626.13 C 564.65 625.92 563.91 625.71 563.17 625.49 C 563.00 628.15 566.07 627.66 567.81 628.09 C 567.63 627.63 567.28 626.70 567.11 626.24 C 570.74 627.99 574.48 625.00 578.00 624.16 C 577.69 623.56 577.08 622.36 576.77 621.76 C 577.61 622.04 579.30 622.60 580.15 622.88 C 580.53 621.83 580.91 620.79 581.29 619.75 C 580.64 619.99 579.33 620.47 578.68 620.71 M 538.40 634.76 L 539.93 635.28 L 539.82 635.67 C 538.43 635.40 537.02 635.14 535.64 634.92 C 535.69 635.32 535.80 636.10 535.86 636.50 C 533.64 635.87 531.45 636.85 529.30 637.26 C 529.40 637.64 529.60 638.39 529.70 638.77 C 528.89 638.55 527.28 638.10 526.47 637.87 C 526.85 638.34 527.60 639.28 527.97 639.76 C 526.30 639.37 524.57 639.08 522.89 638.92 C 523.16 639.44 523.70 640.47 523.97 640.99 L 522.66 641.17 L 522.91 639.92 C 522.22 639.97 520.84 640.05 520.15 640.10 C 520.61 640.55 521.53 641.46 521.99 641.92 C 520.22 641.50 518.21 640.51 516.58 641.85 C 514.68 642.74 512.34 642.73 510.73 644.17 C 508.44 643.29 508.42 645.01 508.40 646.72 C 508.65 646.44 509.15 645.89 509.40 645.61 C 511.70 645.56 514.28 645.31 516.16 643.84 C 516.84 643.88 518.18 643.96 518.86 644.00 L 518.81 643.06 C 525.76 642.15 532.21 638.98 538.96 637.14 C 540.68 636.45 543.60 636.47 543.48 633.94 C 543.76 634.27 544.33 634.94 544.62 635.28 C 547.12 634.27 549.60 633.16 552.26 632.60 C 551.69 632.25 550.53 631.54 549.95 631.19 L 549.42 632.43 C 545.54 631.62 541.99 633.63 538.40 634.76 M 543.44 639.35 C 538.65 640.66 534.01 642.70 529.04 643.22 C 529.20 643.58 529.53 644.30 529.69 644.66 C 525.90 643.32 522.22 646.29 518.35 646.24 C 519.37 646.97 520.38 647.75 521.42 648.49 C 523.57 647.83 525.74 647.22 527.95 646.77 C 527.76 646.26 527.39 645.23 527.20 644.72 C 527.44 645.13 527.91 645.96 528.15 646.38 C 530.73 645.94 533.28 645.36 535.85 644.83 C 535.72 644.47 535.46 643.73 535.32 643.36 L 535.85 642.53 L 535.89 644.36 C 537.40 644.09 538.92 643.79 540.39 643.34 C 543.43 642.39 546.47 641.41 549.57 640.65 C 551.76 639.73 553.98 638.48 556.49 638.99 C 555.87 638.45 555.26 637.93 554.65 637.42 L 556.49 637.48 L 556.24 635.57 C 551.95 636.75 547.77 638.31 543.44 639.35 M 575.03 636.19 C 575.60 636.79 575.60 636.79 575.03 636.19 M 510.62 648.33 C 512.00 651.94 516.41 648.79 519.11 649.01 C 519.13 648.58 519.17 647.72 519.20 647.29 C 516.21 646.66 513.57 648.44 510.62 648.33 M 505.55 649.39 C 500.94 650.82 496.10 651.12 491.45 652.35 C 488.48 653.20 485.41 653.73 482.50 654.78 C 481.86 654.91 480.58 655.16 479.94 655.28 C 478.62 655.73 477.28 656.13 475.94 656.50 C 472.28 657.09 468.85 658.77 465.08 658.39 C 465.70 658.86 466.34 659.79 467.25 659.21 C 475.23 657.09 483.51 656.50 491.54 654.62 C 498.24 653.01 505.25 652.51 511.74 650.11 C 509.75 649.45 507.62 648.62 505.55 649.39 M 522.89 649.78 C 523.49 650.96 525.98 651.42 526.61 650.05 C 526.08 648.74 523.52 648.51 522.89 649.78 M 510.97 652.23 C 510.70 652.46 510.16 652.93 509.89 653.16 C 499.82 654.45 490.04 657.79 479.91 659.07 C 463.76 662.08 447.60 665.15 431.53 668.56 C 432.98 668.78 434.44 668.95 435.92 669.04 L 436.03 668.01 C 438.03 668.01 440.05 668.06 442.05 667.86 C 453.40 666.12 464.72 664.26 475.99 662.10 C 486.60 660.44 496.99 657.57 507.54 655.70 C 509.15 655.06 510.77 654.44 512.36 653.74 C 513.30 653.82 514.24 653.91 515.19 654.01 C 515.35 653.62 515.66 652.86 515.81 652.47 C 518.68 653.16 521.49 651.96 524.32 651.57 C 523.80 651.14 522.78 650.27 522.27 649.84 C 518.43 650.26 514.77 651.59 510.97 652.23 Z" />
<path fill="#949292" opacity="0.42" d=" M 1283.63 143.13 C 1299.14 133.16 1313.72 121.77 1329.06 111.53 C 1327.59 114.20 1324.56 115.42 1322.30 117.30 C 1309.99 126.46 1297.23 135.01 1285.08 144.37 C 1284.57 143.96 1284.09 143.54 1283.63 143.13 Z" />
<path fill="#949292" opacity="0.42" d=" M 1308.69 169.66 C 1317.23 164.26 1325.58 158.54 1334.19 153.24 C 1333.48 154.48 1332.39 155.41 1331.20 156.15 C 1305.02 173.53 1278.20 189.93 1251.66 206.71 C 1251.23 207.07 1250.38 207.80 1249.95 208.16 C 1249.32 207.82 1248.70 207.47 1248.11 207.13 C 1268.29 194.63 1288.39 181.97 1308.69 169.66 Z" />
<path fill="#949292" opacity="0.42" d=" M 1309.00 215.38 C 1325.39 207.51 1341.50 199.04 1357.96 191.29 C 1359.02 190.92 1361.15 190.18 1362.21 189.81 C 1360.20 191.88 1357.47 192.80 1354.99 194.10 C 1339.39 201.77 1323.83 209.51 1308.51 217.71 C 1308.63 217.13 1308.87 215.96 1309.00 215.38 Z" />
<path fill="#949292" opacity="0.42" d=" M 1294.34 223.24 C 1298.52 221.09 1302.69 218.89 1306.81 216.61 C 1307.40 217.02 1308.00 217.44 1308.62 217.87 C 1305.87 218.98 1303.25 220.33 1300.65 221.73 C 1292.61 226.41 1283.88 229.94 1276.24 235.26 C 1275.45 234.90 1274.69 234.54 1273.95 234.17 C 1280.67 230.40 1287.49 226.79 1294.34 223.24 Z" />
<path fill="#949292" opacity="0.42" d=" M 1112.20 327.17 C 1112.77 327.71 1112.77 327.71 1112.20 327.17 Z" />
<path fill="#949292" opacity="0.42" d=" M 1384.38 362.49 C 1398.17 359.60 1412.06 357.32 1425.92 354.81 C 1428.38 354.32 1430.93 354.72 1433.29 355.54 C 1426.92 354.57 1421.07 357.41 1414.78 357.73 C 1392.06 362.09 1369.45 367.11 1347.06 372.93 C 1342.94 373.95 1338.66 374.65 1334.97 376.85 C 1339.99 376.87 1345.00 377.21 1349.99 377.90 C 1351.04 378.45 1353.72 377.07 1353.85 378.83 C 1349.29 379.76 1344.63 378.29 1340.05 378.08 C 1334.16 377.95 1328.11 377.51 1322.49 379.67 C 1307.41 383.96 1292.49 388.86 1277.60 393.77 C 1277.08 393.90 1276.05 394.17 1275.54 394.30 C 1263.19 398.71 1250.72 402.82 1238.42 407.36 C 1237.41 407.69 1236.42 408.01 1235.44 408.32 C 1234.14 408.80 1232.85 409.25 1231.59 409.73 C 1225.24 412.04 1218.96 414.55 1212.56 416.71 C 1208.20 418.28 1203.88 419.95 1199.59 421.71 C 1198.32 422.69 1196.94 421.61 1195.76 421.16 C 1227.42 408.71 1259.65 397.71 1292.03 387.25 C 1301.53 384.32 1310.89 380.75 1320.63 378.75 L 1320.58 377.94 C 1317.67 378.04 1314.76 378.74 1311.88 378.23 C 1311.52 377.87 1310.80 377.16 1310.44 376.80 C 1316.65 377.54 1322.76 375.93 1328.95 375.73 C 1347.28 370.72 1365.89 366.84 1384.38 362.49 Z" />
<path fill="#949292" opacity="0.42" d=" M 1022.26 368.11 C 1025.15 366.45 1022.52 371.42 1022.26 368.11 Z" />
<path fill="#949292" opacity="0.42" d=" M 1383.74 429.82 C 1384.77 429.52 1385.88 429.42 1386.98 429.26 C 1384.04 431.19 1380.46 431.53 1377.09 432.07 C 1372.39 433.19 1367.85 434.88 1363.16 436.03 C 1296.04 456.30 1230.45 481.31 1165.49 507.62 C 1162.76 510.07 1164.09 506.16 1165.39 506.54 C 1236.98 477.75 1309.31 450.37 1383.74 429.82 Z" />
<path fill="#949292" opacity="0.42" d=" M 653.03 458.67 C 676.41 454.93 699.86 450.95 723.56 450.19 L 722.44 451.76 C 704.90 452.15 687.50 454.49 670.10 456.59 C 664.40 457.22 658.79 458.65 653.03 458.67 Z" />
<path fill="#949292" opacity="0.42" d=" M 49.16 485.13 C 52.03 483.46 49.45 488.47 49.16 485.13 Z" />
<path fill="#949292" opacity="0.42" d=" M 72.23 493.30 C 72.84 493.75 72.84 493.75 72.23 493.30 Z" />
<path fill="#949292" opacity="0.42" d=" M 74.33 494.08 C 77.28 492.55 74.45 497.41 74.33 494.08 Z" />
<path fill="#949292" opacity="0.42" d=" M 504.31 495.10 C 507.17 493.41 504.61 498.43 504.31 495.10 Z" />
<path fill="#949292" opacity="0.42" d=" M 745.28 507.22 C 745.74 507.81 745.74 507.81 745.28 507.22 Z" />
<path fill="#949292" opacity="0.42" d=" M 739.22 511.27 C 739.71 511.86 739.71 511.86 739.22 511.27 Z" />
<path fill="#949292" opacity="0.42" d=" M 729.29 517.25 C 729.83 517.77 729.83 517.77 729.29 517.25 Z" />
<path fill="#949292" opacity="0.42" d=" M 194.24 548.28 C 194.83 548.76 194.83 548.76 194.24 548.28 Z" />
<path fill="#949292" opacity="0.42" d=" M 687.25 549.21 C 687.82 549.73 687.82 549.73 687.25 549.21 Z" />
<path fill="#949292" opacity="0.42" d=" M 198.27 550.33 C 198.85 550.80 198.85 550.80 198.27 550.33 Z" />
<path fill="#949292" opacity="0.42" d=" M 202.22 552.21 C 202.73 552.76 202.73 552.76 202.22 552.21 Z" />
<path fill="#949292" opacity="0.42" d=" M 681.35 553.26 C 681.82 553.86 681.82 553.86 681.35 553.26 Z" />
<path fill="#949292" opacity="0.42" d=" M 210.25 556.26 C 210.78 556.79 210.78 556.79 210.25 556.26 Z" />
<path fill="#949292" opacity="0.42" d=" M 214.28 558.33 C 214.86 558.79 214.86 558.79 214.28 558.33 Z" />
<path fill="#949292" opacity="0.42" d=" M 661.31 565.26 C 661.79 565.83 661.79 565.83 661.31 565.26 Z" />
<path fill="#949292" opacity="0.42" d=" M 657.17 567.18 C 657.69 567.77 657.69 567.77 657.17 567.18 Z" />
<path fill="#949292" opacity="0.42" d=" M 647.19 573.21 C 647.78 573.80 647.78 573.80 647.19 573.21 Z" />
<path fill="#949292" opacity="0.42" d=" M 659.24 577.29 C 659.84 577.85 659.84 577.85 659.24 577.29 Z" />
<path fill="#949292" opacity="0.42" d=" M 651.23 581.30 C 651.83 581.85 651.83 581.85 651.23 581.30 Z" />
<path fill="#949292" opacity="0.42" d=" M 647.10 583.27 C 647.70 583.83 647.70 583.83 647.10 583.27 Z" />
<path fill="#949292" opacity="0.42" d=" M 643.30 585.25 C 643.87 585.82 643.87 585.82 643.30 585.25 Z" />
<path fill="#949292" opacity="0.42" d=" M 638.99 587.24 C 639.55 587.83 639.55 587.83 638.99 587.24 Z" />
<path fill="#949292" opacity="0.42" d=" M 635.29 589.28 C 635.86 589.84 635.86 589.84 635.29 589.28 Z" />
<path fill="#949292" opacity="0.42" d=" M 630.99 591.24 C 631.55 591.82 631.55 591.82 630.99 591.24 Z" />
<path fill="#949292" opacity="0.42" d=" M 647.19 593.10 C 650.21 591.59 647.30 596.39 647.19 593.10 Z" />
<path fill="#949292" opacity="0.42" d=" M 789.41 594.09 C 789.21 597.30 786.32 592.52 789.41 594.09 Z" />
<path fill="#949292" opacity="0.42" d=" M 1022.60 598.87 C 1026.21 597.58 1029.88 596.31 1033.72 595.83 C 1030.28 597.54 1026.45 598.80 1022.60 598.87 Z" />
<path fill="#949292" opacity="0.42" d=" M 368.25 608.12 C 371.05 606.32 368.67 611.43 368.25 608.12 Z" />
<path fill="#949292" opacity="0.42" d=" M 612.43 609.04 C 615.50 607.66 612.37 612.33 612.43 609.04 Z" />
<path fill="#949292" opacity="0.42" d=" M 356.45 611.10 C 357.68 610.26 358.37 610.53 358.51 611.90 C 357.26 612.72 356.57 612.46 356.45 611.10 Z" />
<path fill="#949292" opacity="0.42" d=" M 660.47 614.33 C 661.06 613.87 663.63 613.84 662.28 615.08 C 661.24 615.88 660.08 616.24 658.81 616.17 C 657.16 615.36 659.65 614.28 660.47 614.33 Z" />
<path fill="#949292" opacity="0.42" d=" M 639.59 615.31 C 645.37 616.80 651.42 616.76 657.12 618.60 C 662.94 619.78 668.71 621.40 674.68 621.67 C 675.28 620.96 679.36 618.83 675.36 621.32 C 678.52 623.60 682.65 623.87 686.38 624.63 C 685.58 625.04 683.97 625.85 683.17 626.26 C 684.73 626.22 686.31 626.15 687.89 626.05 C 687.73 625.62 687.42 624.76 687.27 624.33 C 687.93 624.34 689.25 624.36 689.92 624.38 C 690.28 625.14 690.66 625.92 691.04 626.70 C 688.78 626.61 686.33 626.21 684.34 627.55 C 682.20 627.80 680.04 627.87 677.91 628.03 C 673.87 628.87 669.86 629.78 665.86 630.77 C 670.44 629.16 675.16 627.82 680.01 627.39 C 681.55 627.51 682.91 626.69 683.91 625.58 C 675.95 622.37 667.27 622.07 658.99 620.10 C 655.79 619.70 652.41 617.86 649.26 619.20 C 647.86 619.88 646.36 620.31 644.91 620.87 C 645.95 620.02 647.48 619.58 648.00 618.24 C 645.46 616.53 641.25 618.11 639.59 615.31 Z" />
<path fill="#949292" opacity="0.42" d=" M 655.33 616.15 C 658.33 614.59 655.45 619.45 655.33 616.15 Z" />
<path fill="#949292" opacity="0.42" d=" M 592.19 617.22 C 592.70 617.82 592.70 617.82 592.19 617.22 Z" />
<path fill="#949292" opacity="0.42" d=" M 589.08 619.25 C 589.30 618.91 589.74 618.22 589.96 617.88 L 590.86 618.03 C 590.41 618.34 589.53 618.94 589.08 619.25 Z" />
<path fill="#949292" opacity="0.42" d=" M 638.28 622.08 C 641.25 620.55 638.38 625.40 638.28 622.08 Z" />
<path fill="#949292" opacity="0.42" d=" M 574.90 623.23 C 575.48 623.82 575.48 623.82 574.90 623.23 Z" />
<path fill="#949292" opacity="0.42" d=" M 572.34 624.00 C 575.30 622.32 572.54 627.29 572.34 624.00 Z" />
<path fill="#949292" opacity="0.42" d=" M 624.43 625.23 C 625.10 624.40 627.59 624.26 627.48 625.69 C 626.80 626.54 624.26 626.68 624.43 625.23 Z" />
<path fill="#949292" opacity="0.42" d=" M 601.17 629.14 C 604.21 627.68 601.25 632.42 601.17 629.14 Z" />
<path fill="#949292" opacity="0.42" d=" M 599.18 630.26 C 599.69 630.82 599.69 630.82 599.18 630.26 Z" />
<path fill="#949292" opacity="0.42" d=" M 531.26 644.25 C 531.77 644.82 531.77 644.82 531.26 644.25 Z" />
</g>
</svg>
