<svg xmlns="http://www.w3.org/2000/svg" width="1456pt" height="816pt" viewBox="0 0 1456 816"><g fill="#949292"><path d="M1290.46 105.44c7.06-5.05 13.65-10.74 20.85-15.61-3.12 4.05-7.73 6.6-11.53 9.97-21.83 16.91-43.55 33.96-64.86 51.52-1.01.95-2.48 1.73-2.49 3.32l-1.31-.54.77 1.98-1.56-.58c-3.2 3.9-7.9 6.07-11.78 9.18-12.71 8.8-24.84 18.38-37.09 27.78-32.02 24.84-64.9 48.56-98.01 71.9-18.34 13-36.56 26.18-55.01 39.03-5.7 3.93-11.19 8.16-16.98 11.95-9.93 7.13-20.07 13.96-30.03 21.04-5.68 3.97-11.18 8.2-16.98 11.99-7.89 5.54-15.66 11.27-23.8 16.43-3.43 2.3-7.21 4.21-10.06 7.28 4.95-1.94 10.23-.52 15.3-1.1 9.98-4.97 18.88-11.84 28.25-17.85 35.23-23.02 70.3-46.28 105.4-69.5 1.94-1.41 3.93-2.74 5.97-4.01 8.01-5.34 16.08-10.59 24.05-15.98 34.81-23.1 69.23-46.77 103.44-70.74 23.53-16.49 47.28-32.69 70.52-49.58-.27 1-.55 2.01-.82 3.01-2.65.97-4.77 2.88-7.04 4.47-34.89 24.86-69.93 49.51-105.09 73.99-36.7 25.37-73.75 50.22-111.11 74.59-7.93 5.46-15.96 10.75-24.04 15.97-12.55 8.51-25.3 16.72-37.97 25.03-14.92 9.91-29.9 19.72-44.86 29.55 6.82.04 13.67.25 20.48-.12 5.08-1.73 9.51-4.87 14.05-7.66 41.89-25.28 83.72-50.65 126.23-74.87 44.82-26.05 89.66-52.11 133.54-79.71.56.42 1.13.86 1.71 1.3-15.08 8.66-29.6 18.33-44.56 27.21-13.45 8.22-26.98 16.31-40.57 24.29-19.39 11.8-39.19 22.91-58.77 34.4-4 2.34-8.03 4.63-12 7.01a3932.19 3932.19 0 0 0-45.19 26.63c-6.69 3.96-13.28 8.09-20.02 11.96-11.28 6.79-22.49 13.71-33.82 20.39-3.78 2.6-8.98 3.99-11.27 8.08 10.23-.2 20.46-.35 30.68-.78 2.92-.79 5.56-2.41 8.26-3.78 13.33-7.65 26.76-15.14 40.18-22.64 9.83-5.98 20.06-11.25 30.05-16.96 19.27-10.93 38.11-22.61 57.13-33.96 8.24-5.44 16.64-10.66 24.73-16.35 8.92-6.76 18.15-13.09 26.84-20.16 6.99-4.9 13.27-10.71 20.27-15.58 16.28-12.16 32.42-24.53 49.34-35.8 16.58-12.17 33.21-24.29 50.52-35.41 14.99-10.23 30.44-19.74 45.8-29.4-.99 2.02-3.12 2.98-4.88 4.18-15.26 10.02-30.33 20.31-45.42 30.58-17.27 12.35-34.99 24.12-51.46 37.53-18.38 13.95-36.38 28.38-54.5 42.66-3.49 2.77-7.51 4.86-10.71 7.98-.59-.02-1.76-.07-2.35-.1 1.57-2.97 4.61-4.61 7.52-6.03-.47-.34-.94-.68-1.38-1.01-3.68 3.03-7.59 5.8-10.93 9.2-9.19 5.97-17.35 13.42-26.65 19.23-15.37 10.7-31.72 19.84-47.76 29.47-18.64 11.57-38.11 21.77-57.03 32.87-11.81 6.52-23.43 13.37-35.24 19.86-6.17 4.07-13.03 6.9-19.42 10.57-45.51 23.79-90.04 49.46-133.92 76.11.38 1.3 2.58 3.45-.85 3.25l.03.92c2.27-.93 4.47-2.17 6.94-2.53 5.17-.82 10.2-2.42 14.92-4.67 15.6-7.44 31.09-15.11 46.5-22.91.53.14 1.07.28 1.63.42.19-.66.3-1.47 1.07-1.72 9.77-4.69 19.46-9.57 29.23-14.28 13.02-6.83 25.77-14.18 38.5-21.53 8.79-5.28 17.87-10.1 26.3-15.95 8.91-5.51 17.29-11.83 26.21-17.33 17.41-10.79 33.4-23.66 50.46-34.98 6.95-5.05 13.92-10.11 21.36-14.45 10.87-6.73 21.17-14.35 32-21.15 3.95-2.6 7.61-5.59 11.26-8.6 4.8-4.21 10.74-7.23 14.46-12.6 1.59-.71 3.1-1.61 4.79-2.16l.85.77c-1.24.87-2.46 1.75-3.66 2.64l.07.64c4.43-3.18 9.12-5.98 13.97-8.47 1.51-.65 2.45-2.01 3.6-3.13l.64.64c3.62-2.61 7.43-4.92 11.16-7.36 34.23-21.63 68.65-42.97 103.52-63.55 30.18-17.5 60.83-34.25 91.91-50.07 2.91-3.66 7.87-3.98 11.85-5.85-5.99 3.11-11.83 6.53-17.98 9.37-36.24 19.53-72.11 39.74-107.21 61.25-18.83 11.35-37.36 23.19-56.12 34.65-4.72 2.94-9.38 5.95-14.02 9-2.65 1.7-5.35 3.33-7.99 5.03-3.69 2.29-7.31 4.7-11.01 6.96-7.01 4.67-14.08 9.23-21 14.02-1.02.66-2.03 1.32-3.03 1.97-10.5 7.56-21.38 14.58-31.97 21.99-8.88 6.12-17.67 12.37-26.53 18.53-9.14 7.38-18.73 14.17-28.46 20.74.95.49 1.95 1 2.96 1.47 1.66-1.2 3.34-2.41 5.13-3.44 1.69-.95 3.31-2.01 4.95-3.06.99-.67 2.01-1.31 3.04-1.95 13.51-8.57 27.27-16.73 40.95-25.03 1.62-1.07 3.28-2.06 4.98-3.01 1.64-1.03 3.32-2.01 5.01-2.97 1.64-1.09 3.36-2.05 5.12-2.95 2.29-1.37 4.58-2.73 6.91-4.05 7.17-4.63 14.73-8.59 22.02-13.02 2.26-1.44 4.63-2.71 6.97-4.03 3.95-2.4 7.98-4.68 12-6.95 10.47-6.36 21.23-12.24 31.84-18.36 5.31-3.13 10.77-5.99 16.14-9.01 1 1.96-1.48 2.77-2.74 3.61-13.5 7.39-26.72 15.26-40.07 22.9-2.07 1.22-4.12 2.45-6.19 3.64-1.89 1.19-3.83 2.29-5.75 3.41-3.78 2.14-7.45 4.47-11.26 6.54-1.64 1.08-3.33 2.07-5.02 3.03-9.7 5.59-19.14 11.66-29.01 16.95-6.21 3.88-12.54 7.57-18.75 11.45-8.39 5.23-16.92 10.24-25.23 15.58-8 4.99-16.07 9.88-23.98 15.01-3.04 1.61-5.97 3.4-8.99 5.01-1.01.67-2 1.36-2.98 2.04-4.16 2.97-8.63 5.47-12.81 8.4-1.02.58-2.03 1.18-3.01 1.78-1.78.92-3.53 1.88-5.28 2.81l-.42-.95c3.86-2.04 6.88-5.26 10.35-7.86 1.03-.83 2.24-1.56 2.9-2.78-7.32 4.74-13.95 10.54-21.76 14.55-9.17 5.96-18.9 10.97-28.04 16.96-8.56 5.91-18.11 10.51-25.74 17.68 6.86-2.96 13.28-6.81 19.8-10.43 3.56-2.18 7.17-4.29 10.81-6.35 9.59-5.9 19.25-11.72 28.55-18.1 2.81-2.26 6.83-2.22 9.36-4.93 3.81-2.14 7.46-4.55 11.35-6.55 2.92-1.75 5.9-3.42 8.93-5.01 4.88-2.88 9.85-5.62 14.8-8.38 4.42-2.52 8.83-5.08 13.23-7.64 10.56-6.2 21.16-12.33 31.81-18.38 2.02-1.26 4.06-2.48 6.16-3.63 4.55-2.87 9.33-5.35 14.01-8.01 7.23-4.18 14.54-8.23 21.8-12.38 20.96-11.75 41.94-23.46 63.03-34.99 35.89-19.92 72.6-38.38 109.62-56.13 4.86-1.93 9.35-5.09 14.54-5.99-5.96 3.8-12.71 6.15-18.91 9.55-10.7 5.27-21.36 10.61-31.96 16.07-24.88 12.57-49.56 25.54-73.95 39.04-23.34 13.33-46.97 26.15-70.22 39.64-12.97 7.39-25.83 14.97-38.82 22.31-17.15 10.29-34.69 19.92-51.92 30.09-2.33 1.31-4.67 2.61-7.01 3.91-3.72 2.24-7.33 4.67-11.22 6.61-5.92 3.81-11.83 7.64-17.99 11.02-1.04.68-2.07 1.35-3.08 2.02-6.93 4.11-13.81 8.29-20.74 12.38-7.14 4.1-13.84 8.96-21.26 12.57-1.58.8-3.16 1.59-4.72 2.4-4.95 2.42-10.05 4.52-14.92 7.1-6.83 3.41-13.42 7.23-20.1 10.9-14.03 8.07-27.65 16.83-41.22 25.63-5.07 3.67-11.02 6.19-15.32 10.83 1.04-.48 3.11-1.43 4.15-1.91a621.11 621.11 0 0 1 26.01-14.99c5.88-3.57 11.93-6.83 18.02-10.02 11.33-6.02 22.59-12.17 34.03-17.98 19.4-10.45 39.32-19.96 58.98-29.92 30.2-15 60.41-29.96 91.03-44.09 6.37-2.97 12.78-5.88 19.24-8.68 2.29-1.05 4.59-2.09 6.95-3 20.14-8.81 40.48-17.14 61.02-24.94 6.27-2.5 12.58-4.88 18.98-7.03 2.63-1.04 5.28-2.06 7.97-2.99 53.68-19.31 109.14-33.95 165.59-42.3-8.41 1.56-16.79 3.26-25.2 4.77-27.68 5.94-55.26 12.49-82.37 20.66-.52.13-1.55.39-2.07.51-20.14 6.29-40.24 12.76-60.04 20.07-5.36 1.93-10.66 4.05-16.01 5.99-4.32 1.68-8.63 3.38-12.95 5.02-3.32 1.35-6.62 2.75-9.98 4-3.6 1.5-7.24 2.89-10.82 4.4-2.11.86-4.22 1.71-6.32 2.57-3.95 1.74-7.94 3.4-11.94 5.02-2.33 1.03-4.68 1.98-7 2.98a70.826 70.826 0 0 1-7.01 3.02c-2.99 1.4-6 2.72-9.03 4.02-13.09 5.76-25.96 12.03-38.96 18-.49.23-1.49.71-1.99.95-9.87 4.87-19.81 9.62-29.72 14.41-2.05.99-4.08 2-6.1 2.99-2.68 1.29-5.33 2.62-7.95 4.01-1.1.51-2.18 1.04-3.26 1.57-1.59.82-3.18 1.62-4.76 2.44-2.7 1.27-5.36 2.6-7.99 3.99-1.11.51-2.2 1.04-3.28 1.57-1.33.68-2.66 1.35-3.97 2.01-2.93 1.44-5.85 2.89-8.73 4.41-2.69 1.28-5.34 2.64-7.97 4.02-.52.25-1.55.75-2.07.99-2.01.95-4 1.94-5.95 2.99-.5.26-1.5.77-2 1.02-1.76.87-3.5 1.75-5.26 2.6-.91.46-1.8.93-2.69 1.41-8.29 4.46-16.71 8.65-25.06 12.99-5.72 2.89-11.31 6.01-16.95 9.03-8.09 4.18-16 8.68-24.03 12.95-8.68 4.97-17.33 10.02-26.22 14.61-2.95 1.77-5.96 3.46-9.02 5.04-4.45 2.41-8.77 5.07-13.26 7.4 3.54.2 7.12.38 10.65-.12l.88 1.32c2.69-.06 5.37.13 8.07.2 3.4-.62 6.41-2.5 9.56-3.86 1.31-.67 2.63-1.34 3.94-2.02 10.42-5.86 21.43-10.51 32.11-15.86 12.93-6.18 25.82-12.43 38.94-18.2 17.66-8.08 35.47-15.87 53.32-23.56 8-3.3 15.91-6.82 23.95-10.04 17.21-7.31 34.59-14.22 52.03-20.98 2.94-1.11 5.88-2.22 8.81-3.37 14.6-5.42 29.17-10.96 43.91-16 40.53-14.24 81.71-26.79 123.63-36.24 5.88-1.05 11.6-2.92 17.57-3.43-.91 1.6-2.81 1.46-4.3 1.96-22.11 4.85-44.03 10.54-65.79 16.77-6.67 2.09-13.35 4.13-20.07 6-17.04 5.51-34.05 11.12-50.97 16.97-1.27.48-2.54.94-3.78 1.42-6.42 2.15-12.69 4.72-19.08 6.97a606.41 606.41 0 0 0-16.02 6.1c-.5.11-1.5.34-2 .45-6.22 2.71-12.65 4.91-18.91 7.52-1.4.52-2.79 1.06-4.17 1.57-1.7.7-3.39 1.37-5.08 2.04-1.66.68-3.31 1.34-4.97 1.96-3.34 1.31-6.61 2.77-9.95 4.04-1.69.69-3.37 1.36-5.06 1.99-3.98 1.75-8.01 3.39-12.05 4.98-1.88.84-3.79 1.63-5.68 2.42-6.08 2.55-12.14 5.11-18.24 7.57a284.58 284.58 0 0 1-7.01 3.02c-2.55 1.21-5.13 2.33-7.74 3.38-3 1.4-6.04 2.68-9.07 3.99-2.7 1.3-5.44 2.51-8.21 3.62-2.56 1.2-5.15 2.31-7.74 3.4-3.42 1.57-6.83 3.14-10.28 4.6a178.97 178.97 0 0 1-8.98 3.98c-3.19 1.57-6.4 3.09-9.69 4.44-.51.24-1.55.73-2.07.98-6.73 3.21-13.5 6.36-20.23 9.56-6.31 3.04-12.53 6.29-18.96 9.07-2.65 1.41-5.3 2.8-8.04 4-5.82 3.24-12.06 5.75-17.65 9.34 3.92-1.31 7.83-2.69 11.75-4.06 1.24-.49 2.49-.97 3.76-1.44 1.41-.58 2.83-1.11 4.29-1.6 2.98-1.11 6.01-2.13 8.93-3.42.49-.12 1.46-.35 1.95-.46a674.46 674.46 0 0 1 82.45-24.53c8.34-2.3 17.22-2.6 25.2-6.13 2.83-1.15 5.66-2.3 8.51-3.4 2.6-1.14 5.25-2.16 7.96-3.03 2.64-1.05 5.28-2.11 7.98-3.03 7.18-2.99 14.53-5.57 21.78-8.37 5.08-1.87 10.14-3.8 15.26-5.6 4.92-1.85 9.91-3.52 14.84-5.37 13.66-4.72 27.35-9.35 41.15-13.63 5.55-1.98 11.25-3.49 16.83-5.39 41.95-12.53 84.69-22.67 128.05-28.87-.85 1.06-2.2 1.37-3.42 1.64-49.77 7.99-98.72 20.68-146.62 36.32-1.03.35-2.05.68-3.05 1.01-3.99 1.32-7.97 2.69-11.96 3.98-3.3 1.14-6.63 2.19-9.91 3.38-.99.3-1.97.63-2.92.97-6.37 2.21-12.67 4.63-19.09 6.68a75.328 75.328 0 0 1-8.09 2.97c-5.32 1.99-10.6 4.12-15.96 6.01-5.34 1.98-10.63 4.07-15.96 6.05-7.69 3.24-15.95 5.26-23.11 9.62 12.71-1.16 25.53-2 38.31-1.51-8.96-.2-17.81 1.13-26.73 1.64-8.13 1.26-16.72.95-24.29 4.6-6.13 2.41-12.13 5.11-18.22 7.61-2.33 1.07-4.69 2.05-7.07 2.97-2.3 1.05-4.6 2.1-6.93 3.05-2.31 1.06-4.65 2.04-7.01 2.96-2.59 1.14-5.19 2.24-7.77 3.4-3.37 1.63-6.8 3.12-10.25 4.58-3.64 1.76-7.38 3.32-11.05 4.99a130.28 130.28 0 0 1-9.69 4.46c-2.72 1.23-5.41 2.51-8.19 3.57-2.31 1.05-4.6 2.11-6.83 3.31 8.44 2.27 16.97 4.21 25.44 6.41 2.74.69 5.43 1.73 8.3 1.92 7.25-3.44 14.75-6.4 22.23-9.32 13.58-5.5 27.24-10.8 40.93-16.02 14.31-5.42 28.58-10.96 43.03-15.99 5.86-2.31 11.89-4.17 17.8-6.38 26.45-9.36 53.22-17.81 80.05-25.99 11.67-3.37 23.31-6.82 35.13-9.65 18.92-4.88 38.14-8.71 57.5-11.37.64.6.75 1.19.32 1.78-34.3 4.43-67.82 13.51-100.83 23.64-1.03.33-2.04.67-3.03 1.03-26.91 8.25-53.64 17.07-80.11 26.63-1.29.47-2.59.92-3.85 1.4-1 .3-1.97.62-2.93.96-6.34 2.37-12.7 4.7-19.06 7.02-.99.32-1.97.65-2.93 1-4.32 1.71-8.63 3.45-13 5-4.1 1.47-8.12 3.14-12.21 4.61-4.65 1.74-9.23 3.65-13.88 5.38-4.07 1.47-8.01 3.28-12.11 4.66-3.33 1.33-6.63 2.75-9.99 3.97-3.34 1.35-6.68 2.66-10.03 3.96-3.41 1.46-6.8 2.96-10.24 4.34 8.71 2.91 17.7 4.95 26.43 7.82 2 .93 4.03-.21 5.97-.76 9.78-4.43 19.9-8.05 29.78-12.24 14.67-6.1 29.43-11.98 44.22-17.79 15.24-6.23 30.65-12.06 46-18.03 9.13-3.47 18.27-6.9 27.37-10.45.55.59 1.12 1.18 1.71 1.78-2.46.68-4.86 1.51-7.24 2.38-2.63 1.05-5.27 2.06-7.92 3.01-4.34 1.72-8.62 3.55-13.05 4.99-1.7.66-3.39 1.32-5.06 1.98a81.289 81.289 0 0 1-7.89 3.05c-6.21 2.61-12.58 4.82-18.81 7.37-1.7.65-3.4 1.3-5.07 1.97-1.43.51-2.82 1.05-4.21 1.6-1.92.86-3.88 1.62-5.82 2.39-21.04 8.12-41.82 16.89-62.61 25.65-3.76 1.75-7.58 3.4-11.27 5.3 9.31 2 18.21 5.61 27.49 7.76 40.17-16.51 80.09-33.67 120.59-49.38 41.61-16.5 83.6-32.1 126.19-45.89 14.03-4.67 28.26-8.69 42.25-13.46l.06-.49c-3.07-.45-6.11-1.47-9.22-1-.06-.42-.17-1.25-.22-1.66 4.44.33 8.86 1.06 13.16 2.31 8.87-2.91 18.07-4.81 27.05-7.35.4-.25 1.21-.74 1.61-.99 3.84-.51 7.71-1.08 11.34-2.53 1.29-.74 2.74-.82 4.23-.89-3.39 2.28-7.72 1.86-11.44 3.28-1.23.41-2.37.87-3.54 1.32-8.76 2.04-17.48 4.51-26.06 7.15l.56.79c4.12 1.05 8.3 1.94 12.33 3.35.82.13 2.45.38 3.26.5-3.85.65-7.5-1.49-11.27-1.91-3.58-.45-7.2-2.13-10.79-1.2-29.11 9.17-58.07 18.82-86.86 28.97-17.01 6.31-34.09 12.42-50.99 19.01-25.42 9.74-50.72 19.8-75.94 30.03-21.92 9.07-43.83 18.18-65.71 27.36-2.78 1.22-5.53 2.5-8.21 3.9 6.24 2.27 12.81 3.45 19.02 5.83 2.46 1.24 5.04.53 7.38-.62 73.62-32.56 148.26-63.15 225-87.64 3.6-1.25 7.2-2.53 10.95-3.29 4.58-1.63 9.24-3.02 13.91-4.35 3.07-.82 6.05-2.37 9.32-2.17-.79.15-2.37.46-3.16.61-3.27 1.11-6.53 2.27-9.89 3.06-82.37 25.45-162.34 57.99-241.19 92.7-2.3 1.01-4.58 2.12-6.51 3.75 11.08 2.49 21.84 6.19 32.81 9.13 6.49 1.49 13.23 5.28 19.84 2.14 2.59-.26 5.45-3.37 7.8-2.18-3.07 1.73-6.78 2.49-9.9 4.29l.74.7c21.88 5.59 44.02 10.1 66.22 14.2 2.05.52 4.06-.48 6-1.04 57.16-22.85 114.46-45.61 173.35-63.68-20.94 7.63-42.39 13.9-63.16 22.03-21.36 7.62-42.55 15.73-63.61 24.16-15.97 6.65-32.38 12.24-48.1 19.47 22.82 4.1 45.83 7.21 68.77 10.66 2.72.69 5.14-1.28 7.62-2.05l-.1 1.63-2.15.09-.05 1.51c9.61.72 19.11 2.47 28.67 3.65 29.28 4.14 58.62 8.06 87.86 12.39-4.72-.24-9.52-.61-14.16-1.43-22.94-3.51-46.09-5.57-69.07-8.82-11.3-1.29-22.54-3.11-33.84-4.38-5.32-1.05-10.02 2.31-14.69 4.28-13.84 6.24-28.02 11.72-42.11 17.36 1.83 1.12 3.89 1.79 5.97 2.41 1.97.14 4.07-.03 5.94.83 9.12 2.63 18.56 3.81 27.78 6.02 1.72.31 3.48.68 5.22 1.08 2.99.59 6.02 1.03 8.99 1.75-3.48-.11-6.89-.83-10.21-1.79-5.35-.63-10.57-1.99-15.9-2.67-9.81-2.84-19.95-4.38-29.95-6.38-5.81 1.5-11.34 3.9-16.96 5.96-23.1 8.52-46.58 16.02-70.29 22.68-15.54 4.66-31.5 7.67-47.22 11.63l-.03.74c9.3.64 18.42 2.97 27.65 4.33 47.75 9.01 95.53 18.51 143.96 23.04 13.26 1.75 26.57 2.84 39.91 3.76 7.95-.04 15.83 1.45 23.8 1.15l-.09 1.29c-8.52-.9-17.11-.32-25.63-1.15-20.95-.98-41.78-3.63-62.62-5.92-46.18-5.21-91.61-15.39-137.38-23.21-6.72-1.01-13.42-2.83-20.26-2.08-2.87-2.11-6.44-2.38-9.81-3-15.73-2.62-31.4-5.47-47.03-8.59-2.96.98-5.26-1.37-8.07-1.66-13.72-2.73-27.37-5.79-40.95-9.09-5.71-1.35-11.36-2.99-17.17-3.89-8.56-3.16-17.6-4.68-26.36-7.16-4.96-.78-10.44-4.56-15.17-1.36-3.7 1.34-7.48 2.46-11.2 3.69-1.77.83-3.57 1.61-5.49 1.97 5.52-2.84 11.62-4.27 17.31-6.71l.08-1.59c-5.3-1.31-10.57-2.73-15.88-3.98-3.6-.84-7.41-2.67-11.02-.85-18.65 6.98-36.95 14.87-55.82 21.28-2.12.89-4.26 1.74-6.45 2.41 3.26-2.47 7.43-3.18 11.14-4.75 17.61-6.25 34.73-13.77 52.23-20.27-7.93-3.05-16.25-5.06-24.59-6.56-.51.38-1.53 1.15-2.04 1.53-17 8.03-34.54 14.86-51.93 22.01-7.62 2.8-15.02 6.23-22.78 8.6l.01.47c-2.48.79-4.93 1.66-7.35 2.59-1.95.87-3.97 1.59-6.08 1.9 5.83-3.07 12.3-4.69 18.32-7.37 3.37-1.35 6.74-2.69 10.12-4.01 1.66-.67 3.33-1.32 5.01-1.99 18.76-7.71 37.72-15.1 55.77-24.4-2.48-.53-5.15-1.95-7.63-.61-10.45 4.03-20.34 9.36-30.69 13.65-18.74 8.34-37.3 17.09-56.14 25.2.82.21 2.48.62 3.3.83-1.88.88-3.63.18-5.05-1.2.11.87.22 1.75.35 2.64-12.6 4.36-24.85 9.79-37.82 12.98-4.86 2.13-10.51 2.64-14.84 5.77 2.92.69 5.84 1.54 8.86 1.65 9.36.05 18.7.81 28.04 1.23-8.28 1.07-16.6-.64-24.91-.21-4.47.29-8.74-1.2-12.96-2.42-2.53-.51-5.45 2.17-7.55-.11-.68.63-1.34 1.26-2 1.91-4.37.74-8.57 2.17-12.85 3.28.53.62 1.16 1.15 1.87 1.6-.27.11-.8.35-1.07.47-1.47-.58-2.96-1.06-4.46-1.45.19.75.43 1.48.73 2.21-1.5-.28-3.08-.65-4.57-.83.37.5 1.11 1.49 1.48 1.98-1.33-1.36-4.68-2.32-4.66.57-1.93-.08-3.95.01-5.64-1.08 3.98-.2 7.65-2.1 11.66-2.06 1.6-2.04 4.58-1.68 6.79-2.58 3.64-1.24 7.74-1.75 11.02-3.6l-.63-.85c-5.82-1.47-11.46-4.72-17.61-3.9-.77.55-1.52 1.1-2.27 1.66l-.3-.63c.47-.38 1.43-1.14 1.91-1.52-4.72-2.64-10.6-3.68-15.98-4.99-7.08 2.6-13.97 5.73-21.15 8.05 3.85-2 7.98-3.38 11.91-5.2 1.7-.88 3.48-1.57 5.34-2.05l-.06-.61 2.62-.32c-1.69-1.11-3.58-1.8-5.53-2.23l.5-.8c2.44.77 4.81 1.91 7.38 2.24 39.35-15.5 76.89-35.16 114.57-54.28a90.95 90.95 0 0 0 11.44-6.52c-2.67-.63-5.36-1.12-8.09-1.17-4.92-.08-9.83-1.68-14.74-.73-2.87.92-5.48 2.48-8.13 3.88-30.16 16.8-61.03 32.32-92.49 46.53-5.7 2.64-11.67 4.71-17.24 7.63 2.43.8 4.88 1.56 7.3 2.42-2.29.32-4.48-.51-6.69-.85-.36-.38-1.09-1.13-1.46-1.51-2.96 1.11-5.93 2.18-8.87 3.33-8.43 3.4-16.74 7.09-25.05 10.79-15.78 4.88-30.65 12.18-45.96 18.3-.53.12-1.58.34-2.11.45-1.81.75-3.66 1.42-5.51 2.04l-.03.55c5.41 1.09 10.94 1.11 16.41 1.8 1.37-2.2 4.39-1.23 6.53-1.18-2.13.59-5.41-.68-6.32 2.04 9.33 2.31 18.88.42 28.26-.36l2.13-.92c-3.73 2.33-8.51 1.29-12.3 3.46 7.47 1.14 15.06.79 22.54 1.82-4.52.15-9.03.02-13.53-.37-8.88-.57-17.85-.82-26.59-2.62-.27-.22-.8-.66-1.07-.88-5.83-.91-12.12.25-17.62-2.17l.65 1.35c-1.22-.32-2.52-1.06-3.78-.48-3.79 1.3-7.71 2.15-11.5 3.45-1.14.7-2.02.56-2.65-.44.38-.4 1.15-1.22 1.53-1.62l2.99.24c1.27-.84 2.59-1.65 3.66-2.74l-4.3.64c-.54-.65-1.08-1.28-1.62-1.91l2.61-.17c-.76-.56-2.29-1.68-3.05-2.23-3.26.88-6.44 2.07-9.77 2.69.36.99.7 1.99 1.05 3.01a9.682 9.682 0 0 1 5.09-1.32c-.5-.55-1-1.1-1.49-1.63 1.82.09 4.33 1.47 5.43-.94-.01 1.02 0 2.04.02 3.08-3.7.77-7.3 1.91-10.93 2.91-5.59 1.8-11.25 3.35-16.85 5.1-4.05 1.1-8.12 2.28-12.31 2.72 1.68.94 3.5 1.64 5.41 1.98l-.08-1.84c.98.11 1.96.23 2.95.37 1.02-.39 2.04-.77 3.09-1.11 4.72-1.21 9.37-2.66 14.05-4 2.71-.78 5.51-1.36 8.03-2.67 1.39.05 2.96-.1 4.06.94-2.79.73-5.53 1.58-8.26 2.51-9.5 3.18-19.23 5.63-28.86 8.37-2.71.4-5.37 1.1-7.95 1.99-5.03 1.37-10.13 2.43-15.2 3.62-24.54 6.1-49.56 9.85-74.51 13.74-7.04.32-13.78 2.66-20.78 3.31-4.18.94-8.52 1.19-12.61 2.44-3.81.11-7.6.45-11.24 1.61-1.25-2.21-2.6-4.52-5.76-3.44.89 1.07 2.59.96 3.3 2.24-.03 1.25-1.69 1.72-2.73 1.71-6.08-.24-11.97 1.46-18.05 1.18-5.67 1-11.41.8-17.12 1.01-8.23 1.46-16.6.66-24.9.86-6.38-.25-12.67 1.16-19.04 1.02-21.31-.07-42.63.1-63.93-.5 12.97-.59 25.97-.12 38.92-1.14 7.3-.66 14.66.02 21.92-1.01 6.63-.93 13.38.31 19.97-1.02 23.13-1.77 46.09-5.59 69.05-9.16 9.1-.93 17.93-3.86 27.07-4.32l-.03-1.6a42.75 42.75 0 0 1-5.97-.88c4.28.12 8.58.46 12.83-.35l.11.8c-2.06.2-4.89-1-6.19 1.24 4.22.26 8.27-1.06 12.44-1.37-1.17-1.67-3.54-1.19-4.98-.22l.2-1.02c1.58.09 3.43-.53 4.73.72.69-.09 2.06-.26 2.75-.35-.4-.46-1.2-1.39-1.6-1.85 1.03.87 1.96 1.87 3.35 2.2l-.2-2.03c.22.31.64.94.85 1.25.38-.17 1.14-.52 1.52-.69l-.04-1.82c.79.33 1.59.67 2.39 1.02 2.59.35 5.02-.8 7.51-1.3 17.64-4.56 35.01-10.26 51.95-16.97 1.66-.68 3.34-1.33 5.02-1.98 3.57-1.45 7.13-2.89 10.66-4.42 3.67-1.69 7.42-3.2 11.05-4.97 7.5-3.43 14.69-7.54 22.31-10.71 5.24-3.03 10.79-5.58 15.62-9.25-9.76 4.48-19.07 10.01-29.15 13.81-8.43 3.59-16.66 7.76-25.46 10.42-4.08.68-8.24-.06-12.34-.05 4.57-.26 9.3.17 13.7-1.42 8.55-2.91 16.53-7.22 24.58-11.25-12.2-3.23-24.39-6.58-36.42-10.44l1.58-.73c9.77 2.85 19.7 5.18 29.45 8.13 3.22.86 6.62 3.25 9.9 1.25 7.75-3.57 15.58-7.09 22.83-11.61-18.83-3.41-37.5-7.66-56.07-12.29-7.62 3.18-15.55 5.65-22.99 9.22 5.56 1.96 11.23 3.6 16.88 5.3-2.23 1.11-4.57-.36-6.76-.8-4.64-1.2-9.15-2.99-13.88-3.75-3.71.95-7.06 2.88-10.6 4.3-15.51 6.4-31.27 12.22-47.43 16.81-20.94 6.99-42.58 11.52-64.15 16.03-3.34.49-6.64 1.6-10.04 1.31 9.61-2.41 19.47-3.78 29.04-6.42 6.62-1.15 13.13-2.83 19.69-4.25-1.09-.64-2.2-1.62-3.6-1.22-5.09.16-10.26-.48-15.28.6-4.51 1.06-9.18-.23-13.69.76-2.99.63-6.05.58-9.07.45-6.7-.41-13.25 1.6-19.96 1.18-4.49.84-9.29.3-13.59 1.88-3.2-.85-6.28.72-9.46.71-5.1.02-10.13.98-15.11 1.92 8.72 5.63 19.55 4.78 28.99 8.41 7.01-1.85 14.18-3.01 21.37-3.95-1.54 1.47-3.82 1.21-5.76 1.56-3.87.86-7.8 1.43-11.66 2.33 5.02 2.53 10.77 3.1 16.17 4.48 9.31 2.05 18.51 4.66 27.98 5.96 2.02.29 4.17.04 6.08.94 4.97 1.28 10.18 1.16 15.13 2.56 3.58 1.09 7.33.62 11 1.01-4.9.97-9.84-.22-14.64-1.14-12.23-1.94-24.6-3.34-36.57-6.63-8.88-2.48-18.07-3.86-26.92-6.36-7.97.8-15.96 1.6-23.95 2.37-3.37.26-6.81.08-10.09 1l-1.59.99-.47-.47c-3.09-.95-6.63.49-9.91.34 11.92-1.88 24.01-2.66 36.04-3.47 2-.46 3.94-1.09 5.88-1.77-9.16-1.92-19.01-2.58-27.14-7.61-4.78-1.31-9.68.32-14.51-.19 1.98-.48 4.45.06 6-1.52-8.56-2.98-17.12-5.91-25.8-8.52-3.85-2.3-8.38-1.5-12.49-.47-2.27.71-4.64.69-6.98.52 1.95-.15 3.9-.29 5.86-.44 1.73-.48 3.46-1 5.2-1.46-8.11-3.9-16.88-6.64-25.75-8.24-6.33 1.84-12.85 2.89-19.33 4.05a491.91 491.91 0 0 1-52.92 7.93c-12.67.86-25.28 2.77-38 2.58l.03-.72c19.06-.7 38-3.19 56.93-5.32 17.28-2.53 34.42-5.9 51.55-9.28-3.77-2.27-8.12-3.34-11.86-5.64 5.1 1.34 9.87 3.69 15.01 4.93 14.04-3.77 28.29-6.77 42.16-11.17 34.27-10.59 67.7-24.13 99.38-41-53.57-21.45-106.87-43.66-161.36-62.74-18.41-6.5-36.96-12.56-55.46-18.76 4.38.45 8.37 2.47 12.56 3.69 36.76 11.81 73.07 24.95 109.08 38.87 18.76 7.08 37.25 14.81 55.97 21.99 13.68 5.31 27.16 11.16 40.94 16.18 9.14-4.21 17.71-9.54 26.53-14.37 46.08-25.29 90.42-53.66 137.06-77.94 14.48-7.71 29.07-15.24 44.02-22.02 3.6-1.79 7.33-3.32 11-5 2.25-1.17 4.6-2.16 7-3.02 6.57-2.81 13.2-5.47 19.88-8.03 1.65-.71 3.33-1.37 5.02-1.99 2.64-1.09 5.32-2.08 8.05-2.97 9.48-3.51 19.13-6.62 28.87-9.36 4.36-1.22 8.71-2.52 13.1-3.65 11.27-3.23 22.66-6.04 34.01-8.98 2.63-.75 5.31-1.4 7.99-2.02 2.65-.73 5.32-1.4 8.02-1.98 40.81-9.97 81.82-19.32 123.31-26.01 15.57-2.8 31.27-4.85 47.03-6.32 3.61-.6 7.42.01 10.92-1.2 6.96-3.14 13.24-7.54 19.75-11.49 2.6-1.74 5.27-3.38 7.95-5.01 25.21-15.04 50.34-30.24 74.86-46.39 6.22-4.44 12.76-8.42 19.14-12.63 8.33-5.34 16.56-10.81 24.99-15.98 8.38-5.28 16.59-10.81 25.01-16.02 2.64-1.71 5.38-3.27 8.03-4.98.95-.7 1.96-1.37 2.97-2.02 3.65-2.33 7.33-4.63 10.98-6.99 8.65-5.86 18.07-10.49 26.5-16.68 10.69-8.02 22.12-15.04 32.43-23.56 5.63-4.69 11.42-9.21 17.55-13.26 9.25-6.07 17.75-13.19 26.52-19.92 31.8-23.62 62.68-48.46 93.96-72.76M1257 213.99c-.6.58-.6.58 0 0 .61-.63.61-.63 0 0m-2.83 1.33c.58.54.58.54 0 0m-7.03 5.01c.89 1.93 3.91-.81 3.85-2.2-1.44-.14-3.14 1.03-3.85 2.2m-4.88 4.52c1.35.43 3.03-1.04 3.64-2.18-.88-1.84-3.92.82-3.64 2.18m-10.21 7.12c-9.07 6.89-18.36 13.49-27.16 20.7.05.28.16.84.21 1.12 1.08-.2 1.85-1.14 2.78-1.73 9.49-7.19 18.88-14.53 28.22-21.92 2.11-1.68 4.57-3.03 6.16-5.29-3.95 1.34-6.81 4.79-10.21 7.12m-133.99 17.91-.12.83c-5.44 3.64-11.05 7.02-16.49 10.67-3.65 2.34-7.38 4.57-10.96 7.02-1.02.66-2.03 1.3-3.03 1.96-7.39 4.58-14.47 9.65-21.99 14.01-17.73 11.61-35.68 22.91-53.11 34.97-10.4 7.2-20.44 14.9-30.9 22.01-3.32 2.37-6.58 4.81-10.01 7.01-10.4 7.71-21.25 14.8-31.49 22.73-6.75 4.04-13.15 8.62-19.35 13.47-22.93 16.9-46.7 32.62-70.06 48.92-.7.07-2.1.19-2.8.26 1.21 2.66-2.61 3.1-3.8 4.67l2.85.24c-1.32.76-2.73.99-4.2.73-1.6.89-3.08 1.96-4.58 2.99l.21.81-1.29-.21.67 1.67-1.6-.62c-.06.55-.19 1.65-.25 2.2 1.82-.53 3.44-1.54 5.06-2.51-.82-1.12-.04-2.25.56-3.24l-.11 2.67c3.75-2.64 7.7-5.05 11.18-8.06l-1.41-.4.07-.48c2.56 1.84 4.62-1.65 6.89-2.53l-.81-1.37c.56.15 1.68.45 2.25.6.95-1.04 2.12-1.72 3.51-2.05-.86-1.14-.23-2.3.55-3.33.22.49.67 1.48.89 1.98 1.77-1.42 3.61-2.76 5.58-3.9l-.82-1.03 1.75.09c3.68-2.09 6.95-4.86 10.6-7.03 1.86-1.54 3.93-2.81 6.05-3.99 4.55-3.16 9.35-5.96 13.99-8.99 9.73-6.99 19.93-13.33 29.49-20.58 6.52-4.14 12.43-9.2 19.23-12.91 5.99-3.48 11.38-7.89 17.29-11.5 30.26-21.44 60.76-42.53 90.98-64.02 11.95-8.48 23.96-16.88 35.87-25.42 8.14-6.18 16.87-11.56 24.87-17.95l-1.21-.39m3.16 80.4c.56.59.56.59 0 0m-6.49 8.11.3.81c2.95-1.61 5.91-3.23 9-4.59-.3-.4-.89-1.21-1.18-1.61h1.19l-.06 1.31c1.42-.58 2.64-1.51 3.86-2.45-5.42-1.64-8.79 4.33-13.11 6.53m-146.96 8.39c-2.07 1.25-4.14 2.47-6.25 3.62-1.64 1.1-3.36 2.06-5.11 2.94-6.99 4.33-13.87 8.84-20.91 13.07-5.1 2.9-9.56 6.78-14.83 9.37-14.34 8.97-28.7 17.91-43.16 26.68-18 11.35-36.03 22.65-54.09 33.9-2.86 1.85-5.75 3.67-8.68 5.4-4.05 2.64-8.71 4.52-11.99 8.17 4.16.24 8.38-.39 12.49.56 7.22-3.55 13.41-8.78 20.12-13.17 7.36-5.26 14.62-10.68 22.17-15.67 7.96-5.46 15.69-11.24 23.81-16.46 2.42-1.49 4.77-3.08 7.19-4.58 1.94-1.42 3.96-2.72 6.04-3.95 5.9-4.15 11.94-8.11 17.99-12.05 5.2-3.02 10.15-6.42 14.98-10.01.88-.48 1.78-.94 2.68-1.4 8.29-4.39 15.43-10.56 23.33-15.56.96-.7 1.96-1.37 2.97-2.04.98-.67 2.01-1.32 3.04-1.95 5.18-3.14 9.6-7.44 15.04-10.16 2.25-1.26 4.41-2.7 6.48-4.25-5.06 1.13-8.66 5.41-13.31 7.54m31.19 23.33c-2.33.69-4.35 2.11-6.46 3.24-13.2 8.26-26.76 15.91-40.04 24.03-1.62 1.07-3.28 2.07-4.95 3.05-7.69 4.7-15.38 9.39-23.01 14.18-19.76 11.76-38.79 24.72-58.7 36.24-1.92.54-.04 2.42 1.11 2.07 3.4.1 6.85-.05 10.19.8 3.32 1.25 6.41-.92 9.45-2 16.56-9.87 33.08-19.82 49.76-29.5 21.13-12.36 42.44-24.4 64-35.99 4.73-2.6 9.5-5.1 14.31-7.55 5.59-3.03 11.34-5.82 16.62-9.39-10.68 1.48-21.53.26-32.28.82m-39.51 8.3c-16.13 10.44-31.95 21.35-47.98 31.95-1.02.68-2.03 1.35-3.05 2.01-7.9 5.47-15.92 10.75-23.95 16.01-11.28 7.78-22.8 15.19-34.43 22.41 2.39-.05 4.7.61 7.01 1.18 3.16.1 5.95-1.69 8.58-3.22 8.23-4.63 15.89-10.19 23.93-15.12 3.25-2.1 6.58-4.1 9.97-5.97 13.77-9.05 27.94-17.5 42-26.1 15.85-9.96 32.1-19.29 48.12-28.97l.16-1c-6.93.26-13.87.33-20.79.51-3.56 1.41-6.25 4.41-9.57 6.31m-8.96-4.95c-1.3.4-2.58.78-3.87 1.14-6.9 4.33-13.28 9.42-20.18 13.74-13.18 9.55-26.89 18.35-39.96 28.06-2.35 1.65-4.66 3.36-7.04 4.96-4.76 3.22-9.34 6.7-14.01 10.04-2.95 2.04-5.85 4.15-8.94 5.98-5.4 3.71-10.75 7.48-16.02 11.36 1.99.84 4.17 1.84 6.35.93 6.07-2.43 11.27-6.5 16.72-10.05 10.83-7.58 22.24-14.3 33.03-21.97 15.1-9.83 30-19.97 44.97-30 .97-.71 1.98-1.39 3-2.06.98-.67 1.99-1.32 3-1.97 5.18-3.53 10.85-6.34 15.51-10.59-4.19.11-8.43-.41-12.56.43m-57.48 4.66c-27.7 3.8-55.23 8.72-82.57 14.58-16.36 3.33-32.62 7.17-48.87 11.01-7.03 1.65-14.03 3.36-21.05 5.01-1.36.29-2.7.62-4.04.96-1.34.32-2.66.63-3.97 1.03-2.66.6-5.32 1.22-7.94 1.99-8.96 2.38-17.97 4.57-26.91 7.04-2.06.54-4.11 1.11-6.18 1.61-6.27 1.83-12.58 3.54-18.86 5.35-1.04.32-2.07.66-3.09 1.02-8.07 2.54-16.22 4.88-24.05 8.1-.5.1-1.49.32-1.98.42-6.65 2.86-13.49 5.27-20.15 8.11-3.28 1.35-6.54 2.76-9.86 4.03-6.09 2.53-12.06 5.34-18.11 7.98-13.43 6.44-26.69 13.22-39.98 19.95-.89.48-1.77.97-2.65 1.47-32.73 17.06-64.33 36.17-96.28 54.63-21.55 12.9-43.79 24.58-65.63 36.96 17.61 6.98 35.62 12.84 53.23 19.74.71-.36 2.11-1.1 2.82-1.46-.11.51-.32 1.54-.42 2.06 15.41 5.82 31.09 10.88 46.78 15.86 4.18 1.54 8.34-.74 12.22-2.1 4.65-2.01 9.61-3.36 13.98-5.95-14.68-4.59-29.5-9.06-43.5-15.46 14.9 5.23 29.82 10.48 45.13 14.44 1.71.58 3.3-.71 4.88-1.11l-.52 2.28c17.95 4.74 36.17 8.5 54.4 11.94 7.19-3.03 13.71-7.43 20.65-10.96 7.76-4.53 15.37-9.32 23.03-14 17.27-10.95 34.1-22.56 51.04-34 12.21-8.57 24.48-17.06 36.87-25.37-5.01-1.44-10.26-1.33-15.37-2.17-5.24.15-10.83-2.93-15.73.11-16.66 10.36-34.02 19.53-51.44 28.54-11.36 5.53-22.63 11.32-34.27 16.23.96-1.62 2.81-2.15 4.36-2.98 21.25-10.05 42.16-20.82 62.64-32.34 6.29-3.69 12.85-7.01 18.6-11.56-5.21-.04-10.41-.35-15.58-.96-10.9-.36-21.81.01-32.71-.23-9.69.74-19.37 1.65-28.99 3.11.42.5 1.27 1.49 1.7 1.99-.75-.59-1.49-1.17-2.22-1.76-7.84 1.5-15.63 3.31-23.51 4.46l3.13-.76c3.51-.74 7.03-1.48 10.55-2.21 16.78-4.28 34.1-6.12 51.38-6.58 11.04-.4 22.05.68 33.07.97 2.88.1 5.95 1.47 8.53-.45 18.09-11.38 36.54-22.21 54.95-33.08 16.5-10.07 32.6-20.79 49.02-30.99 1.61-1.07 3.19-2.21 4.64-3.5-16.71-.19-33.44-.34-50.14.27l.04-1.4c17.65-.8 35.39-1.53 53.02-.38 7.36-2.97 13.5-8.21 20.44-11.98 10.7-6.62 21.35-13.29 31.99-20.01 18.34-11.32 36.52-22.9 55.02-33.96 3.96-2.83 8.32-5.12 11.93-8.43-7.77 1.39-15.66 1.79-23.47 2.89m-11.51 30.27c-6.8 4.83-13.77 9.51-20.29 14.67 4.05-1.59 7.21-4.74 10.91-6.95 9.36-6.9 19.8-12.49 28.36-20.39-6.57 3.81-12.54 8.62-18.98 12.67m90.58 15.98-.1.42c-2.26.88-4.39 2.04-6.39 3.39-1.06.38-2.1.77-3.13 1.16-1.34.69-2.67 1.36-4 2.03-8.75 3.85-17.37 7.98-26.05 11.97-2.97 1.44-5.97 2.85-9.1 3.9-1.23.7-2.44 1.42-3.62 2.16 3.28.8 6.69.49 10.05.75l-.92 2.24c-2.58-.49-5.2-.49-7.77-.12-4.48.66-9.18.38-13.32 2.45-2.08.94-4.19 1.8-6.3 2.64-1.25.46-2.52.88-3.76 1.33-2.21 1.1-4.75 1.97-6.06 4.22 6.09-.1 12.18.68 18.15 1.89 1.5-.85 3.01-1.7 4.54-2.54 2.72-1.57 5.36-3.29 7.97-5.07 7.22-4.33 13.81-9.58 21.26-13.56 11.28-7.12 22.61-14.18 33.91-21.27 1.09-.42 2.21-.86 3.14-1.62 1.89-2.17 5.23-2.05 7.07-4.33-5.71 1.32-9.99 6.14-15.57 7.96m78.46 6.4c-.52.13-1.56.39-2.07.53-4.96 1.56-10.06 2.67-14.93 4.5-.52.11-1.56.33-2.08.45-3 1.13-6.05 2.12-9.09 3.11-9.4 2.7-18.6 6.03-27.79 9.35-1.01.31-2.01.64-2.98.99-3.71 1.25-7.32 2.75-11.01 4.01-4.32 1.33-8.39 3.32-12.7 4.65l.06.55c8.05.76 16.11 1.99 24.06 3.61 4.09 1.28 7.62-2.01 11.33-3.23 4.32-2.04 8.54-4.3 13-6.04 5.73-2.59 11.42-5.27 17.24-7.65 8.24-3.83 16.52-7.57 24.94-10.99 2.99-1.41 5.99-2.81 9.08-3.99 1.88-.84 3.78-1.61 5.7-2.39 2.79-1.19 5.58-2.39 8.42-3.46 1.08-.73 2.16-1.47 3.25-2.2-11.61 2.1-23.11 4.9-34.43 8.2m-209.51 6.16c-3.25 2.33-6.91 4.25-9.44 7.41 5.87-2.75 10.44-7.64 16.16-10.6 1.39-1.74 3.16-3.11 5.11-4.19l.21-.19 2.35-2.55c-5.06 3-9.4 7.02-14.39 10.12m-10.39 7.23c-.34.29-1.04.88-1.39 1.17.16 2.3 4.02-1.2 1.39-1.17m1.54 4.65c1.38.56 3.6-1.2 3.58-2.59-1.44-1.12-4.1.97-3.58 2.59m-4.19-2.9c-1.03 3.22-6.24 2.9-6.03 6.8 2.5-2.15 5.75-3.49 8.01-5.82-.49-.24-1.48-.73-1.98-.98m113.09 5.02c1.07.48 3.12-.55 2.88-1.82-1.11-.54-3.13.54-2.88 1.82m-102.03-1.43c-.61.63-1.83 1.9-2.45 2.53l2.35-.62.06 1.51c-2.51.02-5.14.05-6.93 2.17l2.93.2c-.53.73-1.03 1.48-1.5 2.26 3.02-1.49 5.59-3.73 8.66-5.14-1.75-.17-2.36-1.63-3.12-2.91m-39.63 1.6c-1.57.89-3.17 1.75-4.75 2.62-7.68 4.97-15.41 9.89-23.23 14.64-8.93 5.96-18.29 11.3-26.85 17.81 8.98-3.12 17.63-7.21 26.78-9.89 4.6-1.47 9.34-2.46 14.02-3.66 9.84-6.47 19.03-13.86 28.81-20.43-4.52-.53-9.09-1.81-13.64-.72-.28-.09-.85-.28-1.14-.37m24.1 2.83c-.17.42-.49 1.25-.66 1.66-3.69 1.61-7.39 3.49-9.65 6.99 2.51-.19 5.1-1.38 4.94-4.28l1.19 1.86c1.11-1.17 2.5-2.14 3.24-3.63 1.91-.66 3.74-1.55 4.88-3.35-1.32.26-2.64.51-3.94.75m24.97-.79c-3.15 1.08-6.25 2.34-9.01 4.23-3.55 2.19-6.39 5.31-9.42 8.11 1.06.08 3.17.25 4.23.34.32-.24.94-.72 1.25-.95 2.42-.45 4.74-1.33 7.05-2.17 4.06-1.77 8.03-3.88 11.5-6.66.07-.5.21-1.48.28-1.97.65.17 1.94.5 2.59.67-.62-.41-1.87-1.24-2.5-1.65-2-.07-3.99-.05-5.97.05m33.84 3.11c-1.32.74-2.61 1.51-3.76 2.49 2.92.65 5.86.14 7.83-2.25.82.16 1.66.33 2.51.5l.17-.83-1.55-.5c1.71-1.02 3.95-1.56 4.56-3.8-3.22 1.53-6.23 3.62-9.76 4.39m-31.74 4.63c1.68-.47 3.4-.61 5.08.05-.15-.46-.45-1.36-.6-1.82.28.3.85.9 1.13 1.2 4.26.32 8.53-.32 12.8-.37 2.7.04 4.9-1.83 6.95-3.34-2.97-2.65-7.08-.84-10.48-2.23-.23.09-.67.27-.9.36-.41-.17-1.25-.53-1.66-.71-4.79.72-8.14 4.74-12.32 6.86m45.68-6.71.06.6 2.46-.08c-.45-1.22-1.29-1.4-2.52-.52m-74.23 8.24.96 1.2-1.67-.18c-2.54 1.76-4.94 3.7-7.61 5.26-5.82 1.92-11.06 5.28-16.69 7.68l.62 1.3-1.33-.56-1.95 1.23c-4.18 3.12-8.83 5.56-12.86 8.86 3.84-.21 6.15-5.36 9.95-4.5.81-.32 1.62-.62 2.45-.92l-.95-1.79 2.19 1-.63-1.41c.46 0 1.38.01 1.84.01 5.13-2.94 9.85-6.54 14.91-9.6 1.25-.23 2.51-.57 3.53-1.39 3.57-2.51 7.87-3.77 11.34-6.45.11-.54.35-1.61.47-2.14l1.29-.04.01-1.15c.58.28 1.76.83 2.35 1.11l1.66-.51.02-4.27c-3.44 2.23-6.14 5.49-9.9 7.26m94.44 5.25c5.02 1.52 10.08 3.16 15.34 3.62 1.63-.31 3.07-1.24 4.57-1.95 2.64-1.33 5.27-2.69 7.91-4.04 3.53-1.91 7.02-3.89 10.44-5.99-6.95-.74-13.91-1.89-20.91-1.1-6.11 2.53-11.25 6.9-17.35 9.46m41.43-6.8c-7.52 3.78-15.28 7.3-22.33 11.87.73.11 2.19.34 2.92.45 6.25 2.15 12.9 3.04 18.98 5.68 1.64.07 3.3.09 4.97.07.93-.58 1.88-1.14 2.85-1.69 8.71-4.28 17.57-8.3 26.07-12.98-7.85-.93-15.57-2.84-23.45-3.49-3.29-.34-6.94-1.7-10.01.09m-103.84 2.44c-8.61 3.33-15.57 9.63-23.6 14.06-1.97 1.4-3.99 2.73-6.03 4.02-1.88 1.2-3.82 2.29-5.77 3.33-9 5.67-18.02 11.33-27.22 16.66-1.64 1.04-3.29 2.04-4.96 3.02-7.32 4.67-14.38 9.78-22 13.96-1.23.82-2.48 1.62-3.73 2.41-2.19 1.07-4.25 2.37-6.35 3.6-1.75.82-3.34 1.95-4.44 3.58 2.53-.19 5.03-.71 7.54-1.17.89-.53 1.79-1.05 2.7-1.56 8.25-3.6 15.38-9.3 23.27-13.6 13.95-8.11 28.11-15.87 42.05-24 3.32-2.03 6.81-3.79 10.05-5.95 2.63-1.71 5.29-3.38 7.98-5.01 4.98-3.58 10.55-6.16 15.96-9 2.89-1.78 5.89-3.39 8.63-5.42-4.77-.72-9.4.4-14.08 1.07m14.33 3c-3.63 1.67-7.19 3.49-10.68 5.42-7.67 3.75-14.82 8.42-22.21 12.66-5.53 3.58-11.3 6.75-17.04 9.97a62.772 62.772 0 0 1-5.06 2.99c-14.53 8.55-29.2 16.84-43.7 25.43-3.03 1.76-6.26 3.19-9.11 5.24 5.19.29 10-2.05 15.01-2.98.96 2.2-1.75 2.71-3.11 3.59-3.05 1.07-6.23 1.67-9.39 2.29-2.61.18-5.32.05-7.67 1.36-2.81 2.01-5.84 3.7-8.79 5.5-2.28 1.36-4.6 2.66-6.91 3.97-3.79 2.17-7.34 4.74-11.3 6.6-2.34 1.31-4.64 2.71-6.98 4-2.99 1.7-5.94 3.48-9.03 4.99-1.9 1.13-3.79 2.28-5.69 3.4-3.09 1.51-5.93 3.47-9.02 5-1.74.95-3.42 1.99-5.11 3.03-6.51 2.82-12.2 7.48-19.09 9.39.96.65 1.92 1.27 2.89 1.95-1.43-.2-2.82-.37-4.21-.66-1.95.94-3.86 1.93-5.78 2.91-2.7 1.47-5.47 2.83-8.32 3.99l-.13.41c-1.46.61-2.9 1.25-4.32 1.94-1.1.53-2.18 1.1-3.27 1.64-2.59 1.37-5.19 2.72-7.94 3.76.79.66 1.58 1.32 2.42 1.94 1.85.22 2.1-1.56 2.53-2.9 1.62 1.64 3.43.09 5.11-.6 2.63-1.42 5.23-2.93 8.06-3.93 2.69-1.29 5.27-2.79 7.99-4.02 1.31-.69 2.63-1.36 3.96-2.02 1.3-.73 2.64-1.42 4.02-2.01 1.98-1.11 3.97-2.19 6.06-3.1.19-.6.56-1.79.75-2.39.62.37 1.25.73 1.9 1.09 1.43-1.04 3.32-1.53 4.53-2.84l-.16-.36.56-2.03.38.74c.13.28.39.83.52 1.11 6.1-2.49 11.55-6.3 17.51-9.1 1.92-1.14 3.86-2.25 5.96-3.05.9-.48 1.8-.95 2.71-1.42 12.49-5.42 23.96-12.79 36.09-18.89 4.28-2.42 8.8-4.47 12.71-7.5-.28-.45-.86-1.36-1.14-1.81.92.24 1.83.53 2.73.87 3.63-1.05 7.37-5.86 11.17-3.01-7.02 2.36-13.09 6.93-19.46 10.64-5.24 2.7-10.46 5.44-15.64 8.25-2.05 1-4.23 1.98-5.45 4.05 2.18-.36 4.14-1.42 6-2.55 3.31-2.08 6.77-3.9 10.29-5.59.89-.49 1.79-.97 2.7-1.45 6.29-3.76 12.88-7.01 19.3-10.56 7.66-4.57 15.97-8 23.76-12.37 5.45-2.8 10.53-6.26 16.03-8.98 2.52-1.57 5-3.21 7.58-4.69l.01-.36c4.73-2.19 8.78-5.64 13.66-7.58 9.07-5.16 18.42-9.88 28.01-13.99 3.19-1.55 6.49-2.87 9.69-4.42 1.33-.66 2.67-1.32 4.02-1.98.51-.25 1.54-.76 2.05-1.01 2.4-1.22 4.8-2.43 7.24-3.6 2.84-1.58 5.73-3.07 8.71-4.39 1.98-.86 3.89-1.87 5.65-3.14-4.13-.43-8.59.66-12.39-1.43-5.31 2.37-10.18 5.57-15.1 8.65-11.69 6.98-23.06 14.53-35.06 20.98-3.02 1.68-6.05 3.34-9.07 5.03-16.97 10.48-34.04 20.93-52.03 29.61-1.08-.96-2.12-1.94-3.17-2.91 3.83-.78 7.42-2.4 10.84-4.26 5.11-2.83 10.39-5.35 15.51-8.15 10.49-6.31 21.52-11.68 31.99-18.04 10.14-5.77 20.1-11.86 30.04-17.97 7.4-4.95 15.17-9.34 22.41-14.53-6.22 1.18-12.52 2.02-18.53 4.18m-43.5-.07c.77.64 1.47 1.34 2.11 2.13 1.48-.7 2.88-1.53 4.29-2.38-2.06-1.49-4.29-.34-6.4.25m166.74.53c-7.01 3.28-13.9 6.81-20.95 10-.5.24-1.51.71-2.01.94-1.77.78-3.46 1.73-4.98 2.92 3.66.72 7.25 1.77 10.76 3.03 1 .31 2.01.64 3.02.99 4.3 1.31 8.64 2.53 12.89 4.01 1.79.76 3.52-.51 5.23-.96 10.5-5.15 21.4-9.39 31.96-14.4-10.7-3.11-21.67-5.2-32.46-7.97-1.17.47-2.32.95-3.46 1.44m-170.19.74c-.94 2.39-4.08 2.33-5.89 3.91-14.98 10.19-29.77 20.65-44.95 30.54.51.6 1.03 1.21 1.56 1.83-1-.02-1.93-.27-2.78-.72-5.91 3.74-11.29 8.62-17.83 11.16 1.05.65 2.08 1.25 3.16 1.93-1.5-.24-2.9-.38-4.36-.65-1.55.95-3.14 1.83-4.74 2.68 1.05.68 2.12 1.28 3.22 1.92 2.58-2.3 5.7-3.85 8.74-5.45 14.42-10.01 29.13-19.6 43.96-29.01 1.96-1.39 3.97-2.69 6-3.98 1.94-1.4 3.92-2.76 5.97-4.01 3.63-2.33 7.08-4.92 10.67-7.32-.7-.3-2.1-.91-2.8-1.22.95.06 2.83.16 3.77.22l-.44-1.08c-1.09-.33-2.17-.52-3.26-.75m72.01 4.84c-2.89 1.49-5.71 3.14-8.69 4.45-5.07 2.66-10.1 5.41-15.42 7.56-4.35 1.91-8.64 3.97-12.93 6-1.34.66-2.67 1.32-4 1.95-4.6 2.42-9.06 5.1-13.7 7.43-2.83 1.43-5.54 3.09-8.3 4.64-2 1.07-3.97 2.21-5.73 3.65 6.6-1.94 12.75-5.15 19.37-7.02 1.9-.55 3.8-1.1 5.58-1.99.52.08 1.56.22 2.08.29l.22.35c-3.84 1.24-7.77 2.17-11.52 3.67-1.88.87-3.79 1.64-5.69 2.42-2.38 1.01-4.77 1.99-7.14 3-7.63 1.75-14.32 5.9-21.11 9.61-6.26 4.08-13.17 7.02-19.55 10.91-8.99 4.36-17.48 9.66-26.45 14.08-3.06 2.12-6.48 3.63-9.74 5.39-2.7 1.63-5.42 3.24-8.25 4.64-2.51 1.62-5.24 2.88-7.99 4.01-1.25.83-2.52 1.63-3.79 2.41-3.44 1.43-6.68 3.28-10.02 4.91-4.97 2.72-9.92 5.47-14.98 8.01-6.78 4.12-14.1 7.2-21.06 10.99-4.75 2.37-9.66 4.44-14.27 7.07 1.63.44 3.3.89 4.99 1.2.67-.34 2.01-1.03 2.69-1.37l-.46-.65c1.65-.36 3.31-.74 4.96-1.16-1.18-.64-2.4-1.21-3.59-1.78 1.63.11 3.29.25 4.92.51 3.18-1.35 6.29-2.85 9.46-4.22 13.2-6.4 26.54-12.53 39.4-19.59 9-4.54 17.49-10.02 26.55-14.44 3.81-2.02 7.68-3.92 11.54-5.83-.52 1.54-1.32 3.03-2.81 3.8-7.78 3.88-15.4 8.09-23.04 12.24.14.24.41.72.55.96.62-.64 1.25-1.27 1.9-1.9 1.31.5 2.39 1.43 3.48 2.33-2.56 1.01-5.03 2.19-7.48 3.43-6.39 3.82-13.34 6.56-19.83 10.2-11.97 6.12-23.94 12.26-36.07 18.06-4.7 2.3-9.15 5.17-14.16 6.8-1.65.67-3.3 1.33-4.94 1.98-2.6 1.1-5.18 2.23-7.73 3.42-3.02 1.3-6.07 2.54-9 4.03-1.74.71-3.55 1.34-5.28 2.02-.03-.38-.09-1.14-.11-1.53 1.23-.73 2.31-1.69 3.37-2.64l.72 1.14c.13-.79.25-1.56.36-2.32-1.58.66-3.36.79-4.8-.26 2.12-.79 4.25-1.6 6.41-2.29-.49-.54-.98-1.06-1.46-1.57.93-.84 1.87-1.68 2.77-2.56-2.91 1.16-5.77 2.42-8.69 3.54l.27.69c-3.17.42-5.86 2.3-8.91 3.14 1.13.65 2.28 1.28 3.4 2.01 1.27-.55 2.54-1.14 3.79-1.75.41-.12 1.23-.35 1.64-.47 1.91 1.13-1.61 3.38-2.67 3.77 1.23.21 2.46.53 3.6 1.1-5.46 2.45-11.14 4.36-16.71 6.55-2.91 1.14-5.83 2.26-8.75 3.37-11.6 3.89-23.1 8.12-34.79 11.72 1.76 1.19 3.92 2.13 6.06 1.28 5.75-2.23 11.9-3.12 17.74-5.09 8.7-2.85 17.4-5.78 25.98-9 8.49-3.85 17.28-6.98 26.11-9.98 8.77-3.39 17.32-7.33 26.11-10.67 5.88-1.89 11.67-4.07 17.15-6.94 25.54-11.34 50.45-24.02 75.3-36.78 3.72-1.92 7.29-4.12 11.04-5.99 3.99-2.51 8.34-4.42 12.16-7.21-6.74.01-13.77-.48-20.11 2.22-3.7 1.61-7.34 3.32-10.98 5.05-5.54 3.23-11.28 6.08-16.98 9-1.33.73-2.67 1.45-4.03 2.09-.69-.8-1.29-1.66-1.89-2.5 6.75-3.35 13.28-7.12 19.99-10.56 1.69-.93 3.63-1.63 4.75-3.32-.64.42-1.92 1.25-2.56 1.67-.4-.96-.74-1.94-1.05-2.91 4.65-1.12 8.68-4.01 12.91-6.18 5.25-3.01 10.6-5.99 16.34-7.99-.14-.2-.41-.59-.55-.78 3.29-.39 6.11-2.24 9.01-3.69 14.18-7.91 28.86-14.9 42.99-22.9.65-.66 2.52-.89 2.21-2.12l-.31-.46c1.49-1.85 4.66-1.86 6.73-3.19 8.48-4.67 16.72-9.79 25.31-14.26 3.72-2.22 7.46-4.42 11.21-6.6.97-.69 1.99-1.35 3.01-2 2.64-1.89 5.47-3.55 7.92-5.7-5.05.69-9.52 3.11-13.98 5.4m-60.02-4.3c-4.77 2.64-9.31 5.63-13.76 8.75-4.92 3.47-10.15 6.46-15.23 9.68-6.59 4.41-13.11 8.95-20 12.89-3.1 2.01-6.11 4.2-9.4 5.91-.09.67-.29 2.02-.39 2.7-.64-.41-1.28-.8-1.91-1.18-2.66 1.98-5.36 3.9-8.2 5.6-2.1 1.46-4.25 2.86-6.52 4.02l.82 1.07c-1.86-1.06-3.05.09-4.07 1.42 1.49-.29 3.05-.55 4.53.01 16.38-10.94 33.26-21.18 50.2-31.26 1.61-1.07 3.28-2.07 4.98-3.02 7.89-5.58 16.6-10.08 23.88-16.48-1.66-.08-3.3-.11-4.93-.11m58.04 14.33c-1.65 1.05-3.32 2.05-4.99 3.05-23.85 14.49-48.39 27.77-72.77 41.34-2.08 1.23-4.15 2.47-6.29 3.58-5.96 3.47-12.37 6.29-17.81 10.57 6.2.64 12.21-1.33 18.41-1.06 4.8-1.8 9.08-4.71 13.52-7.23 12.92-7.47 25.92-14.82 39.04-21.95 7.58-4.15 15.15-8.32 22.76-12.41 4.33-2.33 8.65-4.68 12.96-7.06 8.41-4.56 16.85-9.05 25.27-13.6 2.36-1.62 4.84-3.04 7.37-4.38-5.06-2.11-10.43-3.16-15.78-4.21-7.13 4.6-14.43 8.95-21.69 13.36m-2.78 15.34c-14.71 7.93-29.31 16.06-44 24.04-2.35 1.34-4.69 2.68-7.05 3.99-8.2 4.81-16.69 9.13-24.59 14.45 6.88 1.33 14.07.53 20.84 2.65 16.31-7.39 32.01-16.1 48.05-24.07 24.86-13.02 50.27-24.96 75.2-37.82-7.86-2.96-16.04-5.25-24.24-6.95-14.73 7.9-29.46 15.85-44.21 23.71m142.42-23.57c-1.88.81-3.77 1.56-5.7 2.22a152.08 152.08 0 0 0-7.73 3.4c-6.15 2.83-12.4 5.42-18.53 8.28-1.36.65-2.85 1.23-3.69 2.54 8.62 1.94 16.9 5.1 25.47 7.26 2.16-.71 4.28-1.48 6.4-2.35l-.24 1.95c-.68.52-2.05 1.56-2.74 2.07 3.79-1.3 7.61-2.65 11.14-4.59-2.72.3-5.8 2.41-8.22.27 3.55-.79 6.81-2.46 10.28-3.53 1.43-.14 4.87-3.45 5.14-.94-2.28 1.6-4.94 2.56-7.11 4.32 2.95-1.03 5.78-2.39 8.54-3.85 2.41-.64 4.76-1.57 6.8-3.05-2.92-.6-5.22 3.09-7.98 1.15 2.75-.99 5.5-2.05 8.16-3.3 1.26 1.89 1.75-.3 2.33-1.11 2.19-.68 4.35-1.47 6.54-2.18l.03-.49c-9.53-3.04-19.16-5.77-28.89-8.07m-268.45 6.58c-2.43.88-4.85 1.75-7.28 2.6-7.99 3.28-16.13 6.28-23.76 10.37-.51.26-1.53.76-2.03 1.02-12.63 6.85-24.84 14.45-37.19 21.78-1.99 1.17-3.9 2.47-5.66 3.96 7.04.85 14.16 1.15 21.16 2.38 2.84.21 5.99 1.09 8.61-.5 19.38-13.11 37.73-27.69 57.24-40.62 2.83-2.15 6.12-3.83 8.27-6.76-6.67 1.08-13.06 3.41-19.36 5.77m172.51 13.57c-26.85 12.85-53.33 26.46-79.81 40.03-1.58.8-3.16 1.59-4.72 2.4-2.01.97-4.01 1.97-5.98 3.01-1.89.86-3.75 1.75-5.65 2.58l-.03.53c8.07 1.22 16.23 1.9 24.18 3.83 1.37.3 2.8.24 4.22.25a2139.98 2139.98 0 0 1 119.2-55.19c.81-.46 1.64-.91 2.49-1.34-9.41-2.91-18.7-6.26-28.25-8.65-8.74 3.64-17.07 8.46-25.65 12.55m128.39-10.31c-2.23 1.43-4.66 2.51-7.16 3.35-.93.46-1.85.92-2.74 1.39-2.78 1.13-5.52 2.35-8.23 3.61-4.56 2.18-9.04 4.52-13.72 6.43-1.35.62-2.68 1.25-4 1.89 9.24 1.79 18.2 4.8 27.25 7.35 9.24-3.57 18.16-7.96 27.31-11.78 2.08-.91 4.19-1.78 6.34-2.55.73-.31 2.17-.93 2.9-1.23-3.57-2.04-7.66-2.85-11.5-4.19-5.48-1.44-10.84-3.45-16.45-4.27m-320.32 2.27c.63.47.63.47 0 0m28 8.76c2.23 0 4-1.53 5.85-2.57l-1.28-1.12c2.65.11 3.83-2.68 5.4-4.32-3.73 2.13-6.91 5.04-9.97 8.01m220.39-3.98c-14.76 6.94-29.88 13.09-44.7 19.88-22.35 9.75-44.21 20.53-66.3 30.83-2.01.96-4 1.95-5.96 2.98-.5.25-1.5.74-2.01.99-1.24.62-2.47 1.28-3.69 1.94 7.91 1.83 15.94 3.03 23.84 4.93 1.88.69 3.59-.52 5.27-1.2 15.02-7.23 30.23-14.09 45.51-20.74 7.61-3.86 15.63-6.83 23.42-10.32 12.46-5.35 24.93-10.67 37.54-15.68 4.15-1.72 8.23-3.66 12.5-5.1-.21-.32-.65-.96-.87-1.28-1.24-.27-2.47-.54-3.68-.82-.99-.37-1.97-.75-2.93-1.12-6-1.71-11.95-3.57-17.94-5.29m98.77 3.28c-7.81 3.04-15.33 6.73-23.04 9.99-3.25 1.72-6.66 3.1-10.11 4.32 6.57 3.44 14.11 4.57 21.1 7.01 2.92 1.18 5.59-1.2 8.31-2 6.75-2.9 13.37-6.07 20.13-8.95 2.36-1.2 4.82-2.22 7.37-2.97l-.15-.35c1.12-.32 1.98-.97 2.57-1.96-7.26-1.81-14.23-4.74-21.54-6.4-1.62.15-3.11.84-4.64 1.31m-330 7.03c-.89.47-1.77.95-2.65 1.43l1.98.18-.26 1.1-2.17-.63.82 1.74c-.78-.27-2.33-.83-3.11-1.11l.98 1.97-1.1.02.33-1.32c-3.93 2.56-7.78 5.25-11.78 7.7-1.2.77-2.45 1.49-3.67 2.21.76.5 1.57.94 2.42 1.33 1.76-1.11 3.49-2.28 5.26-3.4 2.03-1.32 4.05-2.66 6.11-3.95 3.34-2.32 6.82-4.47 9.88-7.18l-2.53.43.84-2.2c-.34.42-1.01 1.26-1.35 1.68m250.99 2c-34.55 14.07-68.67 29.15-102.72 44.37-4.05 1.91-8.18 3.64-12.04 5.9 2.29.55 4.68 1.96 7.09 1.05 4.61-1.38 8.93-3.54 13.34-5.45 22.27-10.22 44.8-19.84 67.03-30.13 11.14-5.25 22.56-9.9 33.62-15.34 1.78-.98 4.03-1.68 4.81-3.78-3.95.15-7.5 2.03-11.13 3.38m71.17 13.2c9.53 4.1 19.83 5.99 29.7 9.09 4.91 1.4 9.81 2.84 14.74 4.16 8.65-2.33 16.73-6.37 25.01-9.74 4.57-2.25 9.6-3.4 14.06-5.89-3.47-1.75-7.35-2.37-11.04-3.46-11.96-3.35-23.93-6.67-35.79-10.37-12.39 5.03-24.32 11.1-36.68 16.21m-63.12-12.23c-.92.49-1.83.98-2.73 1.47-11.03 5.54-22.45 10.24-33.67 15.39-25.73 11.66-51.59 23.07-77.46 34.42 6.91 3.03 14.69 3.85 21.88 6.25 3.8-2.38 8.32-3.14 12.33-5.12 35.29-14.53 70.51-29.25 105.54-44.43 2.04-1 4.09-1.99 6.18-2.91-2.22-1.63-5.01-2.05-7.57-2.85-5.65-1.53-11.23-3.29-16.94-4.56-2.76-.61-5.1 1.46-7.56 2.34m-196.2 3.99c.61.45.61.45 0 0m229.34 2.28c-3.36 1.28-6.66 2.69-9.93 4.17-31.24 13.72-62.81 26.7-94.42 39.57-6.28 2.8-13.01 4.71-18.87 8.34 8.65 1.65 17.11 4.19 25.71 6.13 10.05-3.02 19.52-7.58 29.4-11.06 11.72-4.58 23.38-9.32 34.94-14.31 19.53-8.55 39.26-16.64 58.55-25.72l.01-.39c-6.17-1.92-12.32-3.88-18.47-5.85-2.26-.63-4.59-2.05-6.92-.88m103.12 9.02c-8.81 3.51-17.41 7.53-26.27 10.87 15.4 5.2 31.37 8.52 46.94 13.16 5.24 1.07 10.36 3.11 15.72 3.4 9.17-3.56 18.55-6.57 27.65-10.33 6.09-2.58 12.68-3.98 18.43-7.36-14.52-2.47-28.94-5.49-43.35-8.54-9.01-1.91-17.84-4.53-26.86-6.33-3.88 2.18-8.14 3.53-12.26 5.13m-418.43-3.89.7 2.43-1.45-.95c-1.06.92-2.2 1.73-3.51 2.24l.57.7c-2.53.36-4.31 2.29-6.1 3.92l1.89-.52c1.25-.25 2.52-.49 3.79-.72-.37-.4-1.09-1.2-1.45-1.6 1.43.46 2.9.26 4.28-.26l-1.16-1.6c2.21.81 3.86-.82 5.31-2.14-.94-.56-1.9-1.06-2.87-1.5m334.95 5.62c-6.49 3.33-13.32 5.91-19.94 8.94-23.31 10.06-46.61 20.17-70.28 29.37-8.34 3.37-16.94 6.11-25.12 9.89 11.34 3.19 22.84 5.77 34.2 8.89 4.41 1.38 8.68-1.34 12.92-2.3 40.86-13.48 81.3-28.37 120.99-44.94-3.24-1.91-7.1-2.26-10.6-3.53-10.46-2.94-20.98-5.65-31.34-8.95-3.84-1.81-7.35 1.38-10.83 2.63m-330.43-.4c1.3.07 2.54.37 3.74.91.92-.5 1.83-1 2.77-1.49-1.35-.39-2.64-.74-3.93-1.21-.87.59-1.73 1.18-2.58 1.79m11.33-1.45c-2.64 1.07 1.01 3.89 2.26 1.8 1.28-1.29-1.27-2.25-2.26-1.8m-14.9 3.77.2.96c-1.69-.39-2.73.77-3.72 1.85 1.99-.44 3.97-.99 5.96-1.48l-.54-1.33.75-.61.28 1.65c1.04-.56 2.09-1.12 3.14-1.7-.83-.58-1.66-1.13-2.5-1.66-1.23.71-2.39 1.53-3.57 2.32m9.03 1.87-.48-1.24c-1.82 1.35-3.71 2.61-5.3 4.24 3.18-.1 6.07-1.49 8.23-3.78l-.36-.63v-.47c.82.24 1.63.52 2.45.83.01-.82.03-2.46.03-3.28-2.18.73-4.26 1.78-4.57 4.33m-19.36 5.12c.27.45.82 1.35 1.1 1.79-1.11-.37-2.21-.73-3.3-1.08-2.11 1.35-4.23 2.68-6.4 3.91.6.07 1.8.23 2.4.31l-2.76-.14.71 2.1c-.61-.5-1.23-.97-1.84-1.42-6.02 4.39-12.8 7.61-18.8 12.01 4.1-.36 7.38-3.23 11.23-4.49 1.07-.52 2.14-1.05 3.22-1.58 1.62-1.12 3.33-2.1 5.05-3.04 1.7-1.14 3.45-2.29 5.48-2.74-.9-1.16-.58-2.39.3-3.5.27.53.8 1.57 1.06 2.09 2.35-1.33 4.9-2.3 7.12-3.87l-3.35-.5c1.2-.16 2.41-.32 3.62-.49l-.09-.61c-1.6.38-3.17.84-4.75 1.25m-.45 6.15c-4.5 2.92-9.2 5.5-13.95 7.98-3.22 2.01-6.44 4.03-9.83 5.72.44.54.88 1.09 1.33 1.65-.43.23-1.28.7-1.71.93-.4-.74-.82-1.47-1.23-2.18l-.19 1.25c-9.17 5.29-18.24 10.75-27.36 16.15-1.21-1.95.97-3.28 2.46-4.05-2.33.56-4.44 1.7-6.6 2.66 1.39.21 2.75.64 4.06 1.2-1.56 1.05-3.07 2.11-4.66 3.09-2.09 1.21-4.16 2.44-6.28 3.59a575 575 0 0 1-3.41 1.87l.85 1.37c-3.22-1.18-5.58 2.02-8.32 3.14 1.81 1.8 3.98.39 5.74-.63l-2.13-.31 2.93.12c1.07-.85 2.19-1.61 3.42-2.22.44-3.26 3.57-1.46 5.4-2.75 5.54-3.12 11.13-6.19 16.4-9.77 1.05-.5 2.09-1.02 3.15-1.51 1.59-1.14 3.27-2.14 4.99-3.07 4.54-2.88 9.36-5.34 13.78-8.38 7.46-5.03 15.75-8.67 23.24-13.65 3.06-2.07 6.27-3.9 9.37-5.91-.17-.33-.49-.99-.65-1.32l.05-.21c.92.31 1.84.62 2.78.93-.03-.52-.1-1.57-.14-2.09-5.41-.55-9.16 3.96-13.49 6.4m512.15-6.35c-6.13 3.01-12.75 4.8-19.07 7.35-8.98 3.6-18.07 6.91-27.17 10.17 1.87 1.5 4.32 1.69 6.57 2.29 10.87 2.65 21.75 5.29 32.62 7.97 8.88 1.46 17.56 4.51 26.52 5.23 17.92-5.88 35.15-13.71 52.36-21.37l.07-.58c-12.21-2.58-24.7-3.49-36.98-5.66-11.69-1.43-23.23-3.93-34.92-5.4m-495.36 2.26c-3.06 2.29-6.27 4.37-9.58 6.29.85.46 1.74.95 2.6 1.47.97-.63 1.96-1.25 2.97-1.86 4.21-2.8 8.57-5.43 13.48-6.85-3.18-.08-6.37.36-9.47.95m378.78.8c-5.35 1.88-10.58 4.05-15.81 6.22-36.45 15.06-73.8 27.76-111.17 40.32a855.18 855.18 0 0 0 53.93 12.33c3.53.87 7.26 1.66 10.88.75 9.92-2.48 19.32-6.59 29.11-9.51 33.12-10.93 65.93-22.79 98.72-34.66-8.65-3.4-17.78-5.26-26.73-7.61-11.09-2.7-22.04-5.92-33.02-9-2.08-.81-4.01.56-5.91 1.16m-334.77 3.87c.53.62.53.62 0 0m-55.49 2.82c-5.84 3.93-11.93 7.46-18.04 10.96-2.34 1.2-4.49 2.82-7.06 3.52.9.61 1.82 1.19 2.75 1.78 2.51-1.78 5.12-3.44 7.89-4.78 3.16-1.79 6.11-3.92 9.32-5.62 1.63-1.03 3.31-1.99 4.97-2.99 1.35-.93 2.73-1.83 4.07-2.79-1.27-.24-2.78-1.37-3.9-.08m98.64 6.47c-6.72 4.26-14.11 7.28-21.02 11.19-25.98 13.37-52.25 26.19-79.03 37.87-7.8 3.92-16.33 6.21-24.02 10.35 5.66 1.1 11.04 3.26 16.63 4.64 4.39-1.2 8.62-2.92 12.92-4.41l-.1.66c-3.49 1.02-6.91 2.29-9.98 4.24 5.93 1.89 11.91 4.1 18.14 4.66 9.39-2.13 18.18-6.11 27.3-9.09 3.33-1.23 6.57-2.7 9.86-4.04.32.03.96.08 1.28.11 3.28-2.46 7.43-3.23 11.04-5.07l1.06.04c1.45-.89 2.92-1.75 4.51-2.38 27.64-11.47 54.36-25.06 82.07-36.33l-.02-.39c2.78-1.12 5.42-2.54 8-4.06-8.03-1.77-16.01-3.78-24.1-5.2-5.93 1.94-11.32 5.19-16.92 7.87-21.98 10.37-43.8 21.1-66.15 30.67-7.66 3.42-15.27 7.16-23.31 9.57 7.52-3.95 15.66-6.63 23.26-10.46 16.18-7.23 32.25-14.72 48.16-22.53 10.55-5.14 21.49-9.66 31.49-15.84-6.46-1.07-12.92-2.16-19.38-3.14-3.93-.2-8.08-.9-11.69 1.07m351.07 5.29c-32.66 12.55-65.8 23.79-98.99 34.83-7.5 2.61-15.35 4.52-22.34 8.35 11.34 1.36 22.53 3.88 33.83 5.67 8.88 1.28 17.59 3.52 26.54 4.32 4.09-1.3 8.34-1.97 12.54-2.83 41.82-9.2 82.62-22.45 122.73-37.32-12.15-4.13-24.94-5.84-37.32-9.11-9.52-2-18.87-4.8-28.46-6.48-2.94.47-5.72 1.63-8.53 2.57m-475.2 3.14c-2.08 1.5-4.29 2.8-6.53 4.04.39.22 1.16.66 1.55.89-3.6-.46-7.78 1.85-8.61 5.54 4.12-2.15 7.91-4.94 12.31-6.55-.24-.4-.74-1.21-.98-1.61h.99l.09 1.33c.8-.48 2.4-1.45 3.2-1.93l-2.28.23c.07-.48.2-1.46.26-1.94m17.68 3.99.46-.03-.58.88c2.57-1.06 5.17-2.25 7.25-4.14-2.47.66-5.47 1.19-7.13 3.29m-9.22 4.15.95 1.09c1.85-1.06 5.47-1.85 5.93-3.6-2.49-.22-4.61 1.7-6.88 2.51m-32.1 6.56c-2.37.22-3.72 3.17-6.27 1.98.08.41.23 1.24.31 1.65 2.15-.5 4.16-1.43 6.15-2.38l.14-.37c3.37-2.65 8.79-3.01 10.34-7.44-3.74 1.82-7.52 3.83-10.67 6.56m28.9-5.28c-3.36 2.64-7.3 4.31-11.07 6.27-1.44 1.09-3.17 1.7-4.81 2.42-1.05.51-2.06 1.05-3.08 1.59-2.61 1.55-5.16 3.28-8.03 4.32l.56 1.08c-2.44-.38-4.72.57-6.9 1.49l-.06.54c-.64.28-1.94.86-2.59 1.15 1.17.36 2.35.72 3.54 1.08l-.81-1.61c1.67.58 3.32.41 4.77-.6l-.68-1.07c4.56.06 8.09-3.6 12.24-5.11 4.22-2.53 8.67-4.64 12.96-7.04 2.81-1.43 5.6-2.91 8.2-4.71l-.09.01c-1.39.03-2.78.1-4.15.19m-323.86 5.87c-2.28 1.37-4.67 2.54-7.04 3.73-1.33.66-2.66 1.34-3.98 2.03-1.35.63-2.69 1.3-4.02 1.98-13.82 6.81-27.99 12.87-42.27 18.65-17.69 6.75-35.64 12.83-53.86 17.99-9.13 2.71-18.46 4.67-27.67 7.04l-.71.58.47.63c7.9 2.18 15.46 5.44 23.35 7.62 6.29-1.39 12.86-1.55 19.02-3.52 2.27-.63 4.65-.64 6.98-.82 4.9-1.36 10.02-1.45 14.98-2.47 5.03-.81 10-2.03 15.08-2.44 3.73-.41 7.36-1.34 11.04-2 2.2-.34 4.4-.73 6.54-1.36l3.35-.48.02.58c-14.72 2.3-29.31 5.36-44.07 7.42-3.52.45-6.96 1.7-10.54 1.41-.67.41-1.33.83-1.99 1.26-5.85.22-11.51 1.97-17.34 2.48l1.32 1.28c5.2 2.13 10.69 3.43 15.96 5.38 5.57 1.63 11.05 3.77 16.82 4.58 6.17-.41 12.29-1.81 18.5-1.8 3.52-.01 6.83-1.66 10.36-1.36 4.72.17 9.34-1.15 14.06-1.01 6.7.16 13.28-2.24 19.99-1.21 2.09.39 4.2.09 6.26-.37 4.5-1.09 9.16.07 13.68-.79 7.61-1.52 15.41-.52 23.06-.11-.72-.38-2.17-1.15-2.9-1.53 5.94.92 11.59-1.57 17.27-2.84 11.35-3.68 22.81-7.03 34.02-11.1 9.62-4.08 19.68-7.1 28.94-12-1.33-.71-2.72-1.31-4.15-1.72-15.44-4.66-30.57-10.25-45.79-15.51-5.56 2.02-10.91 4.55-16.45 6.6 1.79-1.37 3.89-2.2 6.01-2.91 2.94-1.23 5.84-2.6 8.42-4.49-3.37-1.3-6.83-2.35-10.3-3.35-14-5.67-28.36-10.5-42.42-16.05m325.05 6.33c3.04-1.06 6.21-2.21 8.62-4.43-3.12.89-6.21 2.2-8.62 4.43m-6.44 1.93-.07.64 1.44.36.11-.97c-.37-.01-1.11-.02-1.48-.03m-8.57 4.55c-2.73 1.33-5.48 2.62-8.18 4.01-4.45 1.63-8.67 3.79-12.89 5.93-1.45.63-2.9 1.27-4.33 1.91.79.24 2.37.71 3.17.94.82-.3 1.65-.58 2.49-.85-.07-.38-.23-1.16-.3-1.54l1.68.35a68.22 68.22 0 0 0 11.38-5.59c5.42-1.91 10.07-5.57 15.61-7.14-.51-.43-1.02-.86-1.52-1.27-2.36 1.12-4.76 2.12-7.11 3.25m-49.57-.5v2.43l-1.32-1.81c-1.96 1.35-3.88 2.89-6.23 3.48-1.66.84-3.36 1.58-5.02 2.41.14.29.43.88.57 1.18 4.67-3.87 11.14-3.87 16-7.39l-1.37-1.61c-.88.43-1.76.87-2.63 1.31m20.98 4.06c.06.39.19 1.16.25 1.55l-1.69.13.06 1.28c2.04-.98 4.03-2.12 6.26-2.64l-.64-1.25 1.65.61c-.11-.61-.34-1.84-.45-2.45-1.8.96-3.61 1.9-5.44 2.77m6.9-2.18c.55.62.55.62 0 0m-11.1 3.83.74 1.33c-1.66-.23-3.2.4-4.76.81.21.49.63 1.47.85 1.96-.79-.24-2.35-.74-3.13-.98.59.78 1.3 1.44 2.13 1.98 1.37-.45 2.17-1.75 2.8-2.95.57.24 1.7.71 2.27.95.54-1.02 1.07-2.04 1.59-3.07-.84 0-1.67-.01-2.49-.03m3.6 3.1c-2.37 1.28-4.81 2.44-7.24 3.6 1.52.31 3.04.65 4.56 1.02 2.47-1.11 4.94-2.22 7.44-3.28-1.6-.46-3.18-.88-4.76-1.34m-13.26 2.21c-1.45 2.02-3.58 3.15-6.1 3.04-2.34.89-4.65 1.85-6.88 2.98.47.66.96 1.32 1.49 1.96.02-.59.06-1.77.09-2.36l2.15 1.14c-.08-.51-.26-1.51-.35-2.02.69.14 2.06.42 2.74.56 3.55-1.94 7.42-3.19 10.93-5.2-1.36-.07-2.72-.1-4.07-.1m-18.86 2.97c-1.62.8-3.26 1.55-4.81 2.46l1.43.32-.04 1.51c-.55-.39-1.66-1.17-2.22-1.56-1.09.56-2.21 1.1-3.29 1.66l1.95.72c-.73.59-1.43 1.2-2.12 1.83 3.13-1.35 6.49-2.29 9.31-4.26l2.32.04-.22-1.02 4.23-1.23c-1.84-2.24-4.3-1.75-6.54-.47m23.94-.99c-1.7.57-3.32 1.31-4.99 1.95-1.29.74-2.5 1.61-3.61 2.59l3.31-.84-.11.76c-1.81-.99-2.25 1-2.76 2.07 1.65.42 3.23-.78 4.84-1.05l-.84-1.47 2.42.76c-.15-.77-.45-2.3-.61-3.07l1.33-.01-.68 2.24c.67-.23 2.02-.67 2.69-.89 1.32-.69 2.65-1.38 3.97-2.08-1.67-.32-3.28-.86-4.96-.96m3.76 3.19 1.4.51c-.53.42-1.05.83-1.58 1.24-1.41-.2-2.86-.22-4.26 0 1.01 1.62 1.99 2.22 3.15.3.58.1 1.75.31 2.33.41 1.19-2.28 3.52-3.2 6-3.23-.14-.65-.43-1.95-.57-2.6-2.15 1.14-4.28 2.3-6.47 3.37m8.22-2.57c.16 3.25 3.05-1.42 0 0m126.1.33c.62.49.62.49 0 0m-163.97 6.84c1.63-.05 3.28-.09 4.93-.11 1.05-.97 2.34-1.87 2.5-3.46-2.65.79-5.09 2.11-7.43 3.57m-11.42-.83-.04.67c1.28.39 2.57.8 3.87 1.19l.6-3.3c-1.5.44-2.96.96-4.43 1.44m-1.52.87c-1.18.4-2.34.81-3.5 1.23l.23.54c-1.73.32-3.32 1.06-4.85 1.9l2.65.72.01-1.78c.43.71.85 1.42 1.29 2.15l2.2-1.32c1.76-.77 3.54-1.52 5.39-2.08-1.16-.47-2.28-.92-3.42-1.36m9.11 5.34c-1.72.73-3.53 1.25-5.31 1.75 1.34.96 3.1 1.68 4.36.02.09.64.18 1.3.28 1.96 2.36-1.6 5.09-2.48 7.77-3.37-1.35-.69-2.71-1.36-4.08-1.98-1.01.54-2.01 1.08-3.02 1.62m-20.44.28c.92 1.67 3.3.9 4.36-.21-.44-1.67-3.9-1.34-4.36.21m9.39 3.95c-3.2 1.14-6.32 2.49-9.53 3.59l-.02.49c-3.47.76-6.86 2-9.79 4.04 1.1.83 2.36 2.34 3.9.99 1.2-.47 3.43-.45 2.26-2.22.42-.08 1.27-.25 1.69-.33-.07.29-.2.88-.26 1.18 5.61-2.13 11.42-3.99 17.02-6.28l-1.79-.34.01-.45c2.15.72 4.24-.28 6.37-.6-1.21-.69-2.53-1.75-4.06-1.02-.18-.24-.53-.72-.71-.96-1.69.64-3.4 1.27-5.09 1.91m-26.47 2.82c.1.26.29.8.39 1.07-.74.31-2.22.94-2.96 1.26-.22-.38-.66-1.13-.88-1.51-1.03 1.28-1.96 2.81-3.86 1.81l1.27 1.68c-.7-.13-2.1-.39-2.81-.52l.43 1.93c5.8-3.39 12.65-4.5 18.45-7.93l-.97-1.1c-3.44-.14-5.33 4.56-9.06 3.31m4.58 5.2c-1.7.69-3.41 1.37-5.11 2.07-1.66.67-3.34 1.31-5.02 1.91-1.06.47-2.1.95-3.14 1.44-.76-.21-1.5-.42-2.24-.64-.17 2.66 2.9 2.17 4.64 2.6-.18-.46-.53-1.39-.7-1.85 3.63 1.75 7.37-1.24 10.89-2.08-.31-.6-.92-1.8-1.23-2.4.84.28 2.53.84 3.38 1.12.38-1.05.76-2.09 1.14-3.13l-2.61.96m-40.28 14.05 1.53.52-.11.39c-1.39-.27-2.8-.53-4.18-.75.05.4.16 1.18.22 1.58-2.22-.63-4.41.35-6.56.76l.4 1.51c-.81-.22-2.42-.67-3.23-.9.38.47 1.13 1.41 1.5 1.89-1.67-.39-3.4-.68-5.08-.84.27.52.81 1.55 1.08 2.07l-1.31.18.25-1.25c-.69.05-2.07.13-2.76.18.46.45 1.38 1.36 1.84 1.82-1.77-.42-3.78-1.41-5.41-.07-1.9.89-4.24.88-5.85 2.32-2.29-.88-2.31.84-2.33 2.55.25-.28.75-.83 1-1.11 2.3-.05 4.88-.3 6.76-1.77l2.7.16-.05-.94c6.95-.91 13.4-4.08 20.15-5.92 1.72-.69 4.64-.67 4.52-3.2l1.14 1.34c2.5-1.01 4.98-2.12 7.64-2.68-.57-.35-1.73-1.06-2.31-1.41l-.53 1.24c-3.88-.81-7.43 1.2-11.02 2.33m5.04 4.59c-4.79 1.31-9.43 3.35-14.4 3.87.16.36.49 1.08.65 1.44-3.79-1.34-7.47 1.63-11.34 1.58 1.02.73 2.03 1.51 3.07 2.25 2.15-.66 4.32-1.27 6.53-1.72-.19-.51-.56-1.54-.75-2.05.24.41.71 1.24.95 1.66 2.58-.44 5.13-1.02 7.7-1.55-.13-.36-.39-1.1-.53-1.47l.53-.83.04 1.83c1.51-.27 3.03-.57 4.5-1.02 3.04-.95 6.08-1.93 9.18-2.69 2.19-.92 4.41-2.17 6.92-1.66-.62-.54-1.23-1.06-1.84-1.57l1.84.06-.25-1.91c-4.29 1.18-8.47 2.74-12.8 3.78m31.59-3.16c.57.6.57.6 0 0m-64.41 12.14c1.38 3.61 5.79.46 8.49.68.02-.43.06-1.29.09-1.72-2.99-.63-5.63 1.15-8.58 1.04m-5.07 1.06c-4.61 1.43-9.45 1.73-14.1 2.96-2.97.85-6.04 1.38-8.95 2.43-.64.13-1.92.38-2.56.5a70.8 70.8 0 0 1-4 1.22c-3.66.59-7.09 2.27-10.86 1.89.62.47 1.26 1.4 2.17.82 7.98-2.12 16.26-2.71 24.29-4.59 6.7-1.61 13.71-2.11 20.2-4.51-1.99-.66-4.12-1.49-6.19-.72m17.34.39c.6 1.18 3.09 1.64 3.72.27-.53-1.31-3.09-1.54-3.72-.27m-11.92 2.45c-.27.23-.81.7-1.08.93-10.07 1.29-19.85 4.63-29.98 5.91-16.15 3.01-32.31 6.08-48.38 9.49 1.45.22 2.91.39 4.39.48l.11-1.03c2 0 4.02.05 6.02-.15 11.35-1.74 22.67-3.6 33.94-5.76 10.61-1.66 21-4.53 31.55-6.4 1.61-.64 3.23-1.26 4.82-1.96.94.08 1.88.17 2.83.27.16-.39.47-1.15.62-1.54 2.87.69 5.68-.51 8.51-.9-.52-.43-1.54-1.3-2.05-1.73-3.84.42-7.5 1.75-11.3 2.39Z" opacity="0.42"/><path d="M1283.63 143.13c15.51-9.97 30.09-21.36 45.43-31.6-1.47 2.67-4.5 3.89-6.76 5.77-12.31 9.16-25.07 17.71-37.22 27.07-.51-.41-.99-.83-1.45-1.24Zm25.06 26.53c8.54-5.4 16.89-11.12 25.5-16.42-.71 1.24-1.8 2.17-2.99 2.91-26.18 17.38-53 33.78-79.54 50.56-.43.36-1.28 1.09-1.71 1.45-.63-.34-1.25-.69-1.84-1.03 20.18-12.5 40.28-25.16 60.58-37.47Zm.31 45.72c16.39-7.87 32.5-16.34 48.96-24.09l4.25-1.48c-2.01 2.07-4.74 2.99-7.22 4.29-15.6 7.67-31.16 15.41-46.48 23.61.12-.58.36-1.75.49-2.33Zm-14.66 7.86c4.18-2.15 8.35-4.35 12.47-6.63.59.41 1.19.83 1.81 1.26-2.75 1.11-5.37 2.46-7.97 3.86-8.04 4.68-16.77 8.21-24.41 13.53-.79-.36-1.55-.72-2.29-1.09 6.72-3.77 13.54-7.38 20.39-10.93ZM1112.2 327.17c.57.54.57.54 0 0Zm272.18 35.32c13.79-2.89 27.68-5.17 41.54-7.68 2.46-.49 5.01-.09 7.37.73-6.37-.97-12.22 1.87-18.51 2.19-22.72 4.36-45.33 9.38-67.72 15.2-4.12 1.02-8.4 1.72-12.09 3.92 5.02.02 10.03.36 15.02 1.05 1.05.55 3.73-.83 3.86.93-4.56.93-9.22-.54-13.8-.75-5.89-.13-11.94-.57-17.56 1.59-15.08 4.29-30 9.19-44.89 14.1-.52.13-1.55.4-2.06.53-12.35 4.41-24.82 8.52-37.12 13.06-1.01.33-2 .65-2.98.96-1.3.48-2.59.93-3.85 1.41-6.35 2.31-12.63 4.82-19.03 6.98-4.36 1.57-8.68 3.24-12.97 5-1.27.98-2.65-.1-3.83-.55 31.66-12.45 63.89-23.45 96.27-33.91 9.5-2.93 18.86-6.5 28.6-8.5l-.05-.81c-2.91.1-5.82.8-8.7.29-.36-.36-1.08-1.07-1.44-1.43 6.21.74 12.32-.87 18.51-1.07 18.33-5.01 36.94-8.89 55.43-13.24Zm-362.12 5.62c2.89-1.66.26 3.31 0 0Zm361.48 61.71c1.03-.3 2.14-.4 3.24-.56-2.94 1.93-6.52 2.27-9.89 2.81-4.7 1.12-9.24 2.81-13.93 3.96-67.12 20.27-132.71 45.28-197.67 71.59-2.73 2.45-1.4-1.46-.1-1.08 71.59-28.79 143.92-56.17 218.35-76.72Zm-730.71 28.85c23.38-3.74 46.83-7.72 70.53-8.48l-1.12 1.57c-17.54.39-34.94 2.73-52.34 4.83-5.7.63-11.31 2.06-17.07 2.08ZM49.16 485.13c2.87-1.67.29 3.34 0 0Zm23.07 8.17c.61.45.61.45 0 0Zm2.1.78c2.95-1.53.12 3.33 0 0Zm429.98 1.02c2.86-1.69.3 3.33 0 0Zm240.97 12.12c.46.59.46.59 0 0Zm-6.06 4.05c.49.59.49.59 0 0Zm-9.93 5.98c.54.52.54.52 0 0Zm-535.05 31.03c.59.48.59.48 0 0Zm493.01.93c.57.52.57.52 0 0Zm-488.98 1.12c.58.47.58.47 0 0Zm3.95 1.88c.51.55.51.55 0 0Zm479.13 1.05c.47.6.47.6 0 0Zm-471.1 3c.53.53.53.53 0 0Zm4.03 2.07c.58.46.58.46 0 0Zm447.03 6.93c.48.57.48.57 0 0Zm-4.14 1.92c.52.59.52.59 0 0Zm-9.98 6.03c.59.59.59.59 0 0Zm12.05 4.08c.6.56.6.56 0 0Zm-8.01 4.01c.6.55.6.55 0 0Zm-4.13 1.97c.6.56.6.56 0 0Zm-3.8 1.98c.57.57.57.57 0 0Zm-4.31 1.99c.56.59.56.59 0 0Zm-3.7 2.04c.57.56.57.56 0 0Zm-4.3 1.96c.56.58.56.58 0 0Zm16.2 1.86c3.02-1.51.11 3.29 0 0Zm142.22.99c-.2 3.21-3.09-1.57 0 0Zm233.19 4.78c3.61-1.29 7.28-2.56 11.12-3.04-3.44 1.71-7.27 2.97-11.12 3.04Zm-654.35 9.25c2.8-1.8.42 3.31 0 0Zm244.18.92c3.07-1.38-.06 3.29 0 0Zm-255.98 2.06c1.23-.84 1.92-.57 2.06.8-1.25.82-1.94.56-2.06-.8Zm304.02 3.23c.59-.46 3.16-.49 1.81.75-1.04.8-2.2 1.16-3.47 1.09-1.65-.81.84-1.89 1.66-1.84Zm-20.88.98c5.78 1.49 11.83 1.45 17.53 3.29 5.82 1.18 11.59 2.8 17.56 3.07.6-.71 4.68-2.84.68-.35 3.16 2.28 7.29 2.55 11.02 3.31-.8.41-2.41 1.22-3.21 1.63 1.56-.04 3.14-.11 4.72-.21-.16-.43-.47-1.29-.62-1.72.66.01 1.98.03 2.65.05.36.76.74 1.54 1.12 2.32-2.26-.09-4.71-.49-6.7.85-2.14.25-4.3.32-6.43.48-4.04.84-8.05 1.75-12.05 2.74 4.58-1.61 9.3-2.95 14.15-3.38 1.54.12 2.9-.7 3.9-1.81-7.96-3.21-16.64-3.51-24.92-5.48-3.2-.4-6.58-2.24-9.73-.9-1.4.68-2.9 1.11-4.35 1.67 1.04-.85 2.57-1.29 3.09-2.63-2.54-1.71-6.75-.13-8.41-2.93Zm15.74.84c3-1.56.12 3.3 0 0Zm-63.14 1.07c.51.6.51.6 0 0Zm-3.11 2.03c.22-.34.66-1.03.88-1.37l.9.15c-.45.31-1.33.91-1.78 1.22Zm49.2 2.83c2.97-1.53.1 3.32 0 0Zm-63.38 1.15c.58.59.58.59 0 0Zm-2.56.77c2.96-1.68.2 3.29 0 0Zm52.09 1.23c.67-.83 3.16-.97 3.05.46-.68.85-3.22.99-3.05-.46Zm-23.26 3.91c3.04-1.46.08 3.28 0 0Zm-1.99 1.12c.51.56.51.56 0 0Zm-67.92 13.99c.51.57.51.57 0 0Z" opacity="0.42"/></g></svg>