<svg xmlns="http://www.w3.org/2000/svg" xml:space="preserve" width="60px" height="60px" x="0px" y="0px" viewBox="0 0 60 60"><path fill="#00000" d="M30.02 11.932a3.182 3.182 0 0 0-3.168 3.17v7.27l-5.156-5.157a3.13 3.13 0 0 0-4.439 0 3.181 3.181 0 0 0 0 4.481l5.2 5.156h-7.354a3.183 3.183 0 0 0-3.17 3.169c0 1.741 1.429 3.128 3.17 3.128h7.312l-5.158 5.156a3.179 3.179 0 0 0 0 4.479c1.233 1.23 3.25 1.191 4.48-.042l5.115-5.156v7.354c0 1.742 1.43 3.129 3.168 3.129a3.11 3.11 0 0 0 3.128-3.129v-7.395l5.241 5.197a3.127 3.127 0 0 0 4.438 0 3.128 3.128 0 0 0 0-4.438l-5.198-5.156h7.311a3.111 3.111 0 0 0 3.129-3.128c0-1.739-1.387-3.169-3.129-3.169h-7.354l5.198-5.241a3.078 3.078 0 0 0 0-4.396c-1.23-1.23-3.207-1.274-4.438-.042l-5.198 5.241v-7.312c0-1.74-1.386-3.169-3.128-3.169z" opacity="0.3"/></svg>