<svg xmlns="http://www.w3.org/2000/svg" xml:space="preserve" width="136.913px" height="136.914px" x="0px" y="0px" viewBox="0 0 136.913 136.914"><circle cx="68.456" cy="68.456" r="63.333" fill="#D35387"/><path fill="#505251" d="M76.771 105.904c-2.031-5.91-3.182-7.449-7.041-7.449-3.809 0-5.131 1.954-7.037 7.449-6.502.63-11.064 2.107-11.064 3.828 0 2.295 8.104 4.154 18.102 4.154s18.104-1.859 18.104-4.154c-.001-1.72-4.564-3.197-11.064-3.828z"/><path fill="#3D4040" d="M115.543 95.147a5.476 5.476 0 0 1-5.475 5.476s-22.531 3.174-41.525 3.174c-14.541 0-39.25-3.174-39.25-3.174a5.476 5.476 0 0 1-5.477-5.476V41.069a5.476 5.476 0 0 1 5.477-5.476h80.775a5.476 5.476 0 0 1 5.475 5.476v54.078z"/><path fill="#5DC0C1" d="M27.516 39.547h84.135v56.905H27.516z"/><circle cx="52.655" cy="69.302" r="4.384" fill="#FDF2F7"/><circle cx="74.76" cy="61.84" r="4.383" fill="#FDF2F7"/><circle cx="96.585" cy="51.954" r="4.384" fill="#FDF2F7"/><path fill="#357180" d="M111.449 43.433c-3.805-.975-6.607 2.007-10.156 5.777-.256.272-.518.55-.783.829.285.581.459 1.226.459 1.915a4.386 4.386 0 0 1-4.385 4.383 4.341 4.341 0 0 1-2.197-.61c-3.787 2.894-8.578 5.292-15.248 5.901l-.016.002c.002.071.02.138.02.21a4.384 4.384 0 0 1-4.383 4.384c-1.922 0-3.537-1.245-4.129-2.965a345.908 345.908 0 0 0-6.881 1.73l-1.699.438c-2.07.528-3.936 1.048-5.646 1.634a4.33 4.33 0 0 1 .635 2.241 4.38 4.38 0 0 1-8.387 1.774c-3.043 2.377-5.748 5.784-8.723 11.139-2.1 3.777-4.326 5.69-6.621 5.69-.047 0-.092 0-.137-.002-2.863-.094-4.896-3.127-5.656-4.464v13.014h84.135V43.491l-.202-.058z"/><path fill="#FDF7FA" d="M27.506 81.496v1.956c.76 1.338 2.844 4.384 5.709 4.478l.135.003c2.295 0 4.521-1.914 6.621-5.69C46.504 70.487 51.729 68.1 62.094 65.454l1.697-.438c4.355-1.129 11.648-3.018 15.391-3.361 11.447-1.046 17.383-7.351 22.152-12.417 3.551-3.771 6.5-6.748 10.305-5.774l-.006-.871c-4.307-1.101-7.195 2.051-10.945 6.035C96.02 53.585 90.211 59.754 79.1 60.769c-3.814.35-11.148 2.25-15.531 3.387l-1.695.437c-10.623 2.711-15.979 5.159-22.68 17.218-1.965 3.535-3.969 5.303-5.949 5.231-3.055-.099-5.189-4.531-5.211-4.576l-.528-.97zm.01 1.942-.004-.008z"/></svg>