<svg xmlns="http://www.w3.org/2000/svg" xml:space="preserve" width="136.913px" height="136.914px" x="0px" y="0px" viewBox="0 0 136.913 136.914"><circle cx="68.456" cy="68.458" r="63.333" fill="#EDBF00"/><path fill="#F3F4F5" d="M93.348 106.704c0 5.815-2.084 7.897-7.898 7.897H53.857c-5.816 0-7.898-2.082-7.898-7.897V32.989c0-5.815 2.082-7.897 7.898-7.897h31.592c5.814 0 7.898 2.082 7.898 7.897v73.715z"/><linearGradient id="a" x1="69.543" x2="69.543" y1="33.6475" y2="105.1685" gradientUnits="userSpaceOnUse"><stop offset="0" style="stop-color:#5978ba"/><stop offset="0.703" style="stop-color:#4e9db8"/><stop offset="1" style="stop-color:#379cc9"/></linearGradient><path fill="url(#a)" d="M48.152 33.647h42.781v71.521H48.152z"/><path fill="#6CC077" d="M53.074 63.195h33.264c.816 0 1.475-.66 1.475-1.474v-5.349l-2.754-2.754s-1.564-2.017-3.018-1.935c-1.311.075-2.836 1.713-3.129 2.037l-1.832-1.83s-1.832-2.363-3.537-2.269c-1.705.098-3.74 2.472-3.74 2.472l-.557.558-3.447-3.448s-2.254-2.904-4.35-2.786c-2.092.118-4.596 3.034-4.596 3.034l-5.256 5.256v7.016a1.477 1.477 0 0 0 1.477 1.472z"/><path fill="#DBF0F5" d="M61.449 46.416c2.096-.118 4.35 2.786 4.35 2.786l3.447 3.448.557-.558s2.035-2.374 3.74-2.472c1.705-.095 3.537 2.269 3.537 2.269l1.832 1.832c.293-.324 1.818-1.962 3.129-2.037 1.453-.082 3.018 1.935 3.018 1.935l2.754 2.754V42.498c0-.815-.658-1.477-1.475-1.477H53.074c-.814 0-1.477.661-1.477 1.477v12.208l5.256-5.256c.001 0 2.504-2.916 4.596-3.034z"/><path fill="#B8B9BA" d="M74.385 28.089c0 .333-.391.6-.871.6h-7.719c-.482 0-.873-.267-.873-.6 0-.33.391-.599.873-.599h7.719c.48 0 .871.269.871.599z"/><g fill="#FFF"><circle cx="69.64" cy="88.575" r="1.206"/><circle cx="74.027" cy="88.575" r="0.768"/><circle cx="77.537" cy="88.575" r="0.768"/><circle cx="61.741" cy="88.575" r="0.769"/><circle cx="65.252" cy="88.575" r="0.768"/></g><path fill="#202121" d="M48.152 33.647h42.762v3.585H48.152z" opacity="0.5"/><circle cx="84.517" cy="35.33" r="0.913" fill="#FFF"/><circle cx="50.347" cy="35.33" r="0.913" fill="#FFF"/><circle cx="88.685" cy="35.33" r="0.913" fill="#FFF"/><path fill="#B5DBAF" d="M58.633 82.005c0 .814-.66 1.474-1.475 1.474h-4.305a1.475 1.475 0 0 1-1.477-1.474v-4.306c0-.816.66-1.477 1.477-1.477h4.305c.814 0 1.475.66 1.475 1.477v4.306z"/><path fill="#F6A2A3" d="M68.396 82.005c0 .814-.662 1.474-1.477 1.474h-4.303a1.475 1.475 0 0 1-1.477-1.474v-4.306c0-.816.66-1.477 1.477-1.477h4.303c.814 0 1.477.66 1.477 1.477v4.306z"/><path fill="#67B8CB" d="M78.158 82.005c0 .814-.662 1.474-1.475 1.474h-4.305a1.478 1.478 0 0 1-1.479-1.474v-4.306c0-.816.664-1.477 1.479-1.477h4.305c.812 0 1.475.66 1.475 1.477v4.306z"/><path fill="#F5E554" d="M87.92 82.005c0 .814-.66 1.474-1.475 1.474H82.14a1.473 1.473 0 0 1-1.475-1.474v-4.306c0-.816.658-1.477 1.475-1.477h4.305c.814 0 1.475.66 1.475 1.477v4.306z"/><path fill="none" stroke="#67B8CB" stroke-miterlimit="10" stroke-width="0.5" d="M87.811 69.72c0 .813-.658 1.473-1.475 1.473H53.072a1.476 1.476 0 0 1-1.477-1.473v-1.674c0-.815.662-1.476 1.477-1.476h33.264c.816 0 1.475.66 1.475 1.476v1.674z"/><g fill="#DBF0F5"><circle cx="84.373" cy="68.42" r="1.096"/><path d="M86.355 70.415c-.086.085-.25.061-.365-.056l-1.232-1.232c-.115-.114-.141-.277-.055-.363l.109-.109c.086-.087.25-.061.365.056l1.232 1.23c.115.116.141.279.053.365l-.107.109z"/></g><path fill="#67B8CB" d="M56.957 98.483a1.2 1.2 0 0 1-1.201 1.2H52.25a1.202 1.202 0 0 1-1.203-1.2v-3.508c0-.663.539-1.201 1.203-1.201h3.506a1.2 1.2 0 0 1 1.201 1.201v3.508z"/><path fill="#F5E554" d="M64.91 98.483c0 .662-.541 1.2-1.203 1.2h-3.506a1.2 1.2 0 0 1-1.201-1.2v-3.508a1.2 1.2 0 0 1 1.201-1.201h3.506c.662 0 1.203.538 1.203 1.201v3.508z"/><path fill="#B5DBAF" d="M72.859 98.483c0 .662-.539 1.2-1.201 1.2h-3.506a1.202 1.202 0 0 1-1.203-1.2v-3.508c0-.663.539-1.201 1.203-1.201h3.506c.662 0 1.201.538 1.201 1.201v3.508z"/><path fill="#D3D4E3" d="M80.811 98.483c0 .662-.539 1.2-1.201 1.2h-3.506a1.2 1.2 0 0 1-1.201-1.2v-3.508a1.2 1.2 0 0 1 1.201-1.201h3.506c.662 0 1.201.538 1.201 1.201v3.508z"/><path fill="#F6A2A3" d="M88.709 98.483c0 .662-.539 1.2-1.201 1.2h-3.506a1.201 1.201 0 0 1-1.203-1.2v-3.508c0-.663.537-1.201 1.203-1.201h3.506c.662 0 1.201.538 1.201 1.201v3.508z"/><path fill="none" stroke="#B8B9BA" stroke-miterlimit="10" stroke-width="0.5" d="M74.463 110.35c0 .892-.543 1.615-1.213 1.615h-7.117c-.668 0-1.211-.724-1.211-1.615v-1.146c0-.893.543-1.615 1.211-1.615h7.117c.67 0 1.213.723 1.213 1.615v1.146z"/><circle cx="75.672" cy="28.133" r="0.658" fill="#B8B9BA"/><circle cx="77.428" cy="28.133" r="0.658" fill="#B8B9BA"/><circle cx="83.734" cy="28.407" r="0.885" fill="#B8B9BA"/></svg>