<svg xmlns="http://www.w3.org/2000/svg" width="1268pt" height="512pt" viewBox="0 0 1268 512"><path fill="#321370" d="M217.87 46.4c20.57-3.93 41.68-4.37 62.49-2.26l.08.23c.95 3.96 4.76 6.04 7.57 8.59 11.84 10.51 23.78 20.9 35.69 31.34 3.58 3.2 7.46 6.1 10.42 9.93-22.69-11.3-47.72-18.17-73.14-18.67-28.87-1.03-57.86 5.81-83.6 18.81-9.64 4.82-18.54 10.92-27.43 16.98 3.67-5.39 9.2-8.99 13.69-13.61 7.14-6.49 14.36-12.89 21.53-19.34 8.03-6.34 15.18-13.74 23.26-20.02 4.17-3.35 7.89-7.2 11.5-11.13-.4-.16-1.19-.49-1.58-.65l-.48-.2Z" opacity="1.00"/><path fill="#4C6FFF" d="M288.01 52.96c-2.81-2.55-6.62-4.63-7.57-8.59 34.2 3.84 67.32 16.79 95.01 37.24C396.53 97.07 415 116.29 429 138.39c-11.76-3.51-25.39-1.6-35.04 6.23-1.6-1.89-3.51-3.75-3.76-6.36-.45-.11-1.34-.33-1.79-.43-11.4-13.1-24.4-24.84-38.97-34.31-4.95-3.35-10.25-6.14-15.32-9.29-2.96-3.83-6.84-6.73-10.42-9.93-11.91-10.44-23.85-20.83-35.69-31.34Z" opacity="1.00"/><path fill="#321370" d="M209.15 48.29c3.04-.66 6.06-1.6 9.2-1.69.39.16 1.18.49 1.58.65-3.61 3.93-7.33 7.78-11.5 11.13-8.08 6.28-15.23 13.68-23.26 20.02.87-1.41 1.69-2.85 2.52-4.28-9.57-.47-19.2.5-28.71-.88-4.19-.77-8.38.31-12.36 1.53 1.73-1.31 3.52-2.54 5.41-3.63 17.75-10.41 37.07-18.19 57.12-22.85Zm140.13 208.83c.09-5.75-.1-11.51.46-17.24-.11 30.21.2 60.47-.12 90.65-.96-.43-.01-2.63-.34-3.38.3-6.7-.08-13.39-.08-20.08-.37-16.65-.06-33.3.08-49.95Z" opacity="1.00"/><path fill="#321370" d="M146.62 74.77c3.98-1.22 8.17-2.3 12.36-1.53 9.51 1.38 19.14.41 28.71.88-.83 1.43-1.65 2.87-2.52 4.28-7.17 6.45-14.39 12.85-21.53 19.34-4.49 4.62-10.02 8.22-13.69 13.61-5.7 4.78-11.46 9.49-16.74 14.75-24.32 24.1-41.31 55.21-49.5 88.39-2.68 1.47-5.3 3.05-7.7 4.95 1.37-1.77 2.7-3.59 4.04-5.38-.1-3.04-.03-6.09-.08-9.13 2.45-4.03 5.09-8.1 6.03-12.8 1.34-5.93 4.94-11.18 6.08-17.14 1.28-2.99 2.78-5.88 4.1-8.85 1.65-3.62 2.1-7.62 3.38-11.37-.91-3.68 1.02-6.97 1.97-10.39.3-2.43-.29-6.56-3.54-6.29-5.41-.15-11.29-1.07-16.27 1.59 15.11-23.87 35.16-44.55 58.29-60.73 2.14-1.48 4.19-3.17 6.61-4.18Z" opacity="1.00"/><path fill="#2D3958" d="M177.38 94.37c25.74-13 54.73-19.84 83.6-18.81 25.42.5 50.45 7.37 73.14 18.67 5.07 3.15 10.37 5.94 15.32 9.29 14.57 9.47 27.57 21.21 38.97 34.31.45.1 1.34.32 1.79.43.25 2.61 2.16 4.47 3.76 6.36-1.57 1.34-3.01 2.81-4.48 4.25-.2-3.49.36-7.22-1.16-10.5-5.13.38-10.26.21-15.39.21-.81.85-1.61 1.69-2.41 2.54.88 17.3.67 34.63.68 51.95-2.24-.09-4.48-.19-6.71-.3-.88-2.56-1.96-5.05-2.77-7.62-.74-2.3.7-4.51 1.32-6.66-2.42-.56-5.21-.61-7.11-2.42-1.39-1.2-1.78-3.09-2.51-4.68-.37 1.18-.74 2.37-1.1 3.56-.51-1.27-1.01-2.53-1.5-3.79 1.14-.76 2.28-1.52 3.43-2.28-.55-2.11-1.03-4.26-1.95-6.24-2.06-.45-3.71 1.49-5.46 2.28-1.58-.65-3.19-1.25-4.67-2.12-.57-1.95.62-3.72 1.32-5.46-4.18-2.55-8.29-5.23-12.78-7.19 2.3-2.99 5.26-5.38 7.44-8.46-2.43.45-5.01.81-7.12 2.18-.92 2.42-1.52 4.96-2.5 7.36.32 1.5.67 3 1.03 4.5-.93.79-1.86 1.57-2.79 2.36-1.61-2.16-3.1-4.4-4.44-6.74-.88.49-1.76.97-2.63 1.46-15.45-13.17-34.27-22.89-54.59-25.37-17.94-2.49-37.08.19-52.51 10.09-12.88 8.26-23.19 21.27-26.24 36.46-.74-.59-1.47-1.18-2.21-1.76-.67 3.45-1.11 6.95-1.37 10.46l-1.97-1.73c-4.4 2.96-8.74 6.17-13.9 7.67-.43-.66-.87-1.32-1.31-1.97-.33 1.21-1.54 2.43-.9 3.73 1.19 1.43 3.26.77 4.88.98-.99 1.98-1.76 4.41-3.97 5.35-2.64.98-5.65.34-8.16 1.78-2.97 1.71-6.58 1.79-9.51 3.46-2.56 3.04.11 6.93.9 10.16.72 1.86-1.34 3.14-2.2 4.49-3.23-5.51-.9-12.24-1.74-18.3-.38-.3-1.12-.9-1.5-1.21-.45 1.87-.91 3.74-1.32 5.62-.22-2.56-.52-5.12-.76-7.68.27 5.04.42 10.1.22 15.14-.89-1.1-1.77-2.2-2.65-3.3-5.36 5.51-12.88 8.29-17.68 14.43-.54-.56-1.08-1.11-1.62-1.66-2.58 4.51-7.11 7.28-11.31 10.1.25.13.74.38.98.51 1.35.36 3.06.26 3.87 1.62-1.21 1.09-2.53 2.06-3.83 3.03-1.19-.98-2.38-1.97-3.55-2.96-8.58 4.66-16.07 11.09-24.5 16.02-.63-1.05-1.26-2.09-1.89-3.13.54-10.22 2.18-20.35 4.35-30.35 8.19-33.18 25.18-64.29 49.5-88.39 5.28-5.26 11.04-9.97 16.74-14.75 8.89-6.06 17.79-12.16 27.43-16.98m41.93 1.83c-.56 1.6-.02 2.17 1.63 1.68.55-1.61.01-2.17-1.63-1.68M121.2 219.17c.53.5.53.5 0 0Z" opacity="1.00"/><path fill="#64316f" d="M219.31 96.2c1.64-.49 2.18.07 1.63 1.68-1.65.49-2.19-.08-1.63-1.68Z" opacity="1.00"/><path fill="#fff" d="M828.35 102.92c-.2-1.73 1.53-2.62 2.48-3.77 5.06.18 10.13-.14 15.19.14.93.55 1.76 1.29 2.62 1.97.07 28.57.01 57.15.03 85.72.13 12.75-.41 25.54.7 38.26-.8.93-1.58 1.85-2.37 2.77-5.41-.01-10.82-.04-16.23.03-.17-3.28-.31-6.55-.45-9.82-11.81 13.55-34.02 15.57-48.33 4.88-11.92-8.65-17.36-23.82-17.31-38.15-.3-14.67 4.7-30.27 16.4-39.74 13.11-11.03 34.19-11.6 47.25-.18.02-14.04-.05-28.08.02-42.11m-26.84 51.7c-5.38 1.64-9.69 5.79-12.25 10.7-3.82 7.25-4.63 15.72-3.84 23.76.73 6.49 2.95 13.12 7.67 17.83 6.48 6.62 17.67 7.53 25.4 2.57 6.19-3.88 9.86-11.18 9.84-18.43-.01-5.65.04-11.31-.02-16.96-.1-6.77-3.61-13.45-9.29-17.17-5.09-3.4-11.71-4.07-17.51-2.3Zm90.03-48.99c3.39-.75 7.16-.25 10.04 1.79 5.83 4.08 6.58 13.65 1.41 18.57-5.25 5-15.13 4.27-18.82-2.28-4.17-6.53-.46-16.59 7.37-18.08Zm315.9.03c3.42-.8 7.23-.29 10.14 1.76 5.86 4.07 6.58 13.67 1.42 18.58-5.26 4.98-15.11 4.26-18.8-2.26-4.18-6.51-.54-16.52 7.24-18.08ZM212.6 137.53c15.43-9.9 34.57-12.58 52.51-10.09 20.32 2.48 39.14 12.2 54.59 25.37 1.74 1.45 3.44 2.97 5.13 4.49-5.61 5.86-11.3 11.64-16.78 17.63-13.37-11.95-29.96-21.08-48.04-22.83-12.81-1.47-26.48 1.07-36.95 8.89-6.12 4.66-11.28 11.19-12.69 18.91-1.41 7.13.71 14.75 5.39 20.26 6.39 7.73 15.99 11.96 25.58 14.11-.11 8.81-.03 17.62-.09 26.43-17.3-1.95-34.36-9.8-45.23-23.71-9.66-11.86-12.82-28.17-9.66-43 3.05-15.19 13.36-28.2 26.24-36.46Zm181.36 7.09c9.65-7.83 23.28-9.74 35.04-6.23 9.13 3 16.76 9.82 21.17 18.31 6.19 11.69 6.94 25.54 4.72 38.38-2.64 13.89-11.57 27.1-25.15 32.16-12.7 5.02-28.34 3.18-38.55-6.26.29 13.05.03 26.11.14 39.16-.78.78-1.55 1.58-2.32 2.37-4.69-.07-9.38.13-14.06-.03-1.91.15-3.83-1.54-3.7-3.49-.17-8.74 0-17.48-.05-26.23 0-13.23-.01-26.46 0-39.69-.01-17.32.2-34.65-.68-51.95.8-.85 1.6-1.69 2.41-2.54 5.13 0 10.26.17 15.39-.21 1.52 3.28.96 7.01 1.16 10.5 1.47-1.44 2.91-2.91 4.48-4.25m8.63 12.08c-4.67 3.2-8.46 7.77-10.03 13.28-1.74 4.82-1.19 10-1.26 15.03.05 4-.3 8.09.7 12.01 1.96 7.88 8.82 14.33 16.86 15.63 5.98 1.15 12.19-.53 17.17-3.93l-.11-.37c7.38-5.63 9.62-15.56 9.82-24.39.25-9.37-2.35-19.68-9.9-25.83-6.48-5.32-16.09-5.53-23.25-1.43Zm100.87-7.75c6.16-9.17 17.96-14.68 28.83-11.26.04 5.51-.05 11.03.06 16.55-3.19 3.89-8.42.84-12.52 2.53-9.47 2.71-13.8 13.2-14 22.29-.07 15.55-.02 31.11-.02 46.66-1.16.88-2.13 2.47-3.79 2.26-4.71.12-9.41-.07-14.12.06-.74-.91-1.67-1.71-2.14-2.8-.43-28.04.65-56.13-.8-84.15 1.18-1.04 2.18-2.85 4.05-2.49 4.75-.07 9.5.03 14.26-.01.08 3.45.19 6.9.19 10.36Zm67.68-6.7c9.21-5.49 20.6-6.82 30.97-4.41 8.13 1.91 15.44 7.05 19.92 14.12 6.88 10.73 8.71 24.18 6.58 36.62-19.66-.13-39.32-.14-58.97 0 .57 9.24 5.5 18.79 14.54 22.18 11.15 4.15 23.74 2.18 34.62-1.94.99.49 1.99.98 3 1.47 1.15 4.41 2.24 8.85 3.15 13.32-12.1 5.41-25.74 7.13-38.86 5.6-11.49-1.46-22.57-7.65-28.8-17.58-7.12-11.02-8.41-24.88-6.35-37.58 2.06-12.7 8.9-25.14 20.2-31.8m11.23 12.3c-6.91 3.46-10.48 10.93-12.28 18.09 13.25.1 26.5.1 39.75 0-.7-4.99-1.8-10.21-5.17-14.15-5.24-6.43-15.11-7.35-22.3-3.94Zm94.65-6.42c10.84-12.33 31.03-15.34 44.58-5.78 9.78 6.75 13.81 19.15 13.89 30.59-.01 17.65.05 35.3-.03 52.94-.78.71-1.55 1.42-2.31 2.13-5.09-.11-10.18.16-15.25-.1-1.03-.53-1.78-1.44-2.62-2.18.11-15.92.01-31.83.05-47.75-.03-6.41-.67-13.43-4.92-18.56-3.62-4.45-9.87-5.68-15.3-4.79-6.75 1.14-12.45 6.27-14.77 12.64-1.76 4.37-1.3 9.17-1.34 13.77-.03 14.89.06 29.79-.05 44.68-.76.74-1.52 1.49-2.26 2.24-5.23.09-10.45 0-15.68.06-.91-1.2-2.56-2.22-2.3-3.95-.03-22.68 0-45.35-.02-68.03-.02-4.93-.27-9.85-.6-14.77l2.12-2.57c5.39-.22 10.78-.06 16.18-.11.25 3.17.47 6.36.63 9.54Zm281.34-.2c9.12-10.96 26.07-14.71 38.66-7.74 4.57 2.48 8.09 6.47 10.76 10.88 5.24-7.22 13.11-12.86 22.12-13.97 9.25-1.58 19.4 1.08 25.95 8 7.64 7.87 9.94 19.3 10.05 29.92 0 16.94.02 33.88-.01 50.82-1.19.84-2.18 2.37-3.82 2.15-4.6.08-9.21.01-13.81-.05-.74-.74-1.48-1.48-2.2-2.21-.14-16.23-.01-32.47-.07-48.7-.17-6.04-.87-12.49-4.51-17.52-4.03-5.66-12.43-6.76-18.32-3.58-6.18 3.24-9.93 10.15-9.96 17.05-.1 17.61.05 35.22-.07 52.83-.77.72-1.52 1.45-2.27 2.18-4.64-.03-9.29.09-13.92-.01-1.66.22-2.57-1.36-3.66-2.26.1-16.24.02-32.49.05-48.73-.01-6.37-.61-13.37-4.96-18.39-4.34-5.13-12.45-5.66-18-2.27-6.36 3.83-10.17 11.3-10.07 18.65-.01 16.34.01 32.68 0 49.02.32 1.77-1.26 2.84-2.22 4.04-5.06-.07-10.12-.05-15.18-.01-.8-.72-1.59-1.44-2.37-2.15-.31-28.26.61-56.54-.79-84.78.77-.82 1.55-1.65 2.34-2.48 5.27-.05 10.54-.02 15.82-.02.18 3.11.37 6.22.46 9.33Zm141.77-2.44c11.65-7.56 26.22-10.32 39.87-7.97 8.66 1.51 16.81 6.77 20.8 14.75 5.85 10.97 4.42 23.77 4.61 35.74.23 12.41-.78 24.93 1.32 37.23-1.11 1.01-1.86 3.02-3.67 2.75-4.98.08-9.95-.03-14.93.01-.26-2.27-.42-4.54-.76-6.78-1.19-.38-1.92.87-2.81 1.37-7.98 6.44-18.94 8.61-28.9 6.65-6.78-1.36-13.08-5.32-16.84-11.17-7.77-11.82-4.88-29.31 6.41-37.9 11.32-8.8 26.24-10.4 40.1-10.91-.33-4.11-1-8.55-3.93-11.69-3.09-3.48-7.97-4.52-12.41-4.61-7.45-.06-14.84 2.07-21.21 5.89-1.19-.38-2.38-.77-3.53-1.14-1.41-4.07-2.9-8.11-4.12-12.22m20.3 44.83c-7.56 4.69-7.89 18.17.49 22.16 10.02 4.22 22.73-2.83 24.51-13.55.39-4.64.03-9.29.21-13.94-8.58-.12-17.82.54-25.21 5.33ZM884.28 141.2c.85-.89 1.7-1.76 2.58-2.64 5.12.04 10.25.08 15.39-.02 1.09 1.3 2.85 2.5 2.44 4.46-.04 27.53-.01 55.07-.02 82.6-.86.81-1.7 1.62-2.53 2.43-5.1-.05-10.19-.05-15.27 0-.87-.81-1.71-1.63-2.55-2.44-.02-28.13.06-56.26-.04-84.39Zm316.2-.26c.78-.79 1.58-1.58 2.39-2.37 5.11.02 10.22.08 15.34-.04 1.07 1.29 2.86 2.43 2.48 4.37-.05 27.57 0 55.15-.03 82.72-.85.8-1.69 1.6-2.51 2.41-5.06-.15-10.13.17-15.17-.14-.88-.59-1.71-1.23-2.49-1.91.01-28.34.03-56.69-.01-85.04Zm-936.87 80.27c11.89 2.42 23.64 6.02 34.27 11.99 12.02 6.49 22.31 16.65 27.47 29.45 4.02 9.93 4.95 21.07 2.8 31.56-2.43 11.66-9.25 21.99-17.97 29.93-13.94 12.69-30.92 21.21-46.66 31.33-.02-8.78-.06-17.56.03-26.35 11.91-9.09 24.58-17.61 34.34-29.11 7.84-8.85 8.88-23.03 1.73-32.57-6.9-9.13-17.79-14.16-28.45-17.5-2.51-.8-5.09-1.37-7.66-1.95.02-8.92.01-17.85.1-26.78Z" opacity="1.00"/><path fill="#321370" d="M81.72 139.68c4.98-2.66 10.86-1.74 16.27-1.59 3.25-.27 3.84 3.86 3.54 6.29-.95 3.42-2.88 6.71-1.97 10.39-1.28 3.75-1.73 7.75-3.38 11.37-1.32 2.97-2.82 5.86-4.1 8.85-1.14 5.96-4.74 11.21-6.08 17.14-.94 4.7-3.58 8.77-6.03 12.8.05 3.04-.02 6.09.08 9.13-1.34 1.79-2.67 3.61-4.04 5.38-9.07 8.49-19.14 15.78-28.46 23.97 1.54-36.83 14.03-72.96 34.17-103.73Zm22.78 125.5c1.33-1.63 3.68 1 2.05 2.23-1.39 1.3-3.38-.94-2.05-2.23Zm251.02 94.42c1.13-.06 2.48-.43 3.22.75.04 1.17-.54 1.9-1.75 2.2-1.35-.51-1.48-1.75-1.47-2.95Z" opacity="1.00"/><path fill="#2D3958" d="M331.03 143.87c2.11-1.37 4.69-1.73 7.12-2.18-2.18 3.08-5.14 5.47-7.44 8.46 4.49 1.96 8.6 4.64 12.78 7.19-.7 1.74-1.89 3.51-1.32 5.46 1.48.87 3.09 1.47 4.67 2.12 1.75-.79 3.4-2.73 5.46-2.28.92 1.98 1.4 4.13 1.95 6.24-1.15.76-2.29 1.52-3.43 2.28.49 1.26.99 2.52 1.5 3.79.36-1.19.73-2.38 1.1-3.56.73 1.59 1.12 3.48 2.51 4.68 1.9 1.81 4.69 1.86 7.11 2.42-.62 2.15-2.06 4.36-1.32 6.66.81 2.57 1.89 5.06 2.77 7.62 2.23.11 4.47.21 6.71.3-.01 13.23 0 26.46 0 39.69a51.75 51.75 0 0 0-7.87-.22c-.95-.88-1.88-1.76-2.8-2.65-.13 1.49-.2 3-.47 4.48-1.23-.11-2.45-.32-3.66-.51-.93.9-1.88 1.8-2.81 2.7-1.46-3.41-2.3-7.03-3.23-10.61-.23 4.64-.24 9.3-.62 13.93-.56 5.73-.37 11.49-.46 17.24-.73-.63-1.46-1.27-2.18-1.9.36 10.64-1.46 21.2-1.09 31.84.19 2.23-.59 4.32-1.88 6.12-1.63-3.21-2.89-6.6-3.45-10.17-.68-.81-1.36-1.61-2.03-2.41-.6-2.24-1.55-4.36-2.99-6.17-.14-.61-.28-1.22-.41-1.83-1.1-.54-2.21-1.03-3.23-1.68-.24-1.14-.4-2.29-.55-3.43-.72.07-1.44.14-2.14.22-.41-1.73-.69-3.51-1.36-5.15-.65.02-1.97.06-2.62.09-5.16-12.8-15.45-22.96-27.47-29.45-10.63-5.97-22.38-9.57-34.27-11.99-.09 8.93-.08 17.86-.1 26.78 2.57.58 5.15 1.15 7.66 1.95.65 9.63.09 19.29.19 28.93-.72.28-1.43.56-2.14.85-.18 2.04-.34 4.09-.51 6.13-.56-.97-1.12-1.93-1.67-2.9-1.19.89-2.37 1.78-3.55 2.68-1.33-2.98-3.68-6.06-7.4-4.64-3.87 2.5-2.74 7.58-3.7 11.43-.32.1-.96.32-1.28.42-4.32-2.39-8.81-5.64-9.78-10.83-3.04 1.2-6.01 2.84-9.34 3.02-4.36.23-8.73-.12-13.09-.28 3.07-1.02 6.06-2.28 8.8-4.01-7.58-.35-15.09 1.12-22.65 1.49-6.65.9-13.45.34-20.02 1.8-2.59.35-3.79 2.95-5.23 4.79-3.15 4.82-6.86 9.25-9.91 14.14-1.18 1.76-2.3 3.64-4.02 4.93-1.54.32-3.07-.39-4.58-.56 2.01-2.01 4.28-3.72 6.59-5.35-3.13-.53-5.42 1.39-7.69 3.19-2.3.69-4.85.31-7.18 1.06 1.44.54 2.89 1.07 4.35 1.59-3.66 3.13-7.36 6.45-12.01 8.02-.29 1.8-.58 3.61-.89 5.42-.89-5.49-.02-11.08-1.02-16.55-.97 6.19.49 12.58-1.26 18.66-.22-9.79.18-19.61-.67-29.38-.23 1.64-.46 3.29-.62 4.95-1.1-.26-2.21-.51-3.31-.76.2 3.99.39 7.98.41 11.98-1.58-1.11-4.14-1.81-4.12-4.15-.21-2.16 1.13-4.02 1.96-5.9-11.58 4.85-20.63 13.98-31.2 20.51-1.21-.27-2.4-.61-3.58-.97-1.66 1.33-3.29 2.68-4.92 4.05-.38-.25-1.13-.76-1.51-1.01-.6-2.46-1.62-4.78-3.25-6.74-.27.61-.8 1.82-1.06 2.42-4.74-12.14-7.71-24.89-9.67-37.75-1.46-11.87-1.82-23.84-1.28-35.78.63 1.04 1.26 2.08 1.89 3.13 8.43-4.93 15.92-11.36 24.5-16.02 1.17.99 2.36 1.98 3.55 2.96 1.3-.97 2.62-1.94 3.83-3.03-.81-1.36-2.52-1.26-3.87-1.62-.24-.13-.73-.38-.98-.51 4.2-2.82 8.73-5.59 11.31-10.1.54.55 1.08 1.1 1.62 1.66 4.8-6.14 12.32-8.92 17.68-14.43.88 1.1 1.76 2.2 2.65 3.3-.89 20.57-.07 41.15-.05 61.72.96-23.04.91-46.12.59-69.18.41-1.88.87-3.75 1.32-5.62.38.31 1.12.91 1.5 1.21.84 6.06-1.49 12.79 1.74 18.3.86-1.35 2.92-2.63 2.2-4.49-.79-3.23-3.46-7.12-.9-10.16 2.93-1.67 6.54-1.75 9.51-3.46 2.51-1.44 5.52-.8 8.16-1.78 2.21-.94 2.98-3.37 3.97-5.35-1.62-.21-3.69.45-4.88-.98-.64-1.3.57-2.52.9-3.73.44.65.88 1.31 1.31 1.97 5.16-1.5 9.5-4.71 13.9-7.67l1.97 1.73c.26-3.51.7-7.01 1.37-10.46.74.58 1.47 1.17 2.21 1.76-3.16 14.83 0 31.14 9.66 43 10.87 13.91 27.93 21.76 45.23 23.71.06-8.81-.02-17.62.09-26.43-9.59-2.15-19.19-6.38-25.58-14.11-4.68-5.51-6.8-13.13-5.39-20.26 1.41-7.72 6.57-14.25 12.69-18.91 10.47-7.82 24.14-10.36 36.95-8.89 18.08 1.75 34.67 10.88 48.04 22.83 5.48-5.99 11.17-11.77 16.78-17.63-1.69-1.52-3.39-3.04-5.13-4.49.87-.49 1.75-.97 2.63-1.46 1.34 2.34 2.83 4.58 4.44 6.74.93-.79 1.86-1.57 2.79-2.36-.36-1.5-.71-3-1.03-4.5.98-2.4 1.58-4.94 2.5-7.36m27.1 48.29c-.46 1.41.01 1.88 1.41 1.4.46-1.42-.01-1.88-1.41-1.4m-110.67 25.82c-.7 12.97-.9 26.02.08 38.98.66-12.97.86-26.02-.08-38.98M93.18 247.07c-.53 1.63.02 2.18 1.65 1.67.52-1.63-.03-2.18-1.65-1.67m11.32 18.11c-1.33 1.29.66 3.53 2.05 2.23 1.63-1.23-.72-3.86-2.05-2.23m75.86 1.64c-.51.6-1.55 1.8-2.06 2.4 1.42 1.78 3.15 1.52 4.59-.09-.85-.78-1.69-1.55-2.53-2.31Z" opacity="1.00"/><path fill="#4C6FFF" d="M402.59 156.7c7.16-4.1 16.77-3.89 23.25 1.43 7.55 6.15 10.15 16.46 9.9 25.83-.2 8.83-2.44 18.76-9.82 24.39-4.98-18.32-13.15-35.67-23.33-51.65Z" opacity="1.00"/><path fill="#2D3958" d="M392.56 169.98c1.57-5.51 5.36-10.08 10.03-13.28 10.18 15.98 18.35 33.33 23.33 51.65l.11.37c-4.98 3.4-11.19 5.08-17.17 3.93-8.04-1.3-14.9-7.75-16.86-15.63-1-3.92-.65-8.01-.7-12.01.07-5.03-.48-10.21 1.26-15.03Z" opacity="1.00"/><path fill="#673772" d="M358.13 192.16c1.4-.48 1.87-.02 1.41 1.4-1.4.48-1.87.01-1.41-1.4Z" opacity="1.00"/><path fill="#4C6FFF" d="M141.54 210.18c.2-5.04.05-10.1-.22-15.14.24 2.56.54 5.12.76 7.68.32 23.06.37 46.14-.59 69.18-.02-20.57-.84-41.15.05-61.72Zm295.42 61.06c1.76-2.1 3.02-5.84 6.32-5.6 3.14.2 6.69-.16 9.47 1.53 4.32 5.55 3.57 13.25 1.63 19.61 1.36 2.63 2.84 5.49 2.09 8.55-.82 4.18-1.52 8.64.72 12.52l.13 1.09c-1.71 9.46-5.28 18.65-8.74 27.66-8 19.93-19.19 38.56-32.87 55.11-2.83 3.27-5.53 6.7-8.78 9.58-.09-.98-.18-1.95-.29-2.91.49-.18 1.45-.53 1.93-.71-.4-.51-.8-1.01-1.19-1.5 6.35-5.53 10.39-12.94 14.76-19.98 3.81-7.77 7.97-15.53 9.85-24.04-6.52-1.8-13.31-1.01-19.97-1.2-3.09-.19-5.83 1.34-8.53 2.59 14.51-22.45 24.06-48.09 27.46-74.63l.44 3.15c1.74-5.11 1.17-10.86 4.02-15.6.52 1.59 1.03 3.18 1.55 4.78Z" opacity="1.00"/><path fill="#4C6FFF" d="M429.74 227.24c13.58-5.06 22.51-18.27 25.15-32.16 1.78 3.77 2.47 7.89 3.48 11.91 6.02 25.47 6.92 52.02 3.78 77.97-1.2 7.67-2.21 15.43-4.4 22.89h-.56c-2.24-3.88-1.54-8.34-.72-12.52.75-3.06-.73-5.92-2.09-8.55 1.94-6.36 2.69-14.06-1.63-19.61-2.78-1.69-6.33-1.33-9.47-1.53-3.3-.24-4.56 3.5-6.32 5.6-.52-1.6-1.03-3.19-1.55-4.78-2.85 4.74-2.28 10.49-4.02 15.6l-.44-3.15c1.89-17.16 2.07-34.67-1.21-51.67Z" opacity="1.00"/><path fill="#321370" d="M76.01 219.44c2.4-1.9 5.02-3.48 7.7-4.95-2.17 10-3.81 20.13-4.35 30.35-.54 11.94-.18 23.91 1.28 35.78-.63 5.26-2.49 10.37-2.23 15.73.18 2.88-.64 5.67-.95 8.51 1.13 4.26 2.88 8.52 2.23 13.04.1 2.83-2.08 4.81-3.93 6.61 1.08 1.7 2.77 3.58 1.49 5.66-.64 3.29-4.05 3.88-6.78 4.52l-1.08-2.64c-1.86 2.21-3.16 4.8-3.91 7.58-.64-.53-1.27-1.06-1.9-1.6-13-29.5-17.64-62.28-16.31-94.38l.28-.24c9.32-8.19 19.39-15.48 28.46-23.97Z" opacity="1.00"/><path fill="#623e69" d="M247.46 217.98c.94 12.96.74 26.01.08 38.98-.98-12.96-.78-26.01-.08-38.98Z" opacity="1.00"/><path fill="#a65bb2" d="M121.2 219.17c.53.5.53.5 0 0Z" opacity="1.00"/><path fill="#2D3958" d="M391.19 220.98c10.21 9.44 25.85 11.28 38.55 6.26 3.28 17 3.1 34.51 1.21 51.67-3.4 26.54-12.95 52.18-27.46 74.63-4.83 7.25-10.03 14.26-15.79 20.8-.96-.72-1.92-1.43-2.87-2.14-.42.57-.84 1.15-1.25 1.74-2.47.51-3.48 2.74-4.34 4.86-4.02-3.32-5.13-8.57-5.81-13.47-2.97 2.14-6.56 2.71-10.14 2.37-2.78 2.23-6.28 4.28-9.97 3.02-1.8-1.22-2.47-3.57-4.26-4.81-1.47-1.01-3.21-1.55-4.94-1.9-.74 1.35-1.02 2.88-1.37 4.37l4.36-.24c-1.16 2.36-1.95 5.25-4.41 6.6-2.79 1.75-6.25 1.46-9.25 2.64-2.54 1-5.18 1.7-7.78 2.51-.99 3.09.54 6.18 1.29 9.14.9 2.87.92 5.89 1.01 8.87-3.77.15-7.53.15-11.29-.13-.93-1.15-1.48-2.76-2.79-3.51-3.48-.58-7.06.09-10.52-.59-1.95-.91-3.05-2.95-4.46-4.49-2.59.46-5.44 1.35-7.82-.29-3.3-1.97-7.27-1.86-10.77-3.28-5.62-2.73-12.01-1.17-18.01-1.76-.91-1.19-1.81-2.38-2.71-3.58-.71 1.72-.96 3.76-2.28 5.16-4.61 1.21-9.46.5-14.16.43.2-6.49-1.85-12.78-1.58-19.27-.17-8.57-.04-17.15-.08-25.72-18.9 9.24-37.74 18.59-56.55 28.01.11 8.67-.01 17.34.1 26.02-.3 1.55.38 3.89-1.46 4.68-1.31.74-2.72 1.25-4.11 1.82 1.4.96 2.79 1.94 4.17 2.92-1.93 1.6-3.8 4.17-6.65 3.6-4.3-.68-9.25-3.27-13.12.09-4.37-2.66-8.52-5.67-12.7-8.63-10.75-8.3-20.78-17.58-29.5-28.02-9.2-10.64-16.66-22.62-23.56-34.83-2.66-6.03-5.65-11.92-7.81-18.16.26-.6.79-1.81 1.06-2.42 1.63 1.96 2.65 4.28 3.25 6.74.38.25 1.13.76 1.51 1.01 1.63-1.37 3.26-2.72 4.92-4.05 1.18.36 2.37.7 3.58.97 10.57-6.53 19.62-15.66 31.2-20.51-.83 1.88-2.17 3.74-1.96 5.9-.02 2.34 2.54 3.04 4.12 4.15-.02-4-.21-7.99-.41-11.98 1.1.25 2.21.5 3.31.76-.22 9.16-.67 18.39.29 27.52.38-1.02.71-2.05 1-3.09 1.75-6.08.29-12.47 1.26-18.66 1 5.47.13 11.06 1.02 16.55.31-1.81.6-3.62.89-5.42 4.65-1.57 8.35-4.89 12.01-8.02-1.46-.52-2.91-1.05-4.35-1.59 2.33-.75 4.88-.37 7.18-1.06 2.27-1.8 4.56-3.72 7.69-3.19-2.31 1.63-4.58 3.34-6.59 5.35 1.51.17 3.04.88 4.58.56 1.72-1.29 2.84-3.17 4.02-4.93 3.05-4.89 6.76-9.32 9.91-14.14 1.44-1.84 2.64-4.44 5.23-4.79 6.57-1.46 13.37-.9 20.02-1.8 7.56-.37 15.07-1.84 22.65-1.49-2.74 1.73-5.73 2.99-8.8 4.01 4.36.16 8.73.51 13.09.28 3.33-.18 6.3-1.82 9.34-3.02.97 5.19 5.46 8.44 9.78 10.83.32-.1.96-.32 1.28-.42.96-3.85-.17-8.93 3.7-11.43 3.72-1.42 6.07 1.66 7.4 4.64 1.18-.9 2.36-1.79 3.55-2.68.55.97 1.11 1.93 1.67 2.9.17-2.04.33-4.09.51-6.13.71-.29 1.42-.57 2.14-.85-.1-9.64.46-19.3-.19-28.93 10.66 3.34 21.55 8.37 28.45 17.5 7.15 9.54 6.11 23.72-1.73 32.57-9.76 11.5-22.43 20.02-34.34 29.11-.09 8.79-.05 17.57-.03 26.35 15.74-10.12 32.72-18.64 46.66-31.33 8.72-7.94 15.54-18.27 17.97-29.93 2.15-10.49 1.22-21.63-2.8-31.56.65-.03 1.97-.07 2.62-.09.67 1.64.95 3.42 1.36 5.15.7-.08 1.42-.15 2.14-.22.15 1.14.31 2.29.55 3.43 1.02.65 2.13 1.14 3.23 1.68.13.61.27 1.22.41 1.83 1.44 1.81 2.39 3.93 2.99 6.17.67.8 1.35 1.6 2.03 2.41.56 3.57 1.82 6.96 3.45 10.17 1.29-1.8 2.07-3.89 1.88-6.12-.37-10.64 1.45-21.2 1.09-31.84.72.63 1.45 1.27 2.18 1.9-.14 16.65-.45 33.3-.08 49.95 0 6.69.38 13.38.08 20.08.33.75-.62 2.95.34 3.38.32-30.18.01-60.44.12-90.65.38-4.63.39-9.29.62-13.93.93 3.58 1.77 7.2 3.23 10.61.93-.9 1.88-1.8 2.81-2.7 1.21.19 2.43.4 3.66.51.27-1.48.34-2.99.47-4.48.92.89 1.85 1.77 2.8 2.65 2.62-.13 5.25-.05 7.87.22.05 8.75-.12 17.49.05 26.23-.13 1.95 1.79 3.64 3.7 3.49 4.68.16 9.37-.04 14.06.03.77-.79 1.54-1.59 2.32-2.37-.11-13.05.15-26.11-.14-39.16m-260.9 92.25c.48.53.48.53 0 0m249.97 6.02c.49.53.49.53 0 0m-14.15 3.87c-1.22 1.48 1.41 3.07 2.39 1.6 1.16-1.47-1.41-3.05-2.39-1.6m-10.59 36.48c-.01 1.2.12 2.44 1.47 2.95 1.21-.3 1.79-1.03 1.75-2.2-.74-1.18-2.09-.81-3.22-.75Z" opacity="1.00"/><path fill="#5c2c61" d="M93.18 247.07c1.62-.51 2.17.04 1.65 1.67-1.63.51-2.18-.04-1.65-1.67Z" opacity="1.00"/><path fill="#aa3eca" d="M180.36 266.82c.84.76 1.68 1.53 2.53 2.31-1.44 1.61-3.17 1.87-4.59.09.51-.6 1.55-1.8 2.06-2.4Z" opacity="1.00"/><path fill="#321370" d="M78.41 296.35c-.26-5.36 1.6-10.47 2.23-15.73 1.96 12.86 4.93 25.61 9.67 37.75 2.16 6.24 5.15 12.13 7.81 18.16.47 5.79 4.55 10.34 5.56 15.98.32 2.84 2.54 4.66 4.65 6.3.22 2.17.64 4.32 1.28 6.42.66.14 1.33.29 1.99.45-.07.74-.15 1.49-.22 2.24 1.6 1.74 3.24 3.62 3.41 6.1.4 3.7 2.93 6.72 3.24 10.45-1.21.98-2.4 1.97-3.58 2.97 1.33 1.62 3.31 2.19 5.31 2.47.32.92.64 1.85.97 2.78-.65-.01-1.29-.02-1.94-.01-2.46 2.27-5.09 4.39-7.15 7.07-.72.98-1.87 2.09-3.19 1.5-4.16-1.84-6.99-5.63-10.69-8.18-4.02-3.61-6.92-8.27-10.26-12.48-9.51-13.21-18.04-27.34-23.92-42.56.63.54 1.26 1.07 1.9 1.6.75-2.78 2.05-5.37 3.91-7.58l1.08 2.64c2.73-.64 6.14-1.23 6.78-4.52 1.28-2.08-.41-3.96-1.49-5.66 1.85-1.8 4.03-3.78 3.93-6.61.65-4.52-1.1-8.78-2.23-13.04.31-2.84 1.13-5.63.95-8.51Z" opacity="1.00"/><path fill="#6a4072" d="M141.51 293.99c.85 9.77.45 19.59.67 29.38-.29 1.04-.62 2.07-1 3.09-.96-9.13-.51-18.36-.29-27.52.16-1.66.39-3.31.62-4.95Z" opacity="1.00"/><path fill="#4C6FFF" d="M498.18 298.08c3.55-3.22 8.42-2.32 12.81-2.37 6.3.04 12.61-.1 18.92.08 13.67 14.11 27.49 28.08 41.22 42.13 14.62 15.05 29.8 29.64 42.78 46.17-1.87-28.68-1.03-57.43-1.18-86.15 4.34-3.57 10.15-1.88 15.27-2.22 4.83.25 10.3-1.2 14.37 2.2.06 39.36.06 78.72 0 118.09-1.94 1.15-3.95 2.44-6.31 2.18-7.39-.08-14.77.07-22.15-.07-1.39.15-2.19-1.19-3.12-1.93-15.69-16.32-31.48-32.53-47.2-48.81-12.62-12.83-25-25.92-36.6-39.68 1.47 29.38.72 58.8.93 88.2-4.19 3.54-9.87 1.95-14.87 2.26-5-.31-10.72 1.3-14.87-2.34.04-39.24.05-78.49 0-117.74Zm195.81-.11c4.25-3.55 9.96-1.96 15.02-2.25 5.35.4 11.43-1.44 15.98 2.23.1 34.24-.15 68.48.13 102.72 23.95-.19 47.91-.02 71.87-.09 2.28-.28 4.06 1.31 5.86 2.46-.09 4.27-.07 8.55-.05 12.82-1.79 1.03-3.53 2.52-5.72 2.31-30.03-.01-60.07-.01-90.1-.01-4.42-.08-9.31.88-12.98-2.21 0-39.33.01-78.65-.01-117.98Zm145.43.22c3.66-3.63 8.97-2.29 13.6-2.48 4.61.13 9.26-.29 13.86.18 1.33.69 3.48 1.41 3.61 3.16.08 38.89-.1 77.78.09 116.67-1.72 1.09-3.39 2.65-5.57 2.44-6.68.02-13.36.02-20.03 0-2.19.22-3.84-1.35-5.55-2.42.1-39.18.13-78.37-.01-117.55Zm82.63-.12c3.6-3.27 8.55-2.29 12.99-2.36 5.66.06 11.33-.1 17 .02 1.42-.2 2.44.92 3.39 1.8 18.77 19.23 37.62 38.39 56.42 57.6 9.14 9.24 17.86 18.89 26.02 29.01-2.12-28.69-1.01-57.48-1.25-86.21 4.05-3.44 9.52-1.95 14.37-2.21 5.11.34 10.92-1.35 15.26 2.21.08 39.35.05 78.69.01 118.04-1.93 1.14-3.94 2.48-6.28 2.22-7.34-.07-14.69.04-22.02-.05-1.42.16-2.33-1.05-3.24-1.87-16.83-17.5-33.76-34.89-50.63-52.34-11.48-11.65-22.6-23.67-33.18-36.15 1.3 29.35.79 58.74.88 88.11-4.17 3.55-9.82 1.97-14.79 2.27-5.02-.3-10.67 1.26-14.9-2.22-.04-39.29.06-78.58-.05-117.87Zm195.79-.1c1.88-1.15 3.82-2.57 6.18-2.28 31.32.05 62.65.01 93.97.02 2.26-.27 4.01 1.36 5.76 2.53-.14 4.19-.14 8.38-.01 12.57-1.76 1.13-3.49 2.74-5.73 2.49-23.02-.04-46.05.05-69.08-.06-.18 10.81-.35 21.64.1 32.44 21.67-.18 43.34-.05 65.02-.08 2.09-.18 3.74 1.28 5.46 2.24-.01 4.38.02 8.76-.06 13.13-1.72.91-3.38 2.2-5.42 2.02-21.74.03-43.48-.01-65.22.02.12 12.55-.33 25.13.23 37.67 23.99-.22 47.99.01 71.99-.11 2.39-.18 5.24.57 6.51 2.75.35 4.15-.02 8.33.17 12.5-1.77 1.08-3.51 2.6-5.72 2.35-32.64 0-65.27-.03-97.9.01-2.36.27-4.33-1.08-6.24-2.2-.04-39.34 0-78.67-.01-118.01Z" opacity="1.00"/><path fill="#6b4078" d="M130.29 313.23c.48.53.48.53 0 0Z" opacity="1.00"/><path fill="#895b99" d="M380.26 319.25c.49.53.49.53 0 0Z" opacity="1.00"/><path fill="#883e9e" d="M366.11 323.12c.98-1.45 3.55.13 2.39 1.6-.98 1.47-3.61-.12-2.39-1.6Z" opacity="1.00"/><path fill="#4C6FFF" d="M98.12 336.53c6.9 12.21 14.36 24.19 23.56 34.83 8.72 10.44 18.75 19.72 29.5 28.02.43 2.82 2.49 4.59 5.03 5.56 1.1 2.6 1.51 6.09 4.39 7.4 3.91 2.01 7.87 3.97 11.98 5.54.53 1.33 1.07 2.66 1.42 4.07-.56 2.19-2.93 3.14-4.42 4.63 2.14.65 4.11-.29 5.87-1.45 3.73 1.03 4.75 5.02 6.43 8.02-2.5 2.83-4.22 6.22-6.45 9.24-2.06.6-4.22.69-6.33.94 1.08.57 2.16 1.16 3.24 1.75-1.08.85-2.16 1.69-3.24 2.55-24.72-11.57-47.24-27.89-65.85-47.86-2-2.08-4.01-4.2-5.49-6.7 3.7 2.55 6.53 6.34 10.69 8.18 1.32.59 2.47-.52 3.19-1.5 2.06-2.68 4.69-4.8 7.15-7.07.65-.01 1.29 0 1.94.01-.33-.93-.65-1.86-.97-2.78-2-.28-3.98-.85-5.31-2.47 1.18-1 2.37-1.99 3.58-2.97-.31-3.73-2.84-6.75-3.24-10.45-.17-2.48-1.81-4.36-3.41-6.1.07-.75.15-1.5.22-2.24-.66-.16-1.33-.31-1.99-.45-.64-2.1-1.06-4.25-1.28-6.42-2.11-1.64-4.33-3.46-4.65-6.3-1.01-5.64-5.09-10.19-5.56-15.98Z" opacity="1.00"/><path fill="#fefefe" d="M184.95 368.88c18.81-9.42 37.65-18.77 56.55-28.01.04 8.57-.09 17.15.08 25.72-18.71 9.7-37.71 18.82-56.53 28.31-.11-8.68.01-17.35-.1-26.02Z" opacity="1.00"/><path fill="#4C6FFF" d="M403.49 353.54c2.7-1.25 5.44-2.78 8.53-2.59 6.66.19 13.45-.6 19.97 1.2-1.88 8.51-6.04 16.27-9.85 24.04-4.37 7.04-8.41 14.45-14.76 19.98.39.49.79.99 1.19 1.5-.48.18-1.44.53-1.93.71.11.96.2 1.93.29 2.91-30.38 32.95-71.9 55.53-116.03 63.42-.42-.43-1.26-1.27-1.68-1.7 16.98-14.95 34.12-29.7 51.04-44.71 4.79-4.39 10.32-8.13 13.81-13.74 12.12-8.99 23.75-18.76 33.63-30.22 5.76-6.54 10.96-13.55 15.79-20.8Z" opacity="1.00"/><path fill="#2D3958" d="M344.12 364.01c1.73.35 3.47.89 4.94 1.9 1.79 1.24 2.46 3.59 4.26 4.81 3.69 1.26 7.19-.79 9.97-3.02 3.58.34 7.17-.23 10.14-2.37.68 4.9 1.79 10.15 5.81 13.47.86-2.12 1.87-4.35 4.34-4.86.41-.59.83-1.17 1.25-1.74.95.71 1.91 1.42 2.87 2.14-9.88 11.46-21.51 21.23-33.63 30.22-12.43 7.95-25.41 15.17-39.36 20.12-17.09 6.26-35.23 9.54-53.43 9.93-22.83.69-45.82-3.04-67.16-11.25-10.55-4.09-20.68-9.28-30.24-15.35 3.87-3.36 8.82-.77 13.12-.09 2.85.57 4.72-2 6.65-3.6-1.38-.98-2.77-1.96-4.17-2.92 1.39-.57 2.8-1.08 4.11-1.82 1.84-.79 1.16-3.13 1.46-4.68 18.82-9.49 37.82-18.61 56.53-28.31-.27 6.49 1.78 12.78 1.58 19.27 4.7.07 9.55.78 14.16-.43 1.32-1.4 1.57-3.44 2.28-5.16.9 1.2 1.8 2.39 2.71 3.58 6 .59 12.39-.97 18.01 1.76 3.5 1.42 7.47 1.31 10.77 3.28 2.38 1.64 5.23.75 7.82.29 1.41 1.54 2.51 3.58 4.46 4.49 3.46.68 7.04.01 10.52.59 1.31.75 1.86 2.36 2.79 3.51 3.76.28 7.52.28 11.29.13-.09-2.98-.11-6-1.01-8.87-.75-2.96-2.28-6.05-1.29-9.14 2.6-.81 5.24-1.51 7.78-2.51 3-1.18 6.46-.89 9.25-2.64 2.46-1.35 3.25-4.24 4.41-6.6l-4.36.24c.35-1.49.63-3.02 1.37-4.37Z" opacity="1.00"/><path fill="#4C6FFF" d="M151.18 399.38c4.18 2.96 8.33 5.97 12.7 8.63 9.56 6.07 19.69 11.26 30.24 15.35-.76.33-2.28 1-3.04 1.34 1.1 1.9 2.92 3.2 4.57 4.61 4.21 3.42 8.06 7.27 12.06 10.93 8.08 7.65 17.03 14.32 25.08 22.01 1.69 1.61 3.58 3.01 5.6 4.21-23.99-1.85-47.54-8.64-69.29-18.83 1.08-.86 2.16-1.7 3.24-2.55-1.08-.59-2.16-1.18-3.24-1.75 2.11-.25 4.27-.34 6.33-.94 2.23-3.02 3.95-6.41 6.45-9.24-1.68-3-2.7-6.99-6.43-8.02-1.76 1.16-3.73 2.1-5.87 1.45 1.49-1.49 3.86-2.44 4.42-4.63-.35-1.41-.89-2.74-1.42-4.07-4.11-1.57-8.07-3.53-11.98-5.54-2.88-1.31-3.29-4.8-4.39-7.4-2.54-.97-4.6-2.74-5.03-5.56Zm163.53 25.3c13.95-4.95 26.93-12.17 39.36-20.12-3.49 5.61-9.02 9.35-13.81 13.74-16.92 15.01-34.06 29.76-51.04 44.71-7.07-7.37-15.44-13.37-22.5-20.76-2.14-2.29-5.19-4.23-5.44-7.64 18.2-.39 36.34-3.67 53.43-9.93Z" opacity="1.00"/><path fill="#4C6FFF" d="M191.08 424.7c.76-.34 2.28-1.01 3.04-1.34 21.34 8.21 44.33 11.94 67.16 11.25.25 3.41 3.3 5.35 5.44 7.64 7.06 7.39 15.43 13.39 22.5 20.76.42.43 1.26 1.27 1.68 1.7-17.35 2.5-35.06 3.88-52.51 1.75-2.02-1.2-3.91-2.6-5.6-4.21-8.05-7.69-17-14.36-25.08-22.01-4-3.66-7.85-7.51-12.06-10.93-1.65-1.41-3.47-2.71-4.57-4.61Z" opacity="1.00"/></svg>