<svg xmlns="http://www.w3.org/2000/svg" width="455pt" height="297pt" viewBox="0 0 455 297"><path fill="#593728" d="M174.99 16.55c15.1 4.21 30.32 7.99 45.47 11.98 2.5-.76 2.28-3.62 2.69-5.7.36 2.63.7 5.5-1.83 7.16-13.96-3.39-27.98-6.55-41.94-9.94-1.07-.7-2.12-1.44-3.17-2.17-1 1.51-2.01 3.01-2.97 4.54.48-1.98 1.1-3.93 1.75-5.87Zm47.34 225.91c3.74-2.2 5.7 5.14 1.73 5.65-3.26.79-4.36-4.29-1.73-5.65Z" opacity="1.00"/><g fill="#60361e"><path d="M173.24 22.42c.96-1.53 1.97-3.03 2.97-4.54 1.05.73 2.1 1.47 3.17 2.17l-1.82-.36c11.57 16.63 24.1 32.59 35.86 49.08 23.04 4.13 46.17 7.69 69.23 11.68-2.02.83-4.03 1.67-6.09 2.36-19.81-2.5-39.63-5.02-59.43-7.57l-2.3-.36c-.11 9.38-.05 18.76.02 28.14.05 2.83-.37 5.64-.87 8.42-.01-12.2 0-24.41-.01-36.61-1.32.51-2.65 1.02-3.97 1.52-.36-2.81.27-6.09-1.76-8.4-9.44-12.57-18.92-25.11-28.26-37.75-1.49-2.11-3.03-4.19-4.61-6.24-5.53 15.66-10.85 31.39-16.48 47.01-3.52.71-6.57 2.65-9.45 4.7-2.46.27-4.93.35-7.4.35 5.13-2.94 10.46-5.53 15.7-8.28 3.75-11.24 7.49-22.48 11.27-33.71-28.74 5.26-57.03 14.17-82.59 28.5-16.3 9.24-31.62 20.66-43.66 35.11-11.55 13.66-20.03 30.4-21.88 48.35-2.03 17.31 2.4 35.03 11.18 49.97 9.08 15.69 22.32 28.58 36.95 39.12 27.59 19.68 60.07 31.6 93.1 38.31 44.13 8.74 90.03 8.51 134.04-.8 34.52-7.52 68.51-20.73 96.34-42.93 18.73-14.87 34.53-34.97 39.7-58.73 4.16-18.03 1.05-37.3-7.39-53.64-11.59-22.46-31.34-39.6-52.76-52.42-13.37-7.82-27.51-14.41-42.27-19.12 1.86 2.93 3.74 5.85 5.58 8.79-2.38.54-4.75 1.12-7.12 1.7l-1.31.31c-6.96 1.54-13.9 3.17-20.9 4.5l.01-.74c7.84-1.91 15.76-3.53 23.58-5.57 1.47-.11 2.96-.2 4.45-.25-6.01-9.67-12.49-19.04-18.43-28.76-4.4 7.05-8.93 14.02-13.46 21-11.12 3.69-21.97 8.15-33.08 11.85.48.19 1.44.56 1.92.74-1.71.27-3.43.42-5.14.61.41-4.95.97-9.88 1.23-14.84 1.34-.44 2.69-.88 4.06-1.27.57-.15 1.71-.46 2.28-.61l.04-.57c14.4-5.57 28.45-12.04 42.87-17.56 2 3.86 5.21 7.08 6.46 11.3 3.95 2.02 8.43 2.67 12.4 4.66 6.15 2.8 12.7 4.7 18.58 8.11 22.35 11.05 43.74 24.88 60.47 43.59 14.3 15.83 24.47 35.81 26.6 57.2 2.29 22.12-4.27 44.43-15.44 63.41-4.75 8.41-10.72 16.03-16.57 23.7-3.62 4.71-8.82 7.73-13.18 11.65-17.3 12.56-37.02 21.44-57.07 28.64-31 10.59-63.64 16.68-96.4 17.44-10.11-.03-20.22-.02-30.33.02-17.06-.17-34.04-2.47-50.82-5.39-2.44-.52-4.96-.84-7.24-1.87-1.82-.97-3.62-2-5.51-2.83-27.99-11.1-55.23-24.65-79.56-42.51-21.44-15.83-41.34-35.89-50.23-61.57-6.67-18.55-5.16-39.43 2.74-57.36 10.15-22.91 28.14-41.31 47.73-56.46 3.96-3.32 8.76-5.66 12.03-9.74l.48-.55c27.94-14.59 58.61-23.57 89.71-28.3.62-1.95 1.03-4 2.04-5.8Z" opacity="1.00"/><path d="M262.74 112.48c-1.9-6.14-1.77-12.68-.91-18.99.22 6.34.36 12.67.91 18.99ZM124.5 155.64c4.35-3.18 8.45-6.67 12.84-9.79 3.66 3.12 7.45 6.1 11.09 9.24-2.12 2.58-4.29 5.13-6.61 7.54-2.77-2.08-5.38-4.38-8.27-6.29-1.98-1.43-5.74-.26-5.15 2.57 1.12 3.1 3.79 5.25 5.94 7.63 5.13 5.53 10.51 10.85 15.53 16.49 3.15 3.21 2.86 8.25 1.44 12.2-1.29 4-4.9 6.43-7.8 9.21-3.2 2.77-6.05 5.95-9.43 8.51-4.71-2.92-9.21-6.15-13.79-9.25 2.38-2.81 4.76-5.62 7.05-8.5 3.72 1.97 6.96 4.76 10.75 6.58 4.46.78 7.99-6.12 4.57-9.3-6.39-7.3-13.62-13.81-20.33-20.81-2.92-2.99-3.53-7.73-2.23-11.6.85-1.97 2.81-3.1 4.4-4.43Zm59.19-3.66c3.88-1.1 8.47-2.01 11.99.54l-1.15 1.01c-.33.29-.97.88-1.3 1.17-.45 3.75-.33 7.53-.3 11.3.1 13.58-.12 27.17.07 40.75v.04c-2.91 1.77-5.71 3.71-8.54 5.6-.04-10.42.01-20.85.14-31.27-4.24-.07-8.48-.04-12.72-.04-2.32 7.3-4.45 14.66-6.74 21.97-1.89 5.13-6.47 9.88-12.12 10.39-2.53.28-3.8-1.95-4.24-4.06 3.29-.24 6.65.08 9.87-.74 2.01-1.59 1.9-4.53 2.56-6.79 2.76-16.19-1.01-34.24 8.25-48.8l.77.13c1.22 7.51.57 15.16.86 22.74 4.54.15 9.14.72 13.63-.22.63-3.53.33-7.13.37-10.69-.07-4.1.57-8.37-1.16-12.23l-.24-.8Z" opacity="1.00"/></g><path fill="#fffffd" d="m177.56 19.69 1.82.36c13.96 3.39 27.98 6.55 41.94 9.94 4.29.96 8.56 1.98 12.84 3 4.78 1.2 9.64 2.15 14.33 3.72 1.35.31 2.71.61 4.07.93 1.33.38 2.67.76 4 1.17l3.14.36c.56.07 1.69.23 2.26.3 2.72.66 5.41 1.47 8.2 1.83l1.1.17c-.03.59-.08 1.76-.1 2.35-1.37.39-2.72.83-4.06 1.27-.26 4.96-.82 9.89-1.23 14.84 1.71-.19 3.43-.34 5.14-.61 11.32-2.82 22.54-6.1 33.79-9.22-.19 8-.1 16.01 0 24.01l-1.19-.19c-6.32.22-12.61 1.02-18.94 1.15 1.51 1.61 2.92 3.37 4.77 4.61 4.36 1.46 9.03 1.7 13.54 2.53 9.65 1.51 19.29 3.07 28.94 4.58.01-2.47.01-4.94.01-7.4-1.27-.28-2.54-.56-3.81-.8.25-7.45.06-14.9.11-22.35 2.37-.58 4.74-1.16 7.12-1.7-1.84-2.94-3.72-5.86-5.58-8.79 14.76 4.71 28.9 11.3 42.27 19.12 21.42 12.82 41.17 29.96 52.76 52.42 8.44 16.34 11.55 35.61 7.39 53.64-5.17 23.76-20.97 43.86-39.7 58.73-27.83 22.2-61.82 35.41-96.34 42.93-44.01 9.31-89.91 9.54-134.04.8-33.03-6.71-65.51-18.63-93.1-38.31-14.63-10.54-27.87-23.43-36.95-39.12-8.78-14.94-13.21-32.66-11.18-49.97 1.85-17.95 10.33-34.69 21.88-48.35C54.8 83.19 70.12 71.77 86.42 62.53c25.56-14.33 53.85-23.24 82.59-28.5-3.78 11.23-7.52 22.47-11.27 33.71-5.24 2.75-10.57 5.34-15.7 8.28 2.47 0 4.94-.08 7.4-.35 4.13-.24 8.25-.53 12.38-.71 1.23-1.28 2.46-2.55 3.61-3.9 5.1-13.52 9.54-27.3 14.55-40.86 9.34 12.64 18.82 25.18 28.26 37.75 2.03 2.31 1.4 5.59 1.76 8.4 1.32-.5 2.65-1.01 3.97-1.52.01 12.2 0 24.41.01 36.61-.41 4.26-.4 8.55-.34 12.84.85-.17 2.56-.5 3.41-.66l.63-.15c.58-9.82.18-19.66.21-29.49-.15-6.1.53-12.27-.7-18.31l-.06-.43c19.8 2.55 39.62 5.07 59.43 7.57 28.33 3.69 56.73 6.97 85 11.09-4.09-1.25-8.35-1.74-12.54-2.49-22.13-3.61-44.25-7.33-66.37-10.96-23.06-3.99-46.19-7.55-69.23-11.68-11.76-16.49-24.29-32.45-35.86-49.08m-68.77 58.72c-11.3 8.47-22.61 16.94-33.9 25.44-1.74 1.06-.61 3.3-.75 4.92 3.67.02 7.33.11 11 .31.07 7-.45 14.04.39 21.01-2.16 2.28-5.74 3.16-7.01 6.21l.67.11c-.04.77-.13 2.3-.17 3.07.71 1.15 1.38 2.33 2 3.54-.99 1.37-1.97 2.77-2.9 4.19 1.52-.16 3.11-.25 4.16-1.55 9.35-2.07 18.56-4.83 27.93-6.84l.79.69c1.86 7.47 3.07 15.1 4.68 22.64.68-8.38.32-16.81.29-25.2 27.33.01 54.69-.36 82.03-.57 1.26.2 2.29-.51 3.26-1.19.35-.62 1.04-1.86 1.39-2.48l-1.13-.32.89.23c1.8-2.61 3.72-5.12 5.77-7.53 1.7-.35 3.4-.72 5.1-1.09-.06-3.97-.04-7.94.18-11.91l.16-1.12c-18.46.34-36.88-.72-55.3-1.64.18-3.97.43-7.95.72-11.92 5.76-2.27 11.48-4.65 17.14-7.17 12.07.95 24.15 1.65 36.22 2.62-1.1-6.57-2.72-13.05-4.03-19.58-33.22 1.31-66.37 3.45-99.58 5.13m133.61 8.77c.9 8.69-.02 17.58 1.5 26.16-.05 3.51.08 7.02.17 10.53 6.42.14 12.82.81 19.24 1.01-.28-3.83-.25-7.67-.5-11.49l.05-.44-.12-.47c-.55-6.32-.69-12.65-.91-18.99.18-1.38.44-5.03-1.84-4.19-5.86-.79-11.73-1.41-17.59-2.12m40.03 4.95c.52 11.02.68 22.05 1.51 33.05 5.49.57 11 1.07 16.53.84-.45-4.16-.32-8.34-.64-12.5.38-3.87-.28-7.76-.74-11.6.12-2.59-.09-5.17-.22-7.75-5.49-.57-10.97-1.33-16.44-2.04m24.8 2.36c.78 10.75.9 21.53 2.03 32.26 4.56.25 9.13.37 13.7.3l-.05-1.27c-1.16-7.9-.44-15.94-1.82-23.81.08-1.67 0-3.35-.03-5.03-4.59-.93-9.22-1.63-13.83-2.45m24.58 3.62-.01.61c.42 9.77 1.45 19.51 2.22 29.26 4.38.2 8.76.36 13.15.4-.12-1.73-.26-3.44-.42-5.16-.34-7.77-1.69-15.51-1.6-23.3-2.96-1.02-6.16-1.82-9.29-1.5-1.31-1.07-2.65-1.17-4.05-.31M124.5 155.64c-1.59 1.33-3.55 2.46-4.4 4.43-1.3 3.87-.69 8.61 2.23 11.6 6.71 7 13.94 13.51 20.33 20.81 3.42 3.18-.11 10.08-4.57 9.3-3.79-1.82-7.03-4.61-10.75-6.58-2.29 2.88-4.67 5.69-7.05 8.5 4.58 3.1 9.08 6.33 13.79 9.25 3.38-2.56 6.23-5.74 9.43-8.51 2.9-2.78 6.51-5.21 7.8-9.21 1.42-3.95 1.71-8.99-1.44-12.2-5.02-5.64-10.4-10.96-15.53-16.49-2.15-2.38-4.82-4.53-5.94-7.63-.59-2.83 3.17-4 5.15-2.57 2.89 1.91 5.5 4.21 8.27 6.29 2.32-2.41 4.49-4.96 6.61-7.54-3.64-3.14-7.43-6.12-11.09-9.24-4.39 3.12-8.49 6.61-12.84 9.79m101.97-1.56c1.98 4.2 4.39 9.52 1.46 13.86-3.41 2.87-7.34 5.08-10.99 7.65-.04-8.62-.07-17.24.03-25.86-4.2.19-8.41.27-12.61.55.85.94 1.72 1.87 2.6 2.78.54 19.57.16 39.17.26 58.74 3.18-2.12 6.36-4.24 9.6-6.27.22-7.52-.03-15.05.13-22.56-.1-1.78.78-4.37 3.01-3.96 3.25.72 5.17 3.82 6.5 6.62 2.5 5.56 3.85 11.54 5.82 17.28 1.95 6.68 6.79 11.93 11.27 17.03-.18-4.14-4.75-6.54-4.43-10.86.38-7.4 1.17-15.03-1.31-22.18-1.6-5.79-6.1-9.98-9.98-14.29 2.85-2.46 5.73-4.95 7.94-8.02.74-1.04 1.55-2.26 1.13-3.62-.58-4.3-.99-8.63-1.39-12.95-3.12 1.86-6.08 3.96-9.04 6.06m24.27-4.71c.02 2.35.03 4.71.09 7.06 2.08-.85 3.98-2.21 6.18-2.73 1.92 1.22.32 3.54-.28 5.06-5.33 11.76-9.3 25.59-4.56 38.22 2.17 6.78 8.71 10.49 13.19 15.6 4.17-3.18 7.52-7.29 11.55-10.64 4.52 3.22 8.75 6.86 13.07 10.36 5.68-4.74 11.67-9.18 16.86-14.47.43-13.9-.49-27.87-.21-41.79.94-2.46 2.44-4.65 3.66-6.97-4.62.11-9.25.06-13.87.13-.96 15.62.92 31.26.12 46.89-.05 1.98-.57 3.9-1.1 5.8-8.93-4.98-15.83-14.47-15.94-24.93-.19-9.7 4.17-18.61 8.2-27.17-5.59-.01-11.18-.14-16.77-.23.14 2.43.26 4.87.42 7.3 2.74-1.53 5.84-4.33 8.93-1.86-2.31 4.77-5.18 9.29-6.89 14.33-2.62 7.51-3.57 16.1-.23 23.54.77 1.99 2.16 3.92 1.79 6.17-.58 1.45-2.44 2.48-3.93 1.77-8.82-5.55-13.65-16.4-12.35-26.71.49-8.88 5.37-16.56 7.58-25-5.17.14-10.34.14-15.51.27M157 151.94c-.67 1.79 1.24 3.69 3.04 3.11 3.02-1.14 6.05-3 9.42-2-9.26 14.56-5.49 32.61-8.25 48.8-.66 2.26-.55 5.2-2.56 6.79-3.22.82-6.58.5-9.87.74.44 2.11 1.71 4.34 4.24 4.06 5.65-.51 10.23-5.26 12.12-10.39 2.29-7.31 4.42-14.67 6.74-21.97 4.24 0 8.48-.03 12.72.04-.13 10.42-.18 20.85-.14 31.27 2.83-1.89 5.63-3.83 8.54-5.6v-.04c1.69-1 .98-3.13 1.18-4.71.13-16.16-.3-32.35.35-48.51l1.15-1.01c.7-.8 1.4-1.61 2.1-2.43-10.89-1.38-21.86.02-32.78-.19-2.71.1-6.2-.56-8 2.04m159.88.57c1.01 1.28 2.06 3.5 4.08 2.37 2.89-1.32 5.91-2.47 9.16-1.94-.52.79-1.03 1.57-1.54 2.35-7.79 14.89-4.04 32.3-7.2 48.23-.48 1.88-.72 4.18-2.56 5.29-3.16.5-6.38.36-9.57.65.61 1.8 1.45 4.1 3.8 3.96 6.17-.25 11.19-5.7 12.9-11.36 2.11-6.99 4.26-13.98 6.32-20.99 4.23-.01 8.46 0 12.7-.02-.01 10.41-.03 20.82.03 31.24.85-.56 1.71-1.12 2.58-1.66 2.41-1.59 4.8-3.22 7.19-4.85-.06-16.23.13-32.47.11-48.71-.15-1.91.52-3.69 1.41-5.34l.55.12c.36-.46 1.08-1.37 1.43-1.82-12.06-1.27-24.18.14-36.27-.09-2.17-.37-3.71 1.23-5.12 2.57m58.27 36.51c-3.5 2.01.67 7.23 3.66 4.85 2.45-2.32-.84-6.32-3.66-4.85m4.81 11c1.95.2 4.23-.4 5.7 1.25 3.5 3.27 8.6 5.66 9.3 10.92 1.85-2.29 4.28-4.27 5.24-7.14-.81.09-2.45.26-3.27.35-4.5-3.21-8.7-6.84-12.68-10.67-1.57 1.64-2.99 3.42-4.29 5.29m-290.14-.24c.25 1.03.51 2.06.78 3.08-5.72 8.09-12.24 15.57-18.49 23.25-.93 1.5-2.59 1.82-4.21 2.05-1.19.52.28 1.57.68 1.99 4.42 3.61 8.93 7.11 13.27 10.82.86-1.55 4.06-3.11 1.97-4.92-.51.32-1.53.96-2.05 1.27-2.94-1.76-5.39-4.21-8.07-6.32 6.17-8.88 13.12-17.24 20.3-25.32.91.16 2.73.48 3.65.64-1.78-2.96-4.66-5.23-7.83-6.54m282.46 8.41c-1.24 3.06 2.18 8.01 5.53 5.72 2.03-2.81-1.13-5.67-4.04-5.3.89-1.2 1.61-2.68 3.15-3.15 1.68.49 2.9 1.81 4.24 2.86-.82 3.26-2.15 6.37-2.8 9.67-.14 2.61 2.26 4.56 4.61 5.09 3.44-.59 6.4-3.56 6.3-7.17 1.28-.12 2.85.34 3.81-.82 2.29-1.76.4-5.55-2.29-5.47.48 1.25.97 2.5 1.45 3.76-4.87-2.43-7.35-7.89-12.23-10.33-3.49-1.06-6.69 2.08-7.73 5.14m-11.14 9.59c-3.45-.78-6.31 1.68-7.21 4.86-1.61.27-3.15.81-4.57 1.61.19.36.57 1.07.76 1.43.52-.05 1.55-.14 2.07-.19 2.98 2.9 5.12 6.55 7.57 9.89 1.36 1.31.57 3.09.45 4.68 2.98-.58 5.18-3.02 7.25-5.07-.8-.11-2.42-.31-3.22-.42-2.49-3.53-5.44-6.8-7.35-10.7-1.31-2.26 2.32-5.41 3.85-2.65 2.94 4.18 7.75 8.05 7.38 13.6 2.14-1.59 5.3-2.55 6.13-5.33-1.65.2-3.16-.18-4-1.7-2.4-3.18-5.09-6.24-6.82-9.86.02-1.85 2.45-3.88 4.1-2.37 3.29 3.05 5.48 7.07 8.08 10.69-.15.76-.45 2.28-.61 3.04 2.98-.87 5.38-2.94 7.44-5.18-.82-.09-2.44-.26-3.25-.35-2.89-3.47-5.09-7.53-8.36-10.66-3.7-3-9.03.48-9.69 4.68m-275.67 9.28c-1.61 3.59.36 8.46 4.35 9.3 2.39.67 4.66-.69 6.31-2.31-2.7.52-5.49 1.25-8.04-.25-.15-1.7-.32-3.5.75-4.97 2.33-5.17 9.81 2.38 12.29-2.82 3.13-3.8-1.78-9.16-5.98-8.61-4.96.59-8 5.4-9.68 9.66m37.38-7.97c.33 1.71 1.35 3.54.55 5.27-2.36 5.89-5.1 11.62-7.68 17.43-1.09 2.08-1.97 5.38-5.02 4.74 1.05 2.98 5 3.14 7.4 4.71.51-1.25.18-2.36-.75-3.29.62-2.06 1.47-4.04 2.48-5.94.49 3.19.13 6.57 1.32 9.63 1.09 1.8 3.22 2.33 5.15 2.67-2.5-3.75-2.34-8.32-3.93-12.39 3.31-1.97 6.67-4.1 10.61-4.51 1.09 2.1.54 4.29-.34 6.33-1.6 3.78-2.17 8.62-6.37 10.51 2.33 1.7 5.25 2.24 7.93 3.21-.21-1.66-1.25-3.31-.66-4.99 1.52-4.78 3.37-9.45 5.29-14.08-4.08-1.34-8.07-2.92-11.96-4.73-.29 1.25.07 2.37.98 3.27a82.376 82.376 0 0 1-7.92 4.23c2.93-6.58 5.96-13.12 9.05-19.63-2.03-.85-4.06-1.69-6.13-2.44m-19.96 2.7c.11 1.7 1.1 3.55-.01 5.14-1.52 3.08-3.18 6.09-4.85 9.09-.73 1.77-2.79 2.07-4.26 2.97 2.31 1.34 4.67 2.58 6.98 3.92.42-.38.85-.76 1.27-1.13-.31-.47-.92-1.42-1.23-1.89 1.83-4.04 3.74-8.19 6.49-11.69 1.7-2.15 5.43.4 4.34 2.72-1.51 3.61-3.36 7.1-5.46 10.39-.56 1.58-3.16.61-3.36 2.42 2.31 1.66 4.91 2.85 7.56 3.88-.29-1.07-.58-2.13-.88-3.18 1.79-4.05 4.39-7.75 5.8-11.95 1.21-4.83-4.55-8.51-8.81-6.96-.18-.58-.55-1.75-.73-2.33-.95-.47-1.9-.94-2.85-1.4m236.61 7.56c-1.97 2.42-.65 8.15 3.05 7.28 3.61-1.35 1.16-5.85-1.81-6.26 1.23-.74 2.27-2.21 3.82-2.16 1.39 1 2.3 2.49 3.33 3.84-1.95 3.35-4.42 6.4-5.99 9.98.96 1.91 1.85 4.33 4.22 4.84 3.22.15 6.55-1.81 7.32-5.08 1.6.07 3.7 1.14 4.89-.49 1.76-1.59.51-4.34-1.4-5.2l-.12 4.19c-3.19-4.07-4.68-9.23-8.15-13.09-2.73-2.76-7.24-.51-9.16 2.15m-201.05-1.75c-3.09 1.05-2.23 6.73 1.46 5.66 3.54-.89 2.21-7.13-1.46-5.66m5.34 2.16c.75 2.6 1.49 5.2 2.39 7.76 1.22.34 2.44.69 3.66 1.06 2.1-1.53 4.16-3.12 6.08-4.86-2.65-1.66-5.03.13-7.17 1.68-.53-1.45-1.05-2.89-1.58-4.32-1.13-.45-2.25-.89-3.38-1.32m11.58 3.05c2.66 1.65 1.22 4.77.74 7.16-1.76 6.52-3.02 13.19-5.26 19.57-1.04.65-2.04 1.34-3.06 2.02 2.42.86 4.89 1.62 7.41 2.13 2.35.32.69-2.11-.25-2.77.22-2.14.75-4.23 1.53-6.23.95 2.96 1.18 6.19 2.69 8.96 1.27 1.5 3.34 1.78 5.08 2.48-.1-.46-.3-1.37-.39-1.83-2.39-3.05-3.26-6.87-4.72-10.39 2.72-2.51 5.66-5 9.3-6.05-1.3-2.37-4.47-1.96-6.73-2.7.43 1.09.89 2.15 1.4 3.21-2.03 1.96-4.29 3.65-6.65 5.18 1.6-6.9 3.33-13.79 5.48-20.54-2.08-.07-5.17-2.55-6.57-.2m170.07 3.94c-1.7.04-3.39.1-5.07.22.35 2.22 3.16 1.97 3.77 3.98 1.52 3.22 2.93 6.49 4.29 9.78.89 1.57-.44 3.18-.63 4.75 2.51-1.38 7.12-1.4 7.73-4.68-.59-.01-1.79-.04-2.39-.05-2.09-3.7-3.86-7.64-5.16-11.68-1.29-2.83 2.74-5.19 4.55-2.74 2.27 3.75 3.8 7.9 5.37 11.97-.32.8-.98 2.39-1.3 3.18 2.58-1.22 6.64-1.36 7.83-4.34l-2.21-.56c-2.66-3.85-3.61-8.65-6.4-12.41-3.14-3.16-8.76-1.26-10.38 2.58m-37.16-1.15c-1.92 1.71-.58 5.14 1.85 5.52 1.82-.32 3.49-2.33 2.45-4.16-.47-1.76-2.97-3-4.3-1.36m-148.47 8.41c-1.04 4.05 3.07 6.4 4.73 9.51.94 1.72-.97 3.19-1.58 4.67-3.37.26-5.73-2.4-5.84-5.62l-1.3-.06c-.15 2.79.83 5.99 3.75 6.98 3.72 1.89 8.36-.63 9.15-4.63 1.43-3.87-2.75-6.24-4.59-9.01-1.33-1.72.5-4.73 2.68-3.72 2.18 1.02 1.65 3.74 2.41 5.63 1.55-1.76 2.95-4.42 1.84-6.73-.38.4-1.14 1.21-1.52 1.62-2.02-4.17-9.06-3.31-9.73 1.36M309 239.53c-.04.62-.12 1.87-.17 2.49-.47-.3-1.43-.9-1.91-1.2-1.77.82-4.08 1.22-5.01 3.17-1.69 2.79.08 6.97 3.27 7.69 1.84.54 3.75.85 5.55 1.55 2.2 1.11 2.78 4.99.13 5.9-2.74 1.52-5.06-1.15-7.19-2.47.41 4.14 5.49 5.91 8.8 3.83 4.21-1.87 4.5-8.22.95-10.87-2.35-1.94-5.97-.83-8.25-2.86-1.32-1.51-.34-4.01 1.77-3.79 2.08-.54 2.87 2.03 3.99 3.23 1.77-1.91.06-5.49-1.93-6.67m-86.67 2.93c-2.63 1.36-1.53 6.44 1.73 5.65 3.97-.51 2.01-7.85-1.73-5.65m23.97 1.52c.37 3.78-.88 7.67-4.63 9.25l3.04 1.24c.81 6.36.49 13.01 2.5 19.15 2.1 4.23 8.63 2.49 9.14-1.98-1.67 1.03-3.3 2.24-5.29 2.59-2.36-6.4-2.09-13.4-2.31-20.11 1.01-.57 2.71-.57 3.07-1.87-1.13-.27-2.28-.49-3.42-.65-.2-2.55-.37-5.09-.45-7.64-.41 0-1.23.01-1.65.02m42.13 3.43c-2.59 3.81-1.22 8.68.38 12.6 1.46 3.46 5.75 6.4 9.4 4.27 2.6-1.06 3.28-4 3.62-6.49-2.02 1.89-3.3 6-6.82 5.1-1.96-1.21-2.18-3.78-3.05-5.72 2.52-2.73 8.66-4.43 6.99-9.08-1.4-4.52-8.28-4.41-10.52-.68m-115.94.15c-5.13 1.06-6.2 7.12-6.6 11.49-.62 3.61 1.44 7.73 5.2 8.52 3.36.95 6.71-1.65 7.89-4.69 1.08-2.79 1.45-5.84 1.42-8.82.04-3.92-3.98-7.6-7.91-6.5m106.95.63c.47 1.15 1.31 1.89 2.52 2.22.21 3.84-.82 7.78.06 11.54-2.99-2.57-3.69-6.75-5.33-10.17.59-1 1.17-2.01 1.73-3.03-2.78-.47-5.53.67-8.24 1.13 4.72 5.15 6.68 12.06 9.74 18.21.7-.16 2.1-.46 2.8-.62.06-1.58.11-3.15.14-4.72.38-5.27.22-10.74 2.41-15.67-1.95.37-3.89.73-5.83 1.11m-96.55 5.68c-1.53 5.9 8.91 6.96 5.88 12.89-3.09 3.18-7.19-.82-7.45-4.25-2.31 3.1 1.32 7.17 4.68 7.29 4.33.73 8.06-3.59 7.23-7.79-.44-3.5-4.39-4.51-6.24-7.05-1.3-1.92 1.22-4.82 3.18-3.26 1.82.87 1.72 3.07 2.08 4.74 2.6-1.18 1.49-4.68 1.91-6.93-.44.49-1.32 1.46-1.76 1.95-2.68-3.45-9.15-2.21-9.51 2.41m78.55-2.86c.9 1.3 2.46 2.34 2.65 4.02.61 3.92 1.38 7.92 1.09 11.9-.33 2.33-3.93 2.88-4.79.64-1.19-3.76-1.42-7.73-1.83-11.63-.29-1.84 1.12-3.32 1.86-4.88-2.22.27-4.49.31-6.65.91-1.18.35-1.87 3.17.4 2.69.73 4.09.89 8.28 1.89 12.33 1.13 5.24 9.62 5.26 11.86.9 1.22-4.88-.75-9.85-.63-14.76.59-.98 1.49-1.81 1.65-2.99-2.53-.03-5.02.47-7.5.87m-57.67 1.11c3.75 5.88 4.01 13.14 5.46 19.8.73.03 2.21.11 2.95.15 1.55-5.57 3.07-11.17 5.2-16.56.58-.61 2.95-2.14 1.13-2.63-1.77-.24-3.55-.3-5.32-.39 3.55 3.85-.06 8.75-.56 13.09l-.93.13c-.6-3.71-1.8-7.37-1.58-11.16.58-.22 1.73-.67 2.3-.89-1.76-2.76-5.89-1.07-8.65-1.54m29.24 1.83c-1.68-.94-3.54-1.25-5.45-1.17 4.11 3.64 2.41 9.42 2.78 14.27.29 2.05-1.27 3.55-2.22 5.17 2.98.01 5.96-.02 8.94-.05-.02-.45-.05-1.35-.07-1.8-.65-.17-1.93-.5-2.58-.66.11-4.38-.71-8.85.2-13.17.42-2.17 2.78-2.54 4.6-2.72-.85 1.76-3.1 3.79-1.54 5.82.93 1.54 3.04 1.49 4.23.27 1.41-2.73.41-7.05-2.94-7.71-2.23-.75-4.06.92-5.95 1.75m-13.61-1.1c.85 1.64 2.29 3.17 2.29 5.11-.16 4.88.88 10.43-2.8 14.3 2.6.14 5.22.36 7.84.17 1.55-.71-.86-2.29-1.26-3.16-.28-5.45-.11-10.93.36-16.36-2.15-.05-4.29-.07-6.43-.06Z" opacity="1.00"/><path fill="#fffaf3" d="m226.54 21.09.52-.96-.06.66c-.36 2.99-.51 6-.28 9.01l-.44-.15c-.18-2.85-.24-5.73.26-8.56Zm75.63 25.64c4.53-6.98 9.06-13.95 13.46-21 5.94 9.72 12.42 19.09 18.43 28.76-1.49.05-2.98.14-4.45.25l-.64-2.45c-.45-2.1-1.13-4.17-2.36-5.94-3.36-5.09-6.73-10.18-9.99-15.33-2.97 4.09-5.94 8.17-9.01 12.18.33 1.82.67 3.65 1.03 5.47-.17.05-.52.13-.69.17-1.94-.66-3.86-1.4-5.78-2.11Z" opacity="1.00"/><path fill="#5c351f" d="M223.09 22.14c1.14-.37 2.29-.72 3.45-1.05-.5 2.83-.44 5.71-.26 8.56l.44.15c2.46.77 4.97 1.4 7.42 2.23l.02.96c-4.28-1.02-8.55-2.04-12.84-3 2.53-1.66 2.19-4.53 1.83-7.16l-.06-.69Zm156.87 177.88c1.3-1.87 2.72-3.65 4.29-5.29 3.98 3.83 8.18 7.46 12.68 10.67.82-.09 2.46-.26 3.27-.35-.96 2.87-3.39 4.85-5.24 7.14-.7-5.26-5.8-7.65-9.3-10.92-1.47-1.65-3.75-1.05-5.7-1.25Z" opacity="1.00"/><path fill="#ac8041" d="M226.72 29.8c-.23-3.01-.08-6.02.28-9.01.9.07 2.7.22 3.6.3.37.24 1.11.72 1.48.97.51.32 1.54.95 2.05 1.27.09 2.9.03 5.8.01 8.7-2.45-.83-4.96-1.46-7.42-2.23Z" opacity="1.00"/><path fill="#3f362d" d="m232.08 22.06 2.76.12c-.13 3.24-.13 6.49.03 9.74 8.04 2.06 16.03 4.42 24.07 6.38.23-2.34.18-4.69.14-7.04 1.16-.32 2.32-.64 3.48-.94-1.13.78-2.25 1.6-3.15 2.63-.11 2.08.12 4.15.29 6.22l-3.14-.36c-1.33-.41-2.67-.79-4-1.17-1.36-.32-2.72-.62-4.07-.93-4.69-1.57-9.55-2.52-14.33-3.72l-.02-.96c.02-2.9.08-5.8-.01-8.7-.51-.32-1.54-.95-2.05-1.27Z" opacity="0.53"/><path fill="#ac7f41" d="M175.37 23.96c1.58 2.05 3.12 4.13 4.61 6.24-5.01 13.56-9.45 27.34-14.55 40.86-2.18-.05-4.36-.12-6.54-.09 5.63-15.62 10.95-31.35 16.48-47.01Z" opacity="1.00"/><path fill="#5f351f" d="m262.56 30.32.52-.34.01.99c-.09 2.86-.08 5.72.11 8.58l-1.24-.08c-.57-.07-1.7-.23-2.26-.3-.17-2.07-.4-4.14-.29-6.22.9-1.03 2.02-1.85 3.15-2.63Z" opacity="1.00"/><g fill="#fffbf2"><path d="M263.09 30.97c1.11-.63 4.09-.6 4.44-.44-.98.28-1.92.63-2.83 1.05-1.83 2.15-.77 5.37-1.5 7.97-.19-2.86-.2-5.72-.11-8.58Zm-153.32 77.81c1.51.07 3.01.16 4.52.27a92.013 92.013 0 0 1-4.52 3.57v-3.84Zm6.44.03 1.56-.4c.42 7.63.17 15.28.25 22.92 28.21.67 56.42.94 84.63 1.38-.35.62-1.04 1.86-1.39 2.48-28.46.19-56.92.39-85.38.67-11.71 3.07-23.29 6.66-34.92 10.03l1.32-.23c-1.05 1.3-2.64 1.39-4.16 1.55.93-1.42 1.91-2.82 2.9-4.19 2.34-.73 4.69-1.42 7.07-1.97l.2-1.42-2.06.77c.12-.54.37-1.63.49-2.17-.46-1.46-.89-2.93-1.31-4.4-.18 1.93-.44 3.86-.94 5.73l.32 1.66c-1.81.49-3.26-.45-4.59-1.55l.4-3.02-1.41-.24-.67-.11c.65-.34 1.93-1 2.57-1.34 1.15 1.37 2.25 2.76 3.39 4.14-.43-1.89-1.34-3.58-2.5-5.11 1.55-.54 3.52-1.26 4.83.17.1.73.29 2.19.38 2.92.37-.22 1.11-.65 1.47-.87l1.44 2.8-1.8-.01c.62.43 1.24.87 1.87 1.3 8.46-3.02 17.14-5.37 25.66-8.26.1-7.74-.17-15.5.38-23.23Z" opacity="1.00"/><path d="M91.8 127.41c2.03-1.57 4.12-3.06 6.21-4.56 1.49 3.69.87 7.72.97 11.6-1.18-1.19-2.34-2.39-3.5-3.59 1.09-2.22 2.47-4.37 2.76-6.88-1.45 1.84-2.47 3.96-3.54 6.03-.96-.87-1.92-1.74-2.9-2.6Z" opacity="1.00"/></g><path fill="#ae7f40" d="M264.7 31.58c.91-.42 1.85-.77 2.83-1.05 4.95.64 3.5 6.97 3.5 10.52l-.87.25c-2.79-.36-5.48-1.17-8.2-1.83l1.24.08c.73-2.6-.33-5.82 1.5-7.97Z" opacity="1.00"/><path fill="#936330" d="M307.61 43.2c3.07-4.01 6.04-8.09 9.01-12.18 3.26 5.15 6.63 10.24 9.99 15.33 1.23 1.77 1.91 3.84 2.36 5.94-.64-.89-1.29-1.77-1.94-2.65-7.01 2.17-14.03 4.28-21.05 6.39-.04-2.12-.1-4.23-.17-6.34.53-.21 1.6-.63 2.14-.85.17-.04.52-.12.69-.17-.36-1.82-.7-3.65-1.03-5.47Zm-134 46.88 2.57.16c-5.66 2.52-11.38 4.9-17.14 7.17-.29 3.97-.54 7.95-.72 11.92-9.11-.3-18.21-.85-27.31-1.25-4.41-.16-8.93-.94-13.24.33l-1.56.4c-2.15-.14-4.29-.51-6.42-.83-.01-2.11-.02-4.21-.02-6.31 2.06-.09 4.13-.17 6.19-.28-.37-.25-1.1-.75-1.47-1 13.46-1.4 26.94-2.6 40.41-3.82 6.75-.31 12.62-3.98 18.71-6.49Z" opacity="1.00"/><path fill="#936331" d="M335.21 41.04c32.49 10.51 63.71 27.33 87.33 52.37 14.89 16.11 26.09 36.5 28 58.63.25 7.36.49 14.8-.94 22.07-3.06 17.82-11.99 34.2-23.63 47.87-9.1 9.96-18.94 19.37-30.3 26.72 4.36-3.92 9.56-6.94 13.18-11.65 5.85-7.67 11.82-15.29 16.57-23.7 11.17-18.98 17.73-41.29 15.44-63.41-2.13-21.39-12.3-41.37-26.6-57.2-16.73-18.71-38.12-32.54-60.47-43.59-5.88-3.41-12.43-5.31-18.58-8.11Z" opacity="1.00"/><path fill="#a97e45" d="M269.09 58.58c11.11-3.7 21.96-8.16 33.08-11.85 1.92.71 3.84 1.45 5.78 2.11-.54.22-1.61.64-2.14.85l-1.01.41c-11.25 3.12-22.47 6.4-33.79 9.22-.48-.18-1.44-.55-1.92-.74Z" opacity="1.00"/><path fill="#3e210a" d="m304.8 50.1 1.01-.41c.07 2.11.13 4.22.17 6.34.02 1.42.04 2.85.05 4.28l-.01.74c-.02 4.44 0 8.89-.02 13.33l-1.2-.27c-.1-8-.19-16.01 0-24.01Z" opacity="1.00"/><path fill="#ac803f" d="M305.98 56.03c7.02-2.11 14.04-4.22 21.05-6.39.65.88 1.3 1.76 1.94 2.65l.64 2.45c-7.82 2.04-15.74 3.66-23.58 5.57-.01-1.43-.03-2.86-.05-4.28Z" opacity="1.00"/><path fill="#936430" d="M64.98 65.96c5.22-3.17 10.35-6.59 16.03-8.89-3.27 4.08-8.07 6.42-12.03 9.74-19.59 15.15-37.58 33.55-47.73 56.46-7.9 17.93-9.41 38.81-2.74 57.36 8.89 25.68 28.79 45.74 50.23 61.57 24.33 17.86 51.57 31.41 79.56 42.51 1.89.83 3.69 1.86 5.51 2.83-15.13-2.47-29.86-7.19-44.27-12.37-27.45-10.41-54.01-24.88-74.67-46.03-11.45-11.08-20.6-24.6-26.28-39.5-7.79-20.87-7.15-44.8 2.09-65.1 11-24.91 31.68-44.14 54.3-58.58Zm40.15 35.32.49-.04c1.11.25 2.23.52 3.34.8.04 2.09.09 4.18.14 6.27-2.82.03-5.64.09-8.46.18.08-2.12.17-4.24.27-6.36 1.4-.29 2.81-.6 4.22-.85Z" opacity="1.00"/><path fill="#fefefc" d="M306.02 61.05c7-1.33 13.94-2.96 20.9-4.5-.05 7.28-.16 14.56-.08 21.84-6.98-1.14-13.92-2.56-20.84-4.01.02-4.44 0-8.89.02-13.33Zm-22.71 33.84c3.78.43 7.56 1.08 11.37.94 1.33 9.66 1.24 19.45 2.12 29.15-3.92.05-7.81-.45-11.69-.96-.97-9.69-1.07-19.42-1.8-29.13Z" opacity="1.00"/><path fill="#30170b" d="m326.92 56.55 1.31-.31c-.05 7.45.14 14.9-.11 22.35l-1.28-.2c-.08-7.28.03-14.56.08-21.84Z" opacity="1.00"/><path fill="#916333" d="M149.44 75.67c2.88-2.05 5.93-3.99 9.45-4.7 2.18-.03 4.36.04 6.54.09-1.15 1.35-2.38 2.62-3.61 3.9-4.13.18-8.25.47-12.38.71Z" opacity="1.00"/><path fill="#ad803f" d="M108.79 78.41c33.21-1.68 66.36-3.82 99.58-5.13 1.31 6.53 2.93 13.01 4.03 19.58-12.07-.97-24.15-1.67-36.22-2.62l-2.57-.16c-21.33-1.39-42.64-3.08-63.98-4.38-.3-2.43-.57-4.86-.84-7.29Z" opacity="1.00"/><path fill="#916331" d="M284.67 75.07c6.33-.13 12.62-.93 18.94-1.15-.36 2.75-.55 5.52-.63 8.29-4.51-.83-9.18-1.07-13.54-2.53-1.85-1.24-3.26-3-4.77-4.61Z" opacity="1.00"/><path fill="#ac8040" d="m303.61 73.92 1.19.19 1.2.27c6.92 1.45 13.86 2.87 20.84 4.01l1.28.2c1.27.24 2.54.52 3.81.8 0 2.46 0 4.93-.01 7.4-9.65-1.51-19.29-3.07-28.94-4.58.08-2.77.27-5.54.63-8.29Z" opacity="1.00"/><path fill="#7b5234" d="m214.83 74.88 2.3.36.06.43c-.36 15.98-.13 31.97-.14 47.95-.85.16-2.56.49-3.41.66-.06-4.29-.07-8.58.34-12.84.5-2.78.92-5.59.87-8.42-.07-9.38-.13-18.76-.02-28.14Z" opacity="1.00"/><path fill="#f9e2c0" d="M217.19 75.67c1.23 6.04.55 12.21.7 18.31-.03 9.83.37 19.67-.21 29.49l-.63.15c.01-15.98-.22-31.97.14-47.95Z" opacity="1.00"/><path fill="#916431" d="M74.89 103.85c11.29-8.5 22.6-16.97 33.9-25.44.27 2.43.54 4.86.84 7.29-.24.16-.73.5-.98.66-2.63 1.81-5.3 3.56-7.97 5.31-.24.16-.72.46-.96.62-2.43 1.55-4.85 3.1-7.26 4.68l.09 5.17c.79-.01 2.38-.02 3.18-.03 1.39.22 2.78.5 4.17.78.03 1.61.07 3.22.11 4.83-1.87.39-3.72.81-5.59 1.17-.49.02-1.48.08-1.98.1l-.89.04c-1.97.05-3.93.08-5.9.06l-.51-.01c-3.67-.2-7.33-.29-11-.31.14-1.62-.99-3.86.75-4.92m8.66-1.13c-.08.18-.23.53-.31.7 2.65-1.05 5.56-.65 8.33-1.02-.07-1.58-.13-3.15-.2-4.73-2.6 1.69-5.17 3.44-7.82 5.05Z" opacity="1.00"/><path fill="#502d1a" d="M282.65 80.45c22.12 3.63 44.24 7.35 66.37 10.96 4.19.75 8.45 1.24 12.54 2.49-28.27-4.12-56.67-7.4-85-11.09 2.06-.69 4.07-1.53 6.09-2.36Zm-38.75 32.89.97 1.23c.19 2.73.23 5.46.32 8.2 4.6.2 9.2.58 13.78 1.08l3.38.32c-.12-3.6-.08-7.21.46-10.78.25 3.82.22 7.66.5 11.49-6.42-.2-12.82-.87-19.24-1.01-.09-3.51-.22-7.02-.17-10.53ZM85.41 133.83c.42 1.47.85 2.94 1.31 4.4-.12.54-.37 1.63-.49 2.17l2.06-.77-.2 1.42c-2.38.55-4.73 1.24-7.07 1.97-.62-1.21-1.29-2.39-2-3.54.04-.77.13-2.3.17-3.07l1.41.24-.4 3.02c1.33 1.1 2.78 2.04 4.59 1.55l-.32-1.66c.5-1.87.76-3.8.94-5.73Z" opacity="1.00"/><path fill="#57301b" d="M108.65 86.36c.25-.16.74-.5.98-.66.07 5.06.04 10.13.14 15.19 1.57-.17 3.14-.36 4.72-.5.37.25 1.1.75 1.47 1-2.06.11-4.13.19-6.19.28 0 2.1.01 4.2.02 6.31 2.13.32 4.27.69 6.42.83-.55 7.73-.28 15.49-.38 23.23-8.52 2.89-17.2 5.24-25.66 8.26-.63-.43-1.25-.87-1.87-1.3l1.8.01-1.44-2.8c-.36.22-1.1.65-1.47.87-.09-.73-.28-2.19-.38-2.92-1.31-1.43-3.28-.71-4.83-.17 1.16 1.53 2.07 3.22 2.5 5.11-1.14-1.38-2.24-2.77-3.39-4.14-.64.34-1.92 1-2.57 1.34 1.27-3.05 4.85-3.93 7.01-6.21-.84-6.97-.32-14.01-.39-21.01l.51.01c.13 6.39-.35 12.8.24 19.17.37.19 1.12.59 1.49.79-.3 1.22-1.57 2.73-.15 3.66.39-.03 1.17-.09 1.56-.13-.25 1.68.32 3.22 1.19 4.64l.52-4.32.27 4.54c1.22-1.86 2.42-3.73 3.61-5.61-.8-.97-1.61-1.94-2.42-2.91-.39.16-1.17.47-1.56.63-.62-.14-1.86-.43-2.48-.58l.25-.47c1.12-.91 2.28-1.78 3.43-2.66-.06-5.6-.03-11.21-.05-16.81l.89-.04c-.04 5.44-.03 10.87-.05 16.31 2.47-1.8 4.93-3.6 7.41-5.39-.02-3.71-.02-7.42-.06-11.13-1.78.03-3.55.06-5.32.11 1.87-.36 3.72-.78 5.59-1.17-.04-1.61-.08-3.22-.11-4.83-1.39-.28-2.78-.56-4.17-.78l3.96-.2c.1-3.21.09-6.42.03-9.62.24-.16.72-.46.96-.62-.01 3.34-.01 6.68-.03 10.02 1.49-.14 2.99-.28 4.48-.41-1.41.25-2.82.56-4.22.85-.1 2.12-.19 4.24-.27 6.36 2.82-.09 5.64-.15 8.46-.18-.05-2.09-.1-4.18-.14-6.27-1.11-.28-2.23-.55-3.34-.8.8-.09 2.4-.26 3.2-.34.01-4.85.08-9.7-.17-14.54m-7.95 22.61c-.05 3.43-.05 6.85.01 10.28 2.67-1.99 5.33-3.97 8.07-5.85.03-1.5.05-2.99.08-4.49-2.72-.01-5.44.01-8.16.06m9.07-.19v3.84c1.55-1.14 3.05-2.34 4.52-3.57-1.51-.11-3.01-.2-4.52-.27m-8.61 11.73c1.54 1.15 3.07 2.32 4.57 3.52 2.54-3.42 4.55-7.2 7.04-10.65l-.19-.44c-3.79 2.55-7.56 5.14-11.42 7.57m6.26 4.11c2.03 1.6 4.12 3.12 6.27 4.56.22-5.12.38-10.24.37-15.36-2.31 3.54-4.34 7.25-6.64 10.8m-15.62 2.79c.98.86 1.94 1.73 2.9 2.6 1.07-2.07 2.09-4.19 3.54-6.03-.29 2.51-1.67 4.66-2.76 6.88 1.16 1.2 2.32 2.4 3.5 3.59-.1-3.88.52-7.91-.97-11.6-2.09 1.5-4.18 2.99-6.21 4.56m8.59-4.68c-.11 3.8-.26 7.59-.31 11.4 1.81-2.74 3.4-5.62 5.09-8.44-1.59-1.01-3.19-1.98-4.78-2.96m5.65 4.03c-1.68 2.77-3.32 5.57-4.81 8.45 3.63-1.35 7.25-2.73 10.92-3.99-2.02-1.52-4.05-3-6.11-4.46m-11.47 5.67c-.86 1.99-1.76 3.96-2.69 5.91 2.03-.58 4.05-1.17 6.1-1.7-.71-1.73-1.97-3.07-3.41-4.21Z" opacity="1.00"/><path fill="#fffffc" d="M109.63 85.7c21.34 1.3 42.65 2.99 63.98 4.38-6.09 2.51-11.96 6.18-18.71 6.49-13.47 1.22-26.95 2.42-40.41 3.82-1.58.14-3.15.33-4.72.5-.1-5.06-.07-10.13-.14-15.19Zm133.9 4.49c2.77.33 5.54.69 8.33.99 1.7.22 3.39.49 5.09.75.96 10.62 1.52 21.27 2.02 31.92-4.58-.5-9.18-.88-13.78-1.08-.09-2.74-.13-5.47-.32-8.2-.56-8.12-.82-16.25-1.34-24.38Zm-70.58 62.73c3.55-.58 7.19-.33 10.74-.94l.24.8c.12 7.35.02 14.7.04 22.05-3.99-.03-7.98-.02-11.96.02.34-7.3-.84-14.76.94-21.93Z" opacity="1.00"/><path fill="#fffefb" d="M100.68 91.67c2.67-1.75 5.34-3.5 7.97-5.31.25 4.84.18 9.69.17 14.54-.8.08-2.4.25-3.2.34l-.49.04c-1.49.13-2.99.27-4.48.41.02-3.34.02-6.68.03-10.02Z" opacity="1.00"/><path fill="#7a5836" d="M242.4 87.18c5.86.71 11.73 1.33 17.59 2.12-2.46 1.48-5.29 2-8.13 1.88-2.79-.3-5.56-.66-8.33-.99.52 8.13.78 16.26 1.34 24.38l-.97-1.23c-1.52-8.58-.6-17.47-1.5-26.16Zm93.46 11.24c3.13-.32 6.33.48 9.29 1.5-3.74 1.11-7.66 1.33-11.53 1.21l-1.01-.08c.58 8.73 1.33 17.45 1.99 26.17 2.88.09 5.77.15 8.66-.01.62-.04 1.86-.11 2.48-.15.35-1.28.68-2.56 1.01-3.84.16 1.72.3 3.43.42 5.16-4.39-.04-8.77-.2-13.15-.4-.77-9.75-1.8-19.49-2.22-29.26 1.33.53 2.74.02 4.06-.3Z" opacity="1.00"/><path fill="#a78047" d="M259.99 89.3c2.28-.84 2.02 2.81 1.84 4.19-.86 6.31-.99 12.85.91 18.99l.12.47-.05.44c-.54 3.57-.58 7.18-.46 10.78l-3.38-.32c-.5-10.65-1.06-21.3-2.02-31.92-1.7-.26-3.39-.53-5.09-.75 2.84.12 5.67-.4 8.13-1.88Z" opacity="1.00"/><path fill="#6c4a33" d="M282.43 92.13c5.47.71 10.95 1.47 16.44 2.04.13 2.58.34 5.16.22 7.75-.22 1.4-.47 2.79-.73 4.18-.17-3.7-.24-7.41-.28-11.11-1.13.29-2.26.57-3.4.84-3.81.14-7.59-.51-11.37-.94.73 9.71.83 19.44 1.8 29.13 3.88.51 7.77 1.01 11.69.96.93 0 1.86-.01 2.79-.02-.47-3.8-.51-7.66.24-11.44.32 4.16.19 8.34.64 12.5-5.53.23-11.04-.27-16.53-.84-.83-11-.99-22.03-1.51-33.05Z" opacity="1.00"/><path fill="#fffef6" d="M92.46 96.97c2.41-1.58 4.83-3.13 7.26-4.68.06 3.2.07 6.41-.03 9.62l-3.96.2c-.8.01-2.39.02-3.18.03l-.09-5.17Z" opacity="1.00"/><path fill="#8a633c" d="M307.23 94.49c4.61.82 9.24 1.52 13.83 2.45.03 1.68.11 3.36.03 5.03-.16.88-.48 2.63-.63 3.51-.35-2.5-.62-5.01-.83-7.52-.88.47-1.74.94-2.61 1.4-2.99-.32-5.97-.65-8.95-.97 1.18 9.16.64 18.44 1.92 27.59 2.92.01 5.83.02 8.74-.04 1.39-.04 2.78-.1 4.18-.16l.05 1.27c-4.57.07-9.14-.05-13.7-.3-1.13-10.73-1.25-21.51-2.03-32.26Z" opacity="1.00"/><path fill="#a37d4b" d="M294.68 95.83c1.14-.27 2.27-.55 3.4-.84.04 3.7.11 7.41.28 11.11.26-1.39.51-2.78.73-4.18.46 3.84 1.12 7.73.74 11.6-.75 3.78-.71 7.64-.24 11.44-.93.01-1.86.02-2.79.02-.88-9.7-.79-19.49-2.12-29.15ZM211.87 294.8c10.11-.04 20.22-.05 30.33-.02-6.73-.17-13.43 1.15-20.15.34-3.39-.41-6.79-.17-10.18-.32Z" opacity="1.00"/><path fill="#fefef2" d="M83.55 102.72c2.65-1.61 5.22-3.36 7.82-5.05.07 1.58.13 3.15.2 4.73-2.77.37-5.68-.03-8.33 1.02.08-.17.23-.52.31-.7Z" opacity="1.00"/><path fill="#a57f4a" d="M317.02 99.36c.87-.46 1.73-.93 2.61-1.4.21 2.51.48 5.02.83 7.52.15-.88.47-2.63.63-3.51 1.38 7.87.66 15.91 1.82 23.81-1.4.06-2.79.12-4.18.16-.69-8.85-.98-17.73-1.71-26.58Z" opacity="1.00"/><path fill="#623d1c" d="M331.81 98.11c1.4-.86 2.74-.76 4.05.31-1.32.32-2.73.83-4.06.3l.01-.61Z" opacity="1.00"/><path fill="#fefefb" d="M308.07 98.39c2.98.32 5.96.65 8.95.97.73 8.85 1.02 17.73 1.71 26.58-2.91.06-5.82.05-8.74.04-1.28-9.15-.74-18.43-1.92-27.59ZM100.7 108.97c2.72-.05 5.44-.07 8.16-.06-.03 1.5-.05 2.99-.08 4.49-2.74 1.88-5.4 3.86-8.07 5.85-.06-3.43-.06-6.85-.01-10.28Zm247.82 124.76c1.22 2.06 2.55 4.07 3.44 6.31.58 2.73-3.71 5.18-5.33 2.45-1.94-2.81 1.01-6.04 1.89-8.76Z" opacity="1.00"/><path fill="#a68048" d="M333.62 101.13c3.87.12 7.79-.1 11.53-1.21-.09 7.79 1.26 15.53 1.6 23.3-.33 1.28-.66 2.56-1.01 3.84-.62.04-1.86.11-2.48.15-.88-8.35-1.31-16.74-2.34-25.07-2.43-.35-4.86-.74-7.3-1.01Z" opacity="1.00"/><path fill="#fffffb" d="m332.61 101.05 1.01.08c2.44.27 4.87.66 7.3 1.01 1.03 8.33 1.46 16.72 2.34 25.07-2.89.16-5.78.1-8.66.01-.66-8.72-1.41-17.44-1.99-26.17Zm-240.17 7.94c.5-.02 1.49-.08 1.98-.1 1.77-.05 3.54-.08 5.32-.11.04 3.71.04 7.42.06 11.13-2.48 1.79-4.94 3.59-7.41 5.39.02-5.44.01-10.87.05-16.31Z" opacity="1.00"/><path fill="#5a331b" d="M117.77 108.41c4.31-1.27 8.83-.49 13.24-.33 9.1.4 18.2.95 27.31 1.25 18.42.92 36.84 1.98 55.3 1.64l-.16 1.12c-5.96.1-12-.59-17.87.8-4.04.26-8.1.14-12.14.02 1.94 2.52 3.95 5 5.95 7.47 2.62-2.35 5.15-4.79 7.84-7.05l.46 1.45c-2.04 2.6-4.38 4.94-6.65 7.33 1.64 1.82 3.29 3.64 4.88 5.5l-.34 2.25c-1.79-2.28-3.79-4.38-5.73-6.53-2.31 2.44-4.64 4.86-6.94 7.3 4.49.02 8.99.01 13.46.45 1.71.44 3.42.86 5.14 1.31l1.13.32c-28.21-.44-56.42-.71-84.63-1.38-.08-7.64.17-15.29-.25-22.92m3.24 1.73c3.27 2.44 5.95 6.05 9.59 7.78 2.7-2.27 5.12-4.86 7.59-7.37-5.73-.1-11.45-.39-17.18-.41m22.19.91c2.79 2.51 5.43 5.19 8.01 7.92 2.71-2.37 5.54-4.6 8.24-6.98-5.41-.45-10.82-.94-16.25-.94m20.76.95c2.42 2.41 4.84 4.83 7.2 7.31 2.43-2.01 4.8-4.09 7.14-6.21-4.79-.33-9.55-.99-14.34-1.1m-44.13-.16c.1 5.33.35 10.66.52 15.99 2.62-2.52 5.18-5.11 7.88-7.55-2.64-2.97-5.45-5.78-8.4-8.44m11.92 8.13c2.58 2.95 5.51 5.55 8.26 8.34-.02-5.23-.28-10.45-.26-15.68-2.73 2.37-5.55 4.67-8 7.34m10.23-7.28c.05 5.11-.03 10.22.17 15.33 2.56-2.51 5.11-5.03 7.75-7.46a652.75 652.75 0 0 0-7.92-7.87m10.81 7.93c2.58 2.66 5.31 5.16 8.07 7.62-.2-4.81-.26-9.64-.28-14.46-2.65 2.22-5.19 4.57-7.79 6.84m9.82-7.2c.04 4.87.14 9.74.24 14.62 2.32-2.11 4.56-4.31 6.67-6.64-2.35-2.62-4.59-5.33-6.91-7.98m10.31 8.08c2.28 2.46 4.44 5.01 6.64 7.53.06-5 .25-10 .41-15-2.39 2.45-4.72 4.96-7.05 7.47m8.74-6.66c.32 4.59.39 9.19.4 13.8 2.1-2.2 4.14-4.44 6.19-6.68-2.18-2.39-4.37-4.77-6.59-7.12m-59.45 14.54c5.34 0 10.67.29 16.01.57-2.59-2.87-5.31-5.62-8.07-8.33-2.67 2.56-5.35 5.11-7.94 7.76m29.17-7.25c-2.49 2.63-5.05 5.21-7.58 7.82 5.02.13 10.04.2 15.06.31-2.49-2.72-5.01-5.4-7.48-8.13m12.56 7.81c4.74.29 9.49.49 14.23.84-2.47-2.61-4.99-5.16-7.46-7.76-2.22 2.34-4.5 4.63-6.77 6.92Z" opacity="1.00"/><path fill="#fefffb" d="M85.65 109.09c1.97.02 3.93-.01 5.9-.06.02 5.6-.01 11.21.05 16.81-1.15.88-2.31 1.75-3.43 2.66l-.25.47-.54.08c-.37-.2-1.12-.6-1.49-.79-.59-6.37-.11-12.78-.24-19.17Z" opacity="1.00"/><path fill="#fffcf9" d="M121.01 110.14c5.73.02 11.45.31 17.18.41-2.47 2.51-4.89 5.1-7.59 7.37-3.64-1.73-6.32-5.34-9.59-7.78Z" opacity="1.00"/><path fill="#fffefd" d="M143.2 111.05c5.43 0 10.84.49 16.25.94-2.7 2.38-5.53 4.61-8.24 6.98-2.58-2.73-5.22-5.41-8.01-7.92Z" opacity="1.00"/><path fill="#fefefd" d="M163.96 112c4.79.11 9.55.77 14.34 1.1-2.34 2.12-4.71 4.2-7.14 6.21-2.36-2.48-4.78-4.9-7.2-7.31Z" opacity="1.00"/><path fill="#5b351e" d="M195.59 112.89c5.87-1.39 11.91-.7 17.87-.8-.22 3.97-.24 7.94-.18 11.91-1.7.37-3.4.74-5.1 1.09a93.778 93.778 0 0 0-5.77 7.53l-.89-.23c-1.72-.45-3.43-.87-5.14-1.31-.2-.3-.59-.91-.79-1.22l.34-2.25c.51.56 1.51 1.68 2.02 2.23-.01-5.02.46-10.08-.25-15.06l-.46-1.45-1.65-.44m5.14 1.08c2.04 2.22 4.19 4.35 6.34 6.47 1.71-1.83 3.41-3.67 5.06-5.56-3.8-.34-7.6-.67-11.4-.91m-.98 1.35c.09 4.62.24 9.24.34 13.87 1.8-2.28 3.69-4.47 5.67-6.58-2.03-2.41-3.95-4.9-6.01-7.29Zm-27.26 132.24c3.93-1.1 7.95 2.58 7.91 6.5.03 2.98-.34 6.03-1.42 8.82-1.18 3.04-4.53 5.64-7.89 4.69-3.76-.79-5.82-4.91-5.2-8.52.4-4.37 1.47-10.43 6.6-11.49m.93 1.74c-.31.23-.93.71-1.24.95-1.63 4.04-2.09 8.49-2.48 12.8-.46 2.7 3.77 4.12 4.58 1.25 1.42-4.3 2.12-8.87 2.31-13.38-.69-1.01-1.83-2.08-3.17-1.62Z" opacity="1.00"/><path fill="#fefcf8" d="M101.16 120.51c3.86-2.43 7.63-5.02 11.42-7.57l.19.44c-2.49 3.45-4.5 7.23-7.04 10.65-1.5-1.2-3.03-2.37-4.57-3.52Z" opacity="1.00"/><path fill="#fdfef9" d="M119.83 111.84c2.95 2.66 5.76 5.47 8.4 8.44-2.7 2.44-5.26 5.03-7.88 7.55-.17-5.33-.42-10.66-.52-15.99Z" opacity="1.00"/><path fill="#fffdf9" d="M131.75 119.97c2.45-2.67 5.27-4.97 8-7.34-.02 5.23.24 10.45.26 15.68-2.75-2.79-5.68-5.39-8.26-8.34Z" opacity="1.00"/><path fill="#fffcfa" d="M141.98 112.69c2.66 2.6 5.3 5.22 7.92 7.87-2.64 2.43-5.19 4.95-7.75 7.46-.2-5.11-.12-10.22-.17-15.33Z" opacity="1.00"/><path fill="#fffefc" d="M183.45 112.91c4.04.12 8.1.24 12.14-.02l1.65.44c-2.69 2.26-5.22 4.7-7.84 7.05-2-2.47-4.01-4.95-5.95-7.47Zm149.73 41.27c2.53-3.19 7.44-.99 10.9-2.25.72 7.69.13 15.43.39 23.14-3.97-.39-7.97-.28-11.95-.19.19-6.89-.79-13.93.66-20.7Z" opacity="1.00"/><path fill="#fffef9" d="M152.79 120.62c2.6-2.27 5.14-4.62 7.79-6.84.02 4.82.08 9.65.28 14.46-2.76-2.46-5.49-4.96-8.07-7.62Zm-45.37 4c2.3-3.55 4.33-7.26 6.64-10.8.01 5.12-.15 10.24-.37 15.36-2.15-1.44-4.24-2.96-6.27-4.56Zm274.79 84.93c1.76 1.8 3.78 3.41 5.12 5.58 1.01 2.27-1.88 5.01-4.13 3.77-3.15-2.22-1.05-6.28-.99-9.35Z" opacity="1.00"/><path fill="#fffffa" d="M200.73 113.97c3.8.24 7.6.57 11.4.91-1.65 1.89-3.35 3.73-5.06 5.56-2.15-2.12-4.3-4.25-6.34-6.47Z" opacity="1.00"/><path fill="#fefcf7" d="M162.61 113.42c2.32 2.65 4.56 5.36 6.91 7.98-2.11 2.33-4.35 4.53-6.67 6.64-.1-4.88-.2-9.75-.24-14.62Z" opacity="1.00"/><path fill="#fffcf7" d="M172.92 121.5c2.33-2.51 4.66-5.02 7.05-7.47-.16 5-.35 10-.41 15-2.2-2.52-4.36-5.07-6.64-7.53Z" opacity="1.00"/><path fill="#fffdfa" d="M197.7 114.78c.71 4.98.24 10.04.25 15.06-.51-.55-1.51-1.67-2.02-2.23-1.59-1.86-3.24-3.68-4.88-5.5 2.27-2.39 4.61-4.73 6.65-7.33Z" opacity="1.00"/><path fill="#fffefa" d="M181.66 114.84c2.22 2.35 4.41 4.73 6.59 7.12-2.05 2.24-4.09 4.48-6.19 6.68-.01-4.61-.08-9.21-.4-13.8Z" opacity="1.00"/><path fill="#fffcf8" d="M199.75 115.32c2.06 2.39 3.98 4.88 6.01 7.29-1.98 2.11-3.87 4.3-5.67 6.58-.1-4.63-.25-9.25-.34-13.87Z" opacity="1.00"/><path fill="#fffcfb" d="M122.21 129.38c2.59-2.65 5.27-5.2 7.94-7.76 2.76 2.71 5.48 5.46 8.07 8.33-5.34-.28-10.67-.57-16.01-.57Z" opacity="1.00"/><path fill="#fffdf7" d="M151.38 122.13c2.47 2.73 4.99 5.41 7.48 8.13-5.02-.11-10.04-.18-15.06-.31 2.53-2.61 5.09-5.19 7.58-7.82Z" opacity="1.00"/><path fill="#fffcf6" d="M100.39 122.73c1.59.98 3.19 1.95 4.78 2.96-1.69 2.82-3.28 5.7-5.09 8.44.05-3.81.2-7.6.31-11.4Zm63.55 7.21c2.27-2.29 4.55-4.58 6.77-6.92 2.47 2.6 4.99 5.15 7.46 7.76-4.74-.35-9.49-.55-14.23-.84Z" opacity="1.00"/><path fill="#fefef9" d="M182.92 130.63c2.3-2.44 4.63-4.86 6.94-7.3 1.94 2.15 3.94 4.25 5.73 6.53.2.31.59.92.79 1.22-4.47-.44-8.97-.43-13.46-.45Z" opacity="1.00"/><path fill="#fffbf6" d="M106.04 126.76c2.06 1.46 4.09 2.94 6.11 4.46-3.67 1.26-7.29 2.64-10.92 3.99 1.49-2.88 3.13-5.68 4.81-8.45Z" opacity="1.00"/><path fill="#cdb9ae" d="m87.38 129.05.54-.08c.62.15 1.86.44 2.48.58.39-.16 1.17-.47 1.56-.63.81.97 1.62 1.94 2.42 2.91-1.19 1.88-2.39 3.75-3.61 5.61l-.27-4.54-.52 4.32c-.87-1.42-1.44-2.96-1.19-4.64-.39.04-1.17.1-1.56.13-1.42-.93-.15-2.44.15-3.66Z" opacity="1.00"/><path fill="#f9ede0" d="M94.57 132.43c1.44 1.14 2.7 2.48 3.41 4.21-2.05.53-4.07 1.12-6.1 1.7.93-1.95 1.83-3.92 2.69-5.91Z" opacity="1.00"/><path fill="#593822" d="M115.88 135.86c28.46-.28 56.92-.48 85.38-.67-.97.68-2 1.39-3.26 1.19-27.34.21-54.7.58-82.03.57l-.09-1.09Zm201 16.65c1.41-1.34 2.95-2.94 5.12-2.57 12.09.23 24.21-1.18 36.27.09-.35.45-1.07 1.36-1.43 1.82l-.55-.12c-4.02-1.04-8.28-1.4-12.21.2-3.46 1.26-8.37-.94-10.9 2.25-1.45 6.77-.47 13.81-.66 20.7 3.98-.09 7.98-.2 11.95.19-4.2 1.68-8.75 1.01-13.11.61-.58-6.71-.19-13.45-.5-20.17-.57-.05-1.71-.16-2.28-.22.51-.78 1.02-1.56 1.54-2.35-3.25-.53-6.27.62-9.16 1.94-2.02 1.13-3.07-1.09-4.08-2.37Z" opacity="1.00"/><path fill="#8e6434" d="M80.96 145.89c11.63-3.37 23.21-6.96 34.92-10.03l.09 1.09c.03 8.39.39 16.82-.29 25.2-1.61-7.54-2.82-15.17-4.68-22.64l-.79-.69c-9.37 2.01-18.58 4.77-27.93 6.84l-1.32.23Z" opacity="1.00"/><path fill="#5f361e" d="M226.47 154.08c2.96-2.1 5.92-4.2 9.04-6.06.4 4.32.81 8.65 1.39 12.95.42 1.36-.39 2.58-1.13 3.62-2.21 3.07-5.09 5.56-7.94 8.02 3.88 4.31 8.38 8.5 9.98 14.29 2.48 7.15 1.69 14.78 1.31 22.18-.32 4.32 4.25 6.72 4.43 10.86-4.48-5.1-9.32-10.35-11.27-17.03-1.97-5.74-3.32-11.72-5.82-17.28-1.33-2.8-3.25-5.9-6.5-6.62-2.23-.41-3.11 2.18-3.01 3.96-.16 7.51.09 15.04-.13 22.56-3.24 2.03-6.42 4.15-9.6 6.27-.1-19.57.28-39.17-.26-58.74-.88-.91-1.75-1.84-2.6-2.78 4.2-.28 8.41-.36 12.61-.55-.1 8.62-.07 17.24-.03 25.86 3.65-2.57 7.58-4.78 10.99-7.65 2.93-4.34.52-9.66-1.46-13.86Zm24.27-4.71c5.17-.13 10.34-.13 15.51-.27-2.21 8.44-7.09 16.12-7.58 25-1.3 10.31 3.53 21.16 12.35 26.71 1.49.71 3.35-.32 3.93-1.77.37-2.25-1.02-4.18-1.79-6.17-3.34-7.44-2.39-16.03.23-23.54 1.71-5.04 4.58-9.56 6.89-14.33-3.09-2.47-6.19.33-8.93 1.86-.16-2.43-.28-4.87-.42-7.3 5.59.09 11.18.22 16.77.23-4.03 8.56-8.39 17.47-8.2 27.17.11 10.46 7.01 19.95 15.94 24.93.53-1.9 1.05-3.82 1.1-5.8.8-15.63-1.08-31.27-.12-46.89 4.62-.07 9.25-.02 13.87-.13-1.22 2.32-2.72 4.51-3.66 6.97-.28 13.92.64 27.89.21 41.79-5.19 5.29-11.18 9.73-16.86 14.47-4.32-3.5-8.55-7.14-13.07-10.36-4.03 3.35-7.38 7.46-11.55 10.64-4.48-5.11-11.02-8.82-13.19-15.6-4.74-12.63-.77-26.46 4.56-38.22.6-1.52 2.2-3.84.28-5.06-2.2.52-4.1 1.88-6.18 2.73-.06-2.35-.07-4.71-.09-7.06Zm93.34 2.56c3.93-1.6 8.19-1.24 12.21-.2-.89 1.65-1.56 3.43-1.41 5.34.02 16.24-.17 32.48-.11 48.71a565.41 565.41 0 0 1-7.19 4.85c-.5-1.17-1.33-2.26-1.33-3.57-.42-8.89.38-17.85-.62-26.7-4.32-.65-8.73-.46-13.07-.14l-.29.85c-2.06 7.01-4.21 14-6.32 20.99-1.71 5.66-6.73 11.11-12.9 11.36-2.35.14-3.19-2.16-3.8-3.96 3.19-.29 6.41-.15 9.57-.65 1.84-1.11 2.08-3.41 2.56-5.29 3.16-15.93-.59-33.34 7.2-48.23.57.06 1.71.17 2.28.22.31 6.72-.08 13.46.5 20.17 4.36.4 8.91 1.07 13.11-.61-.26-7.71.33-15.45-.39-23.14Z" opacity="1.00"/><path fill="#593522" d="M157 151.94c1.8-2.6 5.29-1.94 8-2.04 10.92.21 21.89-1.19 32.78.19-.7.82-1.4 1.63-2.1 2.43-3.52-2.55-8.11-1.64-11.99-.54-3.55.61-7.19.36-10.74.94-1.78 7.17-.6 14.63-.94 21.93 3.98-.04 7.97-.05 11.96-.02-.02-7.35.08-14.7-.04-22.05 1.73 3.86 1.09 8.13 1.16 12.23-.04 3.56.26 7.16-.37 10.69-4.49.94-9.09.37-13.63.22-.29-7.58.36-15.23-.86-22.74l-.77-.13c-3.37-1-6.4.86-9.42 2-1.8.58-3.71-1.32-3.04-3.11Z" opacity="1.00"/><path fill="#4d2713" d="M193.23 154.7c.33-.29.97-.88 1.3-1.17-.65 16.16-.22 32.35-.35 48.51-.2 1.58.51 3.71-1.18 4.71-.19-13.58.03-27.17-.07-40.75-.03-3.77-.15-7.55.3-11.3Z" opacity="1.00"/><path fill="#402a1b" d="M332.56 180.22c4.34-.32 8.75-.51 13.07.14 1 8.85.2 17.81.62 26.7 0 1.31.83 2.4 1.33 3.57-.87.54-1.73 1.1-2.58 1.66-.06-10.42-.04-20.83-.03-31.24-4.24.02-8.47.01-12.7.02l.29-.85Z" opacity="1.00"/><path fill="#5e371f" d="M375.15 189.02c2.82-1.47 6.11 2.53 3.66 4.85-2.99 2.38-7.16-2.84-3.66-4.85Z" opacity="1.00"/><path fill="#5d3621" d="M89.82 199.78c3.17 1.31 6.05 3.58 7.83 6.54-.92-.16-2.74-.48-3.65-.64-7.18 8.08-14.13 16.44-20.3 25.32 2.68 2.11 5.13 4.56 8.07 6.32.52-.31 1.54-.95 2.05-1.27 2.09 1.81-1.11 3.37-1.97 4.92-4.34-3.71-8.85-7.21-13.27-10.82-.4-.42-1.87-1.47-.68-1.99 1.62-.23 3.28-.55 4.21-2.05 6.25-7.68 12.77-15.16 18.49-23.25-.27-1.02-.53-2.05-.78-3.08Z" opacity="1.00"/><path fill="#5b351f" d="M372.28 208.19c1.04-3.06 4.24-6.2 7.73-5.14 4.88 2.44 7.36 7.9 12.23 10.33-.48-1.26-.97-2.51-1.45-3.76 2.69-.08 4.58 3.71 2.29 5.47-.96 1.16-2.53.7-3.81.82.1 3.61-2.86 6.58-6.3 7.17-2.35-.53-4.75-2.48-4.61-5.09.65-3.3 1.98-6.41 2.8-9.67-1.34-1.05-2.56-2.37-4.24-2.86-1.54.47-2.26 1.95-3.15 3.15 2.91-.37 6.07 2.49 4.04 5.3-3.35 2.29-6.77-2.66-5.53-5.72m9.93 1.36c-.06 3.07-2.16 7.13.99 9.35 2.25 1.24 5.14-1.5 4.13-3.77-1.34-2.17-3.36-3.78-5.12-5.58Zm-226.84 23.26c1.4-2.35 4.49.13 6.57.2-2.15 6.75-3.88 13.64-5.48 20.54 2.36-1.53 4.62-3.22 6.65-5.18-.51-1.06-.97-2.12-1.4-3.21 2.26.74 5.43.33 6.73 2.7-3.64 1.05-6.58 3.54-9.3 6.05 1.46 3.52 2.33 7.34 4.72 10.39.09.46.29 1.37.39 1.83-1.74-.7-3.81-.98-5.08-2.48-1.51-2.77-1.74-6-2.69-8.96-.78 2-1.31 4.09-1.53 6.23.94.66 2.6 3.09.25 2.77-2.52-.51-4.99-1.27-7.41-2.13 1.02-.68 2.02-1.37 3.06-2.02 2.24-6.38 3.5-13.05 5.26-19.57.48-2.39 1.92-5.51-.74-7.16Z" opacity="1.00"/><path fill="#5c3621" d="M361.14 217.78c.66-4.2 5.99-7.68 9.69-4.68 3.27 3.13 5.47 7.19 8.36 10.66.81.09 2.43.26 3.25.35-2.06 2.24-4.46 4.31-7.44 5.18.16-.76.46-2.28.61-3.04-2.6-3.62-4.79-7.64-8.08-10.69-1.65-1.51-4.08.52-4.1 2.37 1.73 3.62 4.42 6.68 6.82 9.86.84 1.52 2.35 1.9 4 1.7-.83 2.78-3.99 3.74-6.13 5.33.37-5.55-4.44-9.42-7.38-13.6-1.53-2.76-5.16.39-3.85 2.65 1.91 3.9 4.86 7.17 7.35 10.7.8.11 2.42.31 3.22.42-2.07 2.05-4.27 4.49-7.25 5.07.12-1.59.91-3.37-.45-4.68-2.45-3.34-4.59-6.99-7.57-9.89-.52.05-1.55.14-2.07.19-.19-.36-.57-1.07-.76-1.43 1.42-.8 2.96-1.34 4.57-1.61.9-3.18 3.76-5.64 7.21-4.86Z" opacity="1.00"/><path fill="#5b331d" d="M85.47 227.06c1.68-4.26 4.72-9.07 9.68-9.66 4.2-.55 9.11 4.81 5.98 8.61-2.48 5.2-9.96-2.35-12.29 2.82-1.07 1.47-.9 3.27-.75 4.97 2.55 1.5 5.34.77 8.04.25-1.65 1.62-3.92 2.98-6.31 2.31-3.99-.84-5.96-5.71-4.35-9.3m5.98-2.32c2.38.2 6.24 2.59 7.36-.85 2.05-2.36-1.47-5.71-3.81-3.84-1.44 1.34-2.41 3.09-3.55 4.69Z" opacity="1.00"/><path fill="#5a351e" d="M122.85 219.09c2.07.75 4.1 1.59 6.13 2.44-3.09 6.51-6.12 13.05-9.05 19.63 2.71-1.27 5.36-2.67 7.92-4.23-.91-.9-1.27-2.02-.98-3.27 3.89 1.81 7.88 3.39 11.96 4.73-1.92 4.63-3.77 9.3-5.29 14.08-.59 1.68.45 3.33.66 4.99-2.68-.97-5.6-1.51-7.93-3.21 4.2-1.89 4.77-6.73 6.37-10.51.88-2.04 1.43-4.23.34-6.33-3.94.41-7.3 2.54-10.61 4.51 1.59 4.07 1.43 8.64 3.93 12.39-1.93-.34-4.06-.87-5.15-2.67-1.19-3.06-.83-6.44-1.32-9.63-1.01 1.9-1.86 3.88-2.48 5.94.93.93 1.26 2.04.75 3.29-2.4-1.57-6.35-1.73-7.4-4.71 3.05.64 3.93-2.66 5.02-4.74 2.58-5.81 5.32-11.54 7.68-17.43.8-1.73-.22-3.56-.55-5.27Z" opacity="1.00"/><path fill="#fefcfc" d="M91.45 224.74c1.14-1.6 2.11-3.35 3.55-4.69 2.34-1.87 5.86 1.48 3.81 3.84-1.12 3.44-4.98 1.05-7.36.85Z" opacity="1.00"/><path fill="#5b3621" d="M102.89 221.79c.95.46 1.9.93 2.85 1.4.18.58.55 1.75.73 2.33 4.26-1.55 10.02 2.13 8.81 6.96-1.41 4.2-4.01 7.9-5.8 11.95.3 1.05.59 2.11.88 3.18-2.65-1.03-5.25-2.22-7.56-3.88.2-1.81 2.8-.84 3.36-2.42 2.1-3.29 3.95-6.78 5.46-10.39 1.09-2.32-2.64-4.87-4.34-2.72-2.75 3.5-4.66 7.65-6.49 11.69.31.47.92 1.42 1.23 1.89-.42.37-.85.75-1.27 1.13-2.31-1.34-4.67-2.58-6.98-3.92 1.47-.9 3.53-1.2 4.26-2.97 1.67-3 3.33-6.01 4.85-9.09 1.11-1.59.12-3.44.01-5.14Z" opacity="1.00"/><path fill="#5c351d" d="M339.5 229.35c1.92-2.66 6.43-4.91 9.16-2.15 3.47 3.86 4.96 9.02 8.15 13.09l.12-4.19c1.91.86 3.16 3.61 1.4 5.2-1.19 1.63-3.29.56-4.89.49-.77 3.27-4.1 5.23-7.32 5.08-2.37-.51-3.26-2.93-4.22-4.84 1.57-3.58 4.04-6.63 5.99-9.98-1.03-1.35-1.94-2.84-3.33-3.84-1.55-.05-2.59 1.42-3.82 2.16 2.97.41 5.42 4.91 1.81 6.26-3.7.87-5.02-4.86-3.05-7.28m9.02 4.38c-.88 2.72-3.83 5.95-1.89 8.76 1.62 2.73 5.91.28 5.33-2.45-.89-2.24-2.22-4.25-3.44-6.31Z" opacity="1.00"/><path fill="#5e361d" d="M138.45 227.6c3.67-1.47 5 4.77 1.46 5.66-3.69 1.07-4.55-4.61-1.46-5.66Z" opacity="1.00"/><path fill="#55321c" d="M143.79 229.76c1.13.43 2.25.87 3.38 1.32.53 1.43 1.05 2.87 1.58 4.32 2.14-1.55 4.52-3.34 7.17-1.68-1.92 1.74-3.98 3.33-6.08 4.86-1.22-.37-2.44-.72-3.66-1.06-.9-2.56-1.64-5.16-2.39-7.76Z" opacity="1.00"/><path fill="#5c3521" d="M325.44 236.75c1.62-3.84 7.24-5.74 10.38-2.58 2.79 3.76 3.74 8.56 6.4 12.41l2.21.56c-1.19 2.98-5.25 3.12-7.83 4.34.32-.79.98-2.38 1.3-3.18-1.57-4.07-3.1-8.22-5.37-11.97-1.81-2.45-5.84-.09-4.55 2.74 1.3 4.04 3.07 7.98 5.16 11.68.6.01 1.8.04 2.39.05-.61 3.28-5.22 3.3-7.73 4.68.19-1.57 1.52-3.18.63-4.75-1.36-3.29-2.77-6.56-4.29-9.78-.61-2.01-3.42-1.76-3.77-3.98 1.68-.12 3.37-.18 5.07-.22Z" opacity="1.00"/><path fill="#57351e" d="M288.28 235.6c1.33-1.64 3.83-.4 4.3 1.36 1.04 1.83-.63 3.84-2.45 4.16-2.43-.38-3.77-3.81-1.85-5.52Zm.15 11.81c2.24-3.73 9.12-3.84 10.52.68 1.67 4.65-4.47 6.35-6.99 9.08.87 1.94 1.09 4.51 3.05 5.72 3.52.9 4.8-3.21 6.82-5.1-.34 2.49-1.02 5.43-3.62 6.49-3.65 2.13-7.94-.81-9.4-4.27-1.6-3.92-2.97-8.79-.38-12.6m2.8-.15c-1.5 2.35 0 5.11.23 7.62 1.68-1.26 3.55-2.35 4.94-3.96.28-2.84-2.49-5.69-5.17-3.66Z" opacity="1.00"/><path fill="#5d351e" d="M139.81 244.01c.67-4.67 7.71-5.53 9.73-1.36.38-.41 1.14-1.22 1.52-1.62 1.11 2.31-.29 4.97-1.84 6.73-.76-1.89-.23-4.61-2.41-5.63-2.18-1.01-4.01 2-2.68 3.72 1.84 2.77 6.02 5.14 4.59 9.01-.79 4-5.43 6.52-9.15 4.63-2.92-.99-3.9-4.19-3.75-6.98l1.3.06c.11 3.22 2.47 5.88 5.84 5.62.61-1.48 2.52-2.95 1.58-4.67-1.66-3.11-5.77-5.46-4.73-9.51Z" opacity="1.00"/><path fill="#5b341e" d="M309 239.53c1.99 1.18 3.7 4.76 1.93 6.67-1.12-1.2-1.91-3.77-3.99-3.23-2.11-.22-3.09 2.28-1.77 3.79 2.28 2.03 5.9.92 8.25 2.86 3.55 2.65 3.26 9-.95 10.87-3.31 2.08-8.39.31-8.8-3.83 2.13 1.32 4.45 3.99 7.19 2.47 2.65-.91 2.07-4.79-.13-5.9-1.8-.7-3.71-1.01-5.55-1.55-3.19-.72-4.96-4.9-3.27-7.69.93-1.95 3.24-2.35 5.01-3.17.48.3 1.44.9 1.91 1.2.05-.62.13-1.87.17-2.49Z" opacity="1.00"/><path fill="#58341d" d="M246.3 243.98c.42-.01 1.24-.02 1.65-.02.08 2.55.25 5.09.45 7.64 1.14.16 2.29.38 3.42.65-.36 1.3-2.06 1.3-3.07 1.87.22 6.71-.05 13.71 2.31 20.11 1.99-.35 3.62-1.56 5.29-2.59-.51 4.47-7.04 6.21-9.14 1.98-2.01-6.14-1.69-12.79-2.5-19.15l-3.04-1.24c3.75-1.58 5-5.47 4.63-9.25Z" opacity="1.00"/><path fill="#493022" d="M279.44 248.19c1.94-.38 3.88-.74 5.83-1.11-2.19 4.93-2.03 10.4-2.41 15.67l-.84-.8c-.88-3.76.15-7.7-.06-11.54-1.21-.33-2.05-1.07-2.52-2.22Z" opacity="1.00"/><path fill="#fefdf8" d="M291.23 247.26c2.68-2.03 5.45.82 5.17 3.66-1.39 1.61-3.26 2.7-4.94 3.96-.23-2.51-1.73-5.27-.23-7.62Z" opacity="1.00"/><path fill="#5a3421" d="M270.18 249.88c2.71-.46 5.46-1.6 8.24-1.13-.56 1.02-1.14 2.03-1.73 3.03 1.64 3.42 2.34 7.6 5.33 10.17l.84.8c-.03 1.57-.08 3.14-.14 4.72-.7.16-2.1.46-2.8.62-3.06-6.15-5.02-13.06-9.74-18.21Z" opacity="1.00"/><path fill="#fefdfc" d="M173.42 249.3c1.34-.46 2.48.61 3.17 1.62-.19 4.51-.89 9.08-2.31 13.38-.81 2.87-5.04 1.45-4.58-1.25.39-4.31.85-8.76 2.48-12.8.31-.24.93-.72 1.24-.95Z" opacity="1.00"/><path fill="#5a351f" d="M182.89 253.87c.36-4.62 6.83-5.86 9.51-2.41.44-.49 1.32-1.46 1.76-1.95-.42 2.25.69 5.75-1.91 6.93-.36-1.67-.26-3.87-2.08-4.74-1.96-1.56-4.48 1.34-3.18 3.26 1.85 2.54 5.8 3.55 6.24 7.05.83 4.2-2.9 8.52-7.23 7.79-3.36-.12-6.99-4.19-4.68-7.29.26 3.43 4.36 7.43 7.45 4.25 3.03-5.93-7.41-6.99-5.88-12.89Z" opacity="1.00"/><path fill="#59331e" d="M261.44 251.01c2.48-.4 4.97-.9 7.5-.87-.16 1.18-1.06 2.01-1.65 2.99-.12 4.91 1.85 9.88.63 14.76-2.24 4.36-10.73 4.34-11.86-.9-1-4.05-1.16-8.24-1.89-12.33-2.27.48-1.58-2.34-.4-2.69 2.16-.6 4.43-.64 6.65-.91-.74 1.56-2.15 3.04-1.86 4.88.41 3.9.64 7.87 1.83 11.63.86 2.24 4.46 1.69 4.79-.64.29-3.98-.48-7.98-1.09-11.9-.19-1.68-1.75-2.72-2.65-4.02Z" opacity="1.00"/><path fill="#5b341f" d="M203.77 252.12c2.76.47 6.89-1.22 8.65 1.54-.57.22-1.72.67-2.3.89-.22 3.79.98 7.45 1.58 11.16l.93-.13c.5-4.34 4.11-9.24.56-13.09 1.77.09 3.55.15 5.32.39 1.82.49-.55 2.02-1.13 2.63-2.13 5.39-3.65 10.99-5.2 16.56-.74-.04-2.22-.12-2.95-.15-1.45-6.66-1.71-13.92-5.46-19.8Z" opacity="1.00"/><path fill="#5a341e" d="M233.01 253.95c1.89-.83 3.72-2.5 5.95-1.75 3.35.66 4.35 4.98 2.94 7.71-1.19 1.22-3.3 1.27-4.23-.27-1.56-2.03.69-4.06 1.54-5.82-1.82.18-4.18.55-4.6 2.72-.91 4.32-.09 8.79-.2 13.17.65.16 1.93.49 2.58.66.02.45.05 1.35.07 1.8-2.98.03-5.96.06-8.94.05.95-1.62 2.51-3.12 2.22-5.17-.37-4.85 1.33-10.63-2.78-14.27 1.91-.08 3.77.23 5.45 1.17Z" opacity="1.00"/><path fill="#5d3520" d="M219.4 252.85c2.14-.01 4.28.01 6.43.06-.47 5.43-.64 10.91-.36 16.36.4.87 2.81 2.45 1.26 3.16-2.62.19-5.24-.03-7.84-.17 3.68-3.87 2.64-9.42 2.8-14.3 0-1.94-1.44-3.47-2.29-5.11Z" opacity="1.00"/></svg>