<?xml version="1.0" encoding="UTF-8" ?>
<!DOCTYPE svg PUBLIC "-//W3C//DTD SVG 1.1//EN" "http://www.w3.org/Graphics/SVG/1.1/DTD/svg11.dtd">
<svg width="455pt" height="297pt" viewBox="0 0 455 297" version="1.1" xmlns="http://www.w3.org/2000/svg">
<g id="#593728ff">
<path fill="#593728" opacity="1.00" d=" M 174.99 16.55 C 190.09 20.76 205.31 24.54 220.46 28.53 C 222.96 27.77 222.74 24.91 223.15 22.83 C 223.51 25.46 223.85 28.33 221.32 29.99 C 207.36 26.60 193.34 23.44 179.38 20.05 C 178.31 19.35 177.26 18.61 176.21 17.88 C 175.21 19.39 174.20 20.89 173.24 22.42 C 173.72 20.44 174.34 18.49 174.99 16.55 Z" />
<path fill="#593728" opacity="1.00" d=" M 222.33 242.46 C 226.07 240.26 228.03 247.60 224.06 248.11 C 220.80 248.90 219.70 243.82 222.33 242.46 Z" />
</g>
<g id="#60361eff">
<path fill="#60361e" opacity="1.00" d=" M 173.24 22.42 C 174.20 20.89 175.21 19.39 176.21 17.88 C 177.26 18.61 178.31 19.35 179.38 20.05 L 177.56 19.69 C 189.13 36.32 201.66 52.28 213.42 68.77 C 236.46 72.90 259.59 76.46 282.65 80.45 C 280.63 81.28 278.62 82.12 276.56 82.81 C 256.75 80.31 236.93 77.79 217.13 75.24 C 216.55 75.15 215.40 74.97 214.83 74.88 C 214.72 84.26 214.78 93.64 214.85 103.02 C 214.90 105.85 214.48 108.66 213.98 111.44 C 213.97 99.24 213.98 87.03 213.97 74.83 C 212.65 75.34 211.32 75.85 210.00 76.35 C 209.64 73.54 210.27 70.26 208.24 67.95 C 198.80 55.38 189.32 42.84 179.98 30.20 C 178.49 28.09 176.95 26.01 175.37 23.96 C 169.84 39.62 164.52 55.35 158.89 70.97 C 155.37 71.68 152.32 73.62 149.44 75.67 C 146.98 75.94 144.51 76.02 142.04 76.02 C 147.17 73.08 152.50 70.49 157.74 67.74 C 161.49 56.50 165.23 45.26 169.01 34.03 C 140.27 39.29 111.98 48.20 86.42 62.53 C 70.12 71.77 54.80 83.19 42.76 97.64 C 31.21 111.30 22.73 128.04 20.88 145.99 C 18.85 163.30 23.28 181.02 32.06 195.96 C 41.14 211.65 54.38 224.54 69.01 235.08 C 96.60 254.76 129.08 266.68 162.11 273.39 C 206.24 282.13 252.14 281.90 296.15 272.59 C 330.67 265.07 364.66 251.86 392.49 229.66 C 411.22 214.79 427.02 194.69 432.19 170.93 C 436.35 152.90 433.24 133.63 424.80 117.29 C 413.21 94.83 393.46 77.69 372.04 64.87 C 358.67 57.05 344.53 50.46 329.77 45.75 C 331.63 48.68 333.51 51.60 335.35 54.54 C 332.97 55.08 330.60 55.66 328.23 56.24 L 326.92 56.55 C 319.96 58.09 313.02 59.72 306.02 61.05 L 306.03 60.31 C 313.87 58.40 321.79 56.78 329.61 54.74 C 331.08 54.63 332.57 54.54 334.06 54.49 C 328.05 44.82 321.57 35.45 315.63 25.73 C 311.23 32.78 306.70 39.75 302.17 46.73 C 291.05 50.42 280.20 54.88 269.09 58.58 C 269.57 58.77 270.53 59.14 271.01 59.32 C 269.30 59.59 267.58 59.74 265.87 59.93 C 266.28 54.98 266.84 50.05 267.10 45.09 C 268.44 44.65 269.79 44.21 271.16 43.82 C 271.73 43.67 272.87 43.36 273.44 43.21 C 273.45 43.07 273.47 42.78 273.48 42.64 C 287.88 37.07 301.93 30.60 316.35 25.08 C 318.35 28.94 321.56 32.16 322.81 36.38 C 326.76 38.40 331.24 39.05 335.21 41.04 C 341.36 43.84 347.91 45.74 353.79 49.15 C 376.14 60.20 397.53 74.03 414.26 92.74 C 428.56 108.57 438.73 128.55 440.86 149.94 C 443.15 172.06 436.59 194.37 425.42 213.35 C 420.67 221.76 414.70 229.38 408.85 237.05 C 405.23 241.76 400.03 244.78 395.67 248.70 C 378.37 261.26 358.65 270.14 338.60 277.34 C 307.60 287.93 274.96 294.02 242.20 294.78 C 232.09 294.75 221.98 294.76 211.87 294.80 C 194.81 294.63 177.83 292.33 161.05 289.41 C 158.61 288.89 156.09 288.57 153.81 287.54 C 151.99 286.57 150.19 285.54 148.30 284.71 C 120.31 273.61 93.07 260.06 68.74 242.20 C 47.30 226.37 27.40 206.31 18.51 180.63 C 11.84 162.08 13.35 141.20 21.25 123.27 C 31.40 100.36 49.39 81.96 68.98 66.81 C 72.94 63.49 77.74 61.15 81.01 57.07 L 81.49 56.52 C 109.43 41.93 140.10 32.95 171.20 28.22 C 171.82 26.27 172.23 24.22 173.24 22.42 Z" />
<path fill="#60361e" opacity="1.00" d=" M 262.74 112.48 C 260.84 106.34 260.97 99.80 261.83 93.49 C 262.05 99.83 262.19 106.16 262.74 112.48 Z" />
<path fill="#60361e" opacity="1.00" d=" M 124.50 155.64 C 128.85 152.46 132.95 148.97 137.34 145.85 C 141.00 148.97 144.79 151.95 148.43 155.09 C 146.31 157.67 144.14 160.22 141.82 162.63 C 139.05 160.55 136.44 158.25 133.55 156.34 C 131.57 154.91 127.81 156.08 128.40 158.91 C 129.52 162.01 132.19 164.16 134.34 166.54 C 139.47 172.07 144.85 177.39 149.87 183.03 C 153.02 186.24 152.73 191.28 151.31 195.23 C 150.02 199.23 146.41 201.66 143.51 204.44 C 140.31 207.21 137.46 210.39 134.08 212.95 C 129.37 210.03 124.87 206.80 120.29 203.70 C 122.67 200.89 125.05 198.08 127.34 195.20 C 131.06 197.17 134.30 199.96 138.09 201.78 C 142.55 202.56 146.08 195.66 142.66 192.48 C 136.27 185.18 129.04 178.67 122.33 171.67 C 119.41 168.68 118.80 163.94 120.10 160.07 C 120.95 158.10 122.91 156.97 124.50 155.64 Z" />
<path fill="#60361e" opacity="1.00" d=" M 183.69 151.98 C 187.57 150.88 192.16 149.97 195.68 152.52 L 194.53 153.53 C 194.20 153.82 193.56 154.41 193.23 154.70 C 192.78 158.45 192.90 162.23 192.93 166.00 C 193.03 179.58 192.81 193.17 193.00 206.75 L 193.00 206.79 C 190.09 208.56 187.29 210.50 184.46 212.39 C 184.42 201.97 184.47 191.54 184.60 181.12 C 180.36 181.05 176.12 181.08 171.88 181.08 C 169.56 188.38 167.43 195.74 165.14 203.05 C 163.25 208.18 158.67 212.93 153.02 213.44 C 150.49 213.72 149.22 211.49 148.78 209.38 C 152.07 209.14 155.43 209.46 158.65 208.64 C 160.66 207.05 160.55 204.11 161.21 201.85 C 163.97 185.66 160.20 167.61 169.46 153.05 L 170.23 153.18 C 171.45 160.69 170.80 168.34 171.09 175.92 C 175.63 176.07 180.23 176.64 184.72 175.70 C 185.35 172.17 185.05 168.57 185.09 165.01 C 185.02 160.91 185.66 156.64 183.93 152.78 L 183.69 151.98 Z" />
</g>
<g id="#fffffdff">
<path fill="#fffffd" opacity="1.00" d=" M 177.56 19.69 L 179.38 20.05 C 193.34 23.44 207.36 26.60 221.32 29.99 C 225.61 30.95 229.88 31.97 234.16 32.99 C 238.94 34.19 243.80 35.14 248.49 36.71 C 249.84 37.02 251.20 37.32 252.56 37.64 C 253.89 38.02 255.23 38.40 256.56 38.81 C 257.60 38.93 258.65 39.05 259.70 39.17 C 260.26 39.24 261.39 39.40 261.96 39.47 C 264.68 40.13 267.37 40.94 270.16 41.30 L 271.26 41.47 C 271.23 42.06 271.18 43.23 271.16 43.82 C 269.79 44.21 268.44 44.65 267.10 45.09 C 266.84 50.05 266.28 54.98 265.87 59.93 C 267.58 59.74 269.30 59.59 271.01 59.32 C 282.33 56.50 293.55 53.22 304.80 50.10 C 304.61 58.10 304.70 66.11 304.80 74.11 L 303.61 73.92 C 297.29 74.14 291.00 74.94 284.67 75.07 C 286.18 76.68 287.59 78.44 289.44 79.68 C 293.80 81.14 298.47 81.38 302.98 82.21 C 312.63 83.72 322.27 85.28 331.92 86.79 C 331.93 84.32 331.93 81.85 331.93 79.39 C 330.66 79.11 329.39 78.83 328.12 78.59 C 328.37 71.14 328.18 63.69 328.23 56.24 C 330.60 55.66 332.97 55.08 335.35 54.54 C 333.51 51.60 331.63 48.68 329.77 45.75 C 344.53 50.46 358.67 57.05 372.04 64.87 C 393.46 77.69 413.21 94.83 424.80 117.29 C 433.24 133.63 436.35 152.90 432.19 170.93 C 427.02 194.69 411.22 214.79 392.49 229.66 C 364.66 251.86 330.67 265.07 296.15 272.59 C 252.14 281.90 206.24 282.13 162.11 273.39 C 129.08 266.68 96.60 254.76 69.01 235.08 C 54.38 224.54 41.14 211.65 32.06 195.96 C 23.28 181.02 18.85 163.30 20.88 145.99 C 22.73 128.04 31.21 111.30 42.76 97.64 C 54.80 83.19 70.12 71.77 86.42 62.53 C 111.98 48.20 140.27 39.29 169.01 34.03 C 165.23 45.26 161.49 56.50 157.74 67.74 C 152.50 70.49 147.17 73.08 142.04 76.02 C 144.51 76.02 146.98 75.94 149.44 75.67 C 153.57 75.43 157.69 75.14 161.82 74.96 C 163.05 73.68 164.28 72.41 165.43 71.06 C 170.53 57.54 174.97 43.76 179.98 30.20 C 189.32 42.84 198.80 55.38 208.24 67.95 C 210.27 70.26 209.64 73.54 210.00 76.35 C 211.32 75.85 212.65 75.34 213.97 74.83 C 213.98 87.03 213.97 99.24 213.98 111.44 C 213.57 115.70 213.58 119.99 213.64 124.28 C 214.49 124.11 216.20 123.78 217.05 123.62 L 217.68 123.47 C 218.26 113.65 217.86 103.81 217.89 93.98 C 217.74 87.88 218.42 81.71 217.19 75.67 L 217.13 75.24 C 236.93 77.79 256.75 80.31 276.56 82.81 C 304.89 86.50 333.29 89.78 361.56 93.90 C 357.47 92.65 353.21 92.16 349.02 91.41 C 326.89 87.80 304.77 84.08 282.65 80.45 C 259.59 76.46 236.46 72.90 213.42 68.77 C 201.66 52.28 189.13 36.32 177.56 19.69 M 108.79 78.41 C 97.49 86.88 86.18 95.35 74.89 103.85 C 73.15 104.91 74.28 107.15 74.14 108.77 C 77.81 108.79 81.47 108.88 85.14 109.08 C 85.21 116.08 84.69 123.12 85.53 130.09 C 83.37 132.37 79.79 133.25 78.52 136.30 L 79.19 136.41 C 79.15 137.18 79.06 138.71 79.02 139.48 C 79.73 140.63 80.40 141.81 81.02 143.02 C 80.03 144.39 79.05 145.79 78.12 147.21 C 79.64 147.05 81.23 146.96 82.28 145.66 C 91.63 143.59 100.84 140.83 110.21 138.82 L 111.00 139.51 C 112.86 146.98 114.07 154.61 115.68 162.15 C 116.36 153.77 116.00 145.34 115.97 136.95 C 143.30 136.96 170.66 136.59 198.00 136.38 C 199.26 136.58 200.29 135.87 201.26 135.19 C 201.61 134.57 202.30 133.33 202.65 132.71 L 201.52 132.39 L 202.41 132.62 C 204.21 130.01 206.13 127.50 208.18 125.09 C 209.88 124.74 211.58 124.37 213.28 124.00 C 213.22 120.03 213.24 116.06 213.46 112.09 L 213.62 110.97 C 195.16 111.31 176.74 110.25 158.32 109.33 C 158.50 105.36 158.75 101.38 159.04 97.41 C 164.80 95.14 170.52 92.76 176.18 90.24 C 188.25 91.19 200.33 91.89 212.40 92.86 C 211.30 86.29 209.68 79.81 208.37 73.28 C 175.15 74.59 142.00 76.73 108.79 78.41 M 242.40 87.18 C 243.30 95.87 242.38 104.76 243.90 113.34 C 243.85 116.85 243.98 120.36 244.07 123.87 C 250.49 124.01 256.89 124.68 263.31 124.88 C 263.03 121.05 263.06 117.21 262.81 113.39 L 262.86 112.95 L 262.74 112.48 C 262.19 106.16 262.05 99.83 261.83 93.49 C 262.01 92.11 262.27 88.46 259.99 89.30 C 254.13 88.51 248.26 87.89 242.40 87.18 M 282.43 92.13 C 282.95 103.15 283.11 114.18 283.94 125.18 C 289.43 125.75 294.94 126.25 300.47 126.02 C 300.02 121.86 300.15 117.68 299.83 113.52 C 300.21 109.65 299.55 105.76 299.09 101.92 C 299.21 99.33 299.00 96.75 298.87 94.17 C 293.38 93.60 287.90 92.84 282.43 92.13 M 307.23 94.49 C 308.01 105.24 308.13 116.02 309.26 126.75 C 313.82 127.00 318.39 127.12 322.96 127.05 L 322.91 125.78 C 321.75 117.88 322.47 109.84 321.09 101.97 C 321.17 100.30 321.09 98.62 321.06 96.94 C 316.47 96.01 311.84 95.31 307.23 94.49 M 331.81 98.11 L 331.80 98.72 C 332.22 108.49 333.25 118.23 334.02 127.98 C 338.40 128.18 342.78 128.34 347.17 128.38 C 347.05 126.65 346.91 124.94 346.75 123.22 C 346.41 115.45 345.06 107.71 345.15 99.92 C 342.19 98.90 338.99 98.10 335.86 98.42 C 334.55 97.35 333.21 97.25 331.81 98.11 M 124.50 155.64 C 122.91 156.97 120.95 158.10 120.10 160.07 C 118.80 163.94 119.41 168.68 122.33 171.67 C 129.04 178.67 136.27 185.18 142.66 192.48 C 146.08 195.66 142.55 202.56 138.09 201.78 C 134.30 199.96 131.06 197.17 127.34 195.20 C 125.05 198.08 122.67 200.89 120.29 203.70 C 124.87 206.80 129.37 210.03 134.08 212.95 C 137.46 210.39 140.31 207.21 143.51 204.44 C 146.41 201.66 150.02 199.23 151.31 195.23 C 152.73 191.28 153.02 186.24 149.87 183.03 C 144.85 177.39 139.47 172.07 134.34 166.54 C 132.19 164.16 129.52 162.01 128.40 158.91 C 127.81 156.08 131.57 154.91 133.55 156.34 C 136.44 158.25 139.05 160.55 141.82 162.63 C 144.14 160.22 146.31 157.67 148.43 155.09 C 144.79 151.95 141.00 148.97 137.34 145.85 C 132.95 148.97 128.85 152.46 124.50 155.64 M 226.47 154.08 C 228.45 158.28 230.86 163.60 227.93 167.94 C 224.52 170.81 220.59 173.02 216.94 175.59 C 216.90 166.97 216.87 158.35 216.97 149.73 C 212.77 149.92 208.56 150.00 204.36 150.28 C 205.21 151.22 206.08 152.15 206.96 153.06 C 207.50 172.63 207.12 192.23 207.22 211.80 C 210.40 209.68 213.58 207.56 216.82 205.53 C 217.04 198.01 216.79 190.48 216.95 182.97 C 216.85 181.19 217.73 178.60 219.96 179.01 C 223.21 179.73 225.13 182.83 226.46 185.63 C 228.96 191.19 230.31 197.17 232.28 202.91 C 234.23 209.59 239.07 214.84 243.55 219.94 C 243.37 215.80 238.80 213.40 239.12 209.08 C 239.50 201.68 240.29 194.05 237.81 186.90 C 236.21 181.11 231.71 176.92 227.83 172.61 C 230.68 170.15 233.56 167.66 235.77 164.59 C 236.51 163.55 237.32 162.33 236.90 160.97 C 236.32 156.67 235.91 152.34 235.51 148.02 C 232.39 149.88 229.43 151.98 226.47 154.08 M 250.74 149.37 C 250.76 151.72 250.77 154.08 250.83 156.43 C 252.91 155.58 254.81 154.22 257.01 153.70 C 258.93 154.92 257.33 157.24 256.73 158.76 C 251.40 170.52 247.43 184.35 252.17 196.98 C 254.34 203.76 260.88 207.47 265.36 212.58 C 269.53 209.40 272.88 205.29 276.91 201.94 C 281.43 205.16 285.66 208.80 289.98 212.30 C 295.66 207.56 301.65 203.12 306.84 197.83 C 307.27 183.93 306.35 169.96 306.63 156.04 C 307.57 153.58 309.07 151.39 310.29 149.07 C 305.67 149.18 301.04 149.13 296.42 149.20 C 295.46 164.82 297.34 180.46 296.54 196.09 C 296.49 198.07 295.97 199.99 295.44 201.89 C 286.51 196.91 279.61 187.42 279.50 176.96 C 279.31 167.26 283.67 158.35 287.70 149.79 C 282.11 149.78 276.52 149.65 270.93 149.56 C 271.07 151.99 271.19 154.43 271.35 156.86 C 274.09 155.33 277.19 152.53 280.28 155.00 C 277.97 159.77 275.10 164.29 273.39 169.33 C 270.77 176.84 269.82 185.43 273.16 192.87 C 273.93 194.86 275.32 196.79 274.95 199.04 C 274.37 200.49 272.51 201.52 271.02 200.81 C 262.20 195.26 257.37 184.41 258.67 174.10 C 259.16 165.22 264.04 157.54 266.25 149.10 C 261.08 149.24 255.91 149.24 250.74 149.37 M 157.00 151.94 C 156.33 153.73 158.24 155.63 160.04 155.05 C 163.06 153.91 166.09 152.05 169.46 153.05 C 160.20 167.61 163.97 185.66 161.21 201.85 C 160.55 204.11 160.66 207.05 158.65 208.64 C 155.43 209.46 152.07 209.14 148.78 209.38 C 149.22 211.49 150.49 213.72 153.02 213.44 C 158.67 212.93 163.25 208.18 165.14 203.05 C 167.43 195.74 169.56 188.38 171.88 181.08 C 176.12 181.08 180.36 181.05 184.60 181.12 C 184.47 191.54 184.42 201.97 184.46 212.39 C 187.29 210.50 190.09 208.56 193.00 206.79 L 193.00 206.75 C 194.69 205.75 193.98 203.62 194.18 202.04 C 194.31 185.88 193.88 169.69 194.53 153.53 L 195.68 152.52 C 196.38 151.72 197.08 150.91 197.78 150.09 C 186.89 148.71 175.92 150.11 165.00 149.90 C 162.29 150.00 158.80 149.34 157.00 151.94 M 316.88 152.51 C 317.89 153.79 318.94 156.01 320.96 154.88 C 323.85 153.56 326.87 152.41 330.12 152.94 C 329.60 153.73 329.09 154.51 328.58 155.29 C 320.79 170.18 324.54 187.59 321.38 203.52 C 320.90 205.40 320.66 207.70 318.82 208.81 C 315.66 209.31 312.44 209.17 309.25 209.46 C 309.86 211.26 310.70 213.56 313.05 213.42 C 319.22 213.17 324.24 207.72 325.95 202.06 C 328.06 195.07 330.21 188.08 332.27 181.07 C 336.50 181.06 340.73 181.07 344.97 181.05 C 344.96 191.46 344.94 201.87 345.00 212.29 C 345.85 211.73 346.71 211.17 347.58 210.63 C 349.99 209.04 352.38 207.41 354.77 205.78 C 354.71 189.55 354.90 173.31 354.88 157.07 C 354.73 155.16 355.40 153.38 356.29 151.73 L 356.84 151.85 C 357.20 151.39 357.92 150.48 358.27 150.03 C 346.21 148.76 334.09 150.17 322.00 149.94 C 319.83 149.57 318.29 151.17 316.88 152.51 M 375.15 189.02 C 371.65 191.03 375.82 196.25 378.81 193.87 C 381.26 191.55 377.97 187.55 375.15 189.02 M 379.96 200.02 C 381.91 200.22 384.19 199.62 385.66 201.27 C 389.16 204.54 394.26 206.93 394.96 212.19 C 396.81 209.90 399.24 207.92 400.20 205.05 C 399.39 205.14 397.75 205.31 396.93 205.40 C 392.43 202.19 388.23 198.56 384.25 194.73 C 382.68 196.37 381.26 198.15 379.96 200.02 M 89.82 199.78 C 90.07 200.81 90.33 201.84 90.60 202.86 C 84.88 210.95 78.36 218.43 72.11 226.11 C 71.18 227.61 69.52 227.93 67.90 228.16 C 66.71 228.68 68.18 229.73 68.58 230.15 C 73.00 233.76 77.51 237.26 81.85 240.97 C 82.71 239.42 85.91 237.86 83.82 236.05 C 83.31 236.37 82.29 237.01 81.77 237.32 C 78.83 235.56 76.38 233.11 73.70 231.00 C 79.87 222.12 86.82 213.76 94.00 205.68 C 94.91 205.84 96.73 206.16 97.65 206.32 C 95.87 203.36 92.99 201.09 89.82 199.78 M 372.28 208.19 C 371.04 211.25 374.46 216.20 377.81 213.91 C 379.84 211.10 376.68 208.24 373.77 208.61 C 374.66 207.41 375.38 205.93 376.92 205.46 C 378.60 205.95 379.82 207.27 381.16 208.32 C 380.34 211.58 379.01 214.69 378.36 217.99 C 378.22 220.60 380.62 222.55 382.97 223.08 C 386.41 222.49 389.37 219.52 389.27 215.91 C 390.55 215.79 392.12 216.25 393.08 215.09 C 395.37 213.33 393.48 209.54 390.79 209.62 C 391.27 210.87 391.76 212.12 392.24 213.38 C 387.37 210.95 384.89 205.49 380.01 203.05 C 376.52 201.99 373.32 205.13 372.28 208.19 M 361.14 217.78 C 357.69 217.00 354.83 219.46 353.93 222.64 C 352.32 222.91 350.78 223.45 349.36 224.25 C 349.55 224.61 349.93 225.32 350.12 225.68 C 350.64 225.63 351.67 225.54 352.19 225.49 C 355.17 228.39 357.31 232.04 359.76 235.38 C 361.12 236.69 360.33 238.47 360.21 240.06 C 363.19 239.48 365.39 237.04 367.46 234.99 C 366.66 234.88 365.04 234.68 364.24 234.57 C 361.75 231.04 358.80 227.77 356.89 223.87 C 355.58 221.61 359.21 218.46 360.74 221.22 C 363.68 225.40 368.49 229.27 368.12 234.82 C 370.26 233.23 373.42 232.27 374.25 229.49 C 372.60 229.69 371.09 229.31 370.25 227.79 C 367.85 224.61 365.16 221.55 363.43 217.93 C 363.45 216.08 365.88 214.05 367.53 215.56 C 370.82 218.61 373.01 222.63 375.61 226.25 C 375.46 227.01 375.16 228.53 375.00 229.29 C 377.98 228.42 380.38 226.35 382.44 224.11 C 381.62 224.02 380.00 223.85 379.19 223.76 C 376.30 220.29 374.10 216.23 370.83 213.10 C 367.13 210.10 361.80 213.58 361.14 217.78 M 85.47 227.06 C 83.86 230.65 85.83 235.52 89.82 236.36 C 92.21 237.03 94.48 235.67 96.13 234.05 C 93.43 234.57 90.64 235.30 88.09 233.80 C 87.94 232.10 87.77 230.30 88.84 228.83 C 91.17 223.66 98.65 231.21 101.13 226.01 C 104.26 222.21 99.35 216.85 95.15 217.40 C 90.19 217.99 87.15 222.80 85.47 227.06 M 122.85 219.09 C 123.18 220.80 124.20 222.63 123.40 224.36 C 121.04 230.25 118.30 235.98 115.72 241.79 C 114.63 243.87 113.75 247.17 110.70 246.53 C 111.75 249.51 115.70 249.67 118.10 251.24 C 118.61 249.99 118.28 248.88 117.35 247.95 C 117.97 245.89 118.82 243.91 119.83 242.01 C 120.32 245.20 119.96 248.58 121.15 251.64 C 122.24 253.44 124.37 253.97 126.30 254.31 C 123.80 250.56 123.96 245.99 122.37 241.92 C 125.68 239.95 129.04 237.82 132.98 237.41 C 134.07 239.51 133.52 241.70 132.64 243.74 C 131.04 247.52 130.47 252.36 126.27 254.25 C 128.60 255.95 131.52 256.49 134.20 257.46 C 133.99 255.80 132.95 254.15 133.54 252.47 C 135.06 247.69 136.91 243.02 138.83 238.39 C 134.75 237.05 130.76 235.47 126.87 233.66 C 126.58 234.91 126.94 236.03 127.85 236.93 C 125.29 238.49 122.64 239.89 119.93 241.16 C 122.86 234.58 125.89 228.04 128.98 221.53 C 126.95 220.68 124.92 219.84 122.85 219.09 M 102.89 221.79 C 103.00 223.49 103.99 225.34 102.88 226.93 C 101.36 230.01 99.70 233.02 98.03 236.02 C 97.30 237.79 95.24 238.09 93.77 238.99 C 96.08 240.33 98.44 241.57 100.75 242.91 C 101.17 242.53 101.60 242.15 102.02 241.78 C 101.71 241.31 101.10 240.36 100.79 239.89 C 102.62 235.85 104.53 231.70 107.28 228.20 C 108.98 226.05 112.71 228.60 111.62 230.92 C 110.11 234.53 108.26 238.02 106.16 241.31 C 105.60 242.89 103.00 241.92 102.80 243.73 C 105.11 245.39 107.71 246.58 110.36 247.61 C 110.07 246.54 109.78 245.48 109.48 244.43 C 111.27 240.38 113.87 236.68 115.28 232.48 C 116.49 227.65 110.73 223.97 106.47 225.52 C 106.29 224.94 105.92 223.77 105.74 223.19 C 104.79 222.72 103.84 222.25 102.89 221.79 M 339.50 229.35 C 337.53 231.77 338.85 237.50 342.55 236.63 C 346.16 235.28 343.71 230.78 340.74 230.37 C 341.97 229.63 343.01 228.16 344.56 228.21 C 345.95 229.21 346.86 230.70 347.89 232.05 C 345.94 235.40 343.47 238.45 341.90 242.03 C 342.86 243.94 343.75 246.36 346.12 246.87 C 349.34 247.02 352.67 245.06 353.44 241.79 C 355.04 241.86 357.14 242.93 358.33 241.30 C 360.09 239.71 358.84 236.96 356.93 236.10 C 356.90 237.15 356.84 239.24 356.81 240.29 C 353.62 236.22 352.13 231.06 348.66 227.20 C 345.93 224.44 341.42 226.69 339.50 229.35 M 138.45 227.60 C 135.36 228.65 136.22 234.33 139.91 233.26 C 143.45 232.37 142.12 226.13 138.45 227.60 M 143.79 229.76 C 144.54 232.36 145.28 234.96 146.18 237.52 C 147.40 237.86 148.62 238.21 149.84 238.58 C 151.94 237.05 154.00 235.46 155.92 233.72 C 153.27 232.06 150.89 233.85 148.75 235.40 C 148.22 233.95 147.70 232.51 147.17 231.08 C 146.04 230.63 144.92 230.19 143.79 229.76 M 155.37 232.81 C 158.03 234.46 156.59 237.58 156.11 239.97 C 154.35 246.49 153.09 253.16 150.85 259.54 C 149.81 260.19 148.81 260.88 147.79 261.56 C 150.21 262.42 152.68 263.18 155.20 263.69 C 157.55 264.01 155.89 261.58 154.95 260.92 C 155.17 258.78 155.70 256.69 156.48 254.69 C 157.43 257.65 157.66 260.88 159.17 263.65 C 160.44 265.15 162.51 265.43 164.25 266.13 C 164.15 265.67 163.95 264.76 163.86 264.30 C 161.47 261.25 160.60 257.43 159.14 253.91 C 161.86 251.40 164.80 248.91 168.44 247.86 C 167.14 245.49 163.97 245.90 161.71 245.16 C 162.14 246.25 162.60 247.31 163.11 248.37 C 161.08 250.33 158.82 252.02 156.46 253.55 C 158.06 246.65 159.79 239.76 161.94 233.01 C 159.86 232.94 156.77 230.46 155.37 232.81 M 325.44 236.75 C 323.74 236.79 322.05 236.85 320.37 236.97 C 320.72 239.19 323.53 238.94 324.14 240.95 C 325.66 244.17 327.07 247.44 328.43 250.73 C 329.32 252.30 327.99 253.91 327.80 255.48 C 330.31 254.10 334.92 254.08 335.53 250.80 C 334.94 250.79 333.74 250.76 333.14 250.75 C 331.05 247.05 329.28 243.11 327.98 239.07 C 326.69 236.24 330.72 233.88 332.53 236.33 C 334.80 240.08 336.33 244.23 337.90 248.30 C 337.58 249.10 336.92 250.69 336.60 251.48 C 339.18 250.26 343.24 250.12 344.43 247.14 C 343.88 247.00 342.77 246.72 342.22 246.58 C 339.56 242.73 338.61 237.93 335.82 234.17 C 332.68 231.01 327.06 232.91 325.44 236.75 M 288.28 235.60 C 286.36 237.31 287.70 240.74 290.13 241.12 C 291.95 240.80 293.62 238.79 292.58 236.96 C 292.11 235.20 289.61 233.96 288.28 235.60 M 139.81 244.01 C 138.77 248.06 142.88 250.41 144.54 253.52 C 145.48 255.24 143.57 256.71 142.96 258.19 C 139.59 258.45 137.23 255.79 137.12 252.57 L 135.82 252.51 C 135.67 255.30 136.65 258.50 139.57 259.49 C 143.29 261.38 147.93 258.86 148.72 254.86 C 150.15 250.99 145.97 248.62 144.13 245.85 C 142.80 244.13 144.63 241.12 146.81 242.13 C 148.99 243.15 148.46 245.87 149.22 247.76 C 150.77 246.00 152.17 243.34 151.06 241.03 C 150.68 241.43 149.92 242.24 149.54 242.65 C 147.52 238.48 140.48 239.34 139.81 244.01 M 309.00 239.53 C 308.96 240.15 308.88 241.40 308.83 242.02 C 308.36 241.72 307.40 241.12 306.92 240.82 C 305.15 241.64 302.84 242.04 301.91 243.99 C 300.22 246.78 301.99 250.96 305.18 251.68 C 307.02 252.22 308.93 252.53 310.73 253.23 C 312.93 254.34 313.51 258.22 310.86 259.13 C 308.12 260.65 305.80 257.98 303.67 256.66 C 304.08 260.80 309.16 262.57 312.47 260.49 C 316.68 258.62 316.97 252.27 313.42 249.62 C 311.07 247.68 307.45 248.79 305.17 246.76 C 303.85 245.25 304.83 242.75 306.94 242.97 C 309.02 242.43 309.81 245.00 310.93 246.20 C 312.70 244.29 310.99 240.71 309.00 239.53 M 222.33 242.46 C 219.70 243.82 220.80 248.90 224.06 248.11 C 228.03 247.60 226.07 240.26 222.33 242.46 M 246.30 243.98 C 246.67 247.76 245.42 251.65 241.67 253.23 C 242.43 253.54 243.95 254.16 244.71 254.47 C 245.52 260.83 245.20 267.48 247.21 273.62 C 249.31 277.85 255.84 276.11 256.35 271.64 C 254.68 272.67 253.05 273.88 251.06 274.23 C 248.70 267.83 248.97 260.83 248.75 254.12 C 249.76 253.55 251.46 253.55 251.82 252.25 C 250.69 251.98 249.54 251.76 248.40 251.60 C 248.20 249.05 248.03 246.51 247.95 243.96 C 247.54 243.96 246.72 243.97 246.30 243.98 M 288.43 247.41 C 285.84 251.22 287.21 256.09 288.81 260.01 C 290.27 263.47 294.56 266.41 298.21 264.28 C 300.81 263.22 301.49 260.28 301.83 257.79 C 299.81 259.68 298.53 263.79 295.01 262.89 C 293.05 261.68 292.83 259.11 291.96 257.17 C 294.48 254.44 300.62 252.74 298.95 248.09 C 297.55 243.57 290.67 243.68 288.43 247.41 M 172.49 247.56 C 167.36 248.62 166.29 254.68 165.89 259.05 C 165.27 262.66 167.33 266.78 171.09 267.57 C 174.45 268.52 177.80 265.92 178.98 262.88 C 180.06 260.09 180.43 257.04 180.40 254.06 C 180.44 250.14 176.42 246.46 172.49 247.56 M 279.44 248.19 C 279.91 249.34 280.75 250.08 281.96 250.41 C 282.17 254.25 281.14 258.19 282.02 261.95 C 279.03 259.38 278.33 255.20 276.69 251.78 C 277.28 250.78 277.86 249.77 278.42 248.75 C 275.64 248.28 272.89 249.42 270.18 249.88 C 274.90 255.03 276.86 261.94 279.92 268.09 C 280.62 267.93 282.02 267.63 282.72 267.47 C 282.78 265.89 282.83 264.32 282.86 262.75 C 283.24 257.48 283.08 252.01 285.27 247.08 C 283.32 247.45 281.38 247.81 279.44 248.19 M 182.89 253.87 C 181.36 259.77 191.80 260.83 188.77 266.76 C 185.68 269.94 181.58 265.94 181.32 262.51 C 179.01 265.61 182.64 269.68 186.00 269.80 C 190.33 270.53 194.06 266.21 193.23 262.01 C 192.79 258.51 188.84 257.50 186.99 254.96 C 185.69 253.04 188.21 250.14 190.17 251.70 C 191.99 252.57 191.89 254.77 192.25 256.44 C 194.85 255.26 193.74 251.76 194.16 249.51 C 193.72 250.00 192.84 250.97 192.40 251.46 C 189.72 248.01 183.25 249.25 182.89 253.87 M 261.44 251.01 C 262.34 252.31 263.90 253.35 264.09 255.03 C 264.70 258.95 265.47 262.95 265.18 266.93 C 264.85 269.26 261.25 269.81 260.39 267.57 C 259.20 263.81 258.97 259.84 258.56 255.94 C 258.27 254.10 259.68 252.62 260.42 251.06 C 258.20 251.33 255.93 251.37 253.77 251.97 C 252.59 252.32 251.90 255.14 254.17 254.66 C 254.90 258.75 255.06 262.94 256.06 266.99 C 257.19 272.23 265.68 272.25 267.92 267.89 C 269.14 263.01 267.17 258.04 267.29 253.13 C 267.88 252.15 268.78 251.32 268.94 250.14 C 266.41 250.11 263.92 250.61 261.44 251.01 M 203.77 252.12 C 207.52 258.00 207.78 265.26 209.23 271.92 C 209.96 271.95 211.44 272.03 212.18 272.07 C 213.73 266.50 215.25 260.90 217.38 255.51 C 217.96 254.90 220.33 253.37 218.51 252.88 C 216.74 252.64 214.96 252.58 213.19 252.49 C 216.74 256.34 213.13 261.24 212.63 265.58 L 211.70 265.71 C 211.10 262.00 209.90 258.34 210.12 254.55 C 210.70 254.33 211.85 253.88 212.42 253.66 C 210.66 250.90 206.53 252.59 203.77 252.12 M 233.01 253.95 C 231.33 253.01 229.47 252.70 227.56 252.78 C 231.67 256.42 229.97 262.20 230.34 267.05 C 230.63 269.10 229.07 270.60 228.12 272.22 C 231.10 272.23 234.08 272.20 237.06 272.17 C 237.04 271.72 237.01 270.82 236.99 270.37 C 236.34 270.20 235.06 269.87 234.41 269.71 C 234.52 265.33 233.70 260.86 234.61 256.54 C 235.03 254.37 237.39 254.00 239.21 253.82 C 238.36 255.58 236.11 257.61 237.67 259.64 C 238.60 261.18 240.71 261.13 241.90 259.91 C 243.31 257.18 242.31 252.86 238.96 252.20 C 236.73 251.45 234.90 253.12 233.01 253.95 M 219.40 252.85 C 220.25 254.49 221.69 256.02 221.69 257.96 C 221.53 262.84 222.57 268.39 218.89 272.26 C 221.49 272.40 224.11 272.62 226.73 272.43 C 228.28 271.72 225.87 270.14 225.47 269.27 C 225.19 263.82 225.36 258.34 225.83 252.91 C 223.68 252.86 221.54 252.84 219.40 252.85 Z" />
</g>
<g id="#fffaf3ff">
<path fill="#fffaf3" opacity="1.00" d=" M 226.54 21.09 C 226.67 20.85 226.93 20.37 227.06 20.13 L 227.00 20.79 C 226.64 23.78 226.49 26.79 226.72 29.80 L 226.28 29.65 C 226.10 26.80 226.04 23.92 226.54 21.09 Z" />
<path fill="#fffaf3" opacity="1.00" d=" M 302.17 46.73 C 306.70 39.75 311.23 32.78 315.63 25.73 C 321.57 35.45 328.05 44.82 334.06 54.49 C 332.57 54.54 331.08 54.63 329.61 54.74 C 329.45 54.13 329.13 52.90 328.97 52.29 C 328.52 50.19 327.84 48.12 326.61 46.35 C 323.25 41.26 319.88 36.17 316.62 31.02 C 313.65 35.11 310.68 39.19 307.61 43.20 C 307.94 45.02 308.28 46.85 308.64 48.67 C 308.47 48.72 308.12 48.80 307.95 48.84 C 306.01 48.18 304.09 47.44 302.17 46.73 Z" />
</g>
<g id="#5c351fff">
<path fill="#5c351f" opacity="1.00" d=" M 223.09 22.14 C 224.23 21.77 225.38 21.42 226.54 21.09 C 226.04 23.92 226.10 26.80 226.28 29.65 L 226.72 29.80 C 229.18 30.57 231.69 31.20 234.14 32.03 L 234.16 32.99 C 229.88 31.97 225.61 30.95 221.32 29.99 C 223.85 28.33 223.51 25.46 223.15 22.83 L 223.09 22.14 Z" />
<path fill="#5c351f" opacity="1.00" d=" M 379.96 200.02 C 381.26 198.15 382.68 196.37 384.25 194.73 C 388.23 198.56 392.43 202.19 396.93 205.40 C 397.75 205.31 399.39 205.14 400.20 205.05 C 399.24 207.92 396.81 209.90 394.96 212.19 C 394.26 206.93 389.16 204.54 385.66 201.27 C 384.19 199.62 381.91 200.22 379.96 200.02 Z" />
</g>
<g id="#ac8041ff">
<path fill="#ac8041" opacity="1.00" d=" M 226.72 29.80 C 226.49 26.79 226.64 23.78 227.00 20.79 C 227.90 20.86 229.70 21.01 230.60 21.09 C 230.97 21.33 231.71 21.81 232.08 22.06 C 232.59 22.38 233.62 23.01 234.13 23.33 C 234.22 26.23 234.16 29.13 234.14 32.03 C 231.69 31.20 229.18 30.57 226.72 29.80 Z" />
</g>
<g id="#3f362d87">
<path fill="#3f362d" opacity="0.53" d=" M 232.08 22.06 C 232.77 22.09 234.15 22.15 234.84 22.18 C 234.71 25.42 234.71 28.67 234.87 31.92 C 242.91 33.98 250.90 36.34 258.94 38.30 C 259.17 35.96 259.12 33.61 259.08 31.26 C 260.24 30.94 261.40 30.62 262.56 30.32 C 261.43 31.10 260.31 31.92 259.41 32.95 C 259.30 35.03 259.53 37.10 259.70 39.17 C 258.65 39.05 257.60 38.93 256.56 38.81 C 255.23 38.40 253.89 38.02 252.56 37.64 C 251.20 37.32 249.84 37.02 248.49 36.71 C 243.80 35.14 238.94 34.19 234.16 32.99 L 234.14 32.03 C 234.16 29.13 234.22 26.23 234.13 23.33 C 233.62 23.01 232.59 22.38 232.08 22.06 Z" />
</g>
<g id="#ac7f41ff">
<path fill="#ac7f41" opacity="1.00" d=" M 175.37 23.96 C 176.95 26.01 178.49 28.09 179.98 30.20 C 174.97 43.76 170.53 57.54 165.43 71.06 C 163.25 71.01 161.07 70.94 158.89 70.97 C 164.52 55.35 169.84 39.62 175.37 23.96 Z" />
</g>
<g id="#5f351fff">
<path fill="#5f351f" opacity="1.00" d=" M 262.56 30.32 L 263.08 29.98 L 263.09 30.97 C 263.00 33.83 263.01 36.69 263.20 39.55 L 261.96 39.47 C 261.39 39.40 260.26 39.24 259.70 39.17 C 259.53 37.10 259.30 35.03 259.41 32.95 C 260.31 31.92 261.43 31.10 262.56 30.32 Z" />
</g>
<g id="#fffbf2ff">
<path fill="#fffbf2" opacity="1.00" d=" M 263.09 30.97 C 264.20 30.34 267.18 30.37 267.53 30.53 C 266.55 30.81 265.61 31.16 264.70 31.58 C 262.87 33.73 263.93 36.95 263.20 39.55 C 263.01 36.69 263.00 33.83 263.09 30.97 Z" />
<path fill="#fffbf2" opacity="1.00" d=" M 109.77 108.78 C 111.28 108.85 112.78 108.94 114.29 109.05 C 112.82 110.28 111.32 111.48 109.77 112.62 C 109.77 111.66 109.77 109.74 109.77 108.78 Z" />
<path fill="#fffbf2" opacity="1.00" d=" M 116.21 108.81 C 116.60 108.71 117.38 108.51 117.77 108.41 C 118.19 116.04 117.94 123.69 118.02 131.33 C 146.23 132.00 174.44 132.27 202.65 132.71 C 202.30 133.33 201.61 134.57 201.26 135.19 C 172.80 135.38 144.34 135.58 115.88 135.86 C 104.17 138.93 92.59 142.52 80.96 145.89 L 82.28 145.66 C 81.23 146.96 79.64 147.05 78.12 147.21 C 79.05 145.79 80.03 144.39 81.02 143.02 C 83.36 142.29 85.71 141.60 88.09 141.05 C 88.14 140.69 88.24 139.98 88.29 139.63 L 86.23 140.40 C 86.35 139.86 86.60 138.77 86.72 138.23 C 86.26 136.77 85.83 135.30 85.41 133.83 C 85.23 135.76 84.97 137.69 84.47 139.56 C 84.55 139.97 84.71 140.80 84.79 141.22 C 82.98 141.71 81.53 140.77 80.20 139.67 C 80.30 138.92 80.50 137.40 80.60 136.65 L 79.19 136.41 L 78.52 136.30 C 79.17 135.96 80.45 135.30 81.09 134.96 C 82.24 136.33 83.34 137.72 84.48 139.10 C 84.05 137.21 83.14 135.52 81.98 133.99 C 83.53 133.45 85.50 132.73 86.81 134.16 C 86.91 134.89 87.10 136.35 87.19 137.08 C 87.56 136.86 88.30 136.43 88.66 136.21 C 89.02 136.91 89.74 138.31 90.10 139.01 L 88.30 139.00 C 88.92 139.43 89.54 139.87 90.17 140.30 C 98.63 137.28 107.31 134.93 115.83 132.04 C 115.93 124.30 115.66 116.54 116.21 108.81 Z" />
<path fill="#fffbf2" opacity="1.00" d=" M 91.80 127.41 C 93.83 125.84 95.92 124.35 98.01 122.85 C 99.50 126.54 98.88 130.57 98.98 134.45 C 97.80 133.26 96.64 132.06 95.48 130.86 C 96.57 128.64 97.95 126.49 98.24 123.98 C 96.79 125.82 95.77 127.94 94.70 130.01 C 93.74 129.14 92.78 128.27 91.80 127.41 Z" />
</g>
<g id="#ae7f40ff">
<path fill="#ae7f40" opacity="1.00" d=" M 264.70 31.58 C 265.61 31.16 266.55 30.81 267.53 30.53 C 272.48 31.17 271.03 37.50 271.03 41.05 L 270.16 41.30 C 267.37 40.94 264.68 40.13 261.96 39.47 L 263.20 39.55 C 263.93 36.95 262.87 33.73 264.70 31.58 Z" />
</g>
<g id="#936330ff">
<path fill="#936330" opacity="1.00" d=" M 307.61 43.20 C 310.68 39.19 313.65 35.11 316.62 31.02 C 319.88 36.17 323.25 41.26 326.61 46.35 C 327.84 48.12 328.52 50.19 328.97 52.29 C 328.33 51.40 327.68 50.52 327.03 49.64 C 320.02 51.81 313.00 53.92 305.98 56.03 C 305.94 53.91 305.88 51.80 305.81 49.69 C 306.34 49.48 307.41 49.06 307.95 48.84 C 308.12 48.80 308.47 48.72 308.64 48.67 C 308.28 46.85 307.94 45.02 307.61 43.20 Z" />
<path fill="#936330" opacity="1.00" d=" M 173.61 90.08 C 174.25 90.12 175.54 90.20 176.18 90.24 C 170.52 92.76 164.80 95.14 159.04 97.41 C 158.75 101.38 158.50 105.36 158.32 109.33 C 149.21 109.03 140.11 108.48 131.01 108.08 C 126.60 107.92 122.08 107.14 117.77 108.41 C 117.38 108.51 116.60 108.71 116.21 108.81 C 114.06 108.67 111.92 108.30 109.79 107.98 C 109.78 105.87 109.77 103.77 109.77 101.67 C 111.83 101.58 113.90 101.50 115.96 101.39 C 115.59 101.14 114.86 100.64 114.49 100.39 C 127.95 98.99 141.43 97.79 154.90 96.57 C 161.65 96.26 167.52 92.59 173.61 90.08 Z" />
</g>
<g id="#936331ff">
<path fill="#936331" opacity="1.00" d=" M 335.21 41.04 C 367.70 51.55 398.92 68.37 422.54 93.41 C 437.43 109.52 448.63 129.91 450.54 152.04 C 450.79 159.40 451.03 166.84 449.60 174.11 C 446.54 191.93 437.61 208.31 425.97 221.98 C 416.87 231.94 407.03 241.35 395.67 248.70 C 400.03 244.78 405.23 241.76 408.85 237.05 C 414.70 229.38 420.67 221.76 425.42 213.35 C 436.59 194.37 443.15 172.06 440.86 149.94 C 438.73 128.55 428.56 108.57 414.26 92.74 C 397.53 74.03 376.14 60.20 353.79 49.15 C 347.91 45.74 341.36 43.84 335.21 41.04 Z" />
</g>
<g id="#a97e45ff">
<path fill="#a97e45" opacity="1.00" d=" M 269.09 58.58 C 280.20 54.88 291.05 50.42 302.17 46.73 C 304.09 47.44 306.01 48.18 307.95 48.84 C 307.41 49.06 306.34 49.48 305.81 49.69 L 304.80 50.10 C 293.55 53.22 282.33 56.50 271.01 59.32 C 270.53 59.14 269.57 58.77 269.09 58.58 Z" />
</g>
<g id="#3e210aff">
<path fill="#3e210a" opacity="1.00" d=" M 304.80 50.10 L 305.81 49.69 C 305.88 51.80 305.94 53.91 305.98 56.03 C 306.00 57.45 306.02 58.88 306.03 60.31 L 306.02 61.05 C 306.00 65.49 306.02 69.94 306.00 74.38 L 304.80 74.11 C 304.70 66.11 304.61 58.10 304.80 50.10 Z" />
</g>
<g id="#ac803fff">
<path fill="#ac803f" opacity="1.00" d=" M 305.98 56.03 C 313.00 53.92 320.02 51.81 327.03 49.64 C 327.68 50.52 328.33 51.40 328.97 52.29 C 329.13 52.90 329.45 54.13 329.61 54.74 C 321.79 56.78 313.87 58.40 306.03 60.31 C 306.02 58.88 306.00 57.45 305.98 56.03 Z" />
</g>
<g id="#936430ff">
<path fill="#936430" opacity="1.00" d=" M 64.98 65.96 C 70.20 62.79 75.33 59.37 81.01 57.07 C 77.74 61.15 72.94 63.49 68.98 66.81 C 49.39 81.96 31.40 100.36 21.25 123.27 C 13.35 141.20 11.84 162.08 18.51 180.63 C 27.40 206.31 47.30 226.37 68.74 242.20 C 93.07 260.06 120.31 273.61 148.30 284.71 C 150.19 285.54 151.99 286.57 153.81 287.54 C 138.68 285.07 123.95 280.35 109.54 275.17 C 82.09 264.76 55.53 250.29 34.87 229.14 C 23.42 218.06 14.27 204.54 8.59 189.64 C 0.80 168.77 1.44 144.84 10.68 124.54 C 21.68 99.63 42.36 80.40 64.98 65.96 Z" />
<path fill="#936430" opacity="1.00" d=" M 105.13 101.28 L 105.62 101.24 C 106.73 101.49 107.85 101.76 108.96 102.04 C 109.00 104.13 109.05 106.22 109.10 108.31 C 106.28 108.34 103.46 108.40 100.64 108.49 C 100.72 106.37 100.81 104.25 100.91 102.13 C 102.31 101.84 103.72 101.53 105.13 101.28 Z" />
</g>
<g id="#fefefcff">
<path fill="#fefefc" opacity="1.00" d=" M 306.02 61.05 C 313.02 59.72 319.96 58.09 326.92 56.55 C 326.87 63.83 326.76 71.11 326.84 78.39 C 319.86 77.25 312.92 75.83 306.00 74.38 C 306.02 69.94 306.00 65.49 306.02 61.05 Z" />
<path fill="#fefefc" opacity="1.00" d=" M 283.31 94.89 C 287.09 95.32 290.87 95.97 294.68 95.83 C 296.01 105.49 295.92 115.28 296.80 124.98 C 292.88 125.03 288.99 124.53 285.11 124.02 C 284.14 114.33 284.04 104.60 283.31 94.89 Z" />
</g>
<g id="#30170bff">
<path fill="#30170b" opacity="1.00" d=" M 326.92 56.55 L 328.23 56.24 C 328.18 63.69 328.37 71.14 328.12 78.59 L 326.84 78.39 C 326.76 71.11 326.87 63.83 326.92 56.55 Z" />
</g>
<g id="#916333ff">
<path fill="#916333" opacity="1.00" d=" M 149.44 75.67 C 152.32 73.62 155.37 71.68 158.89 70.97 C 161.07 70.94 163.25 71.01 165.43 71.06 C 164.28 72.41 163.05 73.68 161.82 74.96 C 157.69 75.14 153.57 75.43 149.44 75.67 Z" />
</g>
<g id="#ad803fff">
<path fill="#ad803f" opacity="1.00" d=" M 108.79 78.41 C 142.00 76.73 175.15 74.59 208.37 73.28 C 209.68 79.81 211.30 86.29 212.40 92.86 C 200.33 91.89 188.25 91.19 176.18 90.24 C 175.54 90.20 174.25 90.12 173.61 90.08 C 152.28 88.69 130.97 87.00 109.63 85.70 C 109.33 83.27 109.06 80.84 108.79 78.41 Z" />
</g>
<g id="#916331ff">
<path fill="#916331" opacity="1.00" d=" M 284.67 75.07 C 291.00 74.94 297.29 74.14 303.61 73.92 C 303.25 76.67 303.06 79.44 302.98 82.21 C 298.47 81.38 293.80 81.14 289.44 79.68 C 287.59 78.44 286.18 76.68 284.67 75.07 Z" />
</g>
<g id="#ac8040ff">
<path fill="#ac8040" opacity="1.00" d=" M 303.61 73.92 L 304.80 74.11 L 306.00 74.38 C 312.92 75.83 319.86 77.25 326.84 78.39 L 328.12 78.59 C 329.39 78.83 330.66 79.11 331.93 79.39 C 331.93 81.85 331.93 84.32 331.92 86.79 C 322.27 85.28 312.63 83.72 302.98 82.21 C 303.06 79.44 303.25 76.67 303.61 73.92 Z" />
</g>
<g id="#7b5234ff">
<path fill="#7b5234" opacity="1.00" d=" M 214.83 74.88 C 215.40 74.97 216.55 75.15 217.13 75.24 L 217.19 75.67 C 216.83 91.65 217.06 107.64 217.05 123.62 C 216.20 123.78 214.49 124.11 213.64 124.28 C 213.58 119.99 213.57 115.70 213.98 111.44 C 214.48 108.66 214.90 105.85 214.85 103.02 C 214.78 93.64 214.72 84.26 214.83 74.88 Z" />
</g>
<g id="#f9e2c0ff">
<path fill="#f9e2c0" opacity="1.00" d=" M 217.19 75.67 C 218.42 81.71 217.74 87.88 217.89 93.98 C 217.86 103.81 218.26 113.65 217.68 123.47 L 217.05 123.62 C 217.06 107.64 216.83 91.65 217.19 75.67 Z" />
</g>
<g id="#916431ff">
<path fill="#916431" opacity="1.00" d=" M 74.89 103.85 C 86.18 95.35 97.49 86.88 108.79 78.41 C 109.06 80.84 109.33 83.27 109.63 85.70 C 109.39 85.86 108.90 86.20 108.65 86.36 C 106.02 88.17 103.35 89.92 100.68 91.67 C 100.44 91.83 99.96 92.13 99.72 92.29 C 97.29 93.84 94.87 95.39 92.46 96.97 C 92.49 98.69 92.52 100.42 92.55 102.14 C 93.34 102.13 94.93 102.12 95.73 102.11 C 97.12 102.33 98.51 102.61 99.90 102.89 C 99.93 104.50 99.97 106.11 100.01 107.72 C 98.14 108.11 96.29 108.53 94.42 108.89 C 93.93 108.91 92.94 108.97 92.44 108.99 C 92.22 109.00 91.77 109.02 91.55 109.03 C 89.58 109.08 87.62 109.11 85.65 109.09 L 85.14 109.08 C 81.47 108.88 77.81 108.79 74.14 108.77 C 74.28 107.15 73.15 104.91 74.89 103.85 M 83.55 102.72 C 83.47 102.90 83.32 103.25 83.24 103.42 C 85.89 102.37 88.80 102.77 91.57 102.40 C 91.50 100.82 91.44 99.25 91.37 97.67 C 88.77 99.36 86.20 101.11 83.55 102.72 Z" />
</g>
<g id="#502d1aff">
<path fill="#502d1a" opacity="1.00" d=" M 282.65 80.45 C 304.77 84.08 326.89 87.80 349.02 91.41 C 353.21 92.16 357.47 92.65 361.56 93.90 C 333.29 89.78 304.89 86.50 276.56 82.81 C 278.62 82.12 280.63 81.28 282.65 80.45 Z" />
<path fill="#502d1a" opacity="1.00" d=" M 243.90 113.34 L 244.87 114.57 C 245.06 117.30 245.10 120.03 245.19 122.77 C 249.79 122.97 254.39 123.35 258.97 123.85 C 259.81 123.93 261.50 124.09 262.35 124.17 C 262.23 120.57 262.27 116.96 262.81 113.39 C 263.06 117.21 263.03 121.05 263.31 124.88 C 256.89 124.68 250.49 124.01 244.07 123.87 C 243.98 120.36 243.85 116.85 243.90 113.34 Z" />
<path fill="#502d1a" opacity="1.00" d=" M 85.41 133.83 C 85.83 135.30 86.26 136.77 86.72 138.23 C 86.60 138.77 86.35 139.86 86.23 140.40 L 88.29 139.63 C 88.24 139.98 88.14 140.69 88.09 141.05 C 85.71 141.60 83.36 142.29 81.02 143.02 C 80.40 141.81 79.73 140.63 79.02 139.48 C 79.06 138.71 79.15 137.18 79.19 136.41 L 80.60 136.65 C 80.50 137.40 80.30 138.92 80.20 139.67 C 81.53 140.77 82.98 141.71 84.79 141.22 C 84.71 140.80 84.55 139.97 84.47 139.56 C 84.97 137.69 85.23 135.76 85.41 133.83 Z" />
</g>
<g id="#57301bff">
<path fill="#57301b" opacity="1.00" d=" M 108.65 86.36 C 108.90 86.20 109.39 85.86 109.63 85.70 C 109.70 90.76 109.67 95.83 109.77 100.89 C 111.34 100.72 112.91 100.53 114.49 100.39 C 114.86 100.64 115.59 101.14 115.96 101.39 C 113.90 101.50 111.83 101.58 109.77 101.67 C 109.77 103.77 109.78 105.87 109.79 107.98 C 111.92 108.30 114.06 108.67 116.21 108.81 C 115.66 116.54 115.93 124.30 115.83 132.04 C 107.31 134.93 98.63 137.28 90.17 140.30 C 89.54 139.87 88.92 139.43 88.30 139.00 L 90.10 139.01 C 89.74 138.31 89.02 136.91 88.66 136.21 C 88.30 136.43 87.56 136.86 87.19 137.08 C 87.10 136.35 86.91 134.89 86.81 134.16 C 85.50 132.73 83.53 133.45 81.98 133.99 C 83.14 135.52 84.05 137.21 84.48 139.10 C 83.34 137.72 82.24 136.33 81.09 134.96 C 80.45 135.30 79.17 135.96 78.52 136.30 C 79.79 133.25 83.37 132.37 85.53 130.09 C 84.69 123.12 85.21 116.08 85.14 109.08 L 85.65 109.09 C 85.78 115.48 85.30 121.89 85.89 128.26 C 86.26 128.45 87.01 128.85 87.38 129.05 C 87.08 130.27 85.81 131.78 87.23 132.71 C 87.62 132.68 88.40 132.62 88.79 132.58 C 88.54 134.26 89.11 135.80 89.98 137.22 C 90.11 136.14 90.37 133.98 90.50 132.90 C 90.59 134.41 90.68 135.93 90.77 137.44 C 91.99 135.58 93.19 133.71 94.38 131.83 C 93.58 130.86 92.77 129.89 91.96 128.92 C 91.57 129.08 90.79 129.39 90.40 129.55 C 89.78 129.41 88.54 129.12 87.92 128.97 L 88.17 128.50 C 89.29 127.59 90.45 126.72 91.60 125.84 C 91.54 120.24 91.57 114.63 91.55 109.03 C 91.77 109.02 92.22 109.00 92.44 108.99 C 92.40 114.43 92.41 119.86 92.39 125.30 C 94.86 123.50 97.32 121.70 99.80 119.91 C 99.78 116.20 99.78 112.49 99.74 108.78 C 97.96 108.81 96.19 108.84 94.42 108.89 C 96.29 108.53 98.14 108.11 100.01 107.72 C 99.97 106.11 99.93 104.50 99.90 102.89 C 98.51 102.61 97.12 102.33 95.73 102.11 C 96.72 102.06 98.70 101.96 99.69 101.91 C 99.79 98.70 99.78 95.49 99.72 92.29 C 99.96 92.13 100.44 91.83 100.68 91.67 C 100.67 95.01 100.67 98.35 100.65 101.69 C 102.14 101.55 103.64 101.41 105.13 101.28 C 103.72 101.53 102.31 101.84 100.91 102.13 C 100.81 104.25 100.72 106.37 100.64 108.49 C 103.46 108.40 106.28 108.34 109.10 108.31 C 109.05 106.22 109.00 104.13 108.96 102.04 C 107.85 101.76 106.73 101.49 105.62 101.24 C 106.42 101.15 108.02 100.98 108.82 100.90 C 108.83 96.05 108.90 91.20 108.65 86.36 M 100.70 108.97 C 100.65 112.40 100.65 115.82 100.71 119.25 C 103.38 117.26 106.04 115.28 108.78 113.40 C 108.81 111.90 108.83 110.41 108.86 108.91 C 106.14 108.90 103.42 108.92 100.70 108.97 M 109.77 108.78 C 109.77 109.74 109.77 111.66 109.77 112.62 C 111.32 111.48 112.82 110.28 114.29 109.05 C 112.78 108.94 111.28 108.85 109.77 108.78 M 101.16 120.51 C 102.70 121.66 104.23 122.83 105.73 124.03 C 108.27 120.61 110.28 116.83 112.77 113.38 L 112.58 112.94 C 108.79 115.49 105.02 118.08 101.16 120.51 M 107.42 124.62 C 109.45 126.22 111.54 127.74 113.69 129.18 C 113.91 124.06 114.07 118.94 114.06 113.82 C 111.75 117.36 109.72 121.07 107.42 124.62 M 91.80 127.41 C 92.78 128.27 93.74 129.14 94.70 130.01 C 95.77 127.94 96.79 125.82 98.24 123.98 C 97.95 126.49 96.57 128.64 95.48 130.86 C 96.64 132.06 97.80 133.26 98.98 134.45 C 98.88 130.57 99.50 126.54 98.01 122.85 C 95.92 124.35 93.83 125.84 91.80 127.41 M 100.39 122.73 C 100.28 126.53 100.13 130.32 100.08 134.13 C 101.89 131.39 103.48 128.51 105.17 125.69 C 103.58 124.68 101.98 123.71 100.39 122.73 M 106.04 126.76 C 104.36 129.53 102.72 132.33 101.23 135.21 C 104.86 133.86 108.48 132.48 112.15 131.22 C 110.13 129.70 108.10 128.22 106.04 126.76 M 94.57 132.43 C 93.71 134.42 92.81 136.39 91.88 138.34 C 93.91 137.76 95.93 137.17 97.98 136.64 C 97.27 134.91 96.01 133.57 94.57 132.43 Z" />
</g>
<g id="#fffffcff">
<path fill="#fffffc" opacity="1.00" d=" M 109.63 85.70 C 130.97 87.00 152.28 88.69 173.61 90.08 C 167.52 92.59 161.65 96.26 154.90 96.57 C 141.43 97.79 127.95 98.99 114.49 100.39 C 112.91 100.53 111.34 100.72 109.77 100.89 C 109.67 95.83 109.70 90.76 109.63 85.70 Z" />
<path fill="#fffffc" opacity="1.00" d=" M 243.53 90.19 C 246.30 90.52 249.07 90.88 251.86 91.18 C 253.56 91.40 255.25 91.67 256.95 91.93 C 257.91 102.55 258.47 113.20 258.97 123.85 C 254.39 123.35 249.79 122.97 245.19 122.77 C 245.10 120.03 245.06 117.30 244.87 114.57 C 244.31 106.45 244.05 98.32 243.53 90.19 Z" />
<path fill="#fffffc" opacity="1.00" d=" M 172.95 152.92 C 176.50 152.34 180.14 152.59 183.69 151.98 L 183.93 152.78 C 184.05 160.13 183.95 167.48 183.97 174.83 C 179.98 174.80 175.99 174.81 172.01 174.85 C 172.35 167.55 171.17 160.09 172.95 152.92 Z" />
</g>
<g id="#fffefbff">
<path fill="#fffefb" opacity="1.00" d=" M 100.68 91.67 C 103.35 89.92 106.02 88.17 108.65 86.36 C 108.90 91.20 108.83 96.05 108.82 100.90 C 108.02 100.98 106.42 101.15 105.62 101.24 L 105.13 101.28 C 103.64 101.41 102.14 101.55 100.65 101.69 C 100.67 98.35 100.67 95.01 100.68 91.67 Z" />
</g>
<g id="#7a5836ff">
<path fill="#7a5836" opacity="1.00" d=" M 242.40 87.18 C 248.26 87.89 254.13 88.51 259.99 89.30 C 257.53 90.78 254.70 91.30 251.86 91.18 C 249.07 90.88 246.30 90.52 243.53 90.19 C 244.05 98.32 244.31 106.45 244.87 114.57 L 243.90 113.34 C 242.38 104.76 243.30 95.87 242.40 87.18 Z" />
<path fill="#7a5836" opacity="1.00" d=" M 335.86 98.42 C 338.99 98.10 342.19 98.90 345.15 99.92 C 341.41 101.03 337.49 101.25 333.62 101.13 L 332.61 101.05 C 333.19 109.78 333.94 118.50 334.60 127.22 C 337.48 127.31 340.37 127.37 343.26 127.21 C 343.88 127.17 345.12 127.10 345.74 127.06 C 346.09 125.78 346.42 124.50 346.75 123.22 C 346.91 124.94 347.05 126.65 347.17 128.38 C 342.78 128.34 338.40 128.18 334.02 127.98 C 333.25 118.23 332.22 108.49 331.80 98.72 C 333.13 99.25 334.54 98.74 335.86 98.42 Z" />
</g>
<g id="#a78047ff">
<path fill="#a78047" opacity="1.00" d=" M 259.99 89.30 C 262.27 88.46 262.01 92.11 261.83 93.49 C 260.97 99.80 260.84 106.34 262.74 112.48 L 262.86 112.95 L 262.81 113.39 C 262.27 116.96 262.23 120.57 262.35 124.17 C 261.50 124.09 259.81 123.93 258.97 123.85 C 258.47 113.20 257.91 102.55 256.95 91.93 C 255.25 91.67 253.56 91.40 251.86 91.18 C 254.70 91.30 257.53 90.78 259.99 89.30 Z" />
</g>
<g id="#6c4a33ff">
<path fill="#6c4a33" opacity="1.00" d=" M 282.43 92.13 C 287.90 92.84 293.38 93.60 298.87 94.17 C 299.00 96.75 299.21 99.33 299.09 101.92 C 298.87 103.32 298.62 104.71 298.36 106.10 C 298.19 102.40 298.12 98.69 298.08 94.99 C 296.95 95.28 295.82 95.56 294.68 95.83 C 290.87 95.97 287.09 95.32 283.31 94.89 C 284.04 104.60 284.14 114.33 285.11 124.02 C 288.99 124.53 292.88 125.03 296.80 124.98 C 297.73 124.98 298.66 124.97 299.59 124.96 C 299.12 121.16 299.08 117.30 299.83 113.52 C 300.15 117.68 300.02 121.86 300.47 126.02 C 294.94 126.25 289.43 125.75 283.94 125.18 C 283.11 114.18 282.95 103.15 282.43 92.13 Z" />
</g>
<g id="#fffef6ff">
<path fill="#fffef6" opacity="1.00" d=" M 92.46 96.97 C 94.87 95.39 97.29 93.84 99.72 92.29 C 99.78 95.49 99.79 98.70 99.69 101.91 C 98.70 101.96 96.72 102.06 95.73 102.11 C 94.93 102.12 93.34 102.13 92.55 102.14 C 92.52 100.42 92.49 98.69 92.46 96.97 Z" />
</g>
<g id="#8a633cff">
<path fill="#8a633c" opacity="1.00" d=" M 307.23 94.49 C 311.84 95.31 316.47 96.01 321.06 96.94 C 321.09 98.62 321.17 100.30 321.09 101.97 C 320.93 102.85 320.61 104.60 320.46 105.48 C 320.11 102.98 319.84 100.47 319.63 97.96 C 318.75 98.43 317.89 98.90 317.02 99.36 C 314.03 99.04 311.05 98.71 308.07 98.39 C 309.25 107.55 308.71 116.83 309.99 125.98 C 312.91 125.99 315.82 126.00 318.73 125.94 C 320.12 125.90 321.51 125.84 322.91 125.78 L 322.96 127.05 C 318.39 127.12 313.82 127.00 309.26 126.75 C 308.13 116.02 308.01 105.24 307.23 94.49 Z" />
</g>
<g id="#a37d4bff">
<path fill="#a37d4b" opacity="1.00" d=" M 294.68 95.83 C 295.82 95.56 296.95 95.28 298.08 94.99 C 298.12 98.69 298.19 102.40 298.36 106.10 C 298.62 104.71 298.87 103.32 299.09 101.92 C 299.55 105.76 300.21 109.65 299.83 113.52 C 299.08 117.30 299.12 121.16 299.59 124.96 C 298.66 124.97 297.73 124.98 296.80 124.98 C 295.92 115.28 296.01 105.49 294.68 95.83 Z" />
<path fill="#a37d4b" opacity="1.00" d=" M 211.87 294.80 C 221.98 294.76 232.09 294.75 242.20 294.78 C 235.47 294.61 228.77 295.93 222.05 295.12 C 218.66 294.71 215.26 294.95 211.87 294.80 Z" />
</g>
<g id="#fefef2ff">
<path fill="#fefef2" opacity="1.00" d=" M 83.55 102.72 C 86.20 101.11 88.77 99.36 91.37 97.67 C 91.44 99.25 91.50 100.82 91.57 102.40 C 88.80 102.77 85.89 102.37 83.24 103.42 C 83.32 103.25 83.47 102.90 83.55 102.72 Z" />
</g>
<g id="#a57f4aff">
<path fill="#a57f4a" opacity="1.00" d=" M 317.02 99.36 C 317.89 98.90 318.75 98.43 319.63 97.96 C 319.84 100.47 320.11 102.98 320.46 105.48 C 320.61 104.60 320.93 102.85 321.09 101.97 C 322.47 109.84 321.75 117.88 322.91 125.78 C 321.51 125.84 320.12 125.90 318.73 125.94 C 318.04 117.09 317.75 108.21 317.02 99.36 Z" />
</g>
<g id="#623d1cff">
<path fill="#623d1c" opacity="1.00" d=" M 331.81 98.11 C 333.21 97.25 334.55 97.35 335.86 98.42 C 334.54 98.74 333.13 99.25 331.80 98.72 L 331.81 98.11 Z" />
</g>
<g id="#fefefbff">
<path fill="#fefefb" opacity="1.00" d=" M 308.07 98.39 C 311.05 98.71 314.03 99.04 317.02 99.36 C 317.75 108.21 318.04 117.09 318.73 125.94 C 315.82 126.00 312.91 125.99 309.99 125.98 C 308.71 116.83 309.25 107.55 308.07 98.39 Z" />
<path fill="#fefefb" opacity="1.00" d=" M 100.70 108.97 C 103.42 108.92 106.14 108.90 108.86 108.91 C 108.83 110.41 108.81 111.90 108.78 113.40 C 106.04 115.28 103.38 117.26 100.71 119.25 C 100.65 115.82 100.65 112.40 100.70 108.97 Z" />
<path fill="#fefefb" opacity="1.00" d=" M 348.52 233.73 C 349.74 235.79 351.07 237.80 351.96 240.04 C 352.54 242.77 348.25 245.22 346.63 242.49 C 344.69 239.68 347.64 236.45 348.52 233.73 Z" />
</g>
<g id="#a68048ff">
<path fill="#a68048" opacity="1.00" d=" M 333.62 101.13 C 337.49 101.25 341.41 101.03 345.15 99.92 C 345.06 107.71 346.41 115.45 346.75 123.22 C 346.42 124.50 346.09 125.78 345.74 127.06 C 345.12 127.10 343.88 127.17 343.26 127.21 C 342.38 118.86 341.95 110.47 340.92 102.14 C 338.49 101.79 336.06 101.40 333.62 101.13 Z" />
</g>
<g id="#fffffbff">
<path fill="#fffffb" opacity="1.00" d=" M 332.61 101.05 L 333.62 101.13 C 336.06 101.40 338.49 101.79 340.92 102.14 C 341.95 110.47 342.38 118.86 343.26 127.21 C 340.37 127.37 337.48 127.31 334.60 127.22 C 333.94 118.50 333.19 109.78 332.61 101.05 Z" />
<path fill="#fffffb" opacity="1.00" d=" M 92.44 108.99 C 92.94 108.97 93.93 108.91 94.42 108.89 C 96.19 108.84 97.96 108.81 99.74 108.78 C 99.78 112.49 99.78 116.20 99.80 119.91 C 97.32 121.70 94.86 123.50 92.39 125.30 C 92.41 119.86 92.40 114.43 92.44 108.99 Z" />
</g>
<g id="#5a331bff">
<path fill="#5a331b" opacity="1.00" d=" M 117.77 108.41 C 122.08 107.14 126.60 107.92 131.01 108.08 C 140.11 108.48 149.21 109.03 158.32 109.33 C 176.74 110.25 195.16 111.31 213.62 110.97 L 213.46 112.09 C 207.50 112.19 201.46 111.50 195.59 112.89 C 191.55 113.15 187.49 113.03 183.45 112.91 C 185.39 115.43 187.40 117.91 189.40 120.38 C 192.02 118.03 194.55 115.59 197.24 113.33 L 197.70 114.78 C 195.66 117.38 193.32 119.72 191.05 122.11 C 192.69 123.93 194.34 125.75 195.93 127.61 L 195.59 129.86 C 193.80 127.58 191.80 125.48 189.86 123.33 C 187.55 125.77 185.22 128.19 182.92 130.63 C 187.41 130.65 191.91 130.64 196.38 131.08 C 198.09 131.52 199.80 131.94 201.52 132.39 L 202.65 132.71 C 174.44 132.27 146.23 132.00 118.02 131.33 C 117.94 123.69 118.19 116.04 117.77 108.41 M 121.01 110.14 C 124.28 112.58 126.96 116.19 130.60 117.92 C 133.30 115.65 135.72 113.06 138.19 110.55 C 132.46 110.45 126.74 110.16 121.01 110.14 M 143.20 111.05 C 145.99 113.56 148.63 116.24 151.21 118.97 C 153.92 116.60 156.75 114.37 159.45 111.99 C 154.04 111.54 148.63 111.05 143.20 111.05 M 163.96 112.00 C 166.38 114.41 168.80 116.83 171.16 119.31 C 173.59 117.30 175.96 115.22 178.30 113.10 C 173.51 112.77 168.75 112.11 163.96 112.00 M 119.83 111.84 C 119.93 117.17 120.18 122.50 120.35 127.83 C 122.97 125.31 125.53 122.72 128.23 120.28 C 125.59 117.31 122.78 114.50 119.83 111.84 M 131.75 119.97 C 134.33 122.92 137.26 125.52 140.01 128.31 C 139.99 123.08 139.73 117.86 139.75 112.63 C 137.02 115.00 134.20 117.30 131.75 119.97 M 141.98 112.69 C 142.03 117.80 141.95 122.91 142.15 128.02 C 144.71 125.51 147.26 122.99 149.90 120.56 C 147.28 117.91 144.64 115.29 141.98 112.69 M 152.79 120.62 C 155.37 123.28 158.10 125.78 160.86 128.24 C 160.66 123.43 160.60 118.60 160.58 113.78 C 157.93 116.00 155.39 118.35 152.79 120.62 M 162.61 113.42 C 162.65 118.29 162.75 123.16 162.85 128.04 C 165.17 125.93 167.41 123.73 169.52 121.40 C 167.17 118.78 164.93 116.07 162.61 113.42 M 172.92 121.50 C 175.20 123.96 177.36 126.51 179.56 129.03 C 179.62 124.03 179.81 119.03 179.97 114.03 C 177.58 116.48 175.25 118.99 172.92 121.50 M 181.66 114.84 C 181.98 119.43 182.05 124.03 182.06 128.64 C 184.16 126.44 186.20 124.20 188.25 121.96 C 186.07 119.57 183.88 117.19 181.66 114.84 M 122.21 129.38 C 127.55 129.38 132.88 129.67 138.22 129.95 C 135.63 127.08 132.91 124.33 130.15 121.62 C 127.48 124.18 124.80 126.73 122.21 129.38 M 151.38 122.13 C 148.89 124.76 146.33 127.34 143.80 129.95 C 148.82 130.08 153.84 130.15 158.86 130.26 C 156.37 127.54 153.85 124.86 151.38 122.13 M 163.94 129.94 C 168.68 130.23 173.43 130.43 178.17 130.78 C 175.70 128.17 173.18 125.62 170.71 123.02 C 168.49 125.36 166.21 127.65 163.94 129.94 Z" />
</g>
<g id="#fefffbff">
<path fill="#fefffb" opacity="1.00" d=" M 85.65 109.09 C 87.62 109.11 89.58 109.08 91.55 109.03 C 91.57 114.63 91.54 120.24 91.60 125.84 C 90.45 126.72 89.29 127.59 88.17 128.50 L 87.92 128.97 L 87.38 129.05 C 87.01 128.85 86.26 128.45 85.89 128.26 C 85.30 121.89 85.78 115.48 85.65 109.09 Z" />
</g>
<g id="#fffcf9ff">
<path fill="#fffcf9" opacity="1.00" d=" M 121.01 110.14 C 126.74 110.16 132.46 110.45 138.19 110.55 C 135.72 113.06 133.30 115.65 130.60 117.92 C 126.96 116.19 124.28 112.58 121.01 110.14 Z" />
</g>
<g id="#fffefdff">
<path fill="#fffefd" opacity="1.00" d=" M 143.20 111.05 C 148.63 111.05 154.04 111.54 159.45 111.99 C 156.75 114.37 153.92 116.60 151.21 118.97 C 148.63 116.24 145.99 113.56 143.20 111.05 Z" />
</g>
<g id="#fefefdff">
<path fill="#fefefd" opacity="1.00" d=" M 163.96 112.00 C 168.75 112.11 173.51 112.77 178.30 113.10 C 175.96 115.22 173.59 117.30 171.16 119.31 C 168.80 116.83 166.38 114.41 163.96 112.00 Z" />
</g>
<g id="#5b351eff">
<path fill="#5b351e" opacity="1.00" d=" M 195.59 112.89 C 201.46 111.50 207.50 112.19 213.46 112.09 C 213.24 116.06 213.22 120.03 213.28 124.00 C 211.58 124.37 209.88 124.74 208.18 125.09 C 206.13 127.50 204.21 130.01 202.41 132.62 L 201.52 132.39 C 199.80 131.94 198.09 131.52 196.38 131.08 C 196.18 130.78 195.79 130.17 195.59 129.86 L 195.93 127.61 C 196.44 128.17 197.44 129.29 197.95 129.84 C 197.94 124.82 198.41 119.76 197.70 114.78 L 197.24 113.33 C 196.83 113.22 196.00 113.00 195.59 112.89 M 200.73 113.97 C 202.77 116.19 204.92 118.32 207.07 120.44 C 208.78 118.61 210.48 116.77 212.13 114.88 C 208.33 114.54 204.53 114.21 200.73 113.97 M 199.75 115.32 C 199.84 119.94 199.99 124.56 200.09 129.19 C 201.89 126.91 203.78 124.72 205.76 122.61 C 203.73 120.20 201.81 117.71 199.75 115.32 Z" />
<path fill="#5b351e" opacity="1.00" d=" M 172.49 247.56 C 176.42 246.46 180.44 250.14 180.40 254.06 C 180.43 257.04 180.06 260.09 178.98 262.88 C 177.80 265.92 174.45 268.52 171.09 267.57 C 167.33 266.78 165.27 262.66 165.89 259.05 C 166.29 254.68 167.36 248.62 172.49 247.56 M 173.42 249.30 C 173.11 249.53 172.49 250.01 172.18 250.25 C 170.55 254.29 170.09 258.74 169.70 263.05 C 169.24 265.75 173.47 267.17 174.28 264.30 C 175.70 260.00 176.40 255.43 176.59 250.92 C 175.90 249.91 174.76 248.84 173.42 249.30 Z" />
</g>
<g id="#fefcf8ff">
<path fill="#fefcf8" opacity="1.00" d=" M 101.16 120.51 C 105.02 118.08 108.79 115.49 112.58 112.94 L 112.77 113.38 C 110.28 116.83 108.27 120.61 105.73 124.03 C 104.23 122.83 102.70 121.66 101.16 120.51 Z" />
</g>
<g id="#fdfef9ff">
<path fill="#fdfef9" opacity="1.00" d=" M 119.83 111.84 C 122.78 114.50 125.59 117.31 128.23 120.28 C 125.53 122.72 122.97 125.31 120.35 127.83 C 120.18 122.50 119.93 117.17 119.83 111.84 Z" />
</g>
<g id="#fffdf9ff">
<path fill="#fffdf9" opacity="1.00" d=" M 131.75 119.97 C 134.20 117.30 137.02 115.00 139.75 112.63 C 139.73 117.86 139.99 123.08 140.01 128.31 C 137.26 125.52 134.33 122.92 131.75 119.97 Z" />
</g>
<g id="#fffcfaff">
<path fill="#fffcfa" opacity="1.00" d=" M 141.98 112.69 C 144.64 115.29 147.28 117.91 149.90 120.56 C 147.26 122.99 144.71 125.51 142.15 128.02 C 141.95 122.91 142.03 117.80 141.98 112.69 Z" />
</g>
<g id="#fffefcff">
<path fill="#fffefc" opacity="1.00" d=" M 183.45 112.91 C 187.49 113.03 191.55 113.15 195.59 112.89 C 196.00 113.00 196.83 113.22 197.24 113.33 C 194.55 115.59 192.02 118.03 189.40 120.38 C 187.40 117.91 185.39 115.43 183.45 112.91 Z" />
<path fill="#fffefc" opacity="1.00" d=" M 333.18 154.18 C 335.71 150.99 340.62 153.19 344.08 151.93 C 344.80 159.62 344.21 167.36 344.47 175.07 C 340.50 174.68 336.50 174.79 332.52 174.88 C 332.71 167.99 331.73 160.95 333.18 154.18 Z" />
</g>
<g id="#fffef9ff">
<path fill="#fffef9" opacity="1.00" d=" M 152.79 120.62 C 155.39 118.35 157.93 116.00 160.58 113.78 C 160.60 118.60 160.66 123.43 160.86 128.24 C 158.10 125.78 155.37 123.28 152.79 120.62 Z" />
<path fill="#fffef9" opacity="1.00" d=" M 107.42 124.62 C 109.72 121.07 111.75 117.36 114.06 113.82 C 114.07 118.94 113.91 124.06 113.69 129.18 C 111.54 127.74 109.45 126.22 107.42 124.62 Z" />
<path fill="#fffef9" opacity="1.00" d=" M 382.21 209.55 C 383.97 211.35 385.99 212.96 387.33 215.13 C 388.34 217.40 385.45 220.14 383.20 218.90 C 380.05 216.68 382.15 212.62 382.21 209.55 Z" />
</g>
<g id="#fffffaff">
<path fill="#fffffa" opacity="1.00" d=" M 200.73 113.97 C 204.53 114.21 208.33 114.54 212.13 114.88 C 210.48 116.77 208.78 118.61 207.07 120.44 C 204.92 118.32 202.77 116.19 200.73 113.97 Z" />
</g>
<g id="#fefcf7ff">
<path fill="#fefcf7" opacity="1.00" d=" M 162.61 113.42 C 164.93 116.07 167.17 118.78 169.52 121.40 C 167.41 123.73 165.17 125.93 162.85 128.04 C 162.75 123.16 162.65 118.29 162.61 113.42 Z" />
</g>
<g id="#fffcf7ff">
<path fill="#fffcf7" opacity="1.00" d=" M 172.92 121.50 C 175.25 118.99 177.58 116.48 179.97 114.03 C 179.81 119.03 179.62 124.03 179.56 129.03 C 177.36 126.51 175.20 123.96 172.92 121.50 Z" />
</g>
<g id="#fffdfaff">
<path fill="#fffdfa" opacity="1.00" d=" M 197.70 114.78 C 198.41 119.76 197.94 124.82 197.95 129.84 C 197.44 129.29 196.44 128.17 195.93 127.61 C 194.34 125.75 192.69 123.93 191.05 122.11 C 193.32 119.72 195.66 117.38 197.70 114.78 Z" />
</g>
<g id="#fffefaff">
<path fill="#fffefa" opacity="1.00" d=" M 181.66 114.84 C 183.88 117.19 186.07 119.57 188.25 121.96 C 186.20 124.20 184.16 126.44 182.06 128.64 C 182.05 124.03 181.98 119.43 181.66 114.84 Z" />
</g>
<g id="#fffcf8ff">
<path fill="#fffcf8" opacity="1.00" d=" M 199.75 115.32 C 201.81 117.71 203.73 120.20 205.76 122.61 C 203.78 124.72 201.89 126.91 200.09 129.19 C 199.99 124.56 199.84 119.94 199.75 115.32 Z" />
</g>
<g id="#fffcfbff">
<path fill="#fffcfb" opacity="1.00" d=" M 122.21 129.38 C 124.80 126.73 127.48 124.18 130.15 121.62 C 132.91 124.33 135.63 127.08 138.22 129.95 C 132.88 129.67 127.55 129.38 122.21 129.38 Z" />
</g>
<g id="#fffdf7ff">
<path fill="#fffdf7" opacity="1.00" d=" M 151.38 122.13 C 153.85 124.86 156.37 127.54 158.86 130.26 C 153.84 130.15 148.82 130.08 143.80 129.95 C 146.33 127.34 148.89 124.76 151.38 122.13 Z" />
</g>
<g id="#fffcf6ff">
<path fill="#fffcf6" opacity="1.00" d=" M 100.39 122.73 C 101.98 123.71 103.58 124.68 105.17 125.69 C 103.48 128.51 101.89 131.39 100.08 134.13 C 100.13 130.32 100.28 126.53 100.39 122.73 Z" />
<path fill="#fffcf6" opacity="1.00" d=" M 163.94 129.94 C 166.21 127.65 168.49 125.36 170.71 123.02 C 173.18 125.62 175.70 128.17 178.17 130.78 C 173.43 130.43 168.68 130.23 163.94 129.94 Z" />
</g>
<g id="#fefef9ff">
<path fill="#fefef9" opacity="1.00" d=" M 182.92 130.63 C 185.22 128.19 187.55 125.77 189.86 123.33 C 191.80 125.48 193.80 127.58 195.59 129.86 C 195.79 130.17 196.18 130.78 196.38 131.08 C 191.91 130.64 187.41 130.65 182.92 130.63 Z" />
</g>
<g id="#fffbf6ff">
<path fill="#fffbf6" opacity="1.00" d=" M 106.04 126.76 C 108.10 128.22 110.13 129.70 112.15 131.22 C 108.48 132.48 104.86 133.86 101.23 135.21 C 102.72 132.33 104.36 129.53 106.04 126.76 Z" />
</g>
<g id="#cdb9aeff">
<path fill="#cdb9ae" opacity="1.00" d=" M 87.38 129.05 L 87.92 128.97 C 88.54 129.12 89.78 129.41 90.40 129.55 C 90.79 129.39 91.57 129.08 91.96 128.92 C 92.77 129.89 93.58 130.86 94.38 131.83 C 93.19 133.71 91.99 135.58 90.77 137.44 C 90.68 135.93 90.59 134.41 90.50 132.90 C 90.37 133.98 90.11 136.14 89.98 137.22 C 89.11 135.80 88.54 134.26 88.79 132.58 C 88.40 132.62 87.62 132.68 87.23 132.71 C 85.81 131.78 87.08 130.27 87.38 129.05 Z" />
</g>
<g id="#f9ede0ff">
<path fill="#f9ede0" opacity="1.00" d=" M 94.57 132.43 C 96.01 133.57 97.27 134.91 97.98 136.64 C 95.93 137.17 93.91 137.76 91.88 138.34 C 92.81 136.39 93.71 134.42 94.57 132.43 Z" />
</g>
<g id="#593822ff">
<path fill="#593822" opacity="1.00" d=" M 115.88 135.86 C 144.34 135.58 172.80 135.38 201.26 135.19 C 200.29 135.87 199.26 136.58 198.00 136.38 C 170.66 136.59 143.30 136.96 115.97 136.95 L 115.88 135.86 Z" />
<path fill="#593822" opacity="1.00" d=" M 316.88 152.51 C 318.29 151.17 319.83 149.57 322.00 149.94 C 334.09 150.17 346.21 148.76 358.27 150.03 C 357.92 150.48 357.20 151.39 356.84 151.85 L 356.29 151.73 C 352.27 150.69 348.01 150.33 344.08 151.93 C 340.62 153.19 335.71 150.99 333.18 154.18 C 331.73 160.95 332.71 167.99 332.52 174.88 C 336.50 174.79 340.50 174.68 344.47 175.07 C 340.27 176.75 335.72 176.08 331.36 175.68 C 330.78 168.97 331.17 162.23 330.86 155.51 C 330.29 155.46 329.15 155.35 328.58 155.29 C 329.09 154.51 329.60 153.73 330.12 152.94 C 326.87 152.41 323.85 153.56 320.96 154.88 C 318.94 156.01 317.89 153.79 316.88 152.51 Z" />
</g>
<g id="#8e6434ff">
<path fill="#8e6434" opacity="1.00" d=" M 80.96 145.89 C 92.59 142.52 104.17 138.93 115.88 135.86 L 115.97 136.95 C 116.00 145.34 116.36 153.77 115.68 162.15 C 114.07 154.61 112.86 146.98 111.00 139.51 L 110.21 138.82 C 100.84 140.83 91.63 143.59 82.28 145.66 L 80.96 145.89 Z" />
</g>
<g id="#5f361eff">
<path fill="#5f361e" opacity="1.00" d=" M 226.47 154.08 C 229.43 151.98 232.39 149.88 235.51 148.02 C 235.91 152.34 236.32 156.67 236.90 160.97 C 237.32 162.33 236.51 163.55 235.77 164.59 C 233.56 167.66 230.68 170.15 227.83 172.61 C 231.71 176.92 236.21 181.11 237.81 186.90 C 240.29 194.05 239.50 201.68 239.12 209.08 C 238.80 213.40 243.37 215.80 243.55 219.94 C 239.07 214.84 234.23 209.59 232.28 202.91 C 230.31 197.17 228.96 191.19 226.46 185.63 C 225.13 182.83 223.21 179.73 219.96 179.01 C 217.73 178.60 216.85 181.19 216.95 182.97 C 216.79 190.48 217.04 198.01 216.82 205.53 C 213.58 207.56 210.40 209.68 207.22 211.80 C 207.12 192.23 207.50 172.63 206.96 153.06 C 206.08 152.15 205.21 151.22 204.36 150.28 C 208.56 150.00 212.77 149.92 216.97 149.73 C 216.87 158.35 216.90 166.97 216.94 175.59 C 220.59 173.02 224.52 170.81 227.93 167.94 C 230.86 163.60 228.45 158.28 226.47 154.08 Z" />
<path fill="#5f361e" opacity="1.00" d=" M 250.74 149.37 C 255.91 149.24 261.08 149.24 266.25 149.10 C 264.04 157.54 259.16 165.22 258.67 174.10 C 257.37 184.41 262.20 195.26 271.02 200.81 C 272.51 201.52 274.37 200.49 274.95 199.04 C 275.32 196.79 273.93 194.86 273.16 192.87 C 269.82 185.43 270.77 176.84 273.39 169.33 C 275.10 164.29 277.97 159.77 280.28 155.00 C 277.19 152.53 274.09 155.33 271.35 156.86 C 271.19 154.43 271.07 151.99 270.93 149.56 C 276.52 149.65 282.11 149.78 287.70 149.79 C 283.67 158.35 279.31 167.26 279.50 176.96 C 279.61 187.42 286.51 196.91 295.44 201.89 C 295.97 199.99 296.49 198.07 296.54 196.09 C 297.34 180.46 295.46 164.82 296.42 149.20 C 301.04 149.13 305.67 149.18 310.29 149.07 C 309.07 151.39 307.57 153.58 306.63 156.04 C 306.35 169.96 307.27 183.93 306.84 197.83 C 301.65 203.12 295.66 207.56 289.98 212.30 C 285.66 208.80 281.43 205.16 276.91 201.94 C 272.88 205.29 269.53 209.40 265.36 212.58 C 260.88 207.47 254.34 203.76 252.17 196.98 C 247.43 184.35 251.40 170.52 256.73 158.76 C 257.33 157.24 258.93 154.92 257.01 153.70 C 254.81 154.22 252.91 155.58 250.83 156.43 C 250.77 154.08 250.76 151.72 250.74 149.37 Z" />
<path fill="#5f361e" opacity="1.00" d=" M 344.08 151.93 C 348.01 150.33 352.27 150.69 356.29 151.73 C 355.40 153.38 354.73 155.16 354.88 157.07 C 354.90 173.31 354.71 189.55 354.77 205.78 C 352.38 207.41 349.99 209.04 347.58 210.63 C 347.08 209.46 346.25 208.37 346.25 207.06 C 345.83 198.17 346.63 189.21 345.63 180.36 C 341.31 179.71 336.90 179.90 332.56 180.22 L 332.27 181.07 C 330.21 188.08 328.06 195.07 325.95 202.06 C 324.24 207.72 319.22 213.17 313.05 213.42 C 310.70 213.56 309.86 211.26 309.25 209.46 C 312.44 209.17 315.66 209.31 318.82 208.81 C 320.66 207.70 320.90 205.40 321.38 203.52 C 324.54 187.59 320.79 170.18 328.58 155.29 C 329.15 155.35 330.29 155.46 330.86 155.51 C 331.17 162.23 330.78 168.97 331.36 175.68 C 335.72 176.08 340.27 176.75 344.47 175.07 C 344.21 167.36 344.80 159.62 344.08 151.93 Z" />
</g>
<g id="#593522ff">
<path fill="#593522" opacity="1.00" d=" M 157.00 151.94 C 158.80 149.34 162.29 150.00 165.00 149.90 C 175.92 150.11 186.89 148.71 197.78 150.09 C 197.08 150.91 196.38 151.72 195.68 152.52 C 192.16 149.97 187.57 150.88 183.69 151.98 C 180.14 152.59 176.50 152.34 172.95 152.92 C 171.17 160.09 172.35 167.55 172.01 174.85 C 175.99 174.81 179.98 174.80 183.97 174.83 C 183.95 167.48 184.05 160.13 183.93 152.78 C 185.66 156.64 185.02 160.91 185.09 165.01 C 185.05 168.57 185.35 172.17 184.72 175.70 C 180.23 176.64 175.63 176.07 171.09 175.92 C 170.80 168.34 171.45 160.69 170.23 153.18 L 169.46 153.05 C 166.09 152.05 163.06 153.91 160.04 155.05 C 158.24 155.63 156.33 153.73 157.00 151.94 Z" />
</g>
<g id="#4d2713ff">
<path fill="#4d2713" opacity="1.00" d=" M 193.23 154.70 C 193.56 154.41 194.20 153.82 194.53 153.53 C 193.88 169.69 194.31 185.88 194.18 202.04 C 193.98 203.62 194.69 205.75 193.00 206.75 C 192.81 193.17 193.03 179.58 192.93 166.00 C 192.90 162.23 192.78 158.45 193.23 154.70 Z" />
</g>
<g id="#402a1bff">
<path fill="#402a1b" opacity="1.00" d=" M 332.56 180.22 C 336.90 179.90 341.31 179.71 345.63 180.36 C 346.63 189.21 345.83 198.17 346.25 207.06 C 346.25 208.37 347.08 209.46 347.58 210.63 C 346.71 211.17 345.85 211.73 345.00 212.29 C 344.94 201.87 344.96 191.46 344.97 181.05 C 340.73 181.07 336.50 181.06 332.27 181.07 L 332.56 180.22 Z" />
</g>
<g id="#5e371fff">
<path fill="#5e371f" opacity="1.00" d=" M 375.15 189.02 C 377.97 187.55 381.26 191.55 378.81 193.87 C 375.82 196.25 371.65 191.03 375.15 189.02 Z" />
</g>
<g id="#5d3621ff">
<path fill="#5d3621" opacity="1.00" d=" M 89.82 199.78 C 92.99 201.09 95.87 203.36 97.65 206.32 C 96.73 206.16 94.91 205.84 94.00 205.68 C 86.82 213.76 79.87 222.12 73.70 231.00 C 76.38 233.11 78.83 235.56 81.77 237.32 C 82.29 237.01 83.31 236.37 83.82 236.05 C 85.91 237.86 82.71 239.42 81.85 240.97 C 77.51 237.26 73.00 233.76 68.58 230.15 C 68.18 229.73 66.71 228.68 67.90 228.16 C 69.52 227.93 71.18 227.61 72.11 226.11 C 78.36 218.43 84.88 210.95 90.60 202.86 C 90.33 201.84 90.07 200.81 89.82 199.78 Z" />
</g>
<g id="#5b351fff">
<path fill="#5b351f" opacity="1.00" d=" M 372.28 208.19 C 373.32 205.13 376.52 201.99 380.01 203.05 C 384.89 205.49 387.37 210.95 392.24 213.38 C 391.76 212.12 391.27 210.87 390.79 209.62 C 393.48 209.54 395.37 213.33 393.08 215.09 C 392.12 216.25 390.55 215.79 389.27 215.91 C 389.37 219.52 386.41 222.49 382.97 223.08 C 380.62 222.55 378.22 220.60 378.36 217.99 C 379.01 214.69 380.34 211.58 381.16 208.32 C 379.82 207.27 378.60 205.95 376.92 205.46 C 375.38 205.93 374.66 207.41 373.77 208.61 C 376.68 208.24 379.84 211.10 377.81 213.91 C 374.46 216.20 371.04 211.25 372.28 208.19 M 382.21 209.55 C 382.15 212.62 380.05 216.68 383.20 218.90 C 385.45 220.14 388.34 217.40 387.33 215.13 C 385.99 212.96 383.97 211.35 382.21 209.55 Z" />
<path fill="#5b351f" opacity="1.00" d=" M 155.37 232.81 C 156.77 230.46 159.86 232.94 161.94 233.01 C 159.79 239.76 158.06 246.65 156.46 253.55 C 158.82 252.02 161.08 250.33 163.11 248.37 C 162.60 247.31 162.14 246.25 161.71 245.16 C 163.97 245.90 167.14 245.49 168.44 247.86 C 164.80 248.91 161.86 251.40 159.14 253.91 C 160.60 257.43 161.47 261.25 163.86 264.30 C 163.95 264.76 164.15 265.67 164.25 266.13 C 162.51 265.43 160.44 265.15 159.17 263.65 C 157.66 260.88 157.43 257.65 156.48 254.69 C 155.70 256.69 155.17 258.78 154.95 260.92 C 155.89 261.58 157.55 264.01 155.20 263.69 C 152.68 263.18 150.21 262.42 147.79 261.56 C 148.81 260.88 149.81 260.19 150.85 259.54 C 153.09 253.16 154.35 246.49 156.11 239.97 C 156.59 237.58 158.03 234.46 155.37 232.81 Z" />
</g>
<g id="#5c3621ff">
<path fill="#5c3621" opacity="1.00" d=" M 361.14 217.78 C 361.80 213.58 367.13 210.10 370.83 213.10 C 374.10 216.23 376.30 220.29 379.19 223.76 C 380.00 223.85 381.62 224.02 382.44 224.11 C 380.38 226.35 377.98 228.42 375.00 229.29 C 375.16 228.53 375.46 227.01 375.61 226.25 C 373.01 222.63 370.82 218.61 367.53 215.56 C 365.88 214.05 363.45 216.08 363.43 217.93 C 365.16 221.55 367.85 224.61 370.25 227.79 C 371.09 229.31 372.60 229.69 374.25 229.49 C 373.42 232.27 370.26 233.23 368.12 234.82 C 368.49 229.27 363.68 225.40 360.74 221.22 C 359.21 218.46 355.58 221.61 356.89 223.87 C 358.80 227.77 361.75 231.04 364.24 234.57 C 365.04 234.68 366.66 234.88 367.46 234.99 C 365.39 237.04 363.19 239.48 360.21 240.06 C 360.33 238.47 361.12 236.69 359.76 235.38 C 357.31 232.04 355.17 228.39 352.19 225.49 C 351.67 225.54 350.64 225.63 350.12 225.68 C 349.93 225.32 349.55 224.61 349.36 224.25 C 350.78 223.45 352.32 222.91 353.93 222.64 C 354.83 219.46 357.69 217.00 361.14 217.78 Z" />
</g>
<g id="#5b331dff">
<path fill="#5b331d" opacity="1.00" d=" M 85.47 227.06 C 87.15 222.80 90.19 217.99 95.15 217.40 C 99.35 216.85 104.26 222.21 101.13 226.01 C 98.65 231.21 91.17 223.66 88.84 228.83 C 87.77 230.30 87.94 232.10 88.09 233.80 C 90.64 235.30 93.43 234.57 96.13 234.05 C 94.48 235.67 92.21 237.03 89.82 236.36 C 85.83 235.52 83.86 230.65 85.47 227.06 M 91.45 224.74 C 93.83 224.94 97.69 227.33 98.81 223.89 C 100.86 221.53 97.34 218.18 95.00 220.05 C 93.56 221.39 92.59 223.14 91.45 224.74 Z" />
</g>
<g id="#5a351eff">
<path fill="#5a351e" opacity="1.00" d=" M 122.85 219.09 C 124.92 219.84 126.95 220.68 128.98 221.53 C 125.89 228.04 122.86 234.58 119.93 241.16 C 122.64 239.89 125.29 238.49 127.85 236.93 C 126.94 236.03 126.58 234.91 126.87 233.66 C 130.76 235.47 134.75 237.05 138.83 238.39 C 136.91 243.02 135.06 247.69 133.54 252.47 C 132.95 254.15 133.99 255.80 134.20 257.46 C 131.52 256.49 128.60 255.95 126.27 254.25 C 130.47 252.36 131.04 247.52 132.64 243.74 C 133.52 241.70 134.07 239.51 132.98 237.41 C 129.04 237.82 125.68 239.95 122.37 241.92 C 123.96 245.99 123.80 250.56 126.30 254.31 C 124.37 253.97 122.24 253.44 121.15 251.64 C 119.96 248.58 120.32 245.20 119.83 242.01 C 118.82 243.91 117.97 245.89 117.35 247.95 C 118.28 248.88 118.61 249.99 118.10 251.24 C 115.70 249.67 111.75 249.51 110.70 246.53 C 113.75 247.17 114.63 243.87 115.72 241.79 C 118.30 235.98 121.04 230.25 123.40 224.36 C 124.20 222.63 123.18 220.80 122.85 219.09 Z" />
</g>
<g id="#fefcfcff">
<path fill="#fefcfc" opacity="1.00" d=" M 91.45 224.74 C 92.59 223.14 93.56 221.39 95.00 220.05 C 97.34 218.18 100.86 221.53 98.81 223.89 C 97.69 227.33 93.83 224.94 91.45 224.74 Z" />
</g>
<g id="#5b3621ff">
<path fill="#5b3621" opacity="1.00" d=" M 102.89 221.79 C 103.84 222.25 104.79 222.72 105.74 223.19 C 105.92 223.77 106.29 224.94 106.47 225.52 C 110.73 223.97 116.49 227.65 115.28 232.48 C 113.87 236.68 111.27 240.38 109.48 244.43 C 109.78 245.48 110.07 246.54 110.36 247.61 C 107.71 246.58 105.11 245.39 102.80 243.73 C 103.00 241.92 105.60 242.89 106.16 241.31 C 108.26 238.02 110.11 234.53 111.62 230.92 C 112.71 228.60 108.98 226.05 107.28 228.20 C 104.53 231.70 102.62 235.85 100.79 239.89 C 101.10 240.36 101.71 241.31 102.02 241.78 C 101.60 242.15 101.17 242.53 100.75 242.91 C 98.44 241.57 96.08 240.33 93.77 238.99 C 95.24 238.09 97.30 237.79 98.03 236.02 C 99.70 233.02 101.36 230.01 102.88 226.93 C 103.99 225.34 103.00 223.49 102.89 221.79 Z" />
</g>
<g id="#5c351dff">
<path fill="#5c351d" opacity="1.00" d=" M 339.50 229.35 C 341.42 226.69 345.93 224.44 348.66 227.20 C 352.13 231.06 353.62 236.22 356.81 240.29 C 356.84 239.24 356.90 237.15 356.93 236.10 C 358.84 236.96 360.09 239.71 358.33 241.30 C 357.14 242.93 355.04 241.86 353.44 241.79 C 352.67 245.06 349.34 247.02 346.12 246.87 C 343.75 246.36 342.86 243.94 341.90 242.03 C 343.47 238.45 345.94 235.40 347.89 232.05 C 346.86 230.70 345.95 229.21 344.56 228.21 C 343.01 228.16 341.97 229.63 340.74 230.37 C 343.71 230.78 346.16 235.28 342.55 236.63 C 338.85 237.50 337.53 231.77 339.50 229.35 M 348.52 233.73 C 347.64 236.45 344.69 239.68 346.63 242.49 C 348.25 245.22 352.54 242.77 351.96 240.04 C 351.07 237.80 349.74 235.79 348.52 233.73 Z" />
</g>
<g id="#5e361dff">
<path fill="#5e361d" opacity="1.00" d=" M 138.45 227.60 C 142.12 226.13 143.45 232.37 139.91 233.26 C 136.22 234.33 135.36 228.65 138.45 227.60 Z" />
</g>
<g id="#55321cff">
<path fill="#55321c" opacity="1.00" d=" M 143.79 229.76 C 144.92 230.19 146.04 230.63 147.17 231.08 C 147.70 232.51 148.22 233.95 148.75 235.40 C 150.89 233.85 153.27 232.06 155.92 233.72 C 154.00 235.46 151.94 237.05 149.84 238.58 C 148.62 238.21 147.40 237.86 146.18 237.52 C 145.28 234.96 144.54 232.36 143.79 229.76 Z" />
</g>
<g id="#5c3521ff">
<path fill="#5c3521" opacity="1.00" d=" M 325.44 236.75 C 327.06 232.91 332.68 231.01 335.82 234.17 C 338.61 237.93 339.56 242.73 342.22 246.58 C 342.77 246.72 343.88 247.00 344.43 247.14 C 343.24 250.12 339.18 250.26 336.60 251.48 C 336.92 250.69 337.58 249.10 337.90 248.30 C 336.33 244.23 334.80 240.08 332.53 236.33 C 330.72 233.88 326.69 236.24 327.98 239.07 C 329.28 243.11 331.05 247.05 333.14 250.75 C 333.74 250.76 334.94 250.79 335.53 250.80 C 334.92 254.08 330.31 254.10 327.80 255.48 C 327.99 253.91 329.32 252.30 328.43 250.73 C 327.07 247.44 325.66 244.17 324.14 240.95 C 323.53 238.94 320.72 239.19 320.37 236.97 C 322.05 236.85 323.74 236.79 325.44 236.75 Z" />
</g>
<g id="#57351eff">
<path fill="#57351e" opacity="1.00" d=" M 288.28 235.60 C 289.61 233.96 292.11 235.20 292.58 236.96 C 293.62 238.79 291.95 240.80 290.13 241.12 C 287.70 240.74 286.36 237.31 288.28 235.60 Z" />
<path fill="#57351e" opacity="1.00" d=" M 288.43 247.41 C 290.67 243.68 297.55 243.57 298.95 248.09 C 300.62 252.74 294.48 254.44 291.96 257.17 C 292.83 259.11 293.05 261.68 295.01 262.89 C 298.53 263.79 299.81 259.68 301.83 257.79 C 301.49 260.28 300.81 263.22 298.21 264.28 C 294.56 266.41 290.27 263.47 288.81 260.01 C 287.21 256.09 285.84 251.22 288.43 247.41 M 291.23 247.26 C 289.73 249.61 291.23 252.37 291.46 254.88 C 293.14 253.62 295.01 252.53 296.40 250.92 C 296.68 248.08 293.91 245.23 291.23 247.26 Z" />
</g>
<g id="#5d351eff">
<path fill="#5d351e" opacity="1.00" d=" M 139.81 244.01 C 140.48 239.34 147.52 238.48 149.54 242.65 C 149.92 242.24 150.68 241.43 151.06 241.03 C 152.17 243.34 150.77 246.00 149.22 247.76 C 148.46 245.87 148.99 243.15 146.81 242.13 C 144.63 241.12 142.80 244.13 144.13 245.85 C 145.97 248.62 150.15 250.99 148.72 254.86 C 147.93 258.86 143.29 261.38 139.57 259.49 C 136.65 258.50 135.67 255.30 135.82 252.51 L 137.12 252.57 C 137.23 255.79 139.59 258.45 142.96 258.19 C 143.57 256.71 145.48 255.24 144.54 253.52 C 142.88 250.41 138.77 248.06 139.81 244.01 Z" />
</g>
<g id="#5b341eff">
<path fill="#5b341e" opacity="1.00" d=" M 309.00 239.53 C 310.99 240.71 312.70 244.29 310.93 246.20 C 309.81 245.00 309.02 242.43 306.94 242.97 C 304.83 242.75 303.85 245.25 305.17 246.76 C 307.45 248.79 311.07 247.68 313.42 249.62 C 316.97 252.27 316.68 258.62 312.47 260.49 C 309.16 262.57 304.08 260.80 303.67 256.66 C 305.80 257.98 308.12 260.65 310.86 259.13 C 313.51 258.22 312.93 254.34 310.73 253.23 C 308.93 252.53 307.02 252.22 305.18 251.68 C 301.99 250.96 300.22 246.78 301.91 243.99 C 302.84 242.04 305.15 241.64 306.92 240.82 C 307.40 241.12 308.36 241.72 308.83 242.02 C 308.88 241.40 308.96 240.15 309.00 239.53 Z" />
</g>
<g id="#58341dff">
<path fill="#58341d" opacity="1.00" d=" M 246.30 243.98 C 246.72 243.97 247.54 243.96 247.95 243.96 C 248.03 246.51 248.20 249.05 248.40 251.60 C 249.54 251.76 250.69 251.98 251.82 252.25 C 251.46 253.55 249.76 253.55 248.75 254.12 C 248.97 260.83 248.70 267.83 251.06 274.23 C 253.05 273.88 254.68 272.67 256.35 271.64 C 255.84 276.11 249.31 277.85 247.21 273.62 C 245.20 267.48 245.52 260.83 244.71 254.47 C 243.95 254.16 242.43 253.54 241.67 253.23 C 245.42 251.65 246.67 247.76 246.30 243.98 Z" />
</g>
<g id="#493022ff">
<path fill="#493022" opacity="1.00" d=" M 279.44 248.19 C 281.38 247.81 283.32 247.45 285.27 247.08 C 283.08 252.01 283.24 257.48 282.86 262.75 L 282.02 261.95 C 281.14 258.19 282.17 254.25 281.96 250.41 C 280.75 250.08 279.91 249.34 279.44 248.19 Z" />
</g>
<g id="#fefdf8ff">
<path fill="#fefdf8" opacity="1.00" d=" M 291.23 247.26 C 293.91 245.23 296.68 248.08 296.40 250.92 C 295.01 252.53 293.14 253.62 291.46 254.88 C 291.23 252.37 289.73 249.61 291.23 247.26 Z" />
</g>
<g id="#5a3421ff">
<path fill="#5a3421" opacity="1.00" d=" M 270.18 249.88 C 272.89 249.42 275.64 248.28 278.42 248.75 C 277.86 249.77 277.28 250.78 276.69 251.78 C 278.33 255.20 279.03 259.38 282.02 261.95 L 282.86 262.75 C 282.83 264.32 282.78 265.89 282.72 267.47 C 282.02 267.63 280.62 267.93 279.92 268.09 C 276.86 261.94 274.90 255.03 270.18 249.88 Z" />
</g>
<g id="#fefdfcff">
<path fill="#fefdfc" opacity="1.00" d=" M 173.42 249.30 C 174.76 248.84 175.90 249.91 176.59 250.92 C 176.40 255.43 175.70 260.00 174.28 264.30 C 173.47 267.17 169.24 265.75 169.70 263.05 C 170.09 258.74 170.55 254.29 172.18 250.25 C 172.49 250.01 173.11 249.53 173.42 249.30 Z" />
</g>
<g id="#5a351fff">
<path fill="#5a351f" opacity="1.00" d=" M 182.89 253.87 C 183.25 249.25 189.72 248.01 192.40 251.46 C 192.84 250.97 193.72 250.00 194.16 249.51 C 193.74 251.76 194.85 255.26 192.25 256.44 C 191.89 254.77 191.99 252.57 190.17 251.70 C 188.21 250.14 185.69 253.04 186.99 254.96 C 188.84 257.50 192.79 258.51 193.23 262.01 C 194.06 266.21 190.33 270.53 186.00 269.80 C 182.64 269.68 179.01 265.61 181.32 262.51 C 181.58 265.94 185.68 269.94 188.77 266.76 C 191.80 260.83 181.36 259.77 182.89 253.87 Z" />
</g>
<g id="#59331eff">
<path fill="#59331e" opacity="1.00" d=" M 261.44 251.01 C 263.92 250.61 266.41 250.11 268.94 250.14 C 268.78 251.32 267.88 252.15 267.29 253.13 C 267.17 258.04 269.14 263.01 267.92 267.89 C 265.68 272.25 257.19 272.23 256.06 266.99 C 255.06 262.94 254.90 258.75 254.17 254.66 C 251.90 255.14 252.59 252.32 253.77 251.97 C 255.93 251.37 258.20 251.33 260.42 251.06 C 259.68 252.62 258.27 254.10 258.56 255.94 C 258.97 259.84 259.20 263.81 260.39 267.57 C 261.25 269.81 264.85 269.26 265.18 266.93 C 265.47 262.95 264.70 258.95 264.09 255.03 C 263.90 253.35 262.34 252.31 261.44 251.01 Z" />
</g>
<g id="#5b341fff">
<path fill="#5b341f" opacity="1.00" d=" M 203.77 252.12 C 206.53 252.59 210.66 250.90 212.42 253.66 C 211.85 253.88 210.70 254.33 210.12 254.55 C 209.90 258.34 211.10 262.00 211.70 265.71 L 212.63 265.58 C 213.13 261.24 216.74 256.34 213.19 252.49 C 214.96 252.58 216.74 252.64 218.51 252.88 C 220.33 253.37 217.96 254.90 217.38 255.51 C 215.25 260.90 213.73 266.50 212.18 272.07 C 211.44 272.03 209.96 271.95 209.23 271.92 C 207.78 265.26 207.52 258.00 203.77 252.12 Z" />
</g>
<g id="#5a341eff">
<path fill="#5a341e" opacity="1.00" d=" M 233.01 253.95 C 234.90 253.12 236.73 251.45 238.96 252.20 C 242.31 252.86 243.31 257.18 241.90 259.91 C 240.71 261.13 238.60 261.18 237.67 259.64 C 236.11 257.61 238.36 255.58 239.21 253.82 C 237.39 254.00 235.03 254.37 234.61 256.54 C 233.70 260.86 234.52 265.33 234.41 269.71 C 235.06 269.87 236.34 270.20 236.99 270.37 C 237.01 270.82 237.04 271.72 237.06 272.17 C 234.08 272.20 231.10 272.23 228.12 272.22 C 229.07 270.60 230.63 269.10 230.34 267.05 C 229.97 262.20 231.67 256.42 227.56 252.78 C 229.47 252.70 231.33 253.01 233.01 253.95 Z" />
</g>
<g id="#5d3520ff">
<path fill="#5d3520" opacity="1.00" d=" M 219.40 252.85 C 221.54 252.84 223.68 252.86 225.83 252.91 C 225.36 258.34 225.19 263.82 225.47 269.27 C 225.87 270.14 228.28 271.72 226.73 272.43 C 224.11 272.62 221.49 272.40 218.89 272.26 C 222.57 268.39 221.53 262.84 221.69 257.96 C 221.69 256.02 220.25 254.49 219.40 252.85 Z" />
</g>
</svg>
