<svg xmlns="http://www.w3.org/2000/svg" viewBox="0 0 259.06 40.88">
    <defs>
        <style>.cls-1{fill:#0f405c;fill-rule:evenodd;}</style>
    </defs>
    <g id="Layer_2" data-name="Layer 2">
        <g id="Layer_1-2" data-name="Layer 1">
            <path class="cls-1"
                  d="M254,6.36v0a1.71,1.71,0,0,0,1.64-1.76,1.7,1.7,0,0,0-1.92-1.76h-3V9.1h1.22V6.51h.23c.54,0,.76.06,1,.33A6.29,6.29,0,0,1,254,8.06l.48,1H256l-.71-1.27C254.69,6.72,254.52,6.55,254,6.36Zm-.79-.84h-1.28V3.79h1.14c.83,0,1.26.3,1.26.85S254.06,5.52,253.22,5.52Z"/>
            <path class="cls-1"
                  d="M253.31,0a5.83,5.83,0,0,0-5.74,5.93,5.75,5.75,0,1,0,11.49,0A5.84,5.84,0,0,0,253.31,0Zm0,10.69a4.69,4.69,0,0,1-4.61-4.76,4.62,4.62,0,1,1,9.23,0A4.7,4.7,0,0,1,253.31,10.69Z"/>
            <path class="cls-1"
                  d="M9.78,11c0-2,2.18-3.23,5.59-3.23,3.25,0,6.54,1,12.08,3.52V3.57a30.48,30.48,0,0,0-12.92-3C5.7.52,0,5,0,11.82,0,25.94,19.4,23.58,19.4,30c0,2.3-2,3.63-5.59,3.63-4.2,0-7.55-1.33-13-5.08v8.48c3.8,2,7.1,3.81,13.75,3.81,8.5,0,14.65-4.38,14.65-11.94C29.18,15.22,9.78,16.89,9.78,11Z"/>
            <polygon class="cls-1"
                     points="59.68 16.83 40.67 16.83 40.67 1.03 31.16 1.03 31.16 40.36 40.67 40.36 40.67 24.45 59.68 24.45 59.68 40.36 69.18 40.36 69.18 1.03 59.68 1.03 59.68 16.83"/>
            <polygon class="cls-1"
                     points="83.12 23.69 100.51 23.69 100.51 16.48 83.12 16.48 83.12 8.24 101.35 8.24 101.35 1.03 73.62 1.03 73.62 40.36 101.74 40.36 101.74 33.15 83.12 33.15 83.12 23.69"/>
            <path class="cls-1"
                  d="M128.11,22c4.36-2.07,6.54-5.3,6.54-9.63C134.65,6.45,130,1,122.18,1H105.13V40.36h9.5v-16h2.74c5.15,0,6.65,7.55,10.74,16h10.45C133.19,28.83,132,24,128.11,22Zm-8.44-4.78h-5V8.24h4.81c3.58,0,5.42,1.5,5.42,4.44C124.86,16,122.29,17.18,119.67,17.18Z"/>
            <path class="cls-1"
                  d="M230.61,26.69h5.53v4.62a13.65,13.65,0,0,1-6.31,1.38c-7.89,0-13.2-4.61-13.2-11.59,0-5.82,3.63-12.4,14-12.4a31.81,31.81,0,0,1,14.25,3.63V3.75a35,35,0,0,0-15-3.23c-11.82,0-20.45,6.23-22.5,15.74C205.39,8.18,198.22.52,186.08.52c-14.37,0-21.86,10.66-21.86,20.18a19.86,19.86,0,0,0,4.45,12.45H149.58V1h-9.5V40.36h29.07V33.69c3.71,4.26,9.44,7.19,16.93,7.19,11.66,0,19.24-7.31,21.25-15.71,2.06,9.38,10.7,15.71,22.27,15.71,6.15,0,13.19-2.25,16-5.31V19.49h-15Zm-44.53,6c-7.27,0-12.07-4.79-12.07-12s4.8-12,12.07-12,12,4.79,12,12S193.29,32.69,186.08,32.69Z"/>
        </g>
    </g>
</svg>