<?xml version="1.0" encoding="UTF-8" ?>
<!DOCTYPE svg PUBLIC "-//W3C//DTD SVG 1.1//EN" "http://www.w3.org/Graphics/SVG/1.1/DTD/svg11.dtd">
<svg width="200pt" height="52pt" viewBox="0 0 200 52" version="1.1" xmlns="http://www.w3.org/2000/svg">
<g id="#ffffffff">
</g>
<g id="#010100ff">
<path fill="#010100" opacity="1.00" d=" M 0.00 2.11 C 9.61 2.14 19.23 2.07 28.84 2.14 C 28.83 3.56 28.82 4.98 28.80 6.39 C 24.82 6.42 20.83 6.42 16.84 6.39 C 16.90 17.97 16.84 29.55 16.87 41.13 C 15.17 41.13 13.47 41.14 11.77 41.15 C 11.76 29.58 11.75 18.01 11.78 6.44 C 7.85 6.40 3.93 6.40 0.00 6.41 L 0.00 2.11 Z" />
<path fill="#010100" opacity="1.00" d=" M 73.86 2.75 C 79.93 1.74 86.54 1.10 92.36 3.51 C 99.79 6.73 100.15 18.45 93.69 22.83 C 89.48 25.84 83.98 26.05 79.01 25.52 C 78.97 30.73 79.01 35.94 78.99 41.16 C 77.32 41.15 75.64 41.13 73.97 41.13 C 73.90 28.34 74.06 15.54 73.86 2.75 M 79.01 6.20 C 79.04 11.31 78.88 16.43 79.11 21.54 C 82.56 21.72 86.31 22.13 89.44 20.34 C 93.91 17.92 94.54 10.71 90.47 7.63 C 87.12 5.34 82.82 5.84 79.01 6.20 Z" />
</g>
<g id="#000000ff">
<path fill="#000000" opacity="1.00" d=" M 108.52 2.82 C 110.20 2.86 111.89 2.85 113.58 2.88 C 113.55 15.89 113.61 28.89 113.55 41.90 C 111.86 41.86 110.18 41.82 108.49 41.79 C 108.55 28.80 108.51 15.81 108.52 2.82 Z" />
<path fill="#000000" opacity="1.00" d=" M 157.04 2.82 C 158.73 2.84 160.42 2.83 162.11 2.81 C 162.03 15.81 162.04 28.82 162.10 41.82 C 160.40 41.82 158.71 41.81 157.01 41.79 C 157.06 28.80 156.99 15.81 157.04 2.82 Z" />
<path fill="#000000" opacity="1.00" d=" M 177.85 6.67 C 182.71 2.24 190.35 2.57 196.01 5.25 C 195.61 6.53 195.22 7.81 194.83 9.09 C 190.93 7.79 186.38 6.41 182.53 8.60 C 179.47 10.30 178.83 15.04 181.45 17.42 C 185.41 20.86 191.25 21.26 194.93 25.13 C 199.18 29.54 198.28 37.72 193.07 41.01 C 187.37 44.71 179.82 43.89 173.87 41.18 C 174.26 39.75 174.68 38.32 175.05 36.88 C 179.35 38.91 184.62 40.56 189.13 38.23 C 193.02 36.40 193.62 30.34 190.22 27.76 C 186.40 24.62 180.92 24.26 177.44 20.59 C 173.63 16.94 173.83 10.09 177.85 6.67 Z" />
</g>
<g id="#010101ff">
<path fill="#010101" opacity="1.00" d=" M 127.98 2.88 C 129.67 2.85 131.36 2.83 133.05 2.78 C 132.99 14.39 133.00 26.01 133.04 37.62 C 138.60 37.61 144.16 37.65 149.71 37.62 C 149.73 39.02 149.74 40.42 149.76 41.82 C 142.50 41.88 135.24 41.83 127.98 41.85 C 127.97 28.86 127.96 15.87 127.98 2.88 Z" />
</g>
<g id="#072179ff">
<path fill="#072179" opacity="1.00" d=" M 30.45 14.60 C 30.57 13.64 30.67 12.69 30.75 11.73 C 37.87 11.95 44.99 11.51 52.10 11.94 C 61.90 12.83 69.84 22.22 69.21 32.02 C 69.03 39.63 63.95 46.53 57.02 49.47 C 54.43 50.26 51.75 50.80 49.03 50.77 C 39.17 50.78 29.31 50.83 19.45 50.84 C 19.30 49.84 18.89 48.68 19.88 47.95 C 26.39 47.58 32.92 47.90 39.45 47.77 C 38.48 47.03 37.51 46.28 36.54 45.54 C 33.96 45.50 31.37 45.56 28.80 45.32 C 28.59 44.43 28.44 43.53 28.36 42.61 C 30.18 42.55 31.99 42.52 33.81 42.49 C 29.61 36.26 29.38 27.99 32.91 21.41 C 29.74 21.51 26.55 21.51 23.40 21.10 C 23.64 20.49 24.10 19.27 24.33 18.66 C 27.90 18.21 31.50 18.52 35.09 18.40 C 36.49 17.16 37.92 15.95 39.36 14.76 C 36.39 14.78 33.41 14.76 30.45 14.60 M 46.21 15.19 C 39.62 16.55 34.32 22.36 33.52 29.03 C 32.03 37.87 39.07 46.85 47.95 47.69 C 57.43 49.03 66.68 40.60 66.26 31.05 C 66.47 21.02 55.97 12.56 46.21 15.19 Z" />
</g>
<g id="#f9feffff">
<path fill="#f9feff" opacity="1.00" d=" M 46.21 15.19 C 55.97 12.56 66.47 21.02 66.26 31.05 C 66.68 40.60 57.43 49.03 47.95 47.69 C 39.07 46.85 32.03 37.87 33.52 29.03 C 34.32 22.36 39.62 16.55 46.21 15.19 M 46.39 19.68 C 40.73 21.18 36.95 27.31 37.87 33.06 C 38.73 39.55 45.48 44.56 51.96 43.17 C 58.02 42.24 62.55 36.06 61.79 30.01 C 61.24 22.81 53.31 17.34 46.39 19.68 Z" />
</g>
<g id="#04207cff">
<path fill="#04207c" opacity="1.00" d=" M 46.39 19.68 C 53.31 17.34 61.24 22.81 61.79 30.01 C 62.55 36.06 58.02 42.24 51.96 43.17 C 45.48 44.56 38.73 39.55 37.87 33.06 C 36.95 27.31 40.73 21.18 46.39 19.68 M 51.29 22.12 C 51.30 23.49 51.30 24.87 51.32 26.24 C 52.42 26.91 53.51 27.61 54.61 28.29 C 55.74 27.82 56.87 27.36 57.99 26.89 C 56.31 24.60 54.08 22.84 51.29 22.12 M 42.06 26.32 C 42.21 27.86 44.16 27.68 45.16 28.36 C 46.22 27.54 47.28 26.74 48.35 25.95 C 48.34 24.99 48.32 23.07 48.31 22.12 C 45.88 22.89 43.52 24.14 42.06 26.32 M 48.47 29.51 C 46.21 30.91 48.68 34.90 50.84 33.17 C 53.84 31.94 50.72 27.41 48.47 29.51 M 40.70 29.88 C 40.51 32.74 41.50 35.43 43.10 37.77 C 43.92 36.75 44.74 35.73 45.56 34.71 C 45.18 33.51 44.81 32.32 44.45 31.12 C 43.20 30.70 41.95 30.29 40.70 29.88 M 55.27 30.99 C 54.86 32.21 54.44 33.44 54.00 34.65 C 54.82 35.59 55.37 37.05 56.83 37.04 C 58.64 35.12 58.88 32.42 59.00 29.92 C 57.75 30.27 56.51 30.63 55.27 30.99 M 47.97 36.33 C 47.21 37.43 46.52 38.56 45.83 39.70 C 48.50 40.53 51.35 40.61 53.95 39.46 C 53.20 38.43 52.45 37.40 51.70 36.37 C 50.46 36.37 49.21 36.35 47.97 36.33 Z" />
</g>
<g id="#f0ffffff">
</g>
<g id="#fffdffff">
</g>
<g id="#eeffffff">
<path fill="#eeffff" opacity="1.00" d=" M 48.47 29.51 C 50.72 27.41 53.84 31.94 50.84 33.17 C 48.68 34.90 46.21 30.91 48.47 29.51 Z" />
</g>
<g id="#faffffff">
</g>
<g id="#f0feffff">
</g>
<g id="#f3ffffff">
</g>
<g id="#e3f8fcff">
<path fill="#e3f8fc" opacity="1.00" d=" M 49.03 50.77 C 51.75 50.80 54.43 50.26 57.02 49.47 C 56.60 50.10 55.77 51.37 55.36 52.00 L 20.13 52.00 L 19.45 50.84 C 29.31 50.83 39.17 50.78 49.03 50.77 Z" />
</g>
</svg>
