<svg xmlns="http://www.w3.org/2000/svg" width="200pt" height="52pt" viewBox="0 0 200 52"><path fill="#010100" d="M0 2.11c9.61.03 19.23-.04 28.84.03-.01 1.42-.02 2.84-.04 4.25-3.98.03-7.97.03-11.96 0 .06 11.58 0 23.16.03 34.74-1.7 0-3.4.01-5.1.02-.01-11.57-.02-23.14.01-34.71C7.85 6.4 3.93 6.4 0 6.41v-4.3Zm73.86.64c6.07-1.01 12.68-1.65 18.5.76 7.43 3.22 7.79 14.94 1.33 19.32-4.21 3.01-9.71 3.22-14.68 2.69-.04 5.21 0 10.42-.02 15.64-1.67-.01-3.35-.03-5.02-.03-.07-12.79.09-25.59-.11-38.38m5.15 3.45c.03 5.11-.13 10.23.1 15.34 3.45.18 7.2.59 10.33-1.2 4.47-2.42 5.1-9.63 1.03-12.71-3.35-2.29-7.65-1.79-11.46-1.43Z" opacity="1.00"/><path d="M108.52 2.82c1.68.04 3.37.03 5.06.06-.03 13.01.03 26.01-.03 39.02-1.69-.04-3.37-.08-5.06-.11.06-12.99.02-25.98.03-38.97Zm48.52 0c1.69.02 3.38.01 5.07-.01-.08 13-.07 26.01-.01 39.01-1.7 0-3.39-.01-5.09-.03.05-12.99-.02-25.98.03-38.97Zm20.81 3.85c4.86-4.43 12.5-4.1 18.16-1.42-.4 1.28-.79 2.56-1.18 3.84-3.9-1.3-8.45-2.68-12.3-.49-3.06 1.7-3.7 6.44-1.08 8.82 3.96 3.44 9.8 3.84 13.48 7.71 4.25 4.41 3.35 12.59-1.86 15.88-5.7 3.7-13.25 2.88-19.2.17.39-1.43.81-2.86 1.18-4.3 4.3 2.03 9.57 3.68 14.08 1.35 3.89-1.83 4.49-7.89 1.09-10.47-3.82-3.14-9.3-3.5-12.78-7.17-3.81-3.65-3.61-10.5.41-13.92Z" opacity="1.00"/><path fill="#010101" d="M127.98 2.88c1.69-.03 3.38-.05 5.07-.1-.06 11.61-.05 23.23-.01 34.84 5.56-.01 11.12.03 16.67 0 .02 1.4.03 2.8.05 4.2-7.26.06-14.52.01-21.78.03-.01-12.99-.02-25.98 0-38.97Z" opacity="1.00"/><path fill="#072179" d="M30.45 14.6c.12-.96.22-1.91.3-2.87 7.12.22 14.24-.22 21.35.21 9.8.89 17.74 10.28 17.11 20.08-.18 7.61-5.26 14.51-12.19 17.45-2.59.79-5.27 1.33-7.99 1.3-9.86.01-19.72.06-29.58.07-.15-1-.56-2.16.43-2.89 6.51-.37 13.04-.05 19.57-.18-.97-.74-1.94-1.49-2.91-2.23-2.58-.04-5.17.02-7.74-.22-.21-.89-.36-1.79-.44-2.71 1.82-.06 3.63-.09 5.45-.12-4.2-6.23-4.43-14.5-.9-21.08-3.17.1-6.36.1-9.51-.31.24-.61.7-1.83.93-2.44 3.57-.45 7.17-.14 10.76-.26 1.4-1.24 2.83-2.45 4.27-3.64-2.97.02-5.95 0-8.91-.16m15.76.59c-6.59 1.36-11.89 7.17-12.69 13.84-1.49 8.84 5.55 17.82 14.43 18.66 9.48 1.34 18.73-7.09 18.31-16.64.21-10.03-10.29-18.49-20.05-15.86Z" opacity="1.00"/><path fill="#f9feff" d="M46.21 15.19c9.76-2.63 20.26 5.83 20.05 15.86.42 9.55-8.83 17.98-18.31 16.64-8.88-.84-15.92-9.82-14.43-18.66.8-6.67 6.1-12.48 12.69-13.84m.18 4.49c-5.66 1.5-9.44 7.63-8.52 13.38.86 6.49 7.61 11.5 14.09 10.11 6.06-.93 10.59-7.11 9.83-13.16-.55-7.2-8.48-12.67-15.4-10.33Z" opacity="1.00"/><path fill="#04207c" d="M46.39 19.68c6.92-2.34 14.85 3.13 15.4 10.33.76 6.05-3.77 12.23-9.83 13.16-6.48 1.39-13.23-3.62-14.09-10.11-.92-5.75 2.86-11.88 8.52-13.38m4.9 2.44c.01 1.37.01 2.75.03 4.12 1.1.67 2.19 1.37 3.29 2.05 1.13-.47 2.26-.93 3.38-1.4-1.68-2.29-3.91-4.05-6.7-4.77m-9.23 4.2c.15 1.54 2.1 1.36 3.1 2.04 1.06-.82 2.12-1.62 3.19-2.41l-.04-3.83c-2.43.77-4.79 2.02-6.25 4.2m6.41 3.19c-2.26 1.4.21 5.39 2.37 3.66 3-1.23-.12-5.76-2.37-3.66m-7.77.37c-.19 2.86.8 5.55 2.4 7.89l2.46-3.06c-.38-1.2-.75-2.39-1.11-3.59-1.25-.42-2.5-.83-3.75-1.24m14.57 1.11c-.41 1.22-.83 2.45-1.27 3.66.82.94 1.37 2.4 2.83 2.39 1.81-1.92 2.05-4.62 2.17-7.12-1.25.35-2.49.71-3.73 1.07m-7.3 5.34c-.76 1.1-1.45 2.23-2.14 3.37 2.67.83 5.52.91 8.12-.24l-2.25-3.09c-1.24 0-2.49-.02-3.73-.04Z" opacity="1.00"/><path fill="#eff" d="M48.47 29.51c2.25-2.1 5.37 2.43 2.37 3.66-2.16 1.73-4.63-2.26-2.37-3.66Z" opacity="1.00"/><path fill="#e3f8fc" d="M49.03 50.77c2.72.03 5.4-.51 7.99-1.3-.42.63-1.25 1.9-1.66 2.53H20.13l-.68-1.16c9.86-.01 19.72-.06 29.58-.07Z" opacity="1.00"/></svg>