<?xml version="1.0" encoding="UTF-8" ?>
<!DOCTYPE svg PUBLIC "-//W3C//DTD SVG 1.1//EN" "http://www.w3.org/Graphics/SVG/1.1/DTD/svg11.dtd">
<svg width="1268pt" height="512pt" viewBox="0 0 1268 512" version="1.1" xmlns="http://www.w3.org/2000/svg">
<g id="#35353aff">
</g>
<g id="#321370ff">
<path fill="#321370" opacity="1.00" d=" M 217.87 46.40 C 238.44 42.47 259.55 42.03 280.36 44.14 L 280.44 44.37 C 281.39 48.33 285.20 50.41 288.01 52.96 C 299.85 63.47 311.79 73.86 323.70 84.30 C 327.28 87.50 331.16 90.40 334.12 94.23 C 311.43 82.93 286.40 76.06 260.98 75.56 C 232.11 74.53 203.12 81.37 177.38 94.37 C 167.74 99.19 158.84 105.29 149.95 111.35 C 153.62 105.96 159.15 102.36 163.64 97.74 C 170.78 91.25 178.00 84.85 185.17 78.40 C 193.20 72.06 200.35 64.66 208.43 58.38 C 212.60 55.03 216.32 51.18 219.93 47.25 C 219.53 47.09 218.74 46.76 218.35 46.60 L 217.87 46.40 Z" />
</g>
<g id="#4C6FFFff">
<path fill="#4C6FFF" opacity="1.00" d=" M 288.01 52.96 C 285.20 50.41 281.39 48.33 280.44 44.37 C 314.64 48.21 347.76 61.16 375.45 81.61 C 396.53 97.07 415.00 116.29 429.00 138.39 C 417.24 134.88 403.61 136.79 393.96 144.62 C 392.36 142.73 390.45 140.87 390.20 138.26 C 389.75 138.15 388.86 137.93 388.41 137.83 C 377.01 124.73 364.01 112.99 349.44 103.52 C 344.49 100.17 339.19 97.38 334.12 94.23 C 331.16 90.40 327.28 87.50 323.70 84.30 C 311.79 73.86 299.85 63.47 288.01 52.96 Z" />
</g>
<g id="#321370ff">
<path fill="#321370" opacity="1.00" d=" M 209.15 48.29 C 212.19 47.63 215.21 46.69 218.35 46.60 C 218.74 46.76 219.53 47.09 219.93 47.25 C 216.32 51.18 212.60 55.03 208.43 58.38 C 200.35 64.66 193.20 72.06 185.17 78.40 C 186.04 76.99 186.86 75.55 187.69 74.12 C 178.12 73.65 168.49 74.62 158.98 73.24 C 154.79 72.47 150.60 73.55 146.62 74.77 C 148.35 73.46 150.14 72.23 152.03 71.14 C 169.78 60.73 189.10 52.95 209.15 48.29 Z" />
<path fill="#321370" opacity="1.00" d=" M 349.28 257.12 C 349.37 251.37 349.18 245.61 349.74 239.88 C 349.63 270.09 349.94 300.35 349.62 330.53 C 348.66 330.10 349.61 327.90 349.28 327.15 C 349.58 320.45 349.20 313.76 349.20 307.07 C 348.83 290.42 349.14 273.77 349.28 257.12 Z" />
</g>
<g id="#321370ff">
<path fill="#321370" opacity="1.00" d=" M 146.62 74.77 C 150.60 73.55 154.79 72.47 158.98 73.24 C 168.49 74.62 178.12 73.65 187.69 74.12 C 186.86 75.55 186.04 76.99 185.17 78.40 C 178.00 84.85 170.78 91.25 163.64 97.74 C 159.15 102.36 153.62 105.96 149.95 111.35 C 144.25 116.13 138.49 120.84 133.21 126.10 C 108.89 150.20 91.90 181.31 83.71 214.49 C 81.03 215.96 78.41 217.54 76.01 219.44 C 77.38 217.67 78.71 215.85 80.05 214.06 C 79.95 211.02 80.02 207.97 79.97 204.93 C 82.42 200.90 85.06 196.83 86.00 192.13 C 87.34 186.20 90.94 180.95 92.08 174.99 C 93.36 172.00 94.86 169.11 96.18 166.14 C 97.83 162.52 98.28 158.52 99.56 154.77 C 98.65 151.09 100.58 147.80 101.53 144.38 C 101.83 141.95 101.24 137.82 97.99 138.09 C 92.58 137.94 86.70 137.02 81.72 139.68 C 96.83 115.81 116.88 95.13 140.01 78.95 C 142.15 77.47 144.20 75.78 146.62 74.77 Z" />
</g>
<g id="#2D3958ff">
<path fill="#2D3958" opacity="1.00" d=" M 177.38 94.37 C 203.12 81.37 232.11 74.53 260.98 75.56 C 286.40 76.06 311.43 82.93 334.12 94.23 C 339.19 97.38 344.49 100.17 349.44 103.52 C 364.01 112.99 377.01 124.73 388.41 137.83 C 388.86 137.93 389.75 138.15 390.20 138.26 C 390.45 140.87 392.36 142.73 393.96 144.62 C 392.39 145.96 390.95 147.43 389.48 148.87 C 389.28 145.38 389.84 141.65 388.32 138.37 C 383.19 138.75 378.06 138.58 372.93 138.58 C 372.12 139.43 371.32 140.27 370.52 141.12 C 371.40 158.42 371.19 175.75 371.20 193.07 C 368.96 192.98 366.72 192.88 364.49 192.77 C 363.61 190.21 362.53 187.72 361.72 185.15 C 360.98 182.85 362.42 180.64 363.04 178.49 C 360.62 177.93 357.83 177.88 355.93 176.07 C 354.54 174.87 354.15 172.98 353.42 171.39 C 353.05 172.57 352.68 173.76 352.32 174.95 C 351.81 173.68 351.31 172.42 350.82 171.16 C 351.96 170.40 353.10 169.64 354.25 168.88 C 353.70 166.77 353.22 164.62 352.30 162.64 C 350.24 162.19 348.59 164.13 346.84 164.92 C 345.26 164.27 343.65 163.67 342.17 162.80 C 341.60 160.85 342.79 159.08 343.49 157.34 C 339.31 154.79 335.20 152.11 330.71 150.15 C 333.01 147.16 335.97 144.77 338.15 141.69 C 335.72 142.14 333.14 142.50 331.03 143.87 C 330.11 146.29 329.51 148.83 328.53 151.23 C 328.85 152.73 329.20 154.23 329.56 155.73 C 328.63 156.52 327.70 157.30 326.77 158.09 C 325.16 155.93 323.67 153.69 322.33 151.35 C 321.45 151.84 320.57 152.32 319.70 152.81 C 304.25 139.64 285.43 129.92 265.11 127.44 C 247.17 124.95 228.03 127.63 212.60 137.53 C 199.72 145.79 189.41 158.80 186.36 173.99 C 185.62 173.40 184.89 172.81 184.15 172.23 C 183.48 175.68 183.04 179.18 182.78 182.69 C 182.12 182.11 181.46 181.53 180.81 180.96 C 176.41 183.92 172.07 187.13 166.91 188.63 C 166.48 187.97 166.04 187.31 165.60 186.66 C 165.27 187.87 164.06 189.09 164.70 190.39 C 165.89 191.82 167.96 191.16 169.58 191.37 C 168.59 193.35 167.82 195.78 165.61 196.72 C 162.97 197.70 159.96 197.06 157.45 198.50 C 154.48 200.21 150.87 200.29 147.94 201.96 C 145.38 205.00 148.05 208.89 148.84 212.12 C 149.56 213.98 147.50 215.26 146.64 216.61 C 143.41 211.10 145.74 204.37 144.90 198.31 C 144.52 198.01 143.78 197.41 143.40 197.10 C 142.95 198.97 142.49 200.84 142.08 202.72 C 141.86 200.16 141.56 197.60 141.32 195.04 C 141.59 200.08 141.74 205.14 141.54 210.18 C 140.65 209.08 139.77 207.98 138.89 206.88 C 133.53 212.39 126.01 215.17 121.21 221.31 C 120.67 220.75 120.13 220.20 119.59 219.65 C 117.01 224.16 112.48 226.93 108.28 229.75 C 108.53 229.88 109.02 230.13 109.26 230.26 C 110.61 230.62 112.32 230.52 113.13 231.88 C 111.92 232.97 110.60 233.94 109.30 234.91 C 108.11 233.93 106.92 232.94 105.75 231.95 C 97.17 236.61 89.68 243.04 81.25 247.97 C 80.62 246.92 79.99 245.88 79.36 244.84 C 79.90 234.62 81.54 224.49 83.71 214.49 C 91.90 181.31 108.89 150.20 133.21 126.10 C 138.49 120.84 144.25 116.13 149.95 111.35 C 158.84 105.29 167.74 99.19 177.38 94.37 M 219.31 96.20 C 218.75 97.80 219.29 98.37 220.94 97.88 C 221.49 96.27 220.95 95.71 219.31 96.20 M 121.20 219.17 C 121.73 219.67 121.73 219.67 121.20 219.17 Z" />
</g>
<g id="#64316fff">
<path fill="#64316f" opacity="1.00" d=" M 219.31 96.20 C 220.95 95.71 221.49 96.27 220.94 97.88 C 219.29 98.37 218.75 97.80 219.31 96.20 Z" />
</g>
<g id="#ffffffff">
<path fill="#ffffff" opacity="1.00" d=" M 828.35 102.92 C 828.15 101.19 829.88 100.30 830.83 99.15 C 835.89 99.33 840.96 99.01 846.02 99.29 C 846.95 99.84 847.78 100.58 848.64 101.26 C 848.71 129.83 848.65 158.41 848.67 186.98 C 848.80 199.73 848.26 212.52 849.37 225.24 C 848.57 226.17 847.79 227.09 847.00 228.01 C 841.59 228.00 836.18 227.97 830.77 228.04 C 830.60 224.76 830.46 221.49 830.32 218.22 C 818.51 231.77 796.30 233.79 781.99 223.10 C 770.07 214.45 764.63 199.28 764.68 184.95 C 764.38 170.28 769.38 154.68 781.08 145.21 C 794.19 134.18 815.27 133.61 828.33 145.03 C 828.35 130.99 828.28 116.95 828.35 102.92 M 801.51 154.62 C 796.13 156.26 791.82 160.41 789.26 165.32 C 785.44 172.57 784.63 181.04 785.42 189.08 C 786.15 195.57 788.37 202.20 793.09 206.91 C 799.57 213.53 810.76 214.44 818.49 209.48 C 824.68 205.60 828.35 198.30 828.33 191.05 C 828.32 185.40 828.37 179.74 828.31 174.09 C 828.21 167.32 824.70 160.64 819.02 156.92 C 813.93 153.52 807.31 152.85 801.51 154.62 Z" />
<path fill="#ffffff" opacity="1.00" d=" M 891.54 105.63 C 894.93 104.88 898.70 105.38 901.58 107.42 C 907.41 111.50 908.16 121.07 902.99 125.99 C 897.74 130.99 887.86 130.26 884.17 123.71 C 880.00 117.18 883.71 107.12 891.54 105.63 Z" />
<path fill="#ffffff" opacity="1.00" d=" M 1207.44 105.66 C 1210.86 104.86 1214.67 105.37 1217.58 107.42 C 1223.44 111.49 1224.16 121.09 1219.00 126.00 C 1213.74 130.98 1203.89 130.26 1200.20 123.74 C 1196.02 117.23 1199.66 107.22 1207.44 105.66 Z" />
<path fill="#ffffff" opacity="1.00" d=" M 212.60 137.53 C 228.03 127.63 247.17 124.95 265.11 127.44 C 285.43 129.92 304.25 139.64 319.70 152.81 C 321.44 154.26 323.14 155.78 324.83 157.30 C 319.22 163.16 313.53 168.94 308.05 174.93 C 294.68 162.98 278.09 153.85 260.01 152.10 C 247.20 150.63 233.53 153.17 223.06 160.99 C 216.94 165.65 211.78 172.18 210.37 179.90 C 208.96 187.03 211.08 194.65 215.76 200.16 C 222.15 207.89 231.75 212.12 241.34 214.27 C 241.23 223.08 241.31 231.89 241.25 240.70 C 223.95 238.75 206.89 230.90 196.02 216.99 C 186.36 205.13 183.20 188.82 186.36 173.99 C 189.41 158.80 199.72 145.79 212.60 137.53 Z" />
<path fill="#ffffff" opacity="1.00" d=" M 393.96 144.62 C 403.61 136.79 417.24 134.88 429.00 138.39 C 438.13 141.39 445.76 148.21 450.17 156.70 C 456.36 168.39 457.11 182.24 454.89 195.08 C 452.25 208.97 443.32 222.18 429.74 227.24 C 417.04 232.26 401.40 230.42 391.19 220.98 C 391.48 234.03 391.22 247.09 391.33 260.14 C 390.55 260.92 389.78 261.72 389.01 262.51 C 384.32 262.44 379.63 262.64 374.95 262.48 C 373.04 262.63 371.12 260.94 371.25 258.99 C 371.08 250.25 371.25 241.51 371.20 232.76 C 371.20 219.53 371.19 206.30 371.20 193.07 C 371.19 175.75 371.40 158.42 370.52 141.12 C 371.32 140.27 372.12 139.43 372.93 138.58 C 378.06 138.58 383.19 138.75 388.32 138.37 C 389.84 141.65 389.28 145.38 389.48 148.87 C 390.95 147.43 392.39 145.96 393.96 144.62 M 402.59 156.70 C 397.92 159.90 394.13 164.47 392.56 169.98 C 390.82 174.80 391.37 179.98 391.30 185.01 C 391.35 189.01 391.00 193.10 392.00 197.02 C 393.96 204.90 400.82 211.35 408.86 212.65 C 414.84 213.80 421.05 212.12 426.03 208.72 L 425.92 208.35 C 433.30 202.72 435.54 192.79 435.74 183.96 C 435.99 174.59 433.39 164.28 425.84 158.13 C 419.36 152.81 409.75 152.60 402.59 156.70 Z" />
<path fill="#ffffff" opacity="1.00" d=" M 503.46 148.95 C 509.62 139.78 521.42 134.27 532.29 137.69 C 532.33 143.20 532.24 148.72 532.35 154.24 C 529.16 158.13 523.93 155.08 519.83 156.77 C 510.36 159.48 506.03 169.97 505.83 179.06 C 505.76 194.61 505.81 210.17 505.81 225.72 C 504.65 226.60 503.68 228.19 502.02 227.98 C 497.31 228.10 492.61 227.91 487.90 228.04 C 487.16 227.13 486.23 226.33 485.76 225.24 C 485.33 197.20 486.41 169.11 484.96 141.09 C 486.14 140.05 487.14 138.24 489.01 138.60 C 493.76 138.53 498.51 138.63 503.27 138.59 C 503.35 142.04 503.46 145.49 503.46 148.95 Z" />
<path fill="#ffffff" opacity="1.00" d=" M 571.14 142.25 C 580.35 136.76 591.74 135.43 602.11 137.84 C 610.24 139.75 617.55 144.89 622.03 151.96 C 628.91 162.69 630.74 176.14 628.61 188.58 C 608.95 188.45 589.29 188.44 569.64 188.58 C 570.21 197.82 575.14 207.37 584.18 210.76 C 595.33 214.91 607.92 212.94 618.80 208.82 C 619.79 209.31 620.79 209.80 621.80 210.29 C 622.95 214.70 624.04 219.14 624.95 223.61 C 612.85 229.02 599.21 230.74 586.09 229.21 C 574.60 227.75 563.52 221.56 557.29 211.63 C 550.17 200.61 548.88 186.75 550.94 174.05 C 553.00 161.35 559.84 148.91 571.14 142.25 M 582.37 154.55 C 575.46 158.01 571.89 165.48 570.09 172.64 C 583.34 172.74 596.59 172.74 609.84 172.64 C 609.14 167.65 608.04 162.43 604.67 158.49 C 599.43 152.06 589.56 151.14 582.37 154.55 Z" />
<path fill="#ffffff" opacity="1.00" d=" M 677.02 148.13 C 687.86 135.80 708.05 132.79 721.60 142.35 C 731.38 149.10 735.41 161.50 735.49 172.94 C 735.48 190.59 735.54 208.24 735.46 225.88 C 734.68 226.59 733.91 227.30 733.15 228.01 C 728.06 227.90 722.97 228.17 717.90 227.91 C 716.87 227.38 716.12 226.47 715.28 225.73 C 715.39 209.81 715.29 193.90 715.33 177.98 C 715.30 171.57 714.66 164.55 710.41 159.42 C 706.79 154.97 700.54 153.74 695.11 154.63 C 688.36 155.77 682.66 160.90 680.34 167.27 C 678.58 171.64 679.04 176.44 679.00 181.04 C 678.97 195.93 679.06 210.83 678.95 225.72 C 678.19 226.46 677.43 227.21 676.69 227.96 C 671.46 228.05 666.24 227.96 661.01 228.02 C 660.10 226.82 658.45 225.80 658.71 224.07 C 658.68 201.39 658.71 178.72 658.69 156.04 C 658.67 151.11 658.42 146.19 658.09 141.27 C 658.79 140.42 659.50 139.56 660.21 138.70 C 665.60 138.48 670.99 138.64 676.39 138.59 C 676.64 141.76 676.86 144.95 677.02 148.13 Z" />
<path fill="#ffffff" opacity="1.00" d=" M 958.36 147.93 C 967.48 136.97 984.43 133.22 997.02 140.19 C 1001.59 142.67 1005.11 146.66 1007.78 151.07 C 1013.02 143.85 1020.89 138.21 1029.90 137.10 C 1039.15 135.52 1049.30 138.18 1055.85 145.10 C 1063.49 152.97 1065.79 164.40 1065.90 175.02 C 1065.90 191.96 1065.92 208.90 1065.89 225.84 C 1064.70 226.68 1063.71 228.21 1062.07 227.99 C 1057.47 228.07 1052.86 228.00 1048.26 227.94 C 1047.52 227.20 1046.78 226.46 1046.06 225.73 C 1045.92 209.50 1046.05 193.26 1045.99 177.03 C 1045.82 170.99 1045.12 164.54 1041.48 159.51 C 1037.45 153.85 1029.05 152.75 1023.16 155.93 C 1016.98 159.17 1013.23 166.08 1013.20 172.98 C 1013.10 190.59 1013.25 208.20 1013.13 225.81 C 1012.36 226.53 1011.61 227.26 1010.86 227.99 C 1006.22 227.96 1001.57 228.08 996.94 227.98 C 995.28 228.20 994.37 226.62 993.28 225.72 C 993.38 209.48 993.30 193.23 993.33 176.99 C 993.32 170.62 992.72 163.62 988.37 158.60 C 984.03 153.47 975.92 152.94 970.37 156.33 C 964.01 160.16 960.20 167.63 960.30 174.98 C 960.29 191.32 960.31 207.66 960.30 224.00 C 960.62 225.77 959.04 226.84 958.08 228.04 C 953.02 227.97 947.96 227.99 942.90 228.03 C 942.10 227.31 941.31 226.59 940.53 225.88 C 940.22 197.62 941.14 169.34 939.74 141.10 C 940.51 140.28 941.29 139.45 942.08 138.62 C 947.35 138.57 952.62 138.60 957.90 138.60 C 958.08 141.71 958.27 144.82 958.36 147.93 Z" />
<path fill="#ffffff" opacity="1.00" d=" M 1100.13 145.49 C 1111.78 137.93 1126.35 135.17 1140.00 137.52 C 1148.66 139.03 1156.81 144.29 1160.80 152.27 C 1166.65 163.24 1165.22 176.04 1165.41 188.01 C 1165.64 200.42 1164.63 212.94 1166.73 225.24 C 1165.62 226.25 1164.87 228.26 1163.06 227.99 C 1158.08 228.07 1153.11 227.96 1148.13 228.00 C 1147.87 225.73 1147.71 223.46 1147.37 221.22 C 1146.18 220.84 1145.45 222.09 1144.56 222.59 C 1136.58 229.03 1125.62 231.20 1115.66 229.24 C 1108.88 227.88 1102.58 223.92 1098.82 218.07 C 1091.05 206.25 1093.94 188.76 1105.23 180.17 C 1116.55 171.37 1131.47 169.77 1145.33 169.26 C 1145.00 165.15 1144.33 160.71 1141.40 157.57 C 1138.31 154.09 1133.43 153.05 1128.99 152.96 C 1121.54 152.90 1114.15 155.03 1107.78 158.85 C 1106.59 158.47 1105.40 158.08 1104.25 157.71 C 1102.84 153.64 1101.35 149.60 1100.13 145.49 M 1120.43 190.32 C 1112.87 195.01 1112.54 208.49 1120.92 212.48 C 1130.94 216.70 1143.65 209.65 1145.43 198.93 C 1145.82 194.29 1145.46 189.64 1145.64 184.99 C 1137.06 184.87 1127.82 185.53 1120.43 190.32 Z" />
<path fill="#ffffff" opacity="1.00" d=" M 884.28 141.20 C 885.13 140.31 885.98 139.44 886.86 138.56 C 891.98 138.60 897.11 138.64 902.25 138.54 C 903.34 139.84 905.10 141.04 904.69 143.00 C 904.65 170.53 904.68 198.07 904.67 225.60 C 903.81 226.41 902.97 227.22 902.14 228.03 C 897.04 227.98 891.95 227.98 886.87 228.03 C 886.00 227.22 885.16 226.40 884.32 225.59 C 884.30 197.46 884.38 169.33 884.28 141.20 Z" />
<path fill="#ffffff" opacity="1.00" d=" M 1200.48 140.94 C 1201.26 140.15 1202.06 139.36 1202.87 138.57 C 1207.98 138.59 1213.09 138.65 1218.21 138.53 C 1219.28 139.82 1221.07 140.96 1220.69 142.90 C 1220.64 170.47 1220.69 198.05 1220.66 225.62 C 1219.81 226.42 1218.97 227.22 1218.15 228.03 C 1213.09 227.88 1208.02 228.20 1202.98 227.89 C 1202.10 227.30 1201.27 226.66 1200.49 225.98 C 1200.50 197.64 1200.52 169.29 1200.48 140.94 Z" />
<path fill="#ffffff" opacity="1.00" d=" M 263.61 221.21 C 275.50 223.63 287.25 227.23 297.88 233.20 C 309.90 239.69 320.19 249.85 325.35 262.65 C 329.37 272.58 330.30 283.72 328.15 294.21 C 325.72 305.87 318.90 316.20 310.18 324.14 C 296.24 336.83 279.26 345.35 263.52 355.47 C 263.50 346.69 263.46 337.91 263.55 329.12 C 275.46 320.03 288.13 311.51 297.89 300.01 C 305.73 291.16 306.77 276.98 299.62 267.44 C 292.72 258.31 281.83 253.28 271.17 249.94 C 268.66 249.14 266.08 248.57 263.51 247.99 C 263.53 239.07 263.52 230.14 263.61 221.21 Z" />
</g>
<g id="#321370ff">
<path fill="#321370" opacity="1.00" d=" M 81.72 139.68 C 86.70 137.02 92.58 137.94 97.99 138.09 C 101.24 137.82 101.83 141.95 101.53 144.38 C 100.58 147.80 98.65 151.09 99.56 154.77 C 98.28 158.52 97.83 162.52 96.18 166.14 C 94.86 169.11 93.36 172.00 92.08 174.99 C 90.94 180.95 87.34 186.20 86.00 192.13 C 85.06 196.83 82.42 200.90 79.97 204.93 C 80.02 207.97 79.95 211.02 80.05 214.06 C 78.71 215.85 77.38 217.67 76.01 219.44 C 66.94 227.93 56.87 235.22 47.55 243.41 C 49.09 206.58 61.58 170.45 81.72 139.68 Z" />
<path fill="#321370" opacity="1.00" d=" M 104.50 265.18 C 105.83 263.55 108.18 266.18 106.55 267.41 C 105.16 268.71 103.17 266.47 104.50 265.18 Z" />
<path fill="#321370" opacity="1.00" d=" M 355.52 359.60 C 356.65 359.54 358.00 359.17 358.74 360.35 C 358.78 361.52 358.20 362.25 356.99 362.55 C 355.64 362.04 355.51 360.80 355.52 359.60 Z" />
</g>
<g id="#2D3958ff">
<path fill="#2D3958" opacity="1.00" d=" M 331.03 143.87 C 333.14 142.50 335.72 142.14 338.15 141.69 C 335.97 144.77 333.01 147.16 330.71 150.15 C 335.20 152.11 339.31 154.79 343.49 157.34 C 342.79 159.08 341.60 160.85 342.17 162.80 C 343.65 163.67 345.26 164.27 346.84 164.92 C 348.59 164.13 350.24 162.19 352.30 162.64 C 353.22 164.62 353.70 166.77 354.25 168.88 C 353.10 169.64 351.96 170.40 350.82 171.16 C 351.31 172.42 351.81 173.68 352.32 174.95 C 352.68 173.76 353.05 172.57 353.42 171.39 C 354.15 172.98 354.54 174.87 355.93 176.07 C 357.83 177.88 360.62 177.93 363.04 178.49 C 362.42 180.64 360.98 182.85 361.72 185.15 C 362.53 187.72 363.61 190.21 364.49 192.77 C 366.72 192.88 368.96 192.98 371.20 193.07 C 371.19 206.30 371.20 219.53 371.20 232.76 C 368.58 232.49 365.95 232.41 363.33 232.54 C 362.38 231.66 361.45 230.78 360.53 229.89 C 360.40 231.38 360.33 232.89 360.06 234.37 C 358.83 234.26 357.61 234.05 356.40 233.86 C 355.47 234.76 354.52 235.66 353.59 236.56 C 352.13 233.15 351.29 229.53 350.36 225.95 C 350.13 230.59 350.12 235.25 349.74 239.88 C 349.18 245.61 349.37 251.37 349.28 257.12 C 348.55 256.49 347.82 255.85 347.10 255.22 C 347.46 265.86 345.64 276.42 346.01 287.06 C 346.20 289.29 345.42 291.38 344.13 293.18 C 342.50 289.97 341.24 286.58 340.68 283.01 C 340.00 282.20 339.32 281.40 338.65 280.60 C 338.05 278.36 337.10 276.24 335.66 274.43 C 335.52 273.82 335.38 273.21 335.25 272.60 C 334.15 272.06 333.04 271.57 332.02 270.92 C 331.78 269.78 331.62 268.63 331.47 267.49 C 330.75 267.56 330.03 267.63 329.33 267.71 C 328.92 265.98 328.64 264.20 327.97 262.56 C 327.32 262.58 326.00 262.62 325.35 262.65 C 320.19 249.85 309.90 239.69 297.88 233.20 C 287.25 227.23 275.50 223.63 263.61 221.21 C 263.52 230.14 263.53 239.07 263.51 247.99 C 266.08 248.57 268.66 249.14 271.17 249.94 C 271.82 259.57 271.26 269.23 271.36 278.87 C 270.64 279.15 269.93 279.43 269.22 279.72 C 269.04 281.76 268.88 283.81 268.71 285.85 C 268.15 284.88 267.59 283.92 267.04 282.95 C 265.85 283.84 264.67 284.73 263.49 285.63 C 262.16 282.65 259.81 279.57 256.09 280.99 C 252.22 283.49 253.35 288.57 252.39 292.42 C 252.07 292.52 251.43 292.74 251.11 292.84 C 246.79 290.45 242.30 287.20 241.33 282.01 C 238.29 283.21 235.32 284.85 231.99 285.03 C 227.63 285.26 223.26 284.91 218.90 284.75 C 221.97 283.73 224.96 282.47 227.70 280.74 C 220.12 280.39 212.61 281.86 205.05 282.23 C 198.40 283.13 191.60 282.57 185.03 284.03 C 182.44 284.38 181.24 286.98 179.80 288.82 C 176.65 293.64 172.94 298.07 169.89 302.96 C 168.71 304.72 167.59 306.60 165.87 307.89 C 164.33 308.21 162.80 307.50 161.29 307.33 C 163.30 305.32 165.57 303.61 167.88 301.98 C 164.75 301.45 162.46 303.37 160.19 305.17 C 157.89 305.86 155.34 305.48 153.01 306.23 C 154.45 306.77 155.90 307.30 157.36 307.82 C 153.70 310.95 150.00 314.27 145.35 315.84 C 145.06 317.64 144.77 319.45 144.46 321.26 C 143.57 315.77 144.44 310.18 143.44 304.71 C 142.47 310.90 143.93 317.29 142.18 323.37 C 141.96 313.58 142.36 303.76 141.51 293.99 C 141.28 295.63 141.05 297.28 140.89 298.94 C 139.79 298.68 138.68 298.43 137.58 298.18 C 137.78 302.17 137.97 306.16 137.99 310.16 C 136.41 309.05 133.85 308.35 133.87 306.01 C 133.66 303.85 135.00 301.99 135.83 300.11 C 124.25 304.96 115.20 314.09 104.63 320.62 C 103.42 320.35 102.23 320.01 101.05 319.65 C 99.39 320.98 97.76 322.33 96.13 323.70 C 95.75 323.45 95.00 322.94 94.62 322.69 C 94.02 320.23 93.00 317.91 91.37 315.95 C 91.10 316.56 90.57 317.77 90.31 318.37 C 85.57 306.23 82.60 293.48 80.64 280.62 C 79.18 268.75 78.82 256.78 79.36 244.84 C 79.99 245.88 80.62 246.92 81.25 247.97 C 89.68 243.04 97.17 236.61 105.75 231.95 C 106.92 232.94 108.11 233.93 109.30 234.91 C 110.60 233.94 111.92 232.97 113.13 231.88 C 112.32 230.52 110.61 230.62 109.26 230.26 C 109.02 230.13 108.53 229.88 108.28 229.75 C 112.48 226.93 117.01 224.16 119.59 219.65 C 120.13 220.20 120.67 220.75 121.21 221.31 C 126.01 215.17 133.53 212.39 138.89 206.88 C 139.77 207.98 140.65 209.08 141.54 210.18 C 140.65 230.75 141.47 251.33 141.49 271.90 C 142.45 248.86 142.40 225.78 142.08 202.72 C 142.49 200.84 142.95 198.97 143.40 197.10 C 143.78 197.41 144.52 198.01 144.90 198.31 C 145.74 204.37 143.41 211.10 146.64 216.61 C 147.50 215.26 149.56 213.98 148.84 212.12 C 148.05 208.89 145.38 205.00 147.94 201.96 C 150.87 200.29 154.48 200.21 157.45 198.50 C 159.96 197.06 162.97 197.70 165.61 196.72 C 167.82 195.78 168.59 193.35 169.58 191.37 C 167.96 191.16 165.89 191.82 164.70 190.39 C 164.06 189.09 165.27 187.87 165.60 186.66 C 166.04 187.31 166.48 187.97 166.91 188.63 C 172.07 187.13 176.41 183.92 180.81 180.96 C 181.46 181.53 182.12 182.11 182.78 182.69 C 183.04 179.18 183.48 175.68 184.15 172.23 C 184.89 172.81 185.62 173.40 186.36 173.99 C 183.20 188.82 186.36 205.13 196.02 216.99 C 206.89 230.90 223.95 238.75 241.25 240.70 C 241.31 231.89 241.23 223.08 241.34 214.27 C 231.75 212.12 222.15 207.89 215.76 200.16 C 211.08 194.65 208.96 187.03 210.37 179.90 C 211.78 172.18 216.94 165.65 223.06 160.99 C 233.53 153.17 247.20 150.63 260.01 152.10 C 278.09 153.85 294.68 162.98 308.05 174.93 C 313.53 168.94 319.22 163.16 324.83 157.30 C 323.14 155.78 321.44 154.26 319.70 152.81 C 320.57 152.32 321.45 151.84 322.33 151.35 C 323.67 153.69 325.16 155.93 326.77 158.09 C 327.70 157.30 328.63 156.52 329.56 155.73 C 329.20 154.23 328.85 152.73 328.53 151.23 C 329.51 148.83 330.11 146.29 331.03 143.87 M 358.13 192.16 C 357.67 193.57 358.14 194.04 359.54 193.56 C 360.00 192.14 359.53 191.68 358.13 192.16 M 247.46 217.98 C 246.76 230.95 246.56 244.00 247.54 256.96 C 248.20 243.99 248.40 230.94 247.46 217.98 M 93.18 247.07 C 92.65 248.70 93.20 249.25 94.83 248.74 C 95.35 247.11 94.80 246.56 93.18 247.07 M 104.50 265.18 C 103.17 266.47 105.16 268.71 106.55 267.41 C 108.18 266.18 105.83 263.55 104.50 265.18 M 180.36 266.82 C 179.85 267.42 178.81 268.62 178.30 269.22 C 179.72 271.00 181.45 270.74 182.89 269.13 C 182.04 268.35 181.20 267.58 180.36 266.82 Z" />
</g>
<g id="#4C6FFFff">
<path fill="#4C6FFF" opacity="1.00" d=" M 402.59 156.70 C 409.75 152.60 419.36 152.81 425.84 158.13 C 433.39 164.28 435.99 174.59 435.74 183.96 C 435.54 192.79 433.30 202.72 425.92 208.35 C 420.94 190.03 412.77 172.68 402.59 156.70 Z" />
</g>
<g id="#2D3958ff">
<path fill="#2D3958" opacity="1.00" d=" M 392.56 169.98 C 394.13 164.47 397.92 159.90 402.59 156.70 C 412.77 172.68 420.94 190.03 425.92 208.35 L 426.03 208.72 C 421.05 212.12 414.84 213.80 408.86 212.65 C 400.82 211.35 393.96 204.90 392.00 197.02 C 391.00 193.10 391.35 189.01 391.30 185.01 C 391.37 179.98 390.82 174.80 392.56 169.98 Z" />
</g>
<g id="#673772ff">
<path fill="#673772" opacity="1.00" d=" M 358.13 192.16 C 359.53 191.68 360.00 192.14 359.54 193.56 C 358.14 194.04 357.67 193.57 358.13 192.16 Z" />
</g>
<g id="#4C6FFFff">
<path fill="#4C6FFF" opacity="1.00" d=" M 141.54 210.18 C 141.74 205.14 141.59 200.08 141.32 195.04 C 141.56 197.60 141.86 200.16 142.08 202.72 C 142.40 225.78 142.45 248.86 141.49 271.90 C 141.47 251.33 140.65 230.75 141.54 210.18 Z" />
<path fill="#4C6FFF" opacity="1.00" d=" M 436.96 271.24 C 438.72 269.14 439.98 265.40 443.28 265.64 C 446.42 265.84 449.97 265.48 452.75 267.17 C 457.07 272.72 456.32 280.42 454.38 286.78 C 455.74 289.41 457.22 292.27 456.47 295.33 C 455.65 299.51 454.95 303.97 457.19 307.85 L 457.32 308.94 C 455.61 318.40 452.04 327.59 448.58 336.60 C 440.58 356.53 429.39 375.16 415.71 391.71 C 412.88 394.98 410.18 398.41 406.93 401.29 C 406.84 400.31 406.75 399.34 406.64 398.38 C 407.13 398.20 408.09 397.85 408.57 397.67 C 408.17 397.16 407.77 396.66 407.38 396.17 C 413.73 390.64 417.77 383.23 422.14 376.19 C 425.95 368.42 430.11 360.66 431.99 352.15 C 425.47 350.35 418.68 351.14 412.02 350.95 C 408.93 350.76 406.19 352.29 403.49 353.54 C 418.00 331.09 427.55 305.45 430.95 278.91 C 431.06 279.70 431.28 281.27 431.39 282.06 C 433.13 276.95 432.56 271.20 435.41 266.46 C 435.93 268.05 436.44 269.64 436.96 271.24 Z" />
</g>
<g id="#4C6FFFff">
<path fill="#4C6FFF" opacity="1.00" d=" M 429.74 227.24 C 443.32 222.18 452.25 208.97 454.89 195.08 C 456.67 198.85 457.36 202.97 458.37 206.99 C 464.39 232.46 465.29 259.01 462.15 284.96 C 460.95 292.63 459.94 300.39 457.75 307.85 L 457.19 307.85 C 454.95 303.97 455.65 299.51 456.47 295.33 C 457.22 292.27 455.74 289.41 454.38 286.78 C 456.32 280.42 457.07 272.72 452.75 267.17 C 449.97 265.48 446.42 265.84 443.28 265.64 C 439.98 265.40 438.72 269.14 436.96 271.24 C 436.44 269.64 435.93 268.05 435.41 266.46 C 432.56 271.20 433.13 276.95 431.39 282.06 C 431.28 281.27 431.06 279.70 430.95 278.91 C 432.84 261.75 433.02 244.24 429.74 227.24 Z" />
</g>
<g id="#321370ff">
<path fill="#321370" opacity="1.00" d=" M 76.01 219.44 C 78.41 217.54 81.03 215.96 83.71 214.49 C 81.54 224.49 79.90 234.62 79.36 244.84 C 78.82 256.78 79.18 268.75 80.64 280.62 C 80.01 285.88 78.15 290.99 78.41 296.35 C 78.59 299.23 77.77 302.02 77.46 304.86 C 78.59 309.12 80.34 313.38 79.69 317.90 C 79.79 320.73 77.61 322.71 75.76 324.51 C 76.84 326.21 78.53 328.09 77.25 330.17 C 76.61 333.46 73.20 334.05 70.47 334.69 C 70.20 334.03 69.66 332.71 69.39 332.05 C 67.53 334.26 66.23 336.85 65.48 339.63 C 64.84 339.10 64.21 338.57 63.58 338.03 C 50.58 308.53 45.94 275.75 47.27 243.65 L 47.55 243.41 C 56.87 235.22 66.94 227.93 76.01 219.44 Z" />
</g>
<g id="#623e69ff">
<path fill="#623e69" opacity="1.00" d=" M 247.46 217.98 C 248.40 230.94 248.20 243.99 247.54 256.96 C 246.56 244.00 246.76 230.95 247.46 217.98 Z" />
</g>
<g id="#a65bb2ff">
<path fill="#a65bb2" opacity="1.00" d=" M 121.20 219.17 C 121.73 219.67 121.73 219.67 121.20 219.17 Z" />
</g>
<g id="#2D3958ff">
<path fill="#2D3958" opacity="1.00" d=" M 391.19 220.98 C 401.40 230.42 417.04 232.26 429.74 227.24 C 433.02 244.24 432.84 261.75 430.95 278.91 C 427.55 305.45 418.00 331.09 403.49 353.54 C 398.66 360.79 393.46 367.80 387.70 374.34 C 386.74 373.62 385.78 372.91 384.83 372.20 C 384.41 372.77 383.99 373.35 383.58 373.94 C 381.11 374.45 380.10 376.68 379.24 378.80 C 375.22 375.48 374.11 370.23 373.43 365.33 C 370.46 367.47 366.87 368.04 363.29 367.70 C 360.51 369.93 357.01 371.98 353.32 370.72 C 351.52 369.50 350.85 367.15 349.06 365.91 C 347.59 364.90 345.85 364.36 344.12 364.01 C 343.38 365.36 343.10 366.89 342.75 368.38 C 344.20 368.30 345.65 368.22 347.11 368.14 C 345.95 370.50 345.16 373.39 342.70 374.74 C 339.91 376.49 336.45 376.20 333.45 377.38 C 330.91 378.38 328.27 379.08 325.67 379.89 C 324.68 382.98 326.21 386.07 326.96 389.03 C 327.86 391.90 327.88 394.92 327.97 397.90 C 324.20 398.05 320.44 398.05 316.68 397.77 C 315.75 396.62 315.20 395.01 313.89 394.26 C 310.41 393.68 306.83 394.35 303.37 393.67 C 301.42 392.76 300.32 390.72 298.91 389.18 C 296.32 389.64 293.47 390.53 291.09 388.89 C 287.79 386.92 283.82 387.03 280.32 385.61 C 274.70 382.88 268.31 384.44 262.31 383.85 C 261.40 382.66 260.50 381.47 259.60 380.27 C 258.89 381.99 258.64 384.03 257.32 385.43 C 252.71 386.64 247.86 385.93 243.16 385.86 C 243.36 379.37 241.31 373.08 241.58 366.59 C 241.41 358.02 241.54 349.44 241.50 340.87 C 222.60 350.11 203.76 359.46 184.95 368.88 C 185.06 377.55 184.94 386.22 185.05 394.90 C 184.75 396.45 185.43 398.79 183.59 399.58 C 182.28 400.32 180.87 400.83 179.48 401.40 C 180.88 402.36 182.27 403.34 183.65 404.32 C 181.72 405.92 179.85 408.49 177.00 407.92 C 172.70 407.24 167.75 404.65 163.88 408.01 C 159.51 405.35 155.36 402.34 151.18 399.38 C 140.43 391.08 130.40 381.80 121.68 371.36 C 112.48 360.72 105.02 348.74 98.12 336.53 C 95.46 330.50 92.47 324.61 90.31 318.37 C 90.57 317.77 91.10 316.56 91.37 315.95 C 93.00 317.91 94.02 320.23 94.62 322.69 C 95.00 322.94 95.75 323.45 96.13 323.70 C 97.76 322.33 99.39 320.98 101.05 319.65 C 102.23 320.01 103.42 320.35 104.63 320.62 C 115.20 314.09 124.25 304.96 135.83 300.11 C 135.00 301.99 133.66 303.85 133.87 306.01 C 133.85 308.35 136.41 309.05 137.99 310.16 C 137.97 306.16 137.78 302.17 137.58 298.18 C 138.68 298.43 139.79 298.68 140.89 298.94 C 140.67 308.10 140.22 317.33 141.18 326.46 C 141.56 325.44 141.89 324.41 142.18 323.37 C 143.93 317.29 142.47 310.90 143.44 304.71 C 144.44 310.18 143.57 315.77 144.46 321.26 C 144.77 319.45 145.06 317.64 145.35 315.84 C 150.00 314.27 153.70 310.95 157.36 307.82 C 155.90 307.30 154.45 306.77 153.01 306.23 C 155.34 305.48 157.89 305.86 160.19 305.17 C 162.46 303.37 164.75 301.45 167.88 301.98 C 165.57 303.61 163.30 305.32 161.29 307.33 C 162.80 307.50 164.33 308.21 165.87 307.89 C 167.59 306.60 168.71 304.72 169.89 302.96 C 172.94 298.07 176.65 293.64 179.80 288.82 C 181.24 286.98 182.44 284.38 185.03 284.03 C 191.60 282.57 198.40 283.13 205.05 282.23 C 212.61 281.86 220.12 280.39 227.70 280.74 C 224.96 282.47 221.97 283.73 218.90 284.75 C 223.26 284.91 227.63 285.26 231.99 285.03 C 235.32 284.85 238.29 283.21 241.33 282.01 C 242.30 287.20 246.79 290.45 251.11 292.84 C 251.43 292.74 252.07 292.52 252.39 292.42 C 253.35 288.57 252.22 283.49 256.09 280.99 C 259.81 279.57 262.16 282.65 263.49 285.63 C 264.67 284.73 265.85 283.84 267.04 282.95 C 267.59 283.92 268.15 284.88 268.71 285.85 C 268.88 283.81 269.04 281.76 269.22 279.72 C 269.93 279.43 270.64 279.15 271.36 278.87 C 271.26 269.23 271.82 259.57 271.17 249.94 C 281.83 253.28 292.72 258.31 299.62 267.44 C 306.77 276.98 305.73 291.16 297.89 300.01 C 288.13 311.51 275.46 320.03 263.55 329.12 C 263.46 337.91 263.50 346.69 263.52 355.47 C 279.26 345.35 296.24 336.83 310.18 324.14 C 318.90 316.20 325.72 305.87 328.15 294.21 C 330.30 283.72 329.37 272.58 325.35 262.65 C 326.00 262.62 327.32 262.58 327.97 262.56 C 328.64 264.20 328.92 265.98 329.33 267.71 C 330.03 267.63 330.75 267.56 331.47 267.49 C 331.62 268.63 331.78 269.78 332.02 270.92 C 333.04 271.57 334.15 272.06 335.25 272.60 C 335.38 273.21 335.52 273.82 335.66 274.43 C 337.10 276.24 338.05 278.36 338.65 280.60 C 339.32 281.40 340.00 282.20 340.68 283.01 C 341.24 286.58 342.50 289.97 344.13 293.18 C 345.42 291.38 346.20 289.29 346.01 287.06 C 345.64 276.42 347.46 265.86 347.10 255.22 C 347.82 255.85 348.55 256.49 349.28 257.12 C 349.14 273.77 348.83 290.42 349.20 307.07 C 349.20 313.76 349.58 320.45 349.28 327.15 C 349.61 327.90 348.66 330.10 349.62 330.53 C 349.94 300.35 349.63 270.09 349.74 239.88 C 350.12 235.25 350.13 230.59 350.36 225.95 C 351.29 229.53 352.13 233.15 353.59 236.56 C 354.52 235.66 355.47 234.76 356.40 233.86 C 357.61 234.05 358.83 234.26 360.06 234.37 C 360.33 232.89 360.40 231.38 360.53 229.89 C 361.45 230.78 362.38 231.66 363.33 232.54 C 365.95 232.41 368.58 232.49 371.20 232.76 C 371.25 241.51 371.08 250.25 371.25 258.99 C 371.12 260.94 373.04 262.63 374.95 262.48 C 379.63 262.64 384.32 262.44 389.01 262.51 C 389.78 261.72 390.55 260.92 391.33 260.14 C 391.22 247.09 391.48 234.03 391.19 220.98 M 130.29 313.23 C 130.77 313.76 130.77 313.76 130.29 313.23 M 380.26 319.25 C 380.75 319.78 380.75 319.78 380.26 319.25 M 366.11 323.12 C 364.89 324.60 367.52 326.19 368.50 324.72 C 369.66 323.25 367.09 321.67 366.11 323.12 M 355.52 359.60 C 355.51 360.80 355.64 362.04 356.99 362.55 C 358.20 362.25 358.78 361.52 358.74 360.35 C 358.00 359.17 356.65 359.54 355.52 359.60 Z" />
</g>
<g id="#5c2c61ff">
<path fill="#5c2c61" opacity="1.00" d=" M 93.18 247.07 C 94.80 246.56 95.35 247.11 94.83 248.74 C 93.20 249.25 92.65 248.70 93.18 247.07 Z" />
</g>
<g id="#aa3ecaff">
<path fill="#aa3eca" opacity="1.00" d=" M 180.36 266.82 C 181.20 267.58 182.04 268.35 182.89 269.13 C 181.45 270.74 179.72 271.00 178.30 269.22 C 178.81 268.62 179.85 267.42 180.36 266.82 Z" />
</g>
<g id="#321370ff">
<path fill="#321370" opacity="1.00" d=" M 78.41 296.35 C 78.15 290.99 80.01 285.88 80.64 280.62 C 82.60 293.48 85.57 306.23 90.31 318.37 C 92.47 324.61 95.46 330.50 98.12 336.53 C 98.59 342.32 102.67 346.87 103.68 352.51 C 104.00 355.35 106.22 357.17 108.33 358.81 C 108.55 360.98 108.97 363.13 109.61 365.23 C 110.27 365.37 110.94 365.52 111.60 365.68 C 111.53 366.42 111.45 367.17 111.38 367.92 C 112.98 369.66 114.62 371.54 114.79 374.02 C 115.19 377.72 117.72 380.74 118.03 384.47 C 116.82 385.45 115.63 386.44 114.45 387.44 C 115.78 389.06 117.76 389.63 119.76 389.91 C 120.08 390.83 120.40 391.76 120.73 392.69 C 120.08 392.68 119.44 392.67 118.79 392.68 C 116.33 394.95 113.70 397.07 111.64 399.75 C 110.92 400.73 109.77 401.84 108.45 401.25 C 104.29 399.41 101.46 395.62 97.76 393.07 C 93.74 389.46 90.84 384.80 87.50 380.59 C 77.99 367.38 69.46 353.25 63.58 338.03 C 64.21 338.57 64.84 339.10 65.48 339.63 C 66.23 336.85 67.53 334.26 69.39 332.05 C 69.66 332.71 70.20 334.03 70.47 334.69 C 73.20 334.05 76.61 333.46 77.25 330.17 C 78.53 328.09 76.84 326.21 75.76 324.51 C 77.61 322.71 79.79 320.73 79.69 317.90 C 80.34 313.38 78.59 309.12 77.46 304.86 C 77.77 302.02 78.59 299.23 78.41 296.35 Z" />
</g>
<g id="#6a4072ff">
<path fill="#6a4072" opacity="1.00" d=" M 141.51 293.99 C 142.36 303.76 141.96 313.58 142.18 323.37 C 141.89 324.41 141.56 325.44 141.18 326.46 C 140.22 317.33 140.67 308.10 140.89 298.94 C 141.05 297.28 141.28 295.63 141.51 293.99 Z" />
</g>
<g id="#4C6FFFff">
<path fill="#4C6FFF" opacity="1.00" d=" M 498.18 298.08 C 501.73 294.86 506.60 295.76 510.99 295.71 C 517.29 295.75 523.60 295.61 529.91 295.79 C 543.58 309.90 557.40 323.87 571.13 337.92 C 585.75 352.97 600.93 367.56 613.91 384.09 C 612.04 355.41 612.88 326.66 612.73 297.94 C 617.07 294.37 622.88 296.06 628.00 295.72 C 632.83 295.97 638.30 294.52 642.37 297.92 C 642.43 337.28 642.43 376.64 642.37 416.01 C 640.43 417.16 638.42 418.45 636.06 418.19 C 628.67 418.11 621.29 418.26 613.91 418.12 C 612.52 418.27 611.72 416.93 610.79 416.19 C 595.10 399.87 579.31 383.66 563.59 367.38 C 550.97 354.55 538.59 341.46 526.99 327.70 C 528.46 357.08 527.71 386.50 527.92 415.90 C 523.73 419.44 518.05 417.85 513.05 418.16 C 508.05 417.85 502.33 419.46 498.18 415.82 C 498.22 376.58 498.23 337.33 498.18 298.08 Z" />
<path fill="#4C6FFF" opacity="1.00" d=" M 693.99 297.97 C 698.24 294.42 703.95 296.01 709.01 295.72 C 714.36 296.12 720.44 294.28 724.99 297.95 C 725.09 332.19 724.84 366.43 725.12 400.67 C 749.07 400.48 773.03 400.65 796.99 400.58 C 799.27 400.30 801.05 401.89 802.85 403.04 C 802.76 407.31 802.78 411.59 802.80 415.86 C 801.01 416.89 799.27 418.38 797.08 418.17 C 767.05 418.16 737.01 418.16 706.98 418.16 C 702.56 418.08 697.67 419.04 694.00 415.95 C 694.00 376.62 694.01 337.30 693.99 297.97 Z" />
<path fill="#4C6FFF" opacity="1.00" d=" M 839.42 298.19 C 843.08 294.56 848.39 295.90 853.02 295.71 C 857.63 295.84 862.28 295.42 866.88 295.89 C 868.21 296.58 870.36 297.30 870.49 299.05 C 870.57 337.94 870.39 376.83 870.58 415.72 C 868.86 416.81 867.19 418.37 865.01 418.16 C 858.33 418.18 851.65 418.18 844.98 418.16 C 842.79 418.38 841.14 416.81 839.43 415.74 C 839.53 376.56 839.56 337.37 839.42 298.19 Z" />
<path fill="#4C6FFF" opacity="1.00" d=" M 922.05 298.07 C 925.65 294.80 930.60 295.78 935.04 295.71 C 940.70 295.77 946.37 295.61 952.04 295.73 C 953.46 295.53 954.48 296.65 955.43 297.53 C 974.20 316.76 993.05 335.92 1011.85 355.13 C 1020.99 364.37 1029.71 374.02 1037.87 384.14 C 1035.75 355.45 1036.86 326.66 1036.62 297.93 C 1040.67 294.49 1046.14 295.98 1050.99 295.72 C 1056.10 296.06 1061.91 294.37 1066.25 297.93 C 1066.33 337.28 1066.30 376.62 1066.26 415.97 C 1064.33 417.11 1062.32 418.45 1059.98 418.19 C 1052.64 418.12 1045.29 418.23 1037.96 418.14 C 1036.54 418.30 1035.63 417.09 1034.72 416.27 C 1017.89 398.77 1000.96 381.38 984.09 363.93 C 972.61 352.28 961.49 340.26 950.91 327.78 C 952.21 357.13 951.70 386.52 951.79 415.89 C 947.62 419.44 941.97 417.86 937.00 418.16 C 931.98 417.86 926.33 419.42 922.10 415.94 C 922.06 376.65 922.16 337.36 922.05 298.07 Z" />
<path fill="#4C6FFF" opacity="1.00" d=" M 1117.84 297.97 C 1119.72 296.82 1121.66 295.40 1124.02 295.69 C 1155.34 295.74 1186.67 295.70 1217.99 295.71 C 1220.25 295.44 1222.00 297.07 1223.75 298.24 C 1223.61 302.43 1223.61 306.62 1223.74 310.81 C 1221.98 311.94 1220.25 313.55 1218.01 313.30 C 1194.99 313.26 1171.96 313.35 1148.93 313.24 C 1148.75 324.05 1148.58 334.88 1149.03 345.68 C 1170.70 345.50 1192.37 345.63 1214.05 345.60 C 1216.14 345.42 1217.79 346.88 1219.51 347.84 C 1219.50 352.22 1219.53 356.60 1219.45 360.97 C 1217.73 361.88 1216.07 363.17 1214.03 362.99 C 1192.29 363.02 1170.55 362.98 1148.81 363.01 C 1148.93 375.56 1148.48 388.14 1149.04 400.68 C 1173.03 400.46 1197.03 400.69 1221.03 400.57 C 1223.42 400.39 1226.27 401.14 1227.54 403.32 C 1227.89 407.47 1227.52 411.65 1227.71 415.82 C 1225.94 416.90 1224.20 418.42 1221.99 418.17 C 1189.35 418.17 1156.72 418.14 1124.09 418.18 C 1121.73 418.45 1119.76 417.10 1117.85 415.98 C 1117.81 376.64 1117.85 337.31 1117.84 297.97 Z" />
</g>
<g id="#6b4078ff">
<path fill="#6b4078" opacity="1.00" d=" M 130.29 313.23 C 130.77 313.76 130.77 313.76 130.29 313.23 Z" />
</g>
<g id="#895b99ff">
<path fill="#895b99" opacity="1.00" d=" M 380.26 319.25 C 380.75 319.78 380.75 319.78 380.26 319.25 Z" />
</g>
<g id="#883e9eff">
<path fill="#883e9e" opacity="1.00" d=" M 366.11 323.12 C 367.09 321.67 369.66 323.25 368.50 324.72 C 367.52 326.19 364.89 324.60 366.11 323.12 Z" />
</g>
<g id="#4C6FFFff">
<path fill="#4C6FFF" opacity="1.00" d=" M 98.12 336.53 C 105.02 348.74 112.48 360.72 121.68 371.36 C 130.40 381.80 140.43 391.08 151.18 399.38 C 151.61 402.20 153.67 403.97 156.21 404.94 C 157.31 407.54 157.72 411.03 160.60 412.34 C 164.51 414.35 168.47 416.31 172.58 417.88 C 173.11 419.21 173.65 420.54 174.00 421.95 C 173.44 424.14 171.07 425.09 169.58 426.58 C 171.72 427.23 173.69 426.29 175.45 425.13 C 179.18 426.16 180.20 430.15 181.88 433.15 C 179.38 435.98 177.66 439.37 175.43 442.39 C 173.37 442.99 171.21 443.08 169.10 443.33 C 170.18 443.90 171.26 444.49 172.34 445.08 C 171.26 445.93 170.18 446.77 169.10 447.63 C 144.38 436.06 121.86 419.74 103.25 399.77 C 101.25 397.69 99.24 395.57 97.76 393.07 C 101.46 395.62 104.29 399.41 108.45 401.25 C 109.77 401.84 110.92 400.73 111.64 399.75 C 113.70 397.07 116.33 394.95 118.79 392.68 C 119.44 392.67 120.08 392.68 120.73 392.69 C 120.40 391.76 120.08 390.83 119.76 389.91 C 117.76 389.63 115.78 389.06 114.45 387.44 C 115.63 386.44 116.82 385.45 118.03 384.47 C 117.72 380.74 115.19 377.72 114.79 374.02 C 114.62 371.54 112.98 369.66 111.38 367.92 C 111.45 367.17 111.53 366.42 111.60 365.68 C 110.94 365.52 110.27 365.37 109.61 365.23 C 108.97 363.13 108.55 360.98 108.33 358.81 C 106.22 357.17 104.00 355.35 103.68 352.51 C 102.67 346.87 98.59 342.32 98.12 336.53 Z" />
</g>
<g id="#fefefeff">
<path fill="#fefefe" opacity="1.00" d=" M 184.95 368.88 C 203.76 359.46 222.60 350.11 241.50 340.87 C 241.54 349.44 241.41 358.02 241.58 366.59 C 222.87 376.29 203.87 385.41 185.05 394.90 C 184.94 386.22 185.06 377.55 184.95 368.88 Z" />
</g>
<g id="#4C6FFFff">
<path fill="#4C6FFF" opacity="1.00" d=" M 403.49 353.54 C 406.19 352.29 408.93 350.76 412.02 350.95 C 418.68 351.14 425.47 350.35 431.99 352.15 C 430.11 360.66 425.95 368.42 422.14 376.19 C 417.77 383.23 413.73 390.64 407.38 396.17 C 407.77 396.66 408.17 397.16 408.57 397.67 C 408.09 397.85 407.13 398.20 406.64 398.38 C 406.75 399.34 406.84 400.31 406.93 401.29 C 376.55 434.24 335.03 456.82 290.90 464.71 C 290.48 464.28 289.64 463.44 289.22 463.01 C 306.20 448.06 323.34 433.31 340.26 418.30 C 345.05 413.91 350.58 410.17 354.07 404.56 C 366.19 395.57 377.82 385.80 387.70 374.34 C 393.46 367.80 398.66 360.79 403.49 353.54 Z" />
</g>
<g id="#2D3958ff">
<path fill="#2D3958" opacity="1.00" d=" M 344.12 364.01 C 345.85 364.36 347.59 364.90 349.06 365.91 C 350.85 367.15 351.52 369.50 353.32 370.72 C 357.01 371.98 360.51 369.93 363.29 367.70 C 366.87 368.04 370.46 367.47 373.43 365.33 C 374.11 370.23 375.22 375.48 379.24 378.80 C 380.10 376.68 381.11 374.45 383.58 373.94 C 383.99 373.35 384.41 372.77 384.83 372.20 C 385.78 372.91 386.74 373.62 387.70 374.34 C 377.82 385.80 366.19 395.57 354.07 404.56 C 341.64 412.51 328.66 419.73 314.71 424.68 C 297.62 430.94 279.48 434.22 261.28 434.61 C 238.45 435.30 215.46 431.57 194.12 423.36 C 183.57 419.27 173.44 414.08 163.88 408.01 C 167.75 404.65 172.70 407.24 177.00 407.92 C 179.85 408.49 181.72 405.92 183.65 404.32 C 182.27 403.34 180.88 402.36 179.48 401.40 C 180.87 400.83 182.28 400.32 183.59 399.58 C 185.43 398.79 184.75 396.45 185.05 394.90 C 203.87 385.41 222.87 376.29 241.58 366.59 C 241.31 373.08 243.36 379.37 243.16 385.86 C 247.86 385.93 252.71 386.64 257.32 385.43 C 258.64 384.03 258.89 381.99 259.60 380.27 C 260.50 381.47 261.40 382.66 262.31 383.85 C 268.31 384.44 274.70 382.88 280.32 385.61 C 283.82 387.03 287.79 386.92 291.09 388.89 C 293.47 390.53 296.32 389.64 298.91 389.18 C 300.32 390.72 301.42 392.76 303.37 393.67 C 306.83 394.35 310.41 393.68 313.89 394.26 C 315.20 395.01 315.75 396.62 316.68 397.77 C 320.44 398.05 324.20 398.05 327.97 397.90 C 327.88 394.92 327.86 391.90 326.96 389.03 C 326.21 386.07 324.68 382.98 325.67 379.89 C 328.27 379.08 330.91 378.38 333.45 377.38 C 336.45 376.20 339.91 376.49 342.70 374.74 C 345.16 373.39 345.95 370.50 347.11 368.14 C 345.65 368.22 344.20 368.30 342.75 368.38 C 343.10 366.89 343.38 365.36 344.12 364.01 Z" />
</g>
<g id="#4C6FFFff">
<path fill="#4C6FFF" opacity="1.00" d=" M 151.18 399.38 C 155.36 402.34 159.51 405.35 163.88 408.01 C 173.44 414.08 183.57 419.27 194.12 423.36 C 193.36 423.69 191.84 424.36 191.08 424.70 C 192.18 426.60 194.00 427.90 195.65 429.31 C 199.86 432.73 203.71 436.58 207.71 440.24 C 215.79 447.89 224.74 454.56 232.79 462.25 C 234.48 463.86 236.37 465.26 238.39 466.46 C 214.40 464.61 190.85 457.82 169.10 447.63 C 170.18 446.77 171.26 445.93 172.34 445.08 C 171.26 444.49 170.18 443.90 169.10 443.33 C 171.21 443.08 173.37 442.99 175.43 442.39 C 177.66 439.37 179.38 435.98 181.88 433.15 C 180.20 430.15 179.18 426.16 175.45 425.13 C 173.69 426.29 171.72 427.23 169.58 426.58 C 171.07 425.09 173.44 424.14 174.00 421.95 C 173.65 420.54 173.11 419.21 172.58 417.88 C 168.47 416.31 164.51 414.35 160.60 412.34 C 157.72 411.03 157.31 407.54 156.21 404.94 C 153.67 403.97 151.61 402.20 151.18 399.38 Z" />
</g>
<g id="#4C6FFFff">
<path fill="#4C6FFF" opacity="1.00" d=" M 314.71 424.68 C 328.66 419.73 341.64 412.51 354.07 404.56 C 350.58 410.17 345.05 413.91 340.26 418.30 C 323.34 433.31 306.20 448.06 289.22 463.01 C 282.15 455.64 273.78 449.64 266.72 442.25 C 264.58 439.96 261.53 438.02 261.28 434.61 C 279.48 434.22 297.62 430.94 314.71 424.68 Z" />
</g>
<g id="#4C6FFFff">
<path fill="#4C6FFF" opacity="1.00" d=" M 191.08 424.70 C 191.84 424.36 193.36 423.69 194.12 423.36 C 215.46 431.57 238.45 435.30 261.28 434.61 C 261.53 438.02 264.58 439.96 266.72 442.25 C 273.78 449.64 282.15 455.64 289.22 463.01 C 289.64 463.44 290.48 464.28 290.90 464.71 C 273.55 467.21 255.84 468.59 238.39 466.46 C 236.37 465.26 234.48 463.86 232.79 462.25 C 224.74 454.56 215.79 447.89 207.71 440.24 C 203.71 436.58 199.86 432.73 195.65 429.31 C 194.00 427.90 192.18 426.60 191.08 424.70 Z" />
</g>
</svg>
